<?xml version="1.0" standalone="no"?><!DOCTYPE svg PUBLIC "-//W3C//DTD SVG 1.1//EN" "http://www.w3.org/Graphics/SVG/1.1/DTD/svg11.dtd"><svg t="1784387239007" class="icon" viewBox="0 0 1024 1024" version="1.1" xmlns="http://www.w3.org/2000/svg" p-id="17444" xmlns:xlink="http://www.w3.org/1999/xlink" width="200" height="200"><path d="M931.2 331.2L695.2 100.8c-4.8-4-10.4-7.2-16.8-7.2H345.6c-6.4 0-12 2.4-16.8 7.2L92.8 331.2c-4.8 4.8-7.2 10.4-7.2 16.8v326.4c0 6.4 2.4 12.8 7.2 16.8l236 231.2c4.8 4 10.4 7.2 16.8 7.2h333.6c6.4 0 12-2.4 16.8-7.2l236-231.2c4.8-4.8 7.2-10.4 7.2-16.8V348.8c-0.8-6.4-3.2-12.8-8-17.6z m-40.8 37.6h-84v-44.8c0-4.8-3.2-8-8-8h-47.2v-45.6h48.8l90.4 88.8v9.6z m0 284h-16.8V384.8h16.8v268z m-104 114.4h-44.8v-45.6h47.2c4.8 0 8-3.2 8-8v-44.8h90.4L786.4 767.2z m-16.8 16l-28.8 28v-28h28.8z m-470.4-3.2h27.2v74.4l-27.2-26.4v-48z m-16 32l-32.8-32.8h32.8v32.8z m-39.2-147.2h39.2v36.8h-39.2v-36.8z m47.2-16h-47.2v-36.8h82.4v89.6h-27.2v-44.8c0-4-3.2-8-8-8z m-157.6 0V380.8h17.6v268h-17.6z m84.8-268v36.8H168v-36.8h50.4z m63.2 0c4.8 0 8-3.2 8-8V328h36.8v89.6H234.4v-36.8h47.2z m-47.2-16V328h39.2v36.8h-39.2z m55.2-159.2l36.8-36v80.8h-36.8v-44.8z m-16 44.8h-29.6l29.6-28.8v28.8zM167.2 596V433.6h159.2v162.4H167.2z m159.2-329.6V312h-36.8v-45.6h36.8zM167.2 612h60.8v36.8h-60.8v-36.8z m159.2 105.6v45.6h-27.2v-45.6h27.2z m48-576h268v740.8H374.4V141.6z m416 227.2h-39.2v-36.8h39.2v36.8z m-47.2 16h47.2v36.8H690.4V332h44.8v44.8c0 4.8 3.2 8 8 8z m52.8 268V616h60.8v36.8h-60.8z m-63.2 0c-4.8 0-8 3.2-8 8v44.8h-34.4V616h89.6v36.8h-47.2z m47.2 16v36.8h-39.2v-36.8h39.2z m76.8-231.2V600H690.4V437.6h166.4z m0-16h-50.4v-36.8h50.4v36.8zM690.4 316v-45.6h44.8v45.6h-44.8z m0 405.6h34.4v45.6h-34.4v-45.6z m60.8-467.2v-32l32.8 32h-32.8z m-16-48v48h-44.8V163.2l44.8 43.2z m-507.2 60h45.6V312h-47.2c-4.8 0-8 3.2-8 8v44.8H133.6v-6.4l94.4-92zM133.6 664.8h94.4v44.8c0 4.8 3.2 8 8 8h47.2v45.6h-49.6L133.6 664.8z m556.8 196v-77.6h34.4v44l-34.4 33.6z" fill="#3A363A" p-id="17445"></path></svg>