<?xml version="1.0" standalone="no"?><!DOCTYPE svg PUBLIC "-//W3C//DTD SVG 1.1//EN" "http://www.w3.org/Graphics/SVG/1.1/DTD/svg11.dtd"><svg t="1784481165344" class="icon" viewBox="0 0 2859 1024" version="1.1" xmlns="http://www.w3.org/2000/svg" p-id="18438" xmlns:xlink="http://www.w3.org/1999/xlink" width="558.3984375" height="200"><path d="M2859.577351 359.998589v335.071441c-89.773858 0-162.748986-74.962074-162.748986-167.626036s72.975128-167.626036 162.748986-167.626037z m-219.286647-92.663962c-1.625684-19.327571 20.050097-23.482096 32.874934-32.333039l5.599576-4.877051 4.877051-6.863997c3.793262-7.22526 4.154525-16.618098-0.541895-27.817252-8.850944-20.050097-32.694302-23.301464-51.841241-21.495149-40.82272 5.96084-63.401658 39.738931-90.496384 65.749868-7.22526 4.877051-19.327571 6.683366-28.901041 4.154524-63.58229-29.262304-116.687952-85.25807-190.9275-74.600811-18.605045 2.709473-37.390721 9.57347-55.634504 21.856412-10.115364 6.502734-20.772623 10.657259-31.068619 12.644205l-10.83789 1.445052-9.754101 1.264421h-9.57347c-15.895572 0.903158-31.791145-3.070736-47.506086-8.309049l-9.754101-3.61263c-34.139354-13.547363-83.99365-22.578938-111.449638 13.366731 38.835774-16.076204 64.124184 11.921679 91.21891 32.694302l8.850943 5.599577c18.605045 11.921679 39.919563 17.159993 64.666079 16.79873h10.657259l10.115364-0.361263 9.57347-1.986947 9.754101-2.709472c19.688834-6.141471 40.280826-14.631152 61.775975-11.560417 52.383136 9.031575 55.092609 70.626918 94.83154 96.818487 25.649674 15.534309 54.911977 1.806315 76.768389-14.631152 1.264421 34.500617 28.720409 72.433233 64.666079 70.988181 31.068619-3.793262 44.254719-35.403775 59.247133-59.608396 18.424413 17.882519 37.029458 40.642089 63.221027 39.016405 50.215558-0.722526 82.909861-51.479979 74.962074-100.79238 33.055565 11.018522 61.414712 19.327571 88.690069-9.212207 19.327571-20.953255 22.75957-53.647557 4.335156-70.626918l-9.031575-5.96084-10.115364-5.057682-10.295996-5.238313c-17.340624-10.657259-35.945669-21.133886-55.092609-21.675781-24.02399 1.625684-39.197037 28.359146-33.778091 50.034927l-2.709473 11.199153-7.586523 20.772623-3.070736 6.141471-5.599576 8.30905c-10.657259 14.45052-29.623567 13.908626-45.51914 12.282942l-5.599576-1.986947zM0 695.07003V359.998589c89.773858 0 162.568354 74.962074 162.568354 167.626036s-72.794496 167.445405-162.568354 167.445405zM2859.577351 86.883754H0V0h2859.577351v86.883754zM0 937.116246h2859.577351v86.883754H0v-86.883754z m1309.217146-693.624978c-12.282942-68.098077 66.111131-114.701005 124.635738-125.719527l14.269889 0.903158c14.269889 2.34821 28.539778 7.586523 42.087141 16.79873l18.785676 12.644205a128.248368 128.248368 0 0 1 29.98483 35.584406l9.754101 13.366732c5.96084 9.57347 10.657259 20.772623 13.366731 34.139354 0 6.322103 9.031575 18.605045 18.063151 12.463574a114.990016 114.990016 0 0 1 105.850062-5.780208c31.971776 14.269889 56.898924 42.990298 62.859763 80.200388 6.141471 24.927148-21.133886 74.42018 9.031575 65.207973l35.584407-8.489681 12.644205-1.806315c45.157876-11.560416 102.237432 19.508203 112.533428 65.749868l3.431998 12.824837c4.515788 21.856412 3.070736 44.796613-4.335156 65.207973l-5.780208 10.83789-8.309049 7.405892-67.19492 37.751984c12.102311 6.141471 33.055565 6.141471 36.487564 24.204622l-0.541895 9.754101c-14.992415 58.885871-57.079555 117.952373-123.371317 124.093844-33.236197 6.141471-60.150291-12.463574-81.284177-34.139354-48.228612 55.995766-135.473629 59.066502-180.631505 6.141471l-6.322103-7.947787-5.418945-8.48968-12.463574-23.301464-4.696419-12.282943-3.431998-13.005468c-0.903158-24.927148-13.005468-55.995766 4.87705-80.742283l5.780208-6.863997 6.683366-5.780208c32.152408-39.738931 87.425648-62.317869 132.944788-46.964191 9.031575 3.070736 17.701887 7.767155 25.830305 13.908626 7.947786 6.141471 15.173046 14.269889 21.856412 23.843358 5.057682 8.128418 7.044629 16.79873 7.044628 25.288411-0.180632 16.979361-9.031575 33.416828-18.966308 45.880402-21.314518 21.856412-54.189451 12.463574-72.433233-9.392838-8.850944 9.392838-27.094726 21.675781-14.992415 34.139354 24.02399 27.997883 66.291762 34.139354 99.527959 15.53431 20.953255-12.463574 38.293879-35.584406 45.157876-60.872817l3.070736-25.649674c-12.102311-40.642089-42.267772-71.710707-60.692186-107.837008l-6.141471-21.133886c-1.986947-14.992415-0.903158-32.333039 0.361263-54.731346 3.070736-34.139354-30.165461-93.025225-69.181866-83.813018 33.236197 40.280826 42.087141 90.135121 24.204622 133.486682-12.102311 27.997883-48.228612 34.139354-78.394073 37.390721 18.06315-68.278709-14.992415-136.557418-75.323338-170.696772-42.087141-21.675781-75.142706 6.141471-110.546481 22.217675-3.070736 0-2.709473 9.392838-8.850943 9.392838-9.934733 16.979361-19.688834 35.584406-20.230729 54.731346l0.541895 11.560417 3.793261 11.560416c2.890104 11.741048 8.850944 20.953255 17.882519 30.165461 9.031575 6.141471 24.02399 12.463574 26.914094-1.625683l0.722526-8.128418-2.167578-9.392838-1.806315-11.741048c-3.070736-19.327571-5.780208-38.47451 18.785677-50.034927l-6.141471-3.070735c24.204622-18.605045 54.189451-15.534309 78.394073 0 27.094726 15.534309 42.267772 37.390721 44.977244 65.207973 3.973893 19.327571 6.502734 43.532193-0.903157 62.137237l-5.599577 10.295996c-13.547363 16.437467-31.24925 29.262304-50.39619 35.403775l-11.560416 2.890104-12.282942 0.361263-12.102311-0.541894-11.560416-2.34821-10.115365-4.335156-10.83789-7.044629c-27.997883-19.146939-61.23408-16.076204-88.328806-25.469042l3.070736 6.322103c-15.173046-6.322103-27.094726-18.605045-39.377668-27.817252l-11.560417-8.670312c-48.409243-39.738931-65.207973-111.269007-42.448403-165.277827 4.515788-11.560416 11.921679-21.675781 21.314517-29.98483l15.353678-10.83789 15.173047-8.850944 16.256835-3.431998c22.217675-2.709473 46.241665 6.502734 67.556183 6.502734zM139.26689 210.435703c5.057682-21.856412-10.115364-48.409243-33.958723-50.034927-19.146939 0.722526-37.932616 11.199153-55.27324 21.675781l-10.115364 5.238313-10.115365 5.057682-9.031575 5.96084c-18.424413 16.79873-14.992415 49.673664 4.515788 70.626918 27.094726 28.539778 55.634503 20.230729 88.509437 9.212207-7.767155 49.312401 24.746516 100.069854 74.962074 100.79238 26.191568 1.625684 44.796613-21.314518 63.401659-39.016405 15.173046 24.204622 27.997883 55.815135 59.247133 59.608396 35.945669 1.264421 63.401658-36.668195 64.666079-70.988181 22.037044 16.437467 51.299347 30.165461 76.949021 14.631152 39.5583-26.010937 42.629035-87.60628 94.650908-96.818487 21.495149-3.070736 42.087141 5.418945 61.595343 11.560417l9.754102 2.709472 9.573469 1.986947 10.115365 0.541894h10.657258c24.565885 0.361263 46.061034-5.057682 64.666079-16.79873l8.850944-5.599576c27.094726-20.772623 52.383136-48.589875 91.038278-32.694303-27.455989-35.945669-77.310284-27.094726-111.449638-13.366731l-9.392839 3.61263c-15.714941 5.238314-31.791145 9.212207-47.506085 8.489681h-9.754102l-9.754101-1.445052-10.657259-1.445052a87.064385 87.064385 0 0 1-31.24925-12.644206c-18.424413-12.282942-37.029458-19.146939-55.815135-21.856412-74.239548-10.657259-127.345211 45.338508-190.9275 74.600812-9.57347 2.709473-21.495149 0.722526-28.901041-4.154525-27.094726-26.010937-49.673664-59.789028-90.496384-65.749867-19.146939-1.986947-42.990298 1.445052-51.841242 21.495149-4.515788 11.199153-3.973893 20.591992-0.361263 27.817251l4.696419 6.863997 5.780209 4.877051c13.005468 8.850944 34.500617 13.005468 33.055565 32.333039l-5.780208 1.986947c-15.714941 1.625684-34.86188 2.34821-45.338508-12.282942l-5.418945-8.30905-3.251367-6.141471-7.586523-20.772623-2.528841-11.199153z m1832.325984 98.263538c5.96084 6.141471 11.921679 9.392838 21.133886 9.392839-3.070736-24.927148 14.992415-52.925031 41.906509-52.925031l11.560416-0.903158c26.191568-1.806315 52.021873 0.361263 72.975128 16.618099l9.57347 14.811783 1.986946 7.947786c3.431999 23.662727-14.631152 57.802081 15.353678 73.336391 12.102311 3.070736 24.204622-6.141471 35.765038-10.83789l8.850944-3.793262 11.921679-2.709472 12.824837 1.806315c9.031575 0 14.992415 9.392838 21.133886 12.463574l6.683366 14.631152 1.806315 7.947786c-2.528841 42.629035 21.675781 89.051332 66.472393 89.412595h27.094726l25.288411-2.709473c25.830305-3.070736 51.299347-7.044629 76.407126-7.22526l11.199153 0.361263 10.837891 2.890104 13.1861 2.709472 10.476627 3.431999c17.159993 6.141471 32.694302 16.256835 44.615981 30.165461l7.767155 8.670313 7.044629 9.212206 5.780208 12.644206 4.877051 13.547362 11.379784 25.469043-16.618098-20.953255-8.128418-11.199153-9.392838-10.115364c-26.733463-16.076204-58.343976-20.953255-89.773858-16.076204l-13.366731 2.528841c-19.327571 3.070736-34.500617 15.353678-49.312401 22.398306l-10.657259 8.309049-9.754101 11.199154c-12.463574 15.353678-23.120833 31.971776-32.152408 48.04798l-4.87705 9.031575-7.044629 11.199154-6.863997 11.018521c-12.102311 17.882519-27.63662 33.416828-48.951138 46.241666-33.055565 21.675781-66.111131-6.141471-81.464809-43.351562 0 0-11.921679-3.070736-13.727994 4.69642 0 6.141471-3.070736 12.463574-0.361263 15.353677 20.230729 44.977245-18.966308 79.116599-58.163344 88.509438-45.157876 12.463574-69.362498-6.141471-87.245017-49.673664-3.070736-3.251367-12.102311-6.322103-14.992415-3.251367-14.992415 18.605045 2.890104 46.602928-11.921679 58.88587-39.197037 34.139354-93.567119 40.461457-135.65426 6.322103-17.882519-12.463574-27.094726-46.602928-9.031576-62.137238 33.236197-37.390721 60.150291-80.922914 60.150291-130.415946 0-3.070736 3.070736-12.463574 6.141472-12.463574 36.306932-18.424413 45.157876-52.563768 63.221026-86.703122 21.133886-40.461457 84.354913-31.068619 108.378903 3.070736 14.992415 18.785676 24.02399 49.673664 24.02399 74.420179 3.251367 37.390721-33.055565 59.066502-69.181866 52.7444-8.850944-3.070736-20.953255-9.212207-27.094726-24.746516-3.070736-6.141471-15.173046-15.353678-24.02399-6.141471-9.031575 12.463574-9.031575 30.887987 0 43.532192 18.06315 21.675781 45.157876 40.280826 75.142706 27.817252 30.165461-9.392838 60.330923-24.746516 72.433233-55.815135 18.06315-43.351561 18.06315-99.347328-14.992415-133.30605 0-1.625684-3.070736-3.973893-6.502734-5.780209l-8.670312-3.431998-11.379785-5.96084c-41.906509-20.230729-85.980596-27.275357-130.235315-15.714941-9.57347-48.770506-48.951138-75.503969-93.386488-94.109014l-12.10231-4.696419c-24.02399-15.895572-63.221027-6.502734-75.323338-34.500617-5.96084-16.437467 1.264421-35.945669 13.1861-48.589875l9.754101-8.309049c7.405892-5.057682 13.366731-8.309049 21.856412-7.405892h11.560417c7.044629 2.34821 16.076204 2.34821 23.301464 5.96084l11.560416 4.87705 16.79873 9.57347 8.128418 5.238314 7.767154 5.418945 12.282943 6.502734 12.102311 5.96084c17.701887 2.167578 26.552831 17.521256 38.655142 29.984829zM1767.11801 769.670841c-54.550714-41.906509-126.803316-7.767155-190.204974 7.767155-36.126301 9.392838-81.284177-12.463574-96.457224-52.925031-3.070736-9.212207-18.06315-12.282942-24.02399-3.070735-45.157876 68.45934-132.583524 49.673664-195.804551 43.532192-33.055565 0-69.181866 37.21009-114.520374 31.068619-17.882519-3.070736-17.882519 21.495149-5.960839 33.958723 44.977245 46.602928 123.371318 18.605045 150.466043 34.139354 75.323337 46.602928 192.733815 40.280826 261.915682-6.141471 9.031575-6.141471 18.06315-24.927148 24.02399-21.67578 60.330923 34.139354 126.442053 12.282942 172.141824-29.623567 8.850944-12.282942 6.141471-27.817252 18.06315-37.21009zM1148.455107 442.185923c-14.089257-43.532193-17.159993-111.810901-74.42018-114.881637-39.197037 0-78.213442 24.746516-93.386488 62.137238-11.921679 34.139354-5.96084 74.42018 12.102311 105.488799-63.221027-6.141471-120.300582 65.027342-99.347328 127.164579 11.018522 29.804198 32.694302 45.157876 57.982713 53.647557l13.005468 4.154525c31.610513 16.437467 88.8707-1.986947 82.548598 46.783559l7.405892 10.476628 9.031575 9.934732c13.1861 12.644205 30.165461 22.217675 46.964191 27.094726 54.189451 15.534309 105.308167-12.463574 135.473629-58.88587 46.78356 39.919563 120.300582 47.867349 162.929617 5.599576l9.212207-10.83789 9.934732-26.010937 4.154525-20.953254 0.903158-10.295996c-0.361263-15.353678-0.361263-37.029458-18.605045-43.351561h12.10231c-12.102311-27.997883-30.165461-58.885871-59.066502-69.001235l-13.186099-4.515788-27.094726-4.87705-11.921679 0.541894c-15.714941 1.625684-31.24925 6.502734-45.699771 13.366732l-10.295996 4.87705c-21.133886 10.83789-42.448404 28.359146-40.280825 56.35703 6.502734 46.964191 42.629035 35.945669 75.865232 30.707355l12.10231-1.625683c8.489681-1.264421 20.41136-4.515788 20.41136 11.560416l1.806315 9.754101c0 6.322103-3.070736 11.921679-13.547362 15.714941l-12.463574 7.405892-11.741048 3.973893c-30.165461 6.141471-63.221027 3.070736-87.425648-15.534309-48.04798-40.280826-18.06315-105.66943 9.031575-155.162463 12.102311-21.675781-33.055565-21.675781-45.338508-42.990298-6.322103-12.644205-15.714941-18.966308-18.785676-28.178515z m1587.0284 332.903864c7.947786-49.312401-24.746516-99.889222-74.962075-100.611749-26.191568-1.625684-44.796613 21.133886-63.221026 39.016405-14.992415-24.02399-28.178515-55.634503-59.247134-59.427765-35.945669-1.264421-63.401658 36.487564-64.666078 70.988182-22.037044-16.437467-51.118716-30.165461-76.76839-14.631152-39.738931 26.010937-42.448404 87.60628-94.83154 96.818486-21.314518 3.070736-42.087141-5.418945-61.775975-11.560416l-9.754101-2.709472-9.57347-1.986947-10.115364-0.541895-10.657259 0.361263c-24.746516-0.361263-46.241665 4.696419-64.666078 16.618099l-8.850944 5.780208c-27.094726 20.772623-52.383136 48.589875-91.21891 32.694302 27.455989 36.126301 77.310284 26.733463 111.449639 13.366732l9.754101-3.61263c15.534309-5.418945 31.610513-9.212207 47.506086-8.670313h9.573469l9.754102 1.625684 10.83789 1.445052c10.476627 1.986947 20.953255 6.141471 31.068619 12.644205 18.243782 12.282942 37.029458 19.327571 55.634503 21.856412 74.42018 10.657259 127.345211-45.338508 190.9275-74.600811 9.57347-2.709473 21.495149-0.722526 28.901041 4.154525 26.914094 26.010937 49.673664 59.789028 90.496384 65.569236 19.146939 1.806315 42.990298-1.445052 51.841242-21.314518 4.515788-11.379785 4.154525-20.41136 0.541894-27.997883l-4.87705-6.683366-5.599577-4.87705c-13.005468-8.850944-34.681249-13.1861-32.874934-32.33304l5.599577-1.986946c15.714941-1.625684 34.86188-2.34821 45.519139 12.282942l5.599577 8.309049 3.070735 6.141471 7.586524 20.772624 2.709472 11.199153c-5.238314 21.856412 9.934733 48.589875 33.778092 50.034927 19.146939-0.541895 37.751984-11.199153 55.092608-21.856412l10.295996-5.418946 10.115364-5.057682 9.031576-5.960839c18.424413-16.79873 14.992415-49.493032-4.335156-70.265656-27.275357-28.720409-55.634503-20.41136-88.690069-9.392838z m-2526.312225 11.199153c1.625684 19.327571-20.050097 23.482096-33.055565 32.333039l-5.780208 4.877051-4.696419 6.683365c-3.61263 7.586523-4.154525 16.618098 0.361263 27.997884 9.031575 19.869466 32.874934 23.120833 51.841242 21.314517 40.82272-5.780208 63.401658-39.5583 90.496383-65.569236 7.22526-4.696419 19.327571-6.683366 28.901041-4.154525 63.58229 29.262304 116.687952 85.25807 190.927501 74.600812 18.605045-2.709473 37.390721-9.754101 55.815135-21.856412a87.064385 87.064385 0 0 1 31.24925-12.644206l10.657259-1.445052 9.754101-1.26442h9.754101c15.714941-0.903158 31.610513 3.070736 47.506086 8.309049l9.392838 3.61263c34.139354 13.366731 83.99365 22.75957 111.449639-13.366731-38.655142 16.076204-63.943553-11.921679-91.038279-32.694302l-8.850944-5.780209c-18.605045-11.921679-40.100194-16.979361-64.666078-16.618098l-10.657259-0.361263-10.115364 0.541894-9.57347 1.986947-9.754101 2.709473c-19.508203 6.141471-40.100194 14.631152-61.595343 11.560416-52.021873-9.212207-55.092609-70.80755-94.650909-96.818487-25.649674-15.714941-54.911977-1.806315-76.949021 14.631152-1.264421-34.500617-28.720409-72.433233-64.666078-70.988181-31.068619 3.793262-44.074087 35.403775-59.247134 59.427765-18.605045-17.882519-37.029458-40.642089-63.401658-39.016405-50.215558 0.722526-82.729229 51.299347-74.962075 100.611748-33.055565-11.018522-61.414712-19.327571-88.509437 9.392838-19.508203 20.772623-22.940201 53.647557-4.515787 70.265656l9.031575 5.960839 10.115364 5.057682 10.115364 5.418946c17.340624 10.476627 36.126301 21.133886 55.273241 21.856412 23.843359-1.625684 39.016405-28.178515 33.958723-50.034927l2.528841-11.199153 7.586523-20.772624 3.251367-6.141471 5.418945-8.309049c10.476627-14.631152 29.623567-13.908626 45.338508-12.282942l5.780208 1.986946z m795.681779-474.518963c0 21.675781-45.157876 37.21009-61.775975 67.014288v9.212207c11.199153 51.118716-7.044629 82.367966-49.493032 107.114482-27.275357 18.605045-24.204622 58.885871-33.236197 92.844594-3.070736 15.534309-14.992415 34.139354-33.236197 31.068619-39.016405-3.070736-84.174281-9.392838-105.308167-46.602929-15.173046-28.178515-30.165461-58.885871-5.96084-93.205856 24.02399-34.139354 60.150291-27.817252 96.276592-18.605045 9.031575 0 12.102311-27.997883 0-37.390722-45.157876-27.817252-111.449638-18.605045-135.473628 34.139355-21.133886 52.744399-18.243782 108.559534 20.953254 145.769624 33.055565 37.21009 102.418063 68.278709 147.575939 27.817252 5.96084-3.070736 14.992415-3.070736 17.882519 0 42.087141 52.925031 96.457223 83.99365 156.607515 108.740166 6.141471 3.070736 12.102311 18.605045 9.031575 27.817251-24.204622 40.461457-72.252602 43.351561-110.004586 42.629035-35.403775-3.973893-67.917446-22.398307-82.909861-58.163344-2.890104-6.141471-14.992415-18.605045-17.882519-12.463574-38.655142 42.629035-105.127536 43.532193-143.782678 5.238314l-9.934732-11.560417c-13.547363-16.256835-10.115364-39.5583-12.644206-60.692185l-5.418945-20.050097c-5.96084-12.463574-18.06315-21.856412-30.165461-24.746516-30.165461-6.141471-57.260187 12.282942-87.245017 0.361263l-21.67578-7.586523-22.037044-9.57347-14.089257-7.22526-10.476628-5.238314-10.295995-6.141471-14.992415-14.631152-7.586523-7.405892-7.947787-6.863997-8.670312-8.309049c-26.914094-29.442935-39.016405-63.58229-56.537661-98.986065l-3.793261-9.031575-5.780209-8.309049 9.754102 9.392838 8.850943 9.754101c14.45052 14.992415 23.482096 33.59746 39.5583 44.796614l9.57347 8.309049 10.115364 7.586523 9.754101 5.96084 10.657259 4.696419 11.921679 5.780208c12.282942 5.057682 26.010937 7.044629 41.725878 5.057682l10.657259-1.806315 9.031575-3.61263c39.377668-24.927148 39.377668-77.671547 55.815135-114.159111l12.644205-17.882519 18.966308-13.908626c21.133886-3.070736 42.267772 21.675781 54.189452 9.392838 9.212207-7.044629 11.560416-24.565885 13.186099-39.197036l1.806315-13.547363 4.877051-22.037044 10.657259-18.785676c23.662727-33.778091 72.07197-46.241665 106.572588-22.398307l15.895572 7.947787 15.895572 6.863997 20.772623 4.87705c18.06315 3.070736 24.204622-21.675781 36.126301-34.139354l15.173047-5.418945h16.437467l24.204621 1.26442c32.333039 4.877051 62.498501 20.772623 64.485447 47.686718z" fill="#BE9C78" p-id="18439"></path></svg>