<?xml version="1.0" standalone="no"?><!DOCTYPE svg PUBLIC "-//W3C//DTD SVG 1.1//EN" "http://www.w3.org/Graphics/SVG/1.1/DTD/svg11.dtd"><svg t="1784481183521" class="icon" viewBox="0 0 1621 1024" version="1.1" xmlns="http://www.w3.org/2000/svg" p-id="19232" xmlns:xlink="http://www.w3.org/1999/xlink" width="316.6015625" height="200"><path d="M810.350617 911.667019h809.808819v112.332981H0v-112.152381h810.350617zM1620.159436 0v112.332981H0V0h1620.159436z m0 377.453263c-51.2903-79.463845-118.473369-124.433157-118.473369-124.433157v-0.361199c-119.918166-80.186243-225.20776-89.035626-225.20776-89.035627-270.177072-31.063139-398.222222 95.356614-443.191535 155.857496l-23.477954-38.467725c-44.608113-63.932275-119.737566-134.727337-239.113933-125.336155 0 0-130.573545-6.682187-232.431746 85.243033 0 0-70.795062 76.393651-150.439506 35.93933 0 0 46.414109-11.197178 73.142857-53.818695 0 0 26.548148-47.136508 79.644445-20.22716 0 0-97.34321-114.500176-194.86702 2.167196 0 0-24.380952 80.908642-92.828218 11.197178 0 0-23.839153-31.785538-49.484304-50.929101v50.748501c29.437743 26.909347 56.708289 62.487478 69.350265 107.998589 0 0-28.895944 56.16649 30.88254 71.87866 0 0 53.096296-2.167196 39.912522-53.818695 0 0 121.724162 60.681481 241.281128-11.197178 0 0-48.761905 53.818695-44.246913 132.379541 0 0-42.079718 80.908642-108.359789 29.076543 0 0-37.745326-42.621517-2.347795-83.075837 0 0-108.359788-26.909347-101.858201 71.878659 0 0 4.514991 35.93933 35.57813 47.136508 0 0-59.778483 80.908642 39.912522 109.985185 0 0 15.53157 71.87866 86.326632 56.166491 0 0 66.46067-20.22716 42.079718-78.560847 0 0-39.912522 42.802116-57.611288-11.197178 0 0-6.682187-42.802116 55.263492-42.802116 0 0 64.293474-2.167196 77.477249-74.045856 0 0 88.493827 15.712169 50.9291 130.212346 0 0-33.230335 53.818695-79.644444 4.514991 0 0-42.079718 60.681481 26.548148 103.302998 0 0 46.594709 15.712169 68.627866-18.059964 0 0 24.380952 51.651499 75.310053 38.106525 0 0 55.263492-20.22716 35.397531-78.560846 0 0 77.477249 9.029982 75.310053-76.393651 0 0-15.53157-65.015873-72.962258-53.818695 0 0 33.230335 74.226455-44.246913 71.87866 0 0 13.183774-60.500882-22.213757-83.075838 0 0-53.096296-42.621517-28.895943-80.908642 0 0 17.698765-20.22716 28.895943 20.22716 0 0 39.912522 53.999295 115.222575 2.167196 0 0 66.46067-11.197178 50.929101 44.788713 0 0 84.159436-15.712169 48.761904-92.10582 0 0-22.033157-31.424339-64.293474-22.394357 0 0 61.945679-60.681481 4.514991-96.440211 0 0-55.444092-13.364374-77.477249 29.257142 0 0-72.962257-60.681481-86.326631 40.454321 0 0 70.795062-18.059965 64.293474 24.742152 0 0-20.046561 56.16649-88.674426-2.167196 0 0-33.049735-53.818695 17.698765-98.788007 0 0 106.192593-80.908642 225.930159 11.197178 0 0 104.025397 116.667372 17.698765 300.698413 0 0-112.87478 219.97037-427.298765 181.863845 0 0-216.900176-47.136508-263.494886-253.742504l-1.083597-8.668784c-5.417989-56.34709-28.354145-107.45679-55.985891-150.258906v366.978483L24.019753 704.338624c44.788713 60.500882 172.833862 186.920635 443.010935 155.857496 0 0 105.470194-8.849383 225.38836-89.216226v-0.361199s66.64127-44.788713 117.75097-123.530159v0.541799c27.631746-42.621517 50.567901-93.911817 55.98589-150.258906l1.264198-8.668783c46.414109-206.605996 263.494885-253.742504 263.494885-253.742505 314.243386-38.106526 427.298765 181.863845 427.298766 181.863845 86.326631 184.031041-17.698765 300.879012-17.698766 300.879012-119.556966 92.10582-225.930159 11.197178-225.930159 11.197178-50.929101-44.969312-17.698765-98.968607-17.698765-98.968606 68.627866-58.333686 88.493827-2.167196 88.493827-2.167196 6.682187 42.621517-64.112875 24.742152-64.112875 24.742152 13.364374 100.955203 86.326631 40.454321 86.326632 40.454321 22.213757 42.621517 77.477249 29.257143 77.477248 29.257142 57.611287-35.93933-4.334392-96.620811-4.334391-96.620811 42.079718 9.029982 64.293474-22.394356 64.293474-22.394356 35.397531-76.393651-48.761905-92.10582-48.761904-92.10582 15.35097 56.16649-50.929101 44.969312-50.929101 44.969312-75.310053-51.651499-115.041975 2.167196-115.041975 2.167196-11.016578 40.454321-28.895944 20.22716-28.895944 20.22716-24.380952-38.106526 28.895944-80.908642 28.895944-80.908642 35.397531-22.394356 22.033157-83.075838 22.033157-83.075838 77.477249-2.167196 44.246914 71.87866 44.246913 71.87866 57.611287 11.197178 73.142857-53.818695 73.142857-53.818695 2.167196-85.423633-75.310053-76.393651-75.310052-76.393651 20.046561-58.333686-35.397531-78.560847-35.397531-78.560846-50.929101-13.364374-75.310053 38.287125-75.310053 38.287125-22.033157-33.772134-68.627866-18.059965-68.627866-18.059965-68.627866 42.802116-26.548148 103.302998-26.548148 103.302999 46.414109-49.484303 79.825044 4.334392 79.825044 4.334391 37.564727 114.500176-50.929101 130.392945-50.929101 130.392945-13.364374-71.87866-77.477249-74.226455-77.477248-74.226455-61.945679 0-55.444092-42.621517-55.444092-42.621516 17.698765-53.818695 57.611287-11.197178 57.611287-11.197178 24.380952-58.333686-42.079718-78.560847-42.079718-78.560847-70.795062-15.712169-86.326631 56.16649-86.326631 56.16649-99.691005 29.076543-39.912522 109.985185-39.912522 109.985185-30.88254 11.197178-35.397531 47.136508-35.397531 47.136508-6.682187 98.788007 101.858201 71.87866 101.858201 71.87866-35.397531-40.454321 2.347795-83.075838 2.347796-83.075838 66.280071-51.651499 108.359788 29.076543 108.359788 29.076543-4.514991 78.560847 44.246914 132.379541 44.246914 132.379542-119.556966-71.87866-241.281129-11.197178-241.281129-11.197178 13.183774-51.651499-39.912522-53.818695-39.912522-53.818695-59.778483 15.712169-31.063139 71.87866-31.06314 71.87866-12.461376 45.511111-39.912522 81.089242-69.350264 107.998589v50.567901c25.64515-19.143563 49.303704-50.748501 49.303704-50.748501 68.627866-69.530864 93.008818 11.197178 93.008818 11.197178 97.52381 116.847972 194.867019 2.167196 194.867019 2.167196-53.096296 26.909347-79.644444-20.22716-79.644444-20.227161-26.548148-42.621517-73.142857-53.818695-73.142857-53.818695 79.825044-40.273721 150.620106 35.93933 150.620106 35.93933 101.858201 92.10582 232.612346 85.243034 232.612345 85.243034 119.918166 9.210582 194.867019-61.945679 239.655732-126.239154V377.453263z" fill="#BE9C78" p-id="19233"></path></svg>