<?xml version="1.0" standalone="no"?><!DOCTYPE svg PUBLIC "-//W3C//DTD SVG 1.1//EN" "http://www.w3.org/Graphics/SVG/1.1/DTD/svg11.dtd"><svg t="1784481193429" class="icon" viewBox="0 0 2705 1024" version="1.1" xmlns="http://www.w3.org/2000/svg" p-id="20418" xmlns:xlink="http://www.w3.org/1999/xlink" width="528.3203125" height="200"><path d="M1343.3565 951.747398h1342.09208v72.252602H0.722526v-72.252602h1342.633974zM1342.814606 72.252602H0.722526V0h2684.545422v72.252602H1342.814606z m684.593402 311.769977c27.63662-92.663962 122.648792-68.098077 122.648792-68.098077C2106.524608 13.366731 1855.266185 112.89469 1855.266185 112.89469c-136.557418-31.429882-227.415064 20.953255-227.415065 20.953255-130.596578 80.38102-134.570471 197.610866-134.570471 197.610866l-27.63662-5.238314c-26.733463-43.532193-76.949021-71.530076-120.661845-88.509437v-1.445052h-0.541895l-1.625683 0.722526-1.445052-0.722526h-0.541895v1.445052c-43.712824 16.979361-93.928382 44.977245-120.481213 88.509437l-27.817252 5.238314s-4.154525-117.229847-134.570471-197.610866c0 0-91.038278-52.563768-227.595696-20.953255 0 0-251.258423-99.708591-294.790616 203.029812 0 0 94.83154-24.565885 122.648792 68.098077 0 0-7.947786 171.419298 193.998236 174.851296 0 0 33.59746 181.895925 154.259305 190.566238 0 0 37.390721-85.619333 144.324572-83.99365 0 0 124.455107 5.238314 126.622685 122.46816 0 0-11.921679 73.517022-95.012171 68.278709 0 0-45.519139-10.476627-41.545246-50.576821 0 0 7.947786-31.429882 61.23408-17.521256 0 0 3.973893-61.23408-83.090493-43.712824 0 0-67.19492 21.133886-45.338507 97.902275 0 0 41.545246 99.889222 172.141824 64.84671 0 0 140.350679-59.427765 75.142706-195.804551 0 0-65.207973-124.274475-207.726231-101.514905 0 0-90.857647 15.714941-124.635738 68.278709 0 0-73.155759-38.47451-71.168813-129.512789 0 0 118.674899-64.666079 112.714059-159.136356 0 0-25.830305-132.944787-166.180984-122.46816 0 0-73.155759 15.714941-75.142706 78.574704 0 0-9.934733 38.47451 45.519139 59.427765 0 0-19.688834-78.755336 69.181866-73.517022 0 0 114.701005 50.757453 7.767155 148.659728 0 0-91.038278 64.666079-176.115717-29.623566 0 0-19.869466-50.576821-21.675781-92.663962 0 0-25.830305-85.619333-102.779326-103.321221 0 0 37.571353-153.898042 219.467278-83.813018 0 0 118.674899-47.325454 217.660964 34.86188 0 0 86.883754 77.129652 78.935967 167.9873 0 0-102.959958 83.813018-17.882519 178.283295 0 0 83.271124 75.142706 182.076557 17.521256 0 0 75.323337-64.666079 5.96084-124.093844 0 0-49.493032-36.668195-96.999118 0 0 0 83.090492 7.044629 55.453871 68.278709 0 0-47.506086 48.951138-100.973011-5.238314 0 0-37.571353-47.325454 23.843359-98.082907 0 0 45.519139-24.385253 91.038278-24.385253 0 0 11.560416-42.629035 73.15576-70.446287 61.595343 27.817252 73.155759 70.446287 73.155759 70.446287 45.338508 0 91.038278 24.385253 91.038278 24.385253 61.414712 50.757453 23.662727 98.082907 23.662728 98.082907-53.466925 54.189451-100.79238 5.238314-100.79238 5.238314-27.63662-61.23408 55.453872-68.278709 55.453872-68.278709-47.506086-36.668195-96.818487 0-96.818487 0-69.181866 59.427765 5.780208 124.093844 5.780209 124.093844 98.986065 57.62145 182.076557-17.521256 182.076556-17.521256 85.077439-94.470277-17.882519-178.283295-17.882519-178.283295-7.947786-90.857647 79.116599-167.987299 79.116599-167.9873 98.805433-82.187335 217.480332-34.86188 217.480332-34.86188 182.076557-70.085024 219.64791 83.813018 219.64791 83.813018-77.129652 17.701887-102.779326 103.321221-102.779326 103.321221-2.167578 42.087141-21.856412 92.663962-21.856413 92.663962-85.077439 94.289645-175.935086 29.623567-175.935085 29.623566-106.933851-97.902276 7.947786-148.659728 7.947786-148.659728 89.051332-5.238314 69.362498 73.517022 69.362498 73.517022 55.453872-20.953255 45.519139-59.427765 45.519139-59.427765-1.986947-62.859764-75.323337-78.574705-75.323337-78.574704-140.350679-10.476627-166.000353 122.46816-166.000353 122.46816-5.96084 94.470277 112.714059 159.136356 112.714059 159.136356 1.986947 90.857647-71.168813 129.512789-71.168813 129.512789-33.59746-52.563768-124.635738-68.278709-124.635738-68.278709-142.337626-22.75957-207.545599 101.514906-207.545599 101.514905-65.388605 136.376786 75.142706 195.804551 75.142706 195.804551 130.596578 35.042512 172.141824-64.84671 172.141824-64.84671 21.675781-76.768389-45.699771-97.902276-45.699771-97.902275-86.883754-17.521256-82.909861 43.712824-82.909861 43.712824 53.466925-13.908626 61.23408 17.521256 61.23408 17.521256 3.973893 40.100194-41.545246 50.576821-41.545246 50.576821-83.090492 5.238314-94.83154-68.278709-94.83154-68.278709 1.806315-117.049215 126.622685-122.46816 126.622685-122.46816 106.753219-1.806315 144.324572 83.99365 144.324572 83.99365 120.661845-8.670312 154.259305-190.566237 154.259305-190.566238 201.765391-3.431999 193.817605-174.851297 193.817605-174.851296z m658.582467 313.034398h-0.361263c-63.221027-27.63662-74.962074-71.349444-74.962075-71.349445-45.519139 0-90.857647-24.385253-90.857647-24.385253-61.414712-50.757453-23.843359-98.082907-23.843358-98.082907 53.466925-54.189451 100.973011-5.238314 100.973011-5.238314 27.63662 61.23408-55.453872 68.278709-55.453872 68.278709 47.506086 36.668195 96.999118 0 96.999118 0 69.181866-59.427765-5.96084-124.274475-5.96084-124.274475-98.805433-57.62145-181.895925 17.521256-181.895925 17.521256-85.077439 94.470277 17.701887 178.463927 17.701887 178.463927 7.947786 90.857647-79.116599 167.987299-79.116599 167.987299-98.986065 82.187335-217.660963 35.042512-217.660963 35.042512-181.895925 69.904392-219.467278-83.813018-219.467278-83.813018 77.129652-17.521256 102.959958-103.140589 102.959958-103.14059 1.986947-42.087141 21.675781-92.844593 21.67578-92.844593 85.25807-94.289645 176.115717-29.623567 176.115717-29.623567 106.753219 97.902276-7.947786 148.659728-7.947786 148.659729-89.051332 5.418945-69.181866-73.336391-69.181866-73.336391-55.453872 20.953255-45.519139 59.427765-45.519139 59.427765 1.986947 62.859764 75.142706 78.755336 75.142706 78.755336 140.531311 10.476627 166.180984-122.46816 166.180984-122.46816 5.780208-94.470277-112.89469-159.136356-112.894691-159.136356-1.986947-90.857647 71.349444-129.512789 71.349445-129.512789 33.59746 52.563768 124.635738 68.278709 124.635738 68.278709 142.518257 22.75957 207.72623-101.514906 207.72623-101.514906 65.207973-136.376786-75.142706-195.804551-75.142706-195.804551-130.596578-35.042512-172.141824 64.666079-172.141824 64.666079-21.856412 76.949021 45.519139 97.902276 45.51914 97.902275 87.064385 17.521256 83.090492-43.712824 83.090492-43.712824-53.466925 13.908626-61.414712-17.521256-61.414712-17.521256-3.973893-40.280826 41.545246-50.757453 41.545246-50.757452 83.090492-5.238314 94.83154 68.278709 94.83154 68.278708-1.986947 117.049215-126.442053 122.287529-126.442053 122.287529-106.933851 1.986947-144.324572-83.813018-144.324572-83.813018-120.661845 8.850944-154.439936 190.566237-154.439937 190.566237-201.765391 3.431999-193.817605 174.851297-193.817604 174.851297-27.63662 92.663962-122.46816 68.098077-122.46816 68.098077 43.351561 302.55777 294.609984 202.84918 294.609984 202.84918 136.557418 31.429882 227.595696-20.953255 227.595696-20.953255 130.415946-80.38102 134.389839-197.610866 134.389839-197.610866l27.817252 5.418945c27.275357 44.796613 79.658494 72.975128 124.093844 89.95449s0.180632 0 0.180631 0h0.361263V697.237608zM0.541895 775.270418c44.615982-16.979361 96.818487-45.157876 124.274475-89.954489l27.63662-5.418945s3.973893 117.229847 134.570471 197.610866c0 0 90.857647 52.383136 227.415064 20.953254 0 0 251.258423 99.708591 294.790616-202.849179 0 0-95.012171 24.565885-122.648792-68.098078 0 0 7.947786-171.419298-193.817604-174.851296 0 0-33.59746-181.895925-154.259305-190.566238 0 0-37.571353 85.799965-144.324572 83.813018 0 0-124.635738-5.238314-126.622685-122.287528 0 0 11.921679-73.517022 94.83154-68.278709 0 0 45.519139 10.476627 41.545246 50.757453 0 0-7.947786 31.24925-61.414712 17.521256 0 0-3.973893 61.23408 83.090492 43.712824 0 0 67.19492-20.953255 45.51914-97.902276 0 0-41.725878-99.708591-172.141824-64.666078 0 0-140.531311 59.427765-75.142706 195.804551 0 0 65.207973 124.274475 207.545598 101.514905 0 0 91.038278-15.714941 124.635739-68.278708 0 0 73.155759 38.47451 71.168813 129.512788 0 0-118.674899 64.666079-112.533428 159.136356 0 0 25.649674 132.944787 166.000353 122.46816 0 0 73.155759-15.714941 75.142706-78.755336 0 0 9.934733-38.47451-45.519139-59.427765 0 0 19.688834 78.755336-69.181867 73.336391 0 0-114.881637-50.757453-7.947786-148.659728 0 0 91.038278-64.666079 175.935086 29.623567 0 0 19.869466 50.757453 21.856412 92.844593 0 0 25.830305 85.619333 102.959957 103.140589 0 0-37.571353 153.898042-219.647909 83.813018 0 0-118.674899 47.144823-217.480332-35.042512 0 0-87.064385-76.949021-79.116599-167.987299 0 0 102.779326-83.99365 17.701888-178.463927 0 0-83.090492-75.142706-182.076557-17.521256 0 0-75.142706 64.84671-5.96084 124.274476 0 0 49.493032 36.668195 96.818487 0 0 0-83.090492-7.044629-55.273241-68.278709 0 0 47.506086-48.951138 100.973011 5.238314 0 0 37.571353 47.325454-23.662727 98.082907 0 0-45.519139 24.385253-91.038278 24.385253 0 0-11.741048 43.712824-74.781443 71.349444H0v78.213442h0.361263z" fill="#BE9C78" p-id="20419"></path></svg>