<?xml version="1.0" standalone="no"?><!DOCTYPE svg PUBLIC "-//W3C//DTD SVG 1.1//EN" "http://www.w3.org/Graphics/SVG/1.1/DTD/svg11.dtd"><svg t="1784481171994" class="icon" viewBox="0 0 2950 1024" version="1.1" xmlns="http://www.w3.org/2000/svg" p-id="18593" xmlns:xlink="http://www.w3.org/1999/xlink" width="576.171875" height="200"><path d="M1169.258067 342.928742l39.912311 31.78537 6.501553-5.59856-46.413864-37.20333-81.269411-64.83493-24.200225-19.865856 24.200225-18.962863 81.269411-63.028943 68.446905-52.915417 60.139364-47.136259 55.2632 43.524285 69.711095 55.082601 127.322077 100.77407 66.821516 52.915417 8.849336-7.404547-75.670852-59.778167-127.322077-100.412872-69.711095-55.082601-53.457213-42.260094-61.945351 48.761647-68.446905 53.637811-81.269411 63.931937-37.022732 29.618185 37.022732 29.437587 81.269411 65.015529zM1422.818631 411.917442l-29.618186-23.839027-40.092909 31.424172-31.604771 24.561423 31.604771 25.103218 69.711095 56.166193 127.322077 102.218859 6.501553 5.056764 72.781273-57.610983-79.282826-62.306549-127.322077-100.77407zM1679.449372 548.088856L1550.140708 650.307715l-73.684266 57.610983 4.514967 3.611974 69.169299-54.360206 129.308664-102.21886 36.119738-28.534593-4.334369-3.250776-31.785369 24.922619zM984.505606 842.464723c-3.250776-13.544902 8.488139-29.618185 5.237362-61.945351-3.250776-33.591357-48.942245-78.560431-82.8948-78.560431-5.959757 0-11.558316 1.44479-16.253882 4.334369-32.868962 20.046455 11.738915-16.073284-38.106324-62.12595-50.025838-46.052666-107.998018 0.722395-122.987709 23.297231-6.682152 10.294125-18.962863 4.334369-33.410758 6.682152-3.431375 0.722395-7.223948 1.805987-11.01652 3.250776-14.989691 7.223948-35.216745 29.979383-28.895791 65.737924 7.765744 40.09291 22.755435 53.276614 39.731712 57.97218 3.792573 1.083592 7.404546 1.805987 11.558317 2.528382 21.671843 3.250776 42.260094-3.250776 56.707989-28.534594 4.514967-8.126941 8.849336-15.350889 12.280711-16.073283 13.364303-3.250776 23.47783 33.591357 3.250776 69.349898-14.989691 26.548008-48.400449 41.537699-83.617194 42.621291-4.514967 0-9.029935 0-13.906099-0.361198-53.457213-3.611974-106.553228-37.564528-105.830833-95.17551 0.541796-35.758541 58.694575-90.479945 119.736932-140.505782 25.645014-21.130047 52.012423-41.176502 74.58726-58.694575l-53.457213-42.260094c-4.514967 3.611974-11.738915 10.294125-21.130047 18.240468-37.745127 32.868962-107.456222 95.175511-155.134276 136.171413-21.130047 18.240468-38.286923 32.507765-45.691469 37.564528-54.179608 37.20333-113.23538 80.00522-152.064098 78.018635-16.795678-0.722395-29.979383-9.391132-37.022732-31.062975-6.501553-28.534593 3.792573-55.443798 19.504658-66.821516 5.417961-3.611974 11.377718-5.417961 17.518074-6.140355 13.183704-1.083592 27.270402 4.695566 37.745126 15.350888 2.889579 2.889579 0.180599 24.019626-6.320954 17.518074-5.417961-5.417961-14.628494-12.822507-24.019626-14.267297-2.347783-0.361197-4.695566-0.722395-7.223948-0.361197-13.544902 0.722395-26.367409 9.932928-29.979383 29.256988-3.973171 23.297231 10.474724 40.454107 29.07639 43.704883 0.180599 0 0.541796 0 0.722395 0.361197 32.507765 5.417961 81.811207-28.534593 139.241591-69.711095 19.143461-13.544902 39.009317-29.256988 58.513976-45.330271 59.597568-49.66464 117.569748-105.830833 155.134276-137.977401 4.514967-3.973171 9.029935-7.585145 13.183705-11.01652l-6.862751-5.417961c-2.167184 1.805987-3.973171 3.611974-6.140355 5.779158-44.066081 40.09291-101.135267 91.202339-155.134276 136.532611-56.166193 47.136259-109.08161 87.951563-140.686381 104.024847-22.03304 10.655323-42.440693 15.712086-56.888588 13.544902-14.086698-1.805987-22.936034-10.474724-22.213639-27.089804 0.902993-19.32406 11.01652-26.909205 22.213639-26.909205 9.932928 0 20.227053 6.140356 25.464415 15.350889 11.01652 18.962863 57.249785-9.029935 56.527391-61.764753-0.722395-50.748232-48.400449-86.506773-81.991806-54.721403-1.264191 1.083592-2.347783 2.167184-3.792573 3.611973-24.380823 27.451001-55.2632 2.167184-84.339589 15.350889-11.558316 5.056763-22.394238 15.712086-32.507764 37.564528-12.822507 26.728606-7.404546 49.66464-3.431375 59.41697 6.682152 16.434481 8.30754 19.32406-10.655323 11.738915-15.712086-6.140356-59.778167 5.779158-58.513976 44.06608 1.625388 49.303443-25.103218 68.266305-46.052667 66.821516-10.655323-0.722395-19.685257-6.501553-22.936033-16.434481-3.973171-38.286923-55.082601-60.68116-73.684267-27.089803-18.962863 33.952554-2.70898 157.662658 68.627503 162.358223 11.01652 0.722395 20.046455 0 27.992797-1.805986 45.691469-10.474724 51.290028-54.721404 51.290029-54.721404 18.240468 40.815304 66.460319 69.711095 99.871076 59.055772 10.113527-3.250776 18.962863-10.294125 25.464416-21.852442 17.337474-32.868962 0-79.282826-19.143461-83.978391-2.167184-0.361197-4.334369-0.361197-6.140356-0.361198-6.320954 0-12.46131 2.528382-16.253882 3.611974-5.417961 2.167184 0-19.32406 16.253882-28.89579 8.849336-5.056763 20.76885-6.501553 36.300337 0.722394 10.113527 4.695566 26.728606 20.407652 51.831825 25.645015 13.725501 2.528382 30.159982 2.167184 49.484041-5.056764 22.394238-8.30754 87.590365-60.861759 92.647129-57.97218 5.056763 2.528382 11.558316 29.979383 22.755435 54.360206 6.140356 13.906099 19.32406 30.34058 32.868962 35.397344 2.70898 1.083592 5.056763 1.44479 7.765744 1.444789 12.822507 0.722395 13.003106 2.528382 1.625388 8.668738-2.889579 1.805987-6.140356 1.805987-9.391132 1.083592-11.738915-2.528382-24.019626-18.601665-37.745127-14.267297-24.380823 7.946342-46.95566 57.249785-19.685257 80.727615 22.394238 18.962863 41.898896 29.256988 57.430384 21.852442 3.792573-1.44479 7.223948-4.334369 10.474724-8.126941 17.156876-19.32406 62.487147 41.898896 105.830833-37.203331 7.946342-14.989691 16.253882-8.668737 39.009318-4.695566 12.641908 1.805987 29.437587 3.250776 53.096015 0 52.915417-7.585145 91.563537-69.711095 117.750347-56.888587 16.073284 8.126941 24.019626 42.982489-4.695566 51.109429-28.895791 8.126941-43.524285 42.80189 18.962863 65.737924 7.946342 2.889579 16.61508 4.695566 25.645014 5.056763 61.403555 4.334369 137.255006-45.51087 96.6203-152.244697-4.334369-11.197119-17.698672-21.130047-19.143461-28.89579zM141.290314 868.832132c-8.849336 8.30754-16.61508 16.795678-37.20333 16.434481h-1.805987c-39.370515-5.237362-53.457213-44.066081-53.457213-44.06608 0-7.765744 17.698672-5.959757 18.782264 0.722394 0 0 1.625388 27.270402 35.758541 31.78537h0.722395c16.795678 1.805987 27.451001-3.611974 34.674948-11.197119 10.655323-11.738915 19.685257-28.895791 20.227054-27.812198 2.70898 1.805987-8.488139 21.852442-17.879271 34.313751z m153.508888-24.380823s-22.213639-3.973171-35.758541-1.805987c-1.264191 0-2.347783 0.361197-3.792572 0.722395-1.625388 0-2.889579 0.361197-4.334369 0.722395-1.264191 0.361197-2.347783 0.722395-3.431375 1.083592-26.367409 12.822507-29.076389 68.627503 6.86275 50.748232h0.902994c5.959757-1.083592 12.100112 18.240468 5.41796 21.852442-1.805987 0.722395-3.431375 1.083592-5.41796 1.805987-32.507765 7.765744-57.97218-41.176502-24.92262-76.212648 6.320954-6.682152 15.531487-9.210533 24.92262-9.571731 21.671843-0.722395 44.788476 11.01652 39.551113 10.655323z m281.011564 84.700786c-2.347783 7.946342-7.223948 15.712086-14.086698 20.407653-1.625388 1.083592-3.431375 1.805987-5.598559 2.528381-4.514967 1.805987-9.571731 1.44479-14.989691 0-17.156876-4.334369-35.036146-21.130047-35.036147-21.130047-1.625388-1.44479-3.250776-2.889579-1.083592-7.946342s3.792573-3.250776 5.237362-1.805987c0.361197 0 16.073284 14.628494 30.701778 19.32406 4.876165 1.44479 9.571731 1.805987 13.364303 0.361197 1.625388-0.361197 2.889579-1.083592 4.334369-2.167184 5.056763-3.250776 8.30754-8.30754 9.932928-14.267296 1.986586-5.417961 2.347783-11.377718 1.625388-16.434481-0.180599-1.083592-0.180599-1.805987-0.541796-2.88958-0.902993-2.528382-1.625388-5.056763 2.167184-7.585145 3.792573-2.528382 4.334369 0.361197 5.056764 2.88958 0.541796 1.44479 0.722395 3.250776 1.083592 4.695565 1.083592 7.404546 0.541796 16.073284-2.167185 24.200225z m229.17974-98.968083c-22.213639 46.413864-66.27972 65.737924-108.720412 66.099122-30.521179 0.361197-59.778167-9.029935-80.185819-24.742021-28.895791-22.574836-39.731712-47.136259-37.203331-47.497456 4.876165-0.722395 7.946342 16.434481 35.036146 35.397343 3.973171 2.889579 7.946342 5.417961 12.100113 7.585146 21.130047 11.738915 45.872068 16.795678 70.252891 16.43448 5.056763-0.361197 10.474724-0.722395 15.531487-1.444789 34.49435-4.334369 77.657437-21.491244 86.867971-78.74103 6.86275-43.524285-17.156876-85.423181-45.149673-33.952554-18.962863 35.036146-29.618185-1.44479-15.531487-24.380823 17.337474-28.895791 46.413864-21.852442 62.848344-2.889579 16.795678 19.685257 16.61508 62.848345 4.334369 88.31276z m102.038261 111.609992c-4.334369 23.116633-18.782264 44.607877-38.64812 46.052666-10.655323 0-13.003106-10.294125-13.003106-16.073283-0.180599-5.779158 1.805987-6.140356 3.792573-6.140356 0 0 20.046455-3.611974 30.701777-20.407652 5.779158-10.835922 4.334369-27.812199 0.361198-38.64812-11.738915-23.297231-31.243574-18.240468-32.327166-22.574836 2.347783-4.695566 30.701778-1.44479 41.718298 12.822507 3.792573 4.695566 6.501553 11.01652 7.765743 17.518073 1.805987 8.849336 1.805987 18.601665 0 27.6316zM1766.317342 611.117799l28.173396-22.213639-28.173396-22.574836-43.524284-33.952554-43.343686 33.591356-129.308664 100.593472-63.751338 49.303443 63.751338 50.387035 9.391132 7.585145 119.917532-94.453116 86.86797-68.266306zM2874.290316 39.342341c-11.01652-0.722395-20.046455 0-27.992797 1.805987-45.691469 10.474724-51.290028 54.721404-51.290029 54.721404-18.240468-40.815304-66.460319-69.711095-99.871076-59.055772-10.113527 3.250776-18.962863 10.294125-25.103218 21.852441-17.698672 32.868962-0.361197 79.102227 18.962862 83.978392 2.167184 0.361197 4.334369 0.361197 6.140356 0.361197 6.501553 0 12.641908-2.528382 16.253882-3.611973 5.417961-2.167184 0 19.32406-16.253882 28.89579-8.849336 5.056763-20.76885 6.501553-36.300337-0.722394-10.113527-4.695566-26.728606-20.407652-51.831825-25.645015-13.544902-2.528382-30.159982-2.167184-49.484041 5.056764-22.394238 8.30754-87.590365 60.861759-92.647129 58.333377-4.876165-2.528382-11.01652-28.895791-21.671843-52.554219a6.104236 6.104236 0 0 0-1.083592-2.167185c-7.404546-16.434481-24.380823-36.480936-40.634706-36.842133-12.822507-0.722395-13.003106-2.528382-1.625388-8.849336 13.725501-7.585145 27.451001 14.989691 43.343686 13.9061 1.264191 0 2.347783-0.361197 3.792572-0.722395 24.380823-8.126941 46.95566-57.249785 19.685258-80.727615-8.30754-7.404546-16.073284-12.822507-23.47783-17.156876-17.337474-9.932928-32.507765-10.655323-44.24668 3.250777-17.156876 19.32406-62.487147-41.898896-105.830833 37.20333-12.46131 22.936034-25.103218-4.695566-92.105333 4.695566-52.915417 7.585145-91.563537 69.711095-117.750347 56.888588-7.765744-3.973171-13.906099-14.267297-14.447895-24.742021v-3.611974c0.541796-9.752329 6.140356-18.962863 19.32406-22.574836 28.895791-7.946342 43.524285-42.621291-18.962863-65.737924h-0.180598c-62.487147-22.936034-168.498579 24.742021-122.084716 147.007335 4.15377 11.738915 17.698672 21.130047 19.143461 28.895791 3.250776 13.544902-8.488139 29.618185-5.41796 62.12595 3.792573 39.370515 65.918522 94.091918 99.148681 74.045463 4.15377-2.528382 6.86275-3.973171 9.029935-5.056763 14.086698-5.417961-14.628494 27.089804 29.076389 67.543911 50.025838 46.052666 107.998018-0.722395 122.807111-23.297232 8.30754-12.46131 25.103218-0.722395 44.427278-9.932928 14.989691-7.404546 35.216745-30.34058 28.89579-66.099121-9.391132-49.303443-29.437587-57.249785-51.290028-60.500562-21.671843-3.250776-42.260094 3.250776-56.527391 28.353995-4.514967 7.946342-8.849336 15.350889-12.280711 16.073284-13.364303 3.250776-23.47783-33.591357-3.250776-69.349898 16.795678-29.979383 57.249785-45.330272 97.523294-42.260094 53.457213 3.611974 106.553228 37.564528 105.830833 95.175511-0.541796 35.397344-182.946475 172.291152-305.03119 262.048701-44.066081 32.507765-80.185819 59.055772-96.981498 72.239477l-121.542919-95.717307-83.797793-66.460318-39.189916-30.701778-8.30754 6.501553 47.497456 37.203331 83.797793 66.099121 119.195136 93.369524c22.936034-20.046455 52.734818-41.898896 99.329281-75.851451 24.019626-17.518073 52.373621-37.925725 86.506773-62.667746 99.690478-72.600674 196.852574-139.783387 206.785502-154.773079 18.962863-28.895791 20.76885-47.858653 17.156876-67.182713-6.140356-32.146567-23.839027-55.804996-46.95566-70.794687-26.909205-17.518073-61.403555-24.019626-93.550123-19.685258-34.49435 4.334369-77.657437 21.491244-86.86797 78.74103-6.86275 43.343686 17.156876 85.423181 45.149673 33.952554 18.962863-35.036146 29.618185 1.44479 15.531487 24.380823-17.337474 28.895791-46.413864 21.852442-62.848345 2.889579-16.795678-19.685257-16.61508-62.848345-4.334368-88.31276 38.286923-79.463424 139.060993-77.29624 190.170422-43.163087 25.103218 16.434481 44.607877 42.440693 51.290029 77.657437 4.514967 23.839027 2.347783 46.413864-19.32406 79.282826-10.655323 15.712086-111.429393 85.423181-213.648253 160.191039-33.049561 24.019626-61.222956 44.607877-85.242582 62.12595-46.775061 33.952554-78.018635 57.249785-100.412873 76.935043l-118.111544-92.647129-83.797793-66.099121-56.888588-44.788475L1679.62997 426.365338l-36.300337 28.534593L1679.62997 483.434524l86.867971 68.266306 83.797793 66.460318 38.106324 29.979383v0.361198l83.075398 65.376726c31.604771-24.742021 64.293134-48.581048 97.162096-72.239477 60.861759-44.066081 122.265314-87.951563 177.889712-138.699795 54.179608-49.303443 130.392255-117.930946 196.671975-171.568757 42.982489-35.036146 81.45001-63.570739 106.914425-76.393247 21.852442-10.474724 42.440693-15.712086 56.888588-13.364303 14.086698 1.805987 22.936034 10.655323 22.213639 26.909205-0.722395 19.32406-10.835922 26.909205-22.213639 26.909205-9.932928 0-20.407652-6.140356-25.464415-15.350889-10.655323-18.962863-57.069187 9.210533-56.527391 62.12595 0.722395 50.748232 48.400449 86.506773 81.991806 54.721404 1.44479-1.083592 2.347783-2.167184 3.792573-3.611974 24.380823-27.451001 55.2632-2.167184 84.339589-15.350889 11.558316-5.056763 22.394238-15.712086 32.507764-37.564528 12.822507-27.089804 7.585145-50.025838 3.431375-59.778166-6.682152-16.434481-8.30754-19.32406 10.655323-11.738915 15.712086 6.140356 59.778167-5.779158 58.513976-44.24668-1.625388-49.303443 25.103218-68.266305 45.872068-66.821516 10.655323 0.722395 19.685257 6.501553 22.936034 16.434481 3.973171 38.286923 55.082601 60.68116 73.684266 27.089804 18.962863-33.952554 2.70898-157.662658-68.627503-162.358224zM2068.639552 139.213418c-6.682152-2.167184-13.364303-6.140356-17.698672-11.738915-18.240468-23.658429-7.404546-72.239477 17.698672-86.867971 3.973171-2.528382 8.488139-3.973171 13.364303-4.334368 10.655323 0 13.183704 10.113527 13.183705 16.073283 0.180599 5.779158-1.986586 6.140356-3.792573 6.140356 0 0-12.280711 2.167184-22.755435 11.01652-2.889579 2.528382-5.959757 5.779158-7.946342 9.391132-5.959757 11.01652-4.15377 27.812199-0.180599 38.64812 2.347783 5.056763 5.417961 8.668737 8.30754 11.377717 11.01652 10.655323 23.297231 7.946342 24.019626 11.377718-1.625388 2.889579-12.822507 2.889579-24.019626-1.083592z m312.977533-39.370515c-1.805987 5.417961-2.347783 11.377718-1.625388 16.434481 0.361197 1.083592 0.361197 1.805987 0.541796 2.889579 0.722395 2.528382 1.625388 5.056763-2.167185 7.765744-3.792573 2.528382-4.334369-0.361197-5.056763-2.889579-0.541796-1.44479-0.722395-3.250776-1.083592-4.695566-1.083592-7.223948-0.541796-16.073284 2.167184-24.019626 2.347783-7.946342 7.223948-15.712086 14.086698-20.407652 1.625388-1.083592 3.431375-1.805987 5.59856-2.528382 16.795678-6.501553 42.982489 14.989691 48.942245 20.046455l1.083592 1.083592c1.625388 1.44479 3.250776 2.889579 1.083592 7.946342-0.902993 1.805987-1.625388 2.889579-2.167184 3.250777-1.264191 0.722395-2.167184-0.361197-3.250776-1.44479-0.180599 0-28.353995-26.006212-44.066081-19.685257-1.625388 0.361197-2.889579 1.083592-4.334369 2.167184-5.056763 3.250776-8.30754 8.488139-9.932928 14.267297z m242.724642 217.802022c-5.417961 3.611974-11.558316 5.417961-17.698672 6.140356-13.003106 1.083592-27.270402-4.695566-37.745127-15.350889-2.889579-2.889579-0.180599-24.019626 6.501553-17.518073 5.237362 5.417961 14.628494 12.822507 24.019626 14.267297 2.347783 0.361197 4.876165 0.722395 7.223948 0.361197 13.725501-0.722395 26.367409-9.932928 29.979383-29.256988 8.488139-50.025838-30.521179-49.66464-29.07639-49.66464 16.073284-4.695566 26.909205-4.334369 36.300337 24.019626 6.501553 28.534593-3.792573 55.443798-19.504658 66.821516z m95.356109-136.893808c-6.320954 6.501553-15.531487 9.210533-24.92262 9.391132-21.671843 0.722395-44.788476-11.01652-39.551113-10.474724 0.180599 0 22.03304 3.973171 35.758541 1.805987 1.264191 0 2.347783-0.361197 3.792572-0.722395 1.625388 0 2.889579-0.361197 4.334369-0.722395 1.264191-0.361197 2.347783-0.722395 3.431375-1.083592 26.367409-12.822507 29.076389-68.627503-7.043349-50.748232h-0.722395c-5.779158 1.083592-11.919514-18.240468-5.237362-21.852442 1.805987-0.722395 3.792573-1.083592 5.237362-1.805987 32.507765-7.585145 58.152779 41.176502 24.92262 76.212648z m162.90002 1.44479s-1.625388-27.451001-35.758541-31.78537h-0.722395c-16.795678-1.805987-27.451001 3.611974-34.674949 11.377717-10.655323 11.738915-19.865856 28.895791-20.407652 27.812199-2.70898-1.805987 8.488139-21.852442 17.879271-34.313752 8.849336-8.30754 16.61508-16.795678 37.022731-16.43448h1.986586c39.189916 5.056763 53.457213 44.066081 53.457213 44.06608 0 7.765744-17.698672 5.959757-18.782264-0.722394z" fill="#BE9C78" p-id="18594"></path><path d="M2869.233553 849.508072c-3.250776 9.932928-12.280711 15.712086-22.936034 16.434481-20.76885 1.44479-47.497456-17.518073-45.872068-66.821516 1.264191-38.286923-42.80189-50.387035-58.513976-44.06608-18.962863 7.585145-17.337474 4.695566-10.655323-11.738915 3.973171-9.752329 9.391132-32.868962-3.431375-59.41697-10.113527-21.852442-21.130047-32.507765-32.507765-37.564528-29.076389-13.183704-60.139364 12.100112-84.339589-15.350889-1.264191-1.44479-2.347783-2.528382-3.792572-3.611973-33.591357-31.78537-81.269411 3.973171-81.991806 54.721403-0.541796 52.554219 45.872068 80.727615 56.52739 61.764753 5.056763-9.029935 15.531487-15.350889 25.464416-15.350889 11.197119 0 21.310646 7.585145 22.213639 26.909205 0.902993 16.434481-7.946342 25.283817-22.213639 27.089804-14.447895 2.167184-35.036146-2.889579-56.888588-13.544902-25.464416-12.641908-63.931937-41.176502-106.914426-76.212648-66.27972-53.276614-142.311769-121.904117-196.671975-171.20756-0.541796-0.722395-1.264191-1.083592-2.167184-1.805987l-56.166193 44.607877c68.446904 58.333377 156.759664 124.793696 176.264323 154.411882 21.671843 32.507765 26.728606 53.276614 22.213639 76.935042-6.682152 35.397344-26.18681 61.222956-51.290028 77.657438-51.10943 34.313751-151.8835 36.480936-190.170423-42.982489-12.280711-25.464416-12.641908-68.627503 4.334369-88.31276 16.253882-18.962863 45.51087-25.825613 62.848344 2.889579 14.086698 22.936034 3.431375 59.41697-15.531487 24.380823-27.992797-51.470627-52.012423-9.391132-45.149673 33.952554 9.210533 57.249785 52.373621 74.406661 86.867971 78.74103 31.965968 4.334369 66.460319-2.167184 93.550122-19.685257 23.297231-14.989691 40.815304-38.64812 46.95566-70.794688 3.792573-19.32406-0.722395-36.480936-20.046455-65.015529-18.962863-28.895791-109.804005-98.06509-177.889711-156.579065l-5.056764 3.973171c75.851451 58.333377 196.852574 150.258112 197.755568 201.728739 0.722395 57.610983-52.373621 91.563537-105.830833 95.17551-40.273508 2.889579-80.727615-12.46131-97.523294-42.260094-20.227053-35.758541-10.113527-72.600674 3.250776-69.349897 3.431375 0.722395 7.765744 7.946342 12.280711 16.073283 14.447895 25.103218 35.036146 31.78537 56.527391 28.534593 21.852442-3.250776 41.898896-11.377718 51.290028-60.500561 6.320954-35.758541-13.906099-58.333377-28.89579-65.737924-19.143461-9.029935-36.119738 2.528382-44.427278-9.932928-14.989691-22.574836-72.961871-69.349898-122.807111-23.297231-43.885482 40.454107-14.989691 72.600674-29.076389 67.182713-2.167184-1.083592-4.876165-2.528382-9.029935-5.056763-33.049561-19.685257-95.356109 34.674949-99.148681 74.045463-3.250776 32.507765 8.488139 48.581048 5.41796 61.945351-1.625388 7.585145-14.989691 17.518073-19.143461 28.895791-46.594462 122.265314 59.597568 170.123968 122.084716 147.007335h0.180598c62.487147-22.936034 47.858653-57.610983 18.962863-65.737924-13.003106-3.611974-18.601665-12.822507-19.32406-22.574836v-3.611974c0.541796-10.655323 6.682152-20.76885 14.447895-24.742021 26.18681-12.822507 64.83493 49.303443 117.750347 56.888588 67.002115 9.391132 79.644023-18.240468 92.105333 4.695566 43.343686 79.282826 88.673958 17.87927 105.830833 37.203331 11.738915 13.906099 26.909205 13.183704 44.24668 3.250776 7.404546-4.334369 15.17029-9.752329 23.47783-17.156876 27.270402-23.297231 4.514967-72.600674-19.685258-80.727615-1.264191-0.361197-2.347783-0.722395-3.792572-0.722395-15.712086-1.083592-29.618185 21.491244-43.343686 13.9061-11.377718-6.140356-11.197119-7.946342 1.625388-8.668737 16.253882-0.361197 33.049561-20.407652 40.634706-36.842134 0.541796-0.722395 0.902993-1.44479 1.083592-2.167184 10.655323-23.658429 16.795678-50.025838 21.671843-52.193022 5.056763-2.889579 70.252891 49.66464 92.647129 57.97218 19.32406 7.223948 35.758541 7.765744 49.484041 5.056764 25.103218-5.056763 41.718298-20.76885 51.831825-25.645015 15.531487-7.223948 27.451001-5.779158 36.300337-0.722394 16.253882 9.571731 21.671843 31.062975 16.253882 28.89579-3.792573-1.083592-9.932928-3.611974-16.253882-3.611974-1.805987 0-3.973171 0-6.140356 0.361198-19.143461 4.695566-36.480936 51.10943-18.962862 83.978392 6.140356 11.738915 14.989691 18.601665 25.103218 21.852441 33.410758 10.655323 81.811207-18.240468 99.871076-59.055772 0 0 5.598559 44.246679 51.290029 54.721404 7.946342 1.805987 17.156876 2.528382 27.992797 1.805987 71.336483-4.695566 87.590365-128.40567 68.627503-162.358224-18.782264-33.591357-69.711095-11.377718-73.684266 27.089803z m-800.594001 45.510871c-2.889579 2.528382-5.959757 6.140356-8.30754 11.377717-3.973171 11.01652-5.598559 27.812199 0.180599 38.64812 2.167184 3.611974 5.056763 6.86275 7.946342 9.571731 10.474724 8.668737 22.755435 11.01652 22.755436 11.01652 1.805987 0 3.973171 0.361197 3.792572 6.140356 0 5.779158-2.347783 16.073284-13.183704 16.073283-4.876165-0.361197-9.391132-1.805987-13.364304-4.334368-25.103218-14.628494-35.758541-63.209542-17.698671-86.867971 4.334369-5.417961 11.01652-9.391132 17.698671-11.738915 11.197119-3.973171 22.394238-3.973171 24.019626-1.083592-0.722395 3.250776-13.003106 0.722395-24.019626 11.377717z m322.910461 43.524284c1.264191 1.083592 2.70898 1.805987 4.334369 2.167185 15.712086 6.140356 43.704883-19.685257 44.06608-19.685258 1.083592-1.083592 1.805987-2.167184 3.250777-1.444789 0.541796 0.361197 1.264191 1.44479 2.167184 3.250776 2.167184 5.056763 0.541796 6.501553-1.083592 7.946343l-1.083592 1.083592c-5.959757 5.056763-31.965968 26.728606-48.942246 20.046455-2.167184-0.722395-3.973171-1.44479-5.598559-2.528382-6.86275-4.695566-11.738915-12.46131-14.086698-20.407652-2.70898-7.946342-3.250776-16.795678-2.167184-24.200225 0.180599-1.44479 0.541796-3.250776 1.083592-4.695566 0.722395-2.528382 1.264191-5.417961 5.056763-2.889579 3.792573 2.528382 2.889579 5.056763 2.167184 7.585145-0.180599 1.083592-0.180599 1.805987-0.541796 2.889579-0.722395 5.056763-0.180599 11.01652 1.625389 16.434481 1.625388 5.779158 4.876165 11.01652 9.932928 14.267297z m252.476971-165.247802c-9.391132 28.534593-20.227053 28.895791-36.300337 24.019626-1.44479 0 37.564528 0.361197 29.076389-49.664641-3.431375-19.32406-16.253882-28.534593-29.979383-29.256988-2.347783-0.361197-4.876165 0-7.223947 0.361198-9.391132 1.44479-18.782264 8.668737-24.019626 14.267296-6.682152 6.501553-9.391132-14.628494-6.501553-17.518073 10.474724-10.655323 24.561422-16.434481 37.745126-15.350889 6.140356 0.722395 12.280711 2.528382 17.698672 6.140356 15.712086 11.377718 25.825613 38.286923 19.504659 66.821516z m50.928831 146.28494c-1.625388-0.722395-3.431375-1.083592-5.237362-1.805987-6.682152-3.611974-0.541796-22.936034 5.237362-21.852442h0.722395c36.119738 17.87927 33.410758-37.925725 7.043349-50.748232-1.083592-0.361197-2.167184-0.722395-3.431375-1.083592a15.531487 15.531487 0 0 0-4.334369-0.722395c-1.264191-0.361197-2.347783-0.722395-3.792572-0.722395-13.725501-2.167184-35.577942 1.805987-35.758541 1.805987-5.417961 0.361197 17.87927-11.377718 39.551113-10.655323 9.391132 0.361197 18.421067 2.889579 24.92262 9.571731 33.410758 35.036146 7.765744 83.978392-24.92262 76.212648z m153.147691-34.313752h-1.986586c-20.588251 0.361197-28.353995-8.126941-37.022732-16.434481-9.391132-12.46131-20.588251-32.507765-17.87927-34.313751 0.541796-1.083592 9.571731 16.073284 20.407652 27.812199 7.223948 7.585145 17.87927 13.183704 34.674949 11.197118h0.722394c34.133153-4.334369 35.758541-31.78537 35.758541-31.785369 1.083592-6.682152 18.782264-8.488139 18.782264-0.722395 0 0-14.267297 39.009317-53.457212 44.066081zM1766.317342 683.357276l-35.397343-27.992797-51.470627 40.454107-13.364304 11.01652 13.364304 10.474724 72.961871 58.152779-72.961871 64.112535-43.343686 37.925726-85.964978-67.905108-127.322077-100.954669-46.233265-36.119738-23.47783 17.518073-40.634706 30.882376 40.634706 32.146567 69.711095 55.443798 127.322077 101.496465 86.326175 68.266306 42.982489-33.952554 86.86797-68.627503 83.797793-66.099121 37.745127-29.437587-37.745127-30.34058-83.797793-66.460319zM1125.191987 586.736976l-37.203331-29.618185-31.965968-25.645015-92.647129 77.476839c-12.822507-11.377718-32.688363-27.089804-56.346792-45.691469-58.513976-45.330272-142.311769-107.998018-210.758673-160.552237-43.524285-33.591357-80.908214-63.570739-101.135268-82.172405-8.30754-7.585145-13.364303-13.906099-19.504658-24.922619-14.989691-26.18681-16.073284-46.413864-11.919514-67.182713 6.682152-35.397344 26.18681-61.222956 51.290029-77.657438 21.130047-14.267297 51.10943-22.936034 81.45001-22.574836 42.80189 0.722395 86.506773 18.962863 108.720412 65.737924 12.280711 25.464416 12.46131 68.627503-4.334369 88.31276-16.253882 18.962863-45.330272 25.825613-62.848344-2.889579-14.267297-22.936034-3.431375-59.597568 15.531487-24.380824 28.173396 51.470627 52.193022 9.571731 45.149673-33.952554-9.029935-57.249785-52.373621-74.406661-86.867971-78.741029-5.056763-0.722395-10.474724-1.083592-15.531487-1.44479-27.451001-0.722395-55.2632 6.140356-78.018635 21.130047-23.297231 14.989691-40.815304 38.64812-46.95566 70.794687-3.250776 16.073284-2.347783 31.78537 8.849336 53.276614 6.140356 11.377718 13.364303 20.046455 22.213639 27.6316 18.421067 16.795678 52.554219 44.246679 94.091919 76.212648 30.521179 23.658429 64.83493 50.387035 99.871076 76.935043l110.887597 83.617194 57.97218 43.343686 83.436595-68.627503-6.140355-4.695566-79.102227 62.487147-56.166193-44.246679-28.895791-22.213639c0.180599-1.083592-100.232274-76.573845-181.862882-140.144585-50.567634-39.009317-94.091918-73.323069-102.941255-83.617194-13.364303-14.628494-17.156876-32.146567-16.795678-44.427278-0.722395-57.610983 52.373621-91.563537 105.830833-95.175511 4.876165-0.361197 9.391132-0.361197 13.9061-0.361197 35.216745 1.083592 68.627503 16.073284 83.617194 42.80189 20.227053 35.758541 10.113527 72.600674-3.250777 69.349897-3.431375-0.722395-7.765744-8.126941-12.280711-16.073283-14.447895-25.103218-35.036146-31.78537-56.707989-28.353995-3.973171 0.722395-7.765744 1.44479-11.558316 2.528382-17.156876 4.695566-31.965968 17.87927-39.731712 57.97218-6.501553 35.758541 13.906099 58.694575 28.89579 66.099121 3.792573 1.44479 7.404546 2.528382 11.016521 3.250777 14.447895 2.167184 26.728606-3.611974 33.410757 6.501552 14.989691 22.574836 72.961871 69.349898 122.98771 23.297232 49.845239-46.413864 5.237362-82.533602 38.106323-62.487148 4.695566 2.889579 10.474724 4.334369 16.253883 4.334369 33.952554 0 79.644023-44.969074 82.894799-78.379832 3.250776-32.507765-8.488139-48.581048-5.237362-62.12595 1.625388-7.765744 14.989691-17.156876 19.143461-28.895791 40.273508-106.372629-35.577942-156.398467-96.981497-151.8835-9.029935 0.361197-17.698672 2.167184-25.645014 5.056764-62.487147 22.936034-47.858653 57.610983-18.962863 65.737924 28.895791 7.946342 20.76885 43.163087 4.695566 51.109429-26.18681 12.822507-64.83493-49.303443-117.750347-56.888588-23.839027-3.250776-40.634706-1.805987-53.096015 0-22.755435 3.973171-31.062975 10.294125-39.009318-4.695566-43.343686-79.102227-88.673958-17.87927-105.830833-37.20333-3.250776-3.611974-6.682152-6.682152-10.474724-7.946343-15.531487-7.404546-35.036146 2.889579-57.430384 21.852442-27.270402 23.297231-4.514967 72.600674 19.685257 80.727615 13.725501 4.334369 26.006212-11.738915 37.745127-14.267296 3.250776-0.722395 6.320954-0.722395 9.391132 1.083592 11.558316 6.320954 11.197119 8.126941-1.625388 8.849336-2.70898 0-5.056763 0.361197-7.765744 1.444789-13.544902 5.056763-26.728606 21.491244-32.868962 35.397344-11.197119 24.561422-17.698672 51.831825-22.755435 54.721403-5.056763 2.528382-70.252891-50.025838-92.647129-58.333377-19.143461-7.404546-35.758541-7.765744-49.484041-5.056763-25.103218 5.056763-41.718298 20.76885-51.831825 25.645014-15.531487 7.223948-27.451001 5.779158-36.300337 0.722395-16.253882-9.391132-21.671843-31.062975-16.253882-28.895791 3.792573 1.083592 9.932928 3.611974 16.253882 3.611974 1.986586 0 3.973171 0 6.140355-0.361198 19.143461-4.695566 36.480936-51.10943 19.143462-83.978391-6.320954-11.738915-15.17029-18.601665-25.464416-21.852442-33.410758-10.655323-81.811207 18.240468-99.871076 59.055772 0 0-5.598559-44.066081-51.290029-54.721403-7.946342-1.805987-17.156876-2.528382-27.992797-1.805987C4.757703 44.037907-11.676778 167.748011 7.286085 201.700565c18.782264 33.591357 69.711095 11.377718 73.684266-27.089804 3.250776-9.932928 12.280711-15.712086 22.936034-16.43448 20.949448-1.44479 47.497456 17.518073 46.052666 66.821515-1.264191 38.286923 42.80189 50.387035 58.513976 44.24668 18.962863-7.585145 17.337474-4.695566 10.655323 11.738915-3.973171 9.932928-9.391132 32.868962 3.431375 59.778167 10.113527 21.852442 21.130047 32.507765 32.507765 37.564528 29.076389 13.183704 60.139364-12.100112 84.339589 15.350889 1.264191 1.44479 2.347783 2.528382 3.792573 3.611973 33.591357 31.78537 81.269411-3.973171 81.991806-54.721403 0.541796-52.915417-45.691469-81.088813-56.527391-62.12595-5.056763 9.210533-15.531487 15.350889-25.464415 15.350889-11.197119 0-21.310646-7.585145-22.21364-26.909205-0.722395-16.434481 7.946342-25.103218 22.21364-26.909205 14.447895-2.167184 35.036146 2.889579 56.888587 13.364303 31.78537 16.073284 84.700786 56.888588 140.686381 104.386044 53.999009 45.330272 111.068195 96.439701 155.134276 136.53261 2.347783 2.528382 5.056763 4.695566 7.404547 6.862751 65.918522 60.139364 134.365427 112.693584 203.354127 165.970197 18.962863 14.628494 38.106324 29.256988 57.430384 44.066081l82.353003-64.654331 41.3571-32.868962 37.203331-29.256988zM889.871891 117.722174c3.973171-11.01652 5.598559-27.6316-0.361197-38.64812-10.655323-16.795678-30.701778-20.407652-30.701778-20.407653-1.986586 0-3.973171-0.361197-3.792572-6.140355 0-5.779158 2.347783-16.073284 13.003106-16.073284 20.046455 1.44479 34.49435 22.936034 38.64812 45.872068 1.805987 9.210533 1.805987 18.962863 0 27.812199-1.264191 6.501553-3.973171 12.822507-7.765744 17.518073-11.01652 14.267297-39.189916 17.518073-41.718298 12.822507 1.083592-4.334369 20.588251 0.722395 32.327166-22.574837zM159.169585 189.600453c-0.541796 1.083592-9.571731-16.073284-20.227054-27.812199-7.223948-7.585145-17.87927-13.183704-34.674949-11.377717h-0.722394c-34.133153 4.334369-35.758541 31.78537-35.758541 31.78537-1.083592 6.501553-18.782264 8.30754-18.782264 0.722394 0 0 14.086698-39.009317 53.457212-44.06608h1.805987c20.588251-0.361197 28.353995 8.126941 37.203331 16.43448 9.391132 12.46131 20.588251 32.507765 17.87927 34.313752z m96.078504 0.722395c-9.391132-0.361197-18.421067-2.889579-24.92262-9.391132-33.049561-35.036146-7.765744-83.978392 24.92262-76.212648 1.986586 0.722395 3.431375 1.083592 5.41796 1.805987 6.682152 3.611974 0.541796 22.936034-5.41796 21.852441h-0.902994c-36.119738-17.87927-33.410758 37.925725-6.86275 50.748233 1.083592 0.361197 2.167184 0.722395 3.431375 1.083592 1.264191 0.361197 2.70898 0.722395 4.334369 0.722395 1.264191 0.361197 2.347783 0.722395 3.792572 0.722394 13.544902 2.167184 35.577942-1.805987 35.758541-1.805986 5.237362-0.361197-17.87927 11.377718-39.551113 10.474724z m58.152778 86.145576c3.431375 19.32406 16.253882 28.534593 29.979383 29.256988 2.528382 0.361197 4.876165 0 7.223948-0.361198 9.391132-1.44479 18.782264-8.668737 24.019626-14.267296 6.682152-6.501553 9.391132 14.628494 6.320954 17.518073-10.474724 10.655323-24.561422 16.434481-37.745126 15.350889-6.140356-0.722395-12.280711-2.528382-17.518074-6.140356-15.712086-11.197119-26.006212-38.286923-19.504658-66.821516 9.391132-28.534593 20.227053-28.895791 36.300337-24.019626 1.264191 0-37.745127-0.361197-29.07639 49.66464zM558.653891 85.575606a9.842629 9.842629 0 0 0-4.334369-2.167184c-3.792573-1.44479-8.488139-1.083592-13.364303 0.361198-14.809093 4.695566-30.521179 19.32406-30.701778 19.32406-1.625388 1.44479-3.250776 3.250776-5.237362-1.805987-2.167184-5.056763-0.541796-6.501553 1.083592-7.946343 0 0 17.87927-16.795678 35.036147-21.130047 5.237362-1.44479 10.474724-1.805987 14.989691 0 2.167184 0.722395 3.973171 1.44479 5.598559 2.528382 6.86275 4.695566 11.738915 12.46131 14.086698 20.407652 2.70898 7.946342 3.250776 16.795678 2.167185 24.019626-0.361197 1.44479-0.541796 3.250776-1.083592 4.695566-0.902993 2.528382-1.44479 5.417961-5.056764 2.889579-3.792573-2.528382-2.889579-5.056763-2.167184-7.765744 0.180599-1.083592 0.180599-1.805987 0.541796-2.889579 0.722395-5.056763 0.180599-11.01652-1.625388-16.434481-1.625388-5.779158-4.695566-11.01652-9.932928-14.267296z" fill="#BE9C78" p-id="18595"></path><path d="M1386.698892 794.786669l-33.591356 25.825613-53.637812 41.718298-61.764752-48.219851-45.510871-35.397344 45.510871-36.119738 115.402564-91.563537 69.711095-55.624397 24.019626-18.962862-24.019626-18.962863-45.510871-35.758541-24.200224 18.962863-115.402564 91.744135-68.446905 53.81841-81.269411 63.931937-38.286922 30.34058 38.286922 30.159982 81.269411 63.931937 48.039252 37.925725 20.407653 16.073283 62.848344 49.664641 0.180599-0.361198 52.373621-40.815304 69.711095-55.2632 37.383929-29.437586-37.383929-29.256989-36.119739-28.353994z" fill="#BE9C78" p-id="18596"></path><path d="M1550.140708 793.703077l85.242583 67.002114 44.066081-37.20333 56.888587-47.678055-56.888587-44.246679-21.310646-16.434481-8.30754 5.417961 29.618186 22.755435 42.801889 32.688363-42.801889 35.577942-42.982489 35.397344-86.326175-68.266306-127.322077-100.051675-27.992798-22.213639-9.752329 7.585145 37.745127 29.256988 127.322077 100.412873z" fill="#BE9C78" p-id="18597"></path><path d="M1353.107536 672.160157l69.711095-55.082601 37.925725-29.618185-6.682152-5.417961-31.243573 24.742021-69.711095 55.804996-115.402564 91.202339-32.146568 25.283817 32.146568 25.464415 60.68116 48.219851 54.721404-43.524285 26.18681-20.768849-2.528382-1.805987-23.658428 18.962862-52.915417 41.718298-62.487147-49.303443-22.394238-17.518073 22.394238-17.518073 115.402564-90.841142zM1422.818631 543.212691l123.348906 97.523294 3.973171-2.889579 0.902994-0.722395-0.902994-0.722395-127.322077-101.496465-69.711095-55.443798-37.925726-30.34058-5.959757 4.334369 43.885483 34.674948 69.711095 55.082601zM1287.55021 571.747285l-49.845238-39.370515-68.446905-53.637812-81.269411-64.293134-124.071301-97.884491-56.888588 43.885482-107.456222 82.533602 6.140356 4.695566 101.315866-76.573845 56.346792-43.163087 124.613097 98.245688 81.269411 63.751338 68.446905 53.637812 42.260093 33.230159 7.585145-5.056763zM1550.140708 128.738694l87.409767-68.9887h0.180599l3.070177 2.528381 38.648121 31.062975L1766.317342 162.691248l83.797793 67.543911 24.380824 19.32406-24.380824 19.32406-83.797793 68.627502-86.86797 70.43349-120.459328 97.703892 2.167184 1.805987 118.292144-93.369523 86.86797-68.627503 83.797793-66.460319 39.009318-30.521179-39.009318-30.701777-43.704883-34.674949-40.09291-31.78537-44.607877-35.397343-42.260093-32.868962-41.176502-32.868962h-0.180599l-83.075398 65.737924-4.876165 3.973171-75.309654 59.597568 5.417961 4.334369 69.891693-55.082601zM2140.337233 443.702812c-17.156876-9.029935-52.554219-37.925725-71.517082-53.637811-5.056763-3.973171-8.849336-7.404546-11.01652-8.849336l-83.255997-65.737924-0.541796-0.361197-123.710104 98.065089-38.828719 30.701778 5.59856 3.611974 33.04956-26.006212 123.348907-95.897905 95.17551 73.684266 63.751338 49.303443 7.765744-5.056764z" fill="#BE9C78" p-id="18598"></path><path d="M1972.199851 338.594374l-122.084716 95.897905-23.297231 18.601665 23.297231 19.32406 44.969074 37.203331 79.282826-62.667746 78.199234 60.500561 16.073283-11.558316 56.346792-41.3571-56.346792-42.982489-96.439701-72.961871zM1140.723474 442.980417l4.514967 3.611974 24.019626-18.601665 68.446905-52.915417 115.402564-89.035155 31.424172-24.200224-6.86275-5.779159-24.561422 19.685258-115.402564 90.841142-68.446905 53.999009-28.534593 22.394237zM1422.818631 351.958677l37.564527-29.798784-37.564527-29.979383-31.604771-25.103218-38.106324 29.798784-115.402564 90.299346-68.446905 53.096015-16.253882 12.46131 16.253882 13.183704 54.179608 43.343686 14.267297-11.197119 115.402564-90.841142 69.711095-55.263199z" fill="#BE9C78" p-id="18599"></path><path d="M1422.818631 179.486926l-69.711095-54.360206-57.791582-44.969074-57.610982 44.607877-68.446905 52.554219-81.269411 62.306549-7.585145 5.959756 7.585145 6.140356 81.269411 66.460318 53.276614 43.704884 15.170291-11.738915 54.360206-41.537699-54.360206-42.982489-20.949449-16.073283 20.949449-16.434481 61.945351-49.303443 53.457213 42.260094 31.243573 24.922619-0.541796 0.361197 39.009318 31.424173 43.524284 34.855547 1.264191-1.083592 75.670852 59.597568 6.86275-5.41796 58.333378-46.413864-58.333378-45.330272-127.322077-99.509879z" fill="#BE9C78" p-id="18600"></path><path d="M1550.140708 384.827639l-71.878279 57.069186 71.878279 56.888588 3.070178 2.528382 126.238486-102.580057 86.86797-70.072292 83.797793-68.266306 13.364303-10.835921-13.364303-10.655323-83.797793-66.821516-86.86797-68.9887-41.718298-33.049561-87.590366 70.072292-62.487147 49.845239 62.487147 48.219851 8.126941 6.682152 80.005221-62.848345 41.176502 32.507764 43.524284 34.313752-43.524284 34.313751-129.308664 101.677064zM1169.258067 506.370558l-81.269411-64.293134-124.613097-99.148682-56.346792 41.898897-93.008326 69.349897 11.558316 9.210534 62.12595 45.51087 19.32406-15.17029 57.430384-45.330272 123.529505 97.342695 81.269411 64.293134 36.119739 28.534594 32.327166-26.367409 31.785369-26.186811-31.785369-25.283817-68.446905-54.360206z" fill="#BE9C78" p-id="18601"></path></svg>