<?xml version="1.0" standalone="no"?><!DOCTYPE svg PUBLIC "-//W3C//DTD SVG 1.1//EN" "http://www.w3.org/Graphics/SVG/1.1/DTD/svg11.dtd"><svg t="1784481181230" class="icon" viewBox="0 0 2842 1024" version="1.1" xmlns="http://www.w3.org/2000/svg" p-id="19075" xmlns:xlink="http://www.w3.org/1999/xlink" width="555.078125" height="200"><path d="M2842.236726 74.42018H2.890104V0h2839.346622v74.42018zM771.657788 235.904745l15.173046 12.282942c20.41136-6.502734 58.343976-19.688834 91.399542-39.197036-14.631152-2.890104-53.466925-9.212207-90.315753-3.251367l-16.076204 30.165461zM40.642089 542.797672c-16.256835-7.405892-27.817252 6.141471-29.262304 21.495149-2.34821-6.863997-8.489681-12.644205-5.96084-21.495149l-0.722526-7.225261v-7.405891l4.877051-15.53431 5.418945-7.767154 7.586523-7.044629 5.780208-3.070736 18.785677-7.767154c11.560416-4.696419 11.560416-18.605045 19.146939-26.552832l4.335156-7.767154c21.314518-39.5583 42.809667-79.477862 72.613865-117.049215 9.934733-11.560416 3.070736-31.24925-9.934733-46.964192l-7.044628-7.405891c-5.96084-6.141471-14.811783-9.212207-20.953255-6.502734l-5.057682 4.696419-4.696419 6.863997c-11.560416 15.534309-27.997883 26.733463-47.867349 21.67578l-8.670312-1.986946-9.031575-4.696419-7.22526-6.863997c-14.269889-16.979361-14.992415-38.293879-3.793262-53.828189l6.502734-7.22526c18.605045-23.662727 41.003352 3.61263 66.653025-8.489681l-5.599576-8.48968-2.709473-4.335157c1.806315-17.340624 24.385253-23.301464 24.02399-42.267772l0.361263-4.335156V160.762039l-0.361263-5.057682-0.722526-5.057682c-1.445052-8.128418-4.515788-15.353678-11.199153-21.675781l-4.515788-3.793261c-21.856412-14.992415-47.506086 6.141471-41.183983 27.455988 6.502734-6.141471 19.327571-15.173046 30.346093-6.141471l1.264421 2.890104 0.361263 15.714941-2.34821 4.515788a15.895572 15.895572 0 0 1-13.547363 7.22526l-4.335156 0.722526-4.335156 0.722526-5.057682 0.361263-7.044629-0.541894c-10.657259-0.541895-19.869466-5.418945-25.28841-12.463574l-3.070736-4.335156-2.167578-6.502734C12.463574 148.298465 11.741048 141.253837 13.005468 134.389839l1.806315-6.683365 1.445052-5.96084 2.890104-5.780208 2.709473-3.61263 2.890104-3.070736c15.714941-17.340624 35.042512-11.199153 55.634504-9.934732l6.322102 1.986946 12.102311 5.780208 5.599577 4.696419 4.696419 6.141472 2.890104 3.973893 7.22526 18.06315 1.986947 10.295996 0.722526 4.335156 1.445052 4.696419 0.903157 5.057682c2.890104 9.212207-0.361263 21.495149 8.309049 27.094726l3.251368 3.251367 4.335156 2.890104 4.87705 2.709473 2.890104 2.167578 3.070736 1.986946 4.877051 2.34821c32.152408 15.173046 77.129652-2.890104 77.129652-39.197037 0-15.173046-16.076204-27.275357-32.152408-21.133886-6.502734 6.141471 0 18.243782-6.502734 24.204622l-6.683366 1.083789-6.322102-0.541895c-15.895572-3.61263-22.398307-12.644205-23.301464-24.204621l-0.361263-6.322103 1.26442-6.322103c9.754101-18.06315 25.830305-36.306932 48.228612-36.306932 35.403775 0 74.058917 24.204622 74.42018 61.595343l0.722526 9.212207c0.361263 14.811783-4.877051 27.997883-13.727995 39.919562l-5.238313 6.683366-12.282943 12.463574-7.767154 6.683366-7.947786 6.502734-41.364615 29.262303c-13.1861 9.212207-8.128418 40.461457 9.934733 35.765038 36.306932-7.767155 71.168813-17.159993 107.475745-7.767154 84.354913 20.230729 165.458458 102.779326 249.813371 32.694302 24.927148-20.230729 39.738931-48.228612 34.86188-79.477862-3.431999-20.230729-14.811783-39.016405-33.055565-48.228612-21.495149-9.392838-44.615982-12.282942-66.111131-1.625683-21.495149 12.463574-39.738931 43.712824-16.618098 60.692185 8.309049 6.322103 6.683366-10.83789 9.934733-15.534309 3.431999-7.767155 19.869466-6.322103 28.178514-1.625684 16.618098 10.83789 13.1861 38.835774-3.251367 46.78356-31.429882 12.463574-69.543129 4.696419-92.663962-20.230728-19.869466-21.856412-16.618098-51.479979-6.683365-76.407127-29.804198-9.392838-57.982713-26.733463-64.485447-56.357029 11.560416 4.696419 23.120833 4.696419 34.681248 0l4.515788-1.445052 4.696419-1.806315 3.973893-2.34821 18.063151-11.741048 6.141471-3.973893 4.877051-4.335156 5.057682-3.070736 7.405891-3.61263 7.767155-3.070735 7.586523-0.722526 7.22526 0.903157 19.869466 6.502734 5.057682 1.083789 12.644205 2.890104 6.141472-0.903157c25.107779-12.282942 50.757453-18.243782 72.07197-1.806315l3.251367 3.251367 2.34821 3.431999 1.986946 3.793261 2.528841 5.418945c1.986947 5.780208 2.709473 12.282942 1.083789 18.966308l0.903158 5.057682 5.780208-1.445052c13.727994-1.264421 29.081672 10.83789 29.081672 21.856412-3.251367 29.623567 6.683366 65.388605 39.738931 68.459341 26.552831 3.070736 52.925031-12.282942 64.485447-34.319986 5.780208-10.83789 7.767155-31.24925-3.973893-42.448404l-5.960839-4.335156-3.070736 4.696419-3.973893 3.61263c-7.586523 5.238314-17.882519 6.141471-26.191568 2.34821l-4.696419-2.890104-3.431999-5.057682c-7.586523-13.908626-4.877051-28.720409 3.070736-39.197037l4.515787-5.057682c19.146939-20.050097 51.299347-13.908626 69.723761 0.361263l3.793262 3.793262 5.780208 9.212206 2.709472 6.502735c4.154525 10.83789 8.670312 22.217675 25.469043 26.372199h22.759569c24.927148-1.083789 50.034927 3.61263 75.142706 3.251367l9.392838-0.541894 26.191569-4.877051 8.48968-2.528841c14.089257-3.070736 27.275357-9.212207 40.461457-15.534309l7.947786-3.973893c27.455989-13.005468 54.00882-30.165461 87.064386-25.649674-29.804198 11.018522-52.925031 34.319986-76.949021 56.357029l-5.418945 4.877051-5.238314 4.696419-6.502734 5.780208-19.14694 14.450521-6.502734 4.87705c-19.146939 10.115364-35.584406 25.649674-56.537661 34.861881l-7.586523 4.154524c-24.927148 13.727994-49.493032 27.997883-75.865232 39.5583 28.178515 31.24925 0 76.407126-31.429882 96.637855-16.618098 9.392838-34.86188 6.322103-51.299347 0-21.495149-7.767155-19.869466-37.390721-5.057682-51.479979 14.992415-12.463574 41.364615-10.83789 49.673664 7.767155 21.495149-17.340624 14.811783-48.228612-6.683366-60.872817-16.437467-7.767155-34.681249-14.089257-51.299347-7.767155-38.113247 14.089257-42.990298 57.802081-49.673664 93.567119-3.251367 18.605045-38.113247 32.694302-34.681249 57.802082 3.431999 27.997883 6.502734 59.247134-8.309049 85.619333-8.309049 17.159993-6.683366 46.964191-26.552832 60.872817 1.625684-20.230729-11.560416-38.835774-8.309049-57.62145 4.877051-29.623567 13.1861-63.943553-11.741048-87.425648-14.811783-12.463574-33.055565-21.856412-49.673663-20.230729-13.1861 0-41.364615-4.696419-36.306933 6.141472 8.309049 14.089257 31.429882 26.552831 36.306933 48.228611 4.877051 27.997883-27.997883 49.854295-11.560417 71.710708 18.06315 21.856412 18.06315 52.925031-1.625683 70.085023-13.1861 15.534309-37.932616 17.159993-51.299348 32.694303-13.1861 14.089257-18.243782 29.623567-39.738931 35.765038-26.552831 7.767155-49.673664 1.625684-72.794496-10.837891-8.128418-4.696419-18.243782 3.070736-26.3722 4.69642-61.23408 26.552831-79.297231-42.087141-112.533427-81.103546-11.741048-12.463574-26.552831-12.463574-39.738931-1.625684-5.057682 3.070736-9.934733-1.625684-9.934733-6.322102 0-20.230729 13.1861-42.087141 33.055566-48.228612-8.128418-10.83789-6.683366-23.301464 0-34.319986 16.618098-21.856412 54.550714-9.212207 61.23408-38.835773 3.251367-17.159993-8.309049-34.319986-24.746517-40.642089 19.688834-17.159993 51.299347-17.159993 72.794497-1.625683 9.934733 6.322103 4.877051 18.605045 8.309049 29.623566 21.495149-6.322103 42.990298-3.070736 51.299347 18.605045 6.683366 21.856412 1.806315 49.854295-24.746516 59.247134-6.683366 3.070736-14.992415 4.696419-23.120832 1.445052-8.309049-4.515788-8.309049-12.282942-13.1861-18.605045-11.560416-15.534309-31.429882-1.625684-37.932616 14.089257-8.309049 26.552831 3.251367 54.550714 24.746516 73.336391 21.495149 16.979361 47.867349 18.605045 74.42018 14.089257 38.113247-7.767155 67.917446-35.945669 77.852178-71.710707 11.560416-50.034927 4.877051-102.959958-33.055565-138.724995-52.925031-51.479979-139.086259-73.336391-205.197389-37.390722-69.543129 35.765038-110.907744 110.727112-102.598695 185.327924 11.560416 87.425648 86.161228 158.955724 170.335509 185.689187 136.376786 42.809667 275.282413-0.903158 378.964897-92.483331 20.772623-18.243782 40.100194-38.47451 57.802081-60.330922 78.935968-109.28206 187.495502-225.789381 320.079027-273.295467 54.731346-44.074087-9.934733-84.896807-9.934733-84.896807 76.768389-10.295996 101.153643 34.319986 108.920797 63.58229 39.016405-2.890104 79.658494 0.722526 121.926266 12.10231 27.817252 7.22526 53.105662 17.521256 76.587758 29.98483 23.482096 12.282942 45.157876 27.094726 65.749867 42.990298 74.42018 61.053449 135.65426 132.764156 206.642442 199.778444 82.729229 76.407126 225.066855 109.101429 299.487035 3.070736 47.867349-70.265655 37.932616-154.259305-5.057683-222.899277-36.487564-56.176398-104.224378-87.425648-172.141823-70.085024-39.738931 10.83789-74.42018 34.319986-92.663962 68.459341-24.927148 46.964191-6.683366 112.352796 46.241665 132.583524 24.927148 7.767155 49.673664 4.696419 72.794496-9.212207 18.243782-11.018522 36.487564-45.157876 13.1861-50.034926-16.437467-4.696419-44.615982 17.340624-59.608397-3.070736-21.495149-29.623567 8.309049-59.247134 41.364615-59.247133-1.625684-12.282942 9.934733-21.856412 19.869466-26.552832 14.811783-7.767155 31.429882-3.070736 46.422296 4.696419 18.243782 10.83789 1.625684 31.24925 13.1861 42.087141 14.992415 14.089257 39.738931 20.230729 49.673664 40.461457 11.560416 23.482096-3.251367 43.712824-24.746516 54.550714-1.625684 1.625684 0 6.141471 0 7.767155 19.869466 9.392838 36.306932 31.24925 16.437467 48.409243-11.560416 9.212207-26.3722 12.282942-41.364615 14.089258 6.683366 12.282942 5.057682 26.552831-1.625683 38.835773-3.251367 7.767155-14.811783 18.605045-19.869466 12.463574-29.804198-39.016405-62.859764-48.228612-109.101429-56.176398-8.309049-1.625684-6.683366-10.83789-4.87705-18.605045-33.055565 6.141471-81.103546 1.625684-92.663962-34.319986-3.431999-12.463574 3.251367-26.3722 13.1861-35.765038-51.299347-17.159993-51.299347-76.407126-13.1861-109.101428 1.625684-1.625684-1.625684-6.141471-3.431999-6.141472-41.364615 15.534309-74.42018-9.392838-109.28206-26.552831-19.869466-10.83789-24.746516-29.442935-16.618099-48.228612-9.934733-29.623567-51.299347-32.694302-72.613865-12.463573-16.618098 15.714941-14.992415 40.642089-5.057682 59.427765-21.495149-6.322103-41.183983-17.340624-51.299347-37.390722-6.683366-15.534309 6.683366-28.178515 13.1861-40.642088 1.625684-3.070736 1.625684-11.018522-1.806315-11.018522l-18.243782-4.877051-16.979362-6.683365c-30.887987-16.618098-59.96966-36.487564-95.012171-43.532193l-9.754101-1.625684c-23.843359-2.34821-46.964191 11.560416-70.085024 6.863998 28.178515-6.141471 54.550714-23.482096 84.354913-26.3722l9.573469-0.541895c28.359146-1.264421 55.995766 2.167578 78.394073 22.398307l12.644206 3.61263h18.243782l37.029458-9.754101c13.1861-1.625684 23.120833 4.696419 34.86188 9.212207 4.877051-26.3722 28.178515-32.694302 51.118716-20.230729 5.057682-17.159993 18.424413-29.623567 38.113248-32.694302 24.746516-4.696419 38.113247 13.908626 56.176398 21.856412 17.521256-29.804198 48.409243-19.688834 77.852178-9.212207l9.57347 3.431999c29.98483 13.547363 82.909861 13.547363 91.21891-23.843359 5.057682 14.089257 8.309049 27.997883 3.070735 41.906509l-3.431998 7.767155c-6.502734 13.005468-17.521256 24.204622-28.901041 32.694302l-7.22526 5.057682c-17.521256 11.018522-40.461457 15.173046-62.679132 9.212207-4.877051-1.625684 6.502734 12.463574 3.251367 20.41136-9.934733 18.605045-42.990298 18.605045-61.23408 6.141471 11.560416-9.212207 26.552831-20.41136 19.869465-35.765038-3.251367-7.767155-11.560416-15.714941-21.495149-17.159993-26.552831-4.696419-51.299347 10.83789-62.859763 32.694303-8.309049 17.340624-9.934733 36.126301-3.251367 53.105662 4.877051 11.018522 13.1861 18.785676 24.746516 23.482096 34.681249 12.463574 62.859764-14.089257 91.038278-27.997884 9.934733-4.696419 24.927148 3.070736 31.429882-1.625683 23.120833-18.605045 46.241665-48.228612 79.477862-39.016405 1.806315-8.128418 5.96084-14.992415 11.741048-20.41136l6.141471-5.238314 22.217675-9.934733 8.128418-1.625683c18.243782-1.625684 39.738931-3.070736 52.925031 12.463574-19.869466 12.463574-46.241665 27.997883-44.615982 53.105662 49.673664-7.767155 97.541013 23.120833 119.036161 65.388605 13.1861-29.623567 29.804198-57.802081 41.364615-89.051332 11.560416-35.765038-29.804198-63.762921-64.666079-55.995766 1.806315-21.856412 28.178515-31.24925 48.047981-35.765038 19.869466-4.696419 41.364615 3.070736 54.731346 17.159993 18.243782-26.552831 72.794496-31.24925 94.289645-3.070736-31.429882 10.83789-67.917446 54.550714-46.422297 65.388605 54.731346 26.733463 129.151526 28.178515 172.141824 87.425648 8.128418 11.018522 29.623567 1.625684 37.932616-9.212207 9.031575-9.392838 11.199153-21.495149 8.670312-33.236197l-3.973893-11.379784c-2.890104-8.309049-9.212207-14.45052-14.631152-19.327571l-9.934732-6.502735-34.861881-13.366731-9.754101-3.251367c-24.927148-6.502734-51.299347-20.591992-56.357029-47.144823l9.392838 5.599577 9.212207 3.431998c7.767155 3.973893 16.618098 6.141471 25.28841 6.683366h8.489681c9.392838-0.903158 17.340624-3.973893 24.385253-8.489681l6.863997-4.87705 11.560417-9.934733c10.476627-6.141471 23.301464-6.683366 32.694302-1.445052l7.767155 7.22526 10.295995 14.089258 11.560417 9.573469c13.366731 5.238314 27.63662 5.418945 41.725877 2.34821l13.908626-4.154525 7.586523-3.61263 7.22526-3.973893c35.945669-22.398307 68.098077-61.595343 115.784795-46.602928l11.199153 3.61263c14.811783 5.780208 27.997883 15.895572 37.751985 30.165461l7.22526 10.83789 16.979361 34.500618 6.502735 11.199153 7.22526 9.754101 7.405891 3.251368 15.173047 5.780208 16.256835 1.986946 7.947786-1.625683c27.63662-0.180632 40.280826-18.243782 52.7444-39.919563l1.806315-9.754101-2.890104-10.657259-3.793262-9.934733-5.960839-9.754101-5.057683-5.780208c-15.714941-17.340624-38.293879-17.340624-57.440818-26.3722 27.997883-2.528841 56.357029-7.586523 82.006703 1.445052l10.83789 4.696419 10.837891 7.225261 11.921679 9.212206 3.431998 3.61263c10.476627-11.018522 24.02399-19.327571 39.919563-23.843358 55.092609-15.534309 102.237432 39.016405 77.852179 87.967543-18.243782 31.429882-73.697654 26.191568-72.975128-10.657259 2.34821-11.018522 17.340624-15.534309 33.59746-14.811784 5.780208-38.293879-39.377668-25.649674-51.660611-11.560416l-7.044629 10.115364 2.709473 18.966308-3.431999 23.843359-3.793261 10.115364c-18.424413 32.152408-63.401658 47.325454-100.250485 48.409244l-10.476627-1.264421c-10.657259-2.167578-20.953255-6.322103-30.165462-12.463574-3.251367 7.767155-1.625684 17.159993-6.502734 23.301464-3.793262 5.96084-10.476627 10.83789-17.882519 13.727995l-7.586523 2.348209c-46.78356 3.070736-77.671547-39.919563-71.349444-78.574704l2.528841-10.476628 0.903157-9.754101-0.541894-9.934733-3.61263-13.908625-6.863998-11.92168c-23.662727-28.359146-55.815135-3.973893-61.595343 19.688834-0.541895 3.793262 0 8.128418 2.528841 12.463574 3.61263 4.515788 7.22526 3.973893 11.018522 1.986947l11.921679-7.767155c2.890104-1.445052 5.96084-1.806315 9.212207-0.361263l7.767155 10.657259 0.903157 11.921679-6.141471 10.657259-9.212207 9.392838-10.115364 4.877051c-17.340624 5.780208-37.21009 1.806315-48.770506-9.934733l-12.463574 4.87705c-26.914094 15.173046-41.545246 46.241665-21.856412 72.794497 12.824837 15.173046 41.725878 18.06315 57.802082 2.890104 6.502734-9.031575 3.251367-21.133886-3.251368-30.165461-12.824837-12.102311-15.895572 9.031575-22.398306 9.031575-22.398307 3.070736-9.754101-27.275357 0-30.346093 38.47451-14.992415 64.304816 30.346093 48.228612 57.62145-12.824837 21.133886-38.655142 27.094726-63.401658 23.482096l-13.366732 0.903157c-18.06315-0.180632-39.016405-7.947786-51.841242-18.424413-3.251367 5.96084-9.754101 12.102311-16.979361 15.534309l-12.102311 1.986947c-12.644205 0.541895-26.191568-2.890104-36.126301-8.489681 4.154525 29.623567-7.044629 56.176398-26.733463 76.407126-19.508203 20.230729-47.686717 34.319986-77.490915 38.835774 21.675781 11.018522 29.804198 40.642089 6.683366 54.550714-21.675781 12.463574-49.673664 3.070736-64.666079 21.856412-24.746516 29.623567-24.746516 87.245017-79.297231 81.103546 4.877051-1.625684 4.877051-7.767155 6.502735-11.018522 16.618098-32.694302-1.625684-79.658494 41.545246-102.959957 3.251367-1.625684-19.869466-11.018522-21.675781-26.552832 0-13.908626 6.683366-31.068619 24.927148-35.765038 3.251367 0 1.625684-6.141471 0-6.141471-16.618098-3.070736-23.120833-17.159993-28.178515-27.997883-6.683366-15.534309 1.625684-34.319986 14.992415-45.157876 13.1861-9.392838 28.178515-7.767155 42.990298-3.251367 18.243782 6.322103 11.560416 26.552831 16.618098 37.390721 8.309049 17.340624 38.113247 1.625684 52.925031-11.018521 13.1861-10.83789 19.869466-27.997883 16.618099-45.157877-3.251367-27.997883-26.552831-51.299347-52.925031-60.872817-54.550714-21.856412-137.279944 6.322103-137.279944 60.872817-3.251367 112.352796 28.178515 252.703475-91.038278 328.92997-4.877051 4.696419-1.625684 12.463574 1.625683 12.463574 58.705239 3.070736 112.533427-12.463574 161.303934-39.016405 48.770506-26.3722 92.48333-63.762921 131.499736-104.40501 67.19492-75.142706 158.052567-126.622685 257.038631-158.233198l17.521256-5.418945c15.714941-7.044629 27.275357-20.772623 40.100194-32.513671l7.947786-6.502734c9.392838-8.850944 22.398307-5.780208 34.139354-4.696419l10.115365 3.61263c9.754101 4.696419 18.06315 12.102311 23.662727 21.133886 44.615982-43.532193 85.980596 7.947786 122.46816 32.874934 16.618098 10.83789 34.681249 3.070736 47.867349-7.767155 11.560416-12.282942 6.683366-27.997883 3.251367-42.08714-3.251367-7.767155-14.811783-20.050097-19.869466-13.908626-8.309049 12.463574-24.746516 20.230729-36.306932 11.018522-4.154525-4.696419-6.683366-10.657259-7.044629-16.256836l2.528841-11.018521c8.670312-14.992415 27.997883-24.02399 48.228612-24.746517l11.921679 0.361263 10.657259 2.34821 18.785676 9.392838 9.57347 7.405892 6.502734 6.502734c18.605045 20.050097 18.605045 50.39619-0.541894 71.349444l5.780208 0.541895 5.599577 1.083789 6.683365 1.806315c17.159993 5.780208 26.914094 14.811783 32.694303 30.526724l1.986946 6.502734c5.057682 8.128418 1.986947 17.159993 2.167578 24.927148v4.696419l-0.722526 6.502734c0.541895 17.340624-12.463574 32.513671-15.534309 50.757453 0-18.243782-3.251367-36.487564-10.476627-50.39619l-3.612631-3.61263-9.934732-5.599576-7.947787-0.903158-7.405891 3.973893c-11.199153 7.947786-16.79873 22.75957-10.115364 35.765038l1.625683 8.489681c14.811783 51.479979 39.738931 101.334274 33.055565 157.510672-0.722526 4.696419 2.709473 12.463574 6.322103 21.495149l3.61263 9.754101 2.167578 7.22526 1.445052 7.225261 0.903158 7.947786 1.26442 7.947786-0.361263 7.586523c2.890104 18.06315-10.295996 35.403775-22.217675 49.13177l-4.515787 6.502734 4.335156-7.22526c7.22526-13.005468 5.599577-27.094726 5.599576-40.642089l-1.986946-7.405892c-2.890104-7.044629-9.212207-13.005468-20.230729-16.79873h-9.031575c-8.670312 1.625684-16.076204 6.502734-19.869465 15.895573-12.824837 29.623567-8.309049 69.181866-27.094726 95.734697-9.57347 17.521256-8.128418 38.655142 8.128418 55.815135 12.824837 13.366731 59.427765 25.649674 53.466925-11.018522-16.979361 0.541895-32.333039-3.61263-34.86188-14.269888-0.722526-35.403775 56.537661-40.280826 75.503969-10.295996 25.288411 46.964191-23.662727 99.347328-80.561652 84.354912-29.081672-7.586523-50.39619-27.094726-60.511554-50.396189l-4.696419-14.450521-2.890104-11.921679c-11.741048 7.947786-19.327571 26.3722-37.21009 26.3722-26.3722 0-39.738931-20.230729-54.550714-37.390722-26.552831 32.694302-56.357029-9.392838-74.42018-27.997883-4.877051-4.696419-18.243782 7.767155-23.120833 3.070736-52.925031-42.087141-79.477862-112.172164-148.84036-132.583525-36.487564-9.212207-72.794496 11.018522-91.038278 40.642089-9.934733 17.159993-6.502734 37.390721 3.251367 54.550714 13.1861 20.41136 38.113247 35.945669 64.485447 31.24925 6.683366-1.625684 11.741048-9.392838 8.489681-12.463573-11.560416-14.089257-43.17093-18.785676-24.927148-39.016405 13.1861-17.159993 37.932616-12.282942 54.550715 0 14.811783 12.463574 14.811783 31.24925 16.618098 48.228611 13.366731-4.696419 24.927148 0 36.487564 4.696419 16.618098 9.212207 26.552831 29.623567 23.120833 48.228612 14.811783-3.251367 31.429882-1.625684 39.738931 9.392838 26.191568 25.649674 55.453872 41.003352 88.328806 47.506086l9.212206 1.625684c8.309049-0.903158 14.992415 2.167578 23.301464 1.986946h5.96084l5.96084 0.180632h7.044628c12.463574 1.625684 35.584406-1.625684 40.461457 15.534309-8.850944-8.128418-20.591992-8.850944-31.791144-7.586523l-8.30905 1.26442-44.977244 8.128418-9.031575 1.625684c-24.927148 6.141471-51.479979 2.890104-72.794497-7.767155l-6.322103-2.167578-6.322102-1.625684-7.767155-2.709472-16.076204-3.070736-9.57347-1.26442c-22.217675-1.625684-46.422297 5.057682-66.833656 7.586523-23.120833 3.070736-34.681249-24.927148-23.120833-43.712824-24.927148 6.322103-49.673664-3.251367-56.357029-27.997883-19.869466 14.089257-43.17093 14.089257-62.859764 0-1.625684 9.392838-6.683366 18.605045-14.992415 23.482095-14.811783 6.322103-37.932616 7.767155-46.241665-6.141471-13.1861-20.41136-18.06315-46.78356-47.867349-53.105662-11.560416-1.625684-24.746516 3.070736-27.997883 15.534309-3.431999 12.463574 3.431999 23.482096 14.811783 29.623567 11.560416 6.141471 29.804198-3.070736 26.552832-12.463574-4.877051-12.463574-24.927148 11.018522-29.804199-6.141471-1.625684-6.141471-1.625684-12.463574 6.683366-14.089258 18.243782-4.696419 27.997883 11.018522 36.306932 23.301465 6.683366 11.018522 0 23.482096-6.502734 32.874933-11.560416 17.159993-33.236197 24.927148-54.731346 18.605045-31.429882-7.767155-57.982713-43.712824-87.786911-31.24925l-7.767155 2.890104-7.767154 2.709473c-16.076204 8.128418-31.429882 19.508203-49.493033 22.217675l-6.863997 0.541894c-24.746516 2.528841-50.39619-9.392838-72.07197 8.128418l-3.973893 3.61263-6.141471 9.212207-3.070736 6.141471-6.863997 11.741048c2.890104-13.1861-1.625684-24.204622 1.625683-36.668196l1.986947-5.418945c6.141471-15.173046 15.895572-27.455989 32.694302-32.694302l5.238314-1.806315 5.599577-1.264421 6.502734-1.986946 6.683365-1.806315 8.489681-2.890104 7.767155-3.973893 8.670312-3.973894c14.089257-7.22526 26.914094-16.979361 39.377668-27.997883 9.934733-10.83789 26.3722-12.282942 42.990298-10.83789 9.934733 1.625684 23.120833 12.463574 26.3722 3.070736 11.560416-24.927148 38.113247-45.157876 66.291762-37.390722 18.243782 3.070736 29.804198 20.41136 48.04798 23.482096 26.3722 6.322103 39.738931-20.41136 42.990298-40.642089 4.877051-37.390721 6.683366-85.619333 56.176398-91.941436a8.309049 8.309049 0 0 0 5.057682-7.767154c-8.309049-34.319986 8.128418-74.781443 48.047981-71.710708-13.1861-10.83789-21.495149-27.997883-13.1861-45.157876 4.877051-9.392838 13.1861-17.340624 23.120832-18.785677 24.927148-7.767155 57.982713-1.625684 69.54313 23.482096 3.251367 9.392838-1.806315 21.856412-13.366732 24.927148-8.309049 1.625684-16.618098 0-24.746516 0-6.683366 0-11.560416 6.322103-9.934732 12.463574 4.877051 17.159993 31.429882 29.623567 46.241665 15.534309 36.487564-34.319986 51.299347-85.799965 100.973011-104.40501 29.804198-9.392838 47.867349 12.463574 67.736814 29.442936 9.934733 11.018522 37.932616-12.463574 61.23408 3.251367 18.243782 12.463574 9.934733 42.087141 19.869466 45.157876 21.495149 6.141471 39.5583 20.230729 42.809666 40.461457 3.431999 14.089257-9.934733 23.482096-23.120832 26.552831 8.309049 12.463574 11.560416 24.927148 6.683365 38.835774-6.683366 20.41136-29.804198 23.482096-47.867348 14.089257 1.625684 23.301464-28.178515 29.623567-46.422297 27.997883-24.746516-4.696419-51.299347-18.605045-48.04798-45.157876 3.431999-17.159993 28.178515-10.83789 34.86188-23.301464 8.128418-17.340624-19.869466-23.482096-34.86188-23.482096-33.055565-1.625684-61.23408 29.623567-64.485447 60.872817-6.683366 40.642089 21.495149 81.103546 59.608396 101.334274 44.796613 21.856412 95.915329 20.230729 140.531311-3.070735 82.729229-42.087141 99.347328-132.583524 74.600811-207.364968-26.552831-79.477862-112.533427-126.261422-200.320339-140.350679-99.347328-17.159993-188.579291 29.623567-264.444522 83.271124-53.286294 37.932616-103.321221 82.909861-149.201623 123.913212-218.383489 197.972129-521.121891 20.230729-679.716352-166.000353-27.094726-24.204622-54.731346-47.867349-83.090492-69.362497-69.543129-54.550714-177.018875-87.245017-261.373788-38.835774 87.60628 23.301464 158.775093 90.315752 175.393191 179.186453 14.811783 90.496384-19.869466 208.990651 81.103546 260.289998 28.178515 14.089257 61.23408 0 79.477862-21.856412 24.927148-29.623567 19.869466-70.265655-9.934733-93.567119-14.811783-9.212207-37.932616-26.3722-51.299347-6.141472 8.309049 4.696419 14.992415 11.018522 16.618098 18.605045 6.683366 15.534309-8.128418 39.016405-27.997883 31.249251-18.243782-6.141471-26.3722-26.552831-28.178515-45.157877-1.625684-14.089257 19.869466-20.41136 14.992415-24.927147-26.552831-31.24925-21.495149-62.317869 6.683366-87.425648-14.811783-7.767155-26.552831-21.856412-33.055565-35.765038-16.437467-40.642089-4.877051-90.496384-39.738931-124.635739 54.550714 21.856412 84.354913 71.710707 112.533427 118.494267 8.309049 12.282942 29.804198 18.605045 46.241665 29.442936 21.495149 15.534309 41.364615 50.034927 16.618099 71.710707 24.746516 15.534309 51.299347 34.319986 59.608396 62.317869 11.560416-21.856412 46.241665-15.534309 64.485447-4.696419 17.701887 11.199153 16.979361 33.778091 33.416829 42.629035l6.141471 2.528841 6.863997 0.541895c27.094726-1.986947 49.493032 13.366731 58.163344 32.874934l4.515788 6.322102c18.785676 27.455989 34.139354 59.608397 71.168813 58.343976 18.243782 0 26.552831-18.605045 34.681249-32.694302 13.005468 14.992415 19.869466 35.945669 18.966308 56.176398l-0.903158 8.489681-1.445052 6.502734-1.986946 6.141471-2.34821 5.780208-2.528841 5.780208-4.877051 6.863997c-7.044629 8.850944-16.79873 15.895572-29.804198 19.869466-21.495149 4.696419-49.673664-3.070736-57.802081-24.927148l-3.973893 6.322103c-9.934733 20.953255-26.010937 29.804198-49.312401 31.429882l-7.22526-0.541895c-12.102311-1.806315-24.204622-7.22526-33.958723-13.005468l-6.502734-2.34821c-37.932616 0-82.729229-18.785676-85.980597-54.731346-1.625684-16.979361 14.811783-32.694302 33.055566-34.319985 19.869466 0 28.178515 17.340624 38.113247 29.623566 5.057682 4.696419 16.618098-7.767155 19.869466-18.605045 4.877051-32.694302-11.560416-65.388605-44.615982-77.852178-24.927148-9.392838-69.543129-12.463574-77.852178 18.605045-6.683366 24.927148 1.806315 51.479979-14.811784 71.710707-16.437467 18.605045-51.299347 31.24925-71.168813 9.392838-13.1861 20.230729-33.236197 32.513671-57.982713 26.3722-3.251367 15.534309-16.437467 24.927148-29.804198 34.319986-19.869466 11.018522-51.118716 1.625684-52.925031-15.534309 0-7.767155 24.746516-12.463574 28.178515-27.997884 3.251367-15.534309-5.057682-31.24925-19.869466-37.390721-29.804198-11.018522-59.608397-26.552831-49.673663-60.872817-16.437467 35.945669-57.802081 37.571353-90.857647 60.872817-9.934733 6.141471-9.934733 21.856412-5.057682 32.874934 11.560416 20.050097 39.738931 26.3722 59.608396 15.534309-3.251367 20.230729-18.243782 37.390721-41.364614 42.087141-21.495149 3.070736-36.306932-6.141471-47.867349-20.230729-21.495149 18.605045-51.299347 12.463574-72.794497-4.696419-29.804198-21.856412-8.309049-51.479979-10.115364-77.852178-37.932616 11.018522-59.427765-31.24925-92.48333-40.461457l-1.264421-0.361263c-13.1861-0.722526-41.725878 2.34821-32.152408 45.519139 8.309049 3.793262 16.79873 4.696419 16.618099-2.528841-0.361263-13.366731 2.34821-25.288411 19.869465-24.204622 18.06315 2.167578 32.694302 14.631152 32.152408 30.707356l-1.083789 7.22526c-5.238314 10.657259-14.45052 16.076204-24.565884 19.869465l-7.586524 2.709473c-9.57347 1.625684-18.06315 6.141471-26.552831 11.018522l-6.322102 3.973893c-25.649674 16.79873-68.45934 20.772623-96.276592 0.541894l-3.793262-7.767154c-5.599577-10.115364-12.463574-18.966308-24.927148-22.578938-18.424413-5.238314-36.848827-1.986947-48.770506 9.934732-4.515788 4.515788-7.586523 9.754101-9.212207 15.173047-3.61263 12.644205 0.541895 26.010937 13.547363 33.778091 9.392838 5.599577 36.848827 4.877051 27.094726-14.992415-9.212207 2.890104-18.243782 3.251367-21.495149-2.348209-6.683366-20.050097 23.662727-32.333039 39.377668-18.243782 22.217675 22.578938 4.877051 60.511554-28.901041 61.23408-17.159993 0.541895-32.333039-7.044629-42.087141-18.605045l-5.057682-7.586523-5.418945-8.30905-0.722526-0.903157-8.309049-6.502734c-28.901041-10.476627-56.357029-7.044629-85.077439-13.1861l-9.754101-2.528841-18.243782-9.57347-8.489681-4.335156-20.772623-7.586523-7.405891-0.903158-8.489681-0.541894c-18.966308 0.361263-37.21009 10.115364-45.338508 26.552831l-4.154524 13.366731c0 11.379785 5.057682 20.41136 11.921679 28.359147l3.793261 4.154524h-2.167578l-6.863997-3.973893c-6.863997-3.973893-13.366731-8.489681-16.79873-15.534309l-3.61263-6.502735c-5.238314-11.199153-6.683366-24.204622-4.515787-36.487563l2.348209-8.850944c8.309049-25.107779 32.152408-39.919563 62.317869-39.5583h8.128418l9.934733 1.625684 41.725877 12.102311 8.670313 1.986946 10.476627 2.528841 10.476627 1.083789c39.197037 7.044629 68.820603-25.469042 81.103546-58.343976l2.709472-7.586523c3.973893-12.644205 6.322103-26.010937 9.754102-36.848827l2.167578-7.586523c4.335156-12.282942 12.644205-23.482096 24.927147-32.513671 20.050097-13.727994 43.893456-13.005468 66.111131-7.586523 18.966308 3.973893 24.385253 24.565885 13.727994 41.364614l-4.87705 6.141472-5.780209 3.973893c-12.463574 1.264421-24.565885 4.515788-32.51367-6.502734l-5.780208-5.418946c-1.625684-1.445052-6.322103-1.264421-7.767155 0.180632l-5.418945 7.405892c-14.811783 44.43535 41.003352 63.221027 75.323337 45.338507l9.031575-4.335156 6.863998-3.793261c14.811783-8.850944 27.094726-21.856412 27.997883-38.474511-5.418945-60.692186-10.115364-131.499735 52.563768-160.942671-16.618098-42.087141 42.990298-46.964191 66.291762-63.943552 11.560416-9.212207 14.811783-37.390721 38.113247-32.694303 26.3722 4.696419 51.299347-3.070736 76.045864-1.625683 21.495149 0 34.681249 20.41136 26.552831 42.08714 21.495149 0 44.615982 11.018522 46.241665 31.249251 1.625684 15.534309-4.877051 32.694302-18.243782 42.08714 29.804198 9.212207 41.364615 46.78356 16.618099 65.388605-8.309049 6.322103-14.811783 17.340624-28.178515 15.714941 0 15.534309-4.877051 34.319986-21.495149 40.461457-13.1861 4.696419-26.552831 3.251367-38.113248-2.890104-4.877051-4.696419-4.877051-12.463574-11.560416-15.714941-24.927148-12.463574-64.485447-17.159993-59.608396-52.925031 3.251367-20.230729 26.552831-27.997883 46.241665-24.927147 13.366731 2.890104 24.927148 10.83789 31.429882 21.856412 13.1861-7.767155 14.992415-24.927148 8.309049-37.390722-6.683366-12.463574-18.243782-18.605045-31.429882-21.67578-51.299347-11.018522-104.224378 18.605045-122.46816 62.317869-21.495149 51.479979 14.992415 110.727112 66.11113 130.957841 47.867349 18.785676 100.973011 12.644205 145.588993-13.908626 87.60628-51.479979 115.784794-157.510672 74.42018-241.684954-41.364615-81.103546-148.84036-105.850062-235.001587-79.477862-120.661845 37.390721-198.514024 135.65426-269.682837 229.22138a334.20441 334.20441 0 0 1-76.407126 72.613865c-44.615982 30.707356-96.276592 50.39619-150.646675 60.150291l-14.992415 2.348209c-16.437467-2.528841-29.262304 6.502734-45.338508 4.154525l-15.173046 0.541894h-18.785677l-16.618098-2.528841c-32.874934-7.586523-65.027342-10.657259-97.17975-1.625683-20.230729 8.489681-37.21009 24.204622-43.351561 44.074087l-1.625683 6.141471c0 11.199153-2.167578 23.482096 4.515787 30.887987l5.238314 3.612631c32.152408 12.102311 51.299347-21.133886 77.129652-27.275358 6.502734 0 12.824837-2.890104 19.869466 3.251367l5.418945 3.070736 8.309049 8.489681 3.793262 7.586523c7.767155 35.042512-34.139354 50.034927-66.472394 53.647557l-8.309049 1.26442-8.128418 0.903158h-8.48968c-16.979361-0.903158-33.59746-3.61263-49.673664-9.57347L191.469395 903.157523c-6.322103-6.502734-10.476627-14.631152-11.921679-25.107779l0.361263-9.212207 1.806315-10.295995v-6.322103l-0.722526-6.141471-3.793262-8.850944-5.780208-7.586523-5.96084-5.238314-7.586523-4.696419-8.489681-4.87705-8.48968-2.709473h-8.670313l-13.005468 4.335156-5.599577 7.767155c13.005468 26.010937 19.688834 58.524608-5.057682 76.949021l-6.863997 4.335156c-17.882519 6.502734-43.532193 12.463574-61.775974 0.361263l-5.780209-3.251367-5.238313-3.793262-9.57347-11.199153c-12.644205-17.882519-15.895572-45.157876 0-64.304816l3.61263-5.599576c6.683366-9.212207 16.256835-16.79873 27.275357-21.314518l5.599577-2.890104 31.068619-9.57347 6.683365-1.083789 19.869466-0.903157 11.018522-0.903158h10.83789l8.670312 0.722526 8.489681 2.34821 11.199153 1.26442 21.314518-0.722526 7.405891-5.599576c3.251367-1.625684 9.934733-9.392838 5.057683-14.089258-29.804198-34.319986-67.917446-73.336391-119.216793-70.265655-9.392838 0.541895-16.979361 4.335156-23.301465 10.295996l-6.141471 6.141471-10.115364 15.534309-5.057682 16.256836-15.714941-11.560417-9.934733-13.727994-3.070735-7.586523c-5.599577-15.895572-4.335156-32.694302 1.26442-48.409243l3.070736-7.767155c6.322103-16.256835 18.785676-26.010937 32.694302-33.778091l8.489681-4.69642c39.738931-14.811783 17.159993-60.150291-8.489681-72.433233zM2.890104 949.57982h2839.346622v74.42018H2.890104v-74.42018z m8.489681-385.467631l0.361263 8.850944-0.361263-8.850944z" fill="#BE9C78" p-id="19076"></path></svg>