<?xml version="1.0" standalone="no"?><!DOCTYPE svg PUBLIC "-//W3C//DTD SVG 1.1//EN" "http://www.w3.org/Graphics/SVG/1.1/DTD/svg11.dtd"><svg t="1784481177234" class="icon" viewBox="0 0 2784 1024" version="1.1" xmlns="http://www.w3.org/2000/svg" p-id="18916" xmlns:xlink="http://www.w3.org/1999/xlink" width="543.75" height="200"><path d="M982.098745 795.974692s-36.654908-69.517929-87.935666-36.654908c-51.461324 32.682455-21.848492 69.879061 3.430755 78.004533 25.098681 8.306038-32.140757 69.156797-93.352648 28.168304-37.196606-24.918115-18.237171-55.794909 11.014529-91.005289l131.813217-148.064161-86.671704-96.963969-239.791715 268.682282c-31.960191 35.571512-110.506423 53.086419-126.937933-6.319811-24.015285-85.407742 53.447551-55.975475 79.08793-49.475098 25.279247 6.319812 71.504156-54.711513 38.460569-89.199629-13.903586-14.62585-55.433777-44.058116-98.408497-39.182832-60.850759 7.222642-102.38095 52.544721-110.145291 63.378683-10.833963 14.986982-64.642646-24.918115-133.618877 3.791887-69.156797 29.071134-96.241705 87.213402-99.311327 147.883595-1.80566 49.83623-62.836985 40.627361-58.683966-3.791887 3.611321-44.599814-107.075668-50.919626-102.561517 31.779625C10.833963 903.050359 30.696228 936.996777 60.128495 957.581306c53.989249 37.738304 124.951707 37.377172 162.148312-7.403208 11.736793-14.084152 51.461324 56.336608 122.604348 21.48736 71.504156-34.668682 47.488871-100.755856 25.820945-109.603592-9.208869-3.791887-26.182077 6.500378-45.502644 5.416982-17.153775-0.90283-31.960191-9.208869-36.654908-23.293021-10.111699-30.335096 32.863021-58.683966 68.795665-32.682455 35.571512 26.001511 108.881328 109.964724 179.302087 109.423026 70.240193-0.361132 79.810194-16.250944 79.810194-16.250944s43.155286 71.504156 101.839252 75.296043c58.5034 3.791887 76.379439-3.791887 76.37944-3.791887s52.003022 65.906608 121.340385 42.974719c69.156797-22.931888 72.22642-55.975475 72.22642-55.975475s32.140757-4.514151 53.447551-23.834719c27.44604-24.556983 48.030569-68.976231 22.570756-108.881328-33.043587-51.280758-81.435288-34.488116-81.435289-34.488115zM2680.141878 816.198089c3.972453 44.599814-57.239438 53.808683-59.045098 3.791887-2.889057-60.670193-30.335096-118.812461-99.130761-147.883594-69.156797-28.710002-122.784914 11.375661-133.799443-3.791887-7.583774-10.833963-49.294532-56.156042-110.145291-63.378684-42.613588-4.875283-84.324345 24.556983-98.047365 39.182833-33.224153 34.668682 12.82019 95.700006 38.460569 89.199629 25.459813-6.500378 102.742082-35.932644 78.907364 49.475097-16.612077 59.40623-95.158308 42.07189-126.757367 6.319812l-240.152847-268.682282-86.491138 96.963969 131.632651 148.244726c29.612832 35.571512 48.211135 66.087174 11.014529 91.00529-60.850759 41.349625-118.270763-19.862265-92.991516-27.807172 25.279247-8.306038 54.530947-45.322079 3.430755-78.1851-51.461324-32.863021-88.296798 36.835474-88.296798 36.835474s-48.211135-17.153775-81.254723 34.126984c-25.640379 39.724531-5.055849 84.324345 22.209624 109.061894 21.667926 19.140001 53.808683 23.654153 53.808683 23.654153s3.069623 33.043587 72.22642 55.975475c68.976231 22.931888 121.159819-42.97472 121.15982-42.97472s17.876039 7.583774 76.198873 3.791887c58.5034-3.791887 101.658686-75.296043 101.658686-75.296043s9.750567 15.709246 80.171326 16.250945c70.240193 0.722264 143.730576-83.421515 179.302087-109.423026 35.571512-26.001511 78.907364 2.347359 68.615099 32.682455-4.694717 14.264718-19.501133 22.751322-36.293776 23.473586-19.862265 1.083396-36.654908-9.208869-45.863776-5.416981-21.306794 9.208869-45.322079 75.115477 25.820945 109.603592 71.32359 34.849248 110.686989-35.752078 122.604348-21.306794 37.377172 44.599814 107.978498 44.960946 162.328879 7.222642 29.432266-20.403964 49.294532-54.350381 51.64189-100.394724 4.153019-82.338119-106.533969-76.198873-102.561517-31.779624zM974.876103 402.340703l77.643402 91.908119 121.701517-134.882839 62.65642-69.517929 56.336607 61.211891 80.171326-87.393968-117.548498-128.201896c22.209624-6.139246 37.91887-23.834719 37.91887-44.419248 0-25.820945-24.556983-46.947173-54.892079-46.947173s-55.072645 21.126228-55.072645 46.947173c0 20.042832 14.986982 37.377172 36.11321 44.058116l-45.863777 49.83623-199.525485 217.401524z" fill="#BE9C78" p-id="18917"></path><path d="M1295.380842 666.508834l-58.322834 66.087174-62.65642-70.601325-366.910213-412.232292c-29.2517-35.571512-48.211135-66.087174-11.014529-91.185855 60.850759-41.169059 118.270763 19.681699 92.991516 28.168304-25.098681 8.306038-54.530947 45.502645-3.250189 78.185099 51.100192 32.863021 88.116232-36.835474 88.116232-36.835474s48.572267 17.153775 81.435289-34.126983c25.640379-39.724531 5.055849-84.504911-22.390191-109.061895-21.306794-19.320567-53.808683-23.654153-53.808682-23.654152s-3.069623-33.043587-72.22642-55.975476C838.36817-17.836495 786.004015 48.070113 786.004015 48.070113s-17.695473-7.583774-76.198873-3.611321c-58.5034 3.791887-101.658686 75.296043-101.658686 75.296043s-9.750567-16.070378-80.171326-16.431511c-70.240193-0.361132-143.730576 83.602081-179.302088 109.784159-35.571512 25.820945-78.726798-2.166793-68.434533-32.501889 4.694717-14.084152 19.501133-22.751322 36.654909-23.654153 19.501133-0.90283 36.293776 9.570001 45.68321 5.416982 21.306794-9.028302 45.322079-74.754345-25.820945-109.784159-71.504156-34.668682-110.686989 35.752078-122.604348 21.667926-37.377172-44.78038-107.978498-44.960946-162.328879-7.403208C22.209624 86.891814 2.708491 121.199363 0 167.243706v8.306038c3.430755 73.490382 106.172837 66.26774 102.561516 23.112455-3.791887-44.419248 57.239438-53.808683 59.045099-3.791887 3.250189 60.850759 30.335096 119.173593 99.491893 147.883595 68.795665 29.071134 122.784914-11.195095 133.618877 3.791887 7.76434 11.014529 49.294532 56.517174 110.14529 63.198117 42.613588 5.236415 84.324345-24.015285 98.227932-38.641135 33.043587-34.849248-13.181322-95.700006-38.460569-89.199628-25.459813 6.500378-102.922648 35.932644-79.08793-49.655664 16.612077-59.045098 95.158308-41.891324 127.118499-6.319812l561.740981 629.092118 45.863777 51.461324c-20.58453 6.680944-35.390946 23.834719-35.390946 43.87755 0 25.820945 24.556983 46.947173 54.892079 46.947173s55.072645-21.126228 55.072646-46.947173c0-22.029058-17.876039-40.627361-42.252456-45.68321l124.410008-144.272274-81.615854-93.71378zM1478.29425 644.118644l118.812461-137.230198-120.618121-131.452084-80.351892 86.491138 40.988493 44.599814-42.07189 47.308305 83.240949 90.283025z" fill="#BE9C78" p-id="18918"></path><path d="M1554.493123 905.939416l607.243626-680.011744c31.960191-35.571512 110.506423-52.725287 127.118499 6.319812 24.015285 85.588308-53.447551 56.156042-79.08793 49.655664-25.279247-6.500378-71.504156 54.350381-38.460568 89.199628 13.903586 14.62585 55.253211 43.87755 98.047365 38.641135 61.211891-6.680944 102.561516-52.183588 110.506422-63.198117 10.833963-14.986982 64.642646 25.279247 133.618877-3.791887 69.156797-28.710002 96.241705-87.032836 99.491894-147.883595 1.80566-49.83623 62.656419-40.627361 58.683966 3.791887-3.791887 44.599814 107.075668 50.919626 102.561516-31.418493-2.347359-46.044343-22.209624-80.171326-51.64189-100.755856-53.989249-37.557738-124.951707-37.377172-161.967747 7.403208-11.917359 14.084152-51.461324-56.156042-122.604348-21.667926-71.504156 34.849248-47.488871 100.755856-25.820945 109.784159 8.847736 4.153019 26.182077-6.319812 45.683211-5.416982 17.153775 0.90283 31.779625 9.570001 36.654908 23.654153 10.111699 30.335096-33.224153 58.5034-68.795665 32.501889-35.571512-26.001511-108.881328-110.14529-179.302087-109.784159-70.059627 0.541698-79.810194 16.431511-79.810194 16.431511s-43.335852-71.504156-101.839253-75.296043c-58.5034-3.972453-76.379439 3.611321-76.379439 3.611321s-52.183588-65.906608-121.340385-42.794154c-69.156797 22.931888-72.22642 55.975475-72.22642 55.975476s-32.140757 4.333585-53.447551 23.654152c-27.44604 24.556983-47.850003 69.337363-22.39019 109.061894 32.863021 51.280758 81.435288 34.126983 81.435288 34.126984s36.654908 69.698495 87.935667 36.835474c51.461324-32.863021 21.848492-69.879061-3.430755-78.1851-25.098681-8.306038 32.140757-69.337363 93.352647-28.168303 37.196606 25.098681 18.237171 55.794909-11.014529 91.185855l-429.747198 482.833617-200.24775-226.068694 200.24775-216.498694 184.538503 204.400768 77.823967-91.908119L1555.034822 135.283515c20.58453-6.680944 35.21038-23.834719 35.210379-43.87755 0-25.820945-24.737549-46.947173-55.072645-46.947173s-55.072645 21.126228-55.072645 46.947173c0 20.765096 15.709246 38.460569 37.557738 44.599815L1177.110079 506.70788l344.520023 397.425876c-23.834719 5.236415-41.349625 23.654153-41.349625 45.322078 0 25.820945 24.737549 46.947173 55.072645 46.947173s55.072645-21.126228 55.072645-46.947173c0-20.042832-14.986982-37.01604-35.932644-43.87755z" fill="#BE9C78" p-id="18919"></path></svg>