<?xml version="1.0" standalone="no"?><!DOCTYPE svg PUBLIC "-//W3C//DTD SVG 1.1//EN" "http://www.w3.org/Graphics/SVG/1.1/DTD/svg11.dtd"><svg t="1784481116181" class="icon" viewBox="0 0 1540 1024" version="1.1" xmlns="http://www.w3.org/2000/svg" p-id="15792" xmlns:xlink="http://www.w3.org/1999/xlink" width="300.78125" height="200"><path d="M644.807618 0.180568L469.476283 91.909011S449.252689 43.155704 451.238935 0H209.097514c-3.069653 28.890848-16.612238 48.211603-16.612238 48.211603-70.421442 60.129078-115.021689-11.736907-115.021689-11.736907 35.210721 25.46006 72.768824-9.208958 72.768824-9.208958 5.236466-9.750661 8.306119-18.598484 9.931229-27.265738H0.722271l3.972492 130.55052c63.379298-16.973373 98.590019 8.486687 98.590019 8.486687 119.716452 77.283019-2.347381 147.523893-2.347381 147.523893 53.989773-82.700053-14.084288-111.952037-14.084289-111.952036-57.601129-11.014636-78.908129 10.834068-86.853112 29.432551v163.052725c15.709399 40.447187 57.781696 31.599365 57.781696 31.599365l167.56692-92.992418c23.473814-13.723153 16.43167-47.850467 16.43167-47.850467-25.821196-44.600247-23.473814-107.437842-23.473814-107.437842 0-94.43696 79.810968-83.964028 79.810968-83.964027 65.72668 9.750661 42.252865 93.534121 42.252865 93.534121-16.43167-73.129959-63.379298-50.739552-63.379298-50.739552-44.600247 34.669018-9.389526 101.298536-9.389526 101.298536 18.779051 46.76706 79.810968 22.390407 79.810968 22.390407L770.121672 0.180568h-0.180568L644.62705 0h0.180568zM295.770058 461.711867c49.29501 36.835831 4.694763 144.093105 4.694763 144.093106l-175.150767-91.547875 95.520367-49.656146c23.473814 27.988009 74.935637-2.889085 74.935637-2.889085z m-21.126433-105.632163c39.905484-23.293246 56.337154 2.708517 56.337154 2.708517 7.042144 55.434315 46.947628 102.201375 46.947629 102.201375 65.72668 77.283019 136.148122-0.361136 136.148122-0.361135 51.642391-98.770587-32.86334-122.244401-32.86334-122.244402 28.168577 27.988009 14.084288 72.046553 14.084288 72.046553-39.905484 76.560748-98.590019 13.542585-98.590019 13.542585-44.600247-70.963146 2.347381-133.259037 2.347381-133.259037l89.200494-54.170341c46.947628-23.654382 53.989773 5.055898 53.989773 5.055899 16.43167 115.563393 105.632164 80.713807 105.632163 80.713807 77.463587-24.737789 30.515958-90.825604 30.515959-90.825604-4.694763 75.296773-72.768824 58.503968-72.768824 58.503968-61.031917-43.697408-16.43167-108.160113-16.43167-108.160113l124.411215-67.712926c39.905484-11.195204 47.669899 14.084288 56.337154 28.710281v206.208429c-10.111797 19.68189-33.043908 27.988009-33.043908 27.988009-115.021689-10.111797-145.537648 46.586493-145.537647 46.586492-61.031917 72.588256-14.084288 138.495503-14.084289 138.495504 70.421442 60.129078 115.021689-11.556339 115.021689-11.556339-35.210721 25.46006-72.768824-9.389526-72.768823-9.389526-37.558103-68.796332 28.168577-109.965791 28.168577-109.965791 112.674308-26.182331 122.244401 60.670781 122.244401 60.670781l-4.694763 152.76036c-63.379298-16.973373-98.590019 8.667254-98.590019 8.667254-119.716452 77.102451 2.347381 147.343326 2.347381 147.343326-53.989773-82.519485 14.084288-111.771469 14.084289-111.771469 57.601129-11.195204 78.908129 10.6535 86.853112 29.251984v163.233292c-15.709399 40.26662-57.962264 31.599365-57.962264 31.599365l-167.56692-92.992417c-23.473814-13.723153-16.43167-47.669899-16.43167-47.6699 25.821196-44.600247 23.473814-107.437842 23.473815-107.437841 0-94.43696-79.991536-83.964028-79.991536-83.964028-65.72668 9.750661-42.252865 93.534121-42.252866 93.534121 16.43167-73.129959 63.379298-50.739552 63.379298-50.739552 44.600247 34.669018 9.389526 101.298536 9.389526 101.298536-18.779051 46.76706-79.810968 22.390407-79.810968 22.390408L0 514.257098l274.643625-158.177394zM56.337154 623.500617C16.43167 612.305414 8.667254 637.584906 0 652.210898v206.027861c10.111797 19.68189 32.86334 27.988009 32.86334 27.988009 115.021689-10.111797 145.537648 46.76706 145.537647 46.76706 28.349145 33.585611 33.405043 65.72668 30.696527 90.464469h242.141421c0.902839-20.765297 6.861576-40.447187 22.932111-52.545231 0 0 51.642391 31.057662 75.116205 2.889085l95.339799 49.656146h125.314054l-274.824193-158.177394c-39.905484-23.293246-56.337154 2.708517-56.337154 2.708517-7.042144 55.434315-46.947628 102.201375-46.947629 102.201375-65.72668 77.283019-136.148122-0.361136-136.148122-0.361135-51.642391-98.770587 32.86334-122.244401 32.86334-122.244402-28.168577 27.988009-14.084288 72.046553-14.084288 72.046553 39.905484 76.560748 98.590019 13.542585 98.590019 13.542585 44.600247-70.963146-2.347381-133.259037-2.347381-133.259037l-89.200494-54.350908c-46.947628-23.654382-53.989773 5.236466-53.989773 5.236466-16.43167 115.563393-105.632164 80.533239-105.632163 80.533239-77.463587-24.737789-30.515958-90.825604-30.515959-90.825604 4.694763 75.296773 72.768824 58.503968 72.768824 58.503968 61.031917-43.697408 16.43167-108.340681 16.43167-108.340681L56.156586 622.958914z m65.72668 317.077059C9.389526 914.575913 0 1001.248457 0 1001.248457l0.722271 22.390407h159.621936c10.472932-52.364662-38.099806-83.061189-38.099806-83.061188z" fill="#2c2c2c" p-id="15793"></path><path d="M895.435726 0.180568l175.150767 91.728443s20.223594-48.753306 18.417915-91.909011h242.141422c3.069653 28.890848 16.612238 48.211603 16.612237 48.211603 70.421442 60.309646 115.021689-11.556339 115.02169-11.556339-35.210721 25.46006-72.768824-9.208958-72.768824-9.208958-5.236466-9.750661-8.306119-18.598484-9.931229-27.265738h159.441368l-3.972492 130.55052c-63.379298-16.973373-98.770587 8.486687-98.770587 8.486687-119.716452 77.283019 2.347381 147.523893 2.347382 147.523893-53.989773-82.700053 14.084288-111.952037 14.084288-111.952037 57.601129-11.014636 78.908129 10.834068 86.853113 29.432552v163.052724c-15.709399 40.447187-57.781696 31.599365-57.781697 31.599366l-167.566919-92.992418c-23.473814-13.542585-16.43167-47.669899-16.43167-47.669899 25.821196-44.600247 23.473814-107.437842 23.473814-107.437842 0-94.43696-79.810968-83.964028-79.810968-83.964028-65.72668 9.750661-42.252865 93.534121-42.252866 93.534121 16.43167-73.129959 63.379298-50.739552 63.379299-50.739552 44.600247 34.669018 9.389526 101.298536 9.389525 101.298537-18.779051 46.76706-79.810968 22.390407-79.810968 22.390407L770.121672 0.180568 895.435726 0h-0.180568z m348.856991 461.711867c-49.29501 36.835831-4.694763 144.093105-4.694762 144.093105l175.150767-91.547875-95.339799-49.656145c-23.473814 27.988009-75.116205-2.889085-75.116206-2.889085z m21.126433-105.632163c-39.905484-23.293246-56.337154 2.708517-56.337154 2.708517-7.042144 55.434315-46.947628 102.201375-46.947628 102.201375-65.72668 77.283019-136.148122-0.361136-136.148122-0.361136-51.642391-98.770587 32.86334-122.244401 32.86334-122.244401-28.168577 27.988009-14.084288 72.046553-14.084289 72.046553 39.905484 76.560748 98.409452 13.542585 98.409452 13.542585 44.600247-70.963146-2.347381-133.259037-2.347382-133.259037l-89.200493-54.170341c-46.947628-23.654382-53.989773 5.055898-53.989773 5.055899-16.43167 115.563393-105.632164 80.713807-105.632164 80.713807-77.463587-24.737789-30.515958-90.825604-30.515958-90.825604 4.694763 75.296773 72.768824 58.503968 72.768824 58.503967 61.031917-43.697408 16.43167-108.160113 16.43167-108.160112l-124.591783-67.712926c-39.905484-11.195204-47.489332 14.084288-56.337154 28.71028v206.208429c10.111797 19.68189 32.86334 27.988009 32.86334 27.988009 115.021689-10.111797 145.718215 46.586493 145.718215 46.586493 61.031917 72.588256 14.084288 138.495503 14.084289 138.495504-70.421442 60.129078-115.021689-11.556339-115.021689-11.55634 35.210721 25.46006 72.768824-9.389526 72.768823-9.389525 37.558103-68.796332-28.168577-109.965791-28.168577-109.965791-112.674308-26.182331-122.063834 60.670781-122.063833 60.670781l4.694763 152.76036c63.379298-16.973373 98.590019 8.667254 98.590019 8.667254 119.716452 77.102451-2.166814 147.523893-2.166814 147.523894 53.989773-82.700053-14.084288-111.771469-14.084288-111.771469-57.601129-11.195204-78.908129 10.6535-86.853112 29.251984v163.233292c15.709399 40.26662 57.781696 31.599365 57.781696 31.599365l167.566919-92.992418c23.473814-13.723153 16.43167-47.669899 16.43167-47.669899-25.821196-44.600247-23.473814-107.437842-23.473814-107.437842 0-94.43696 79.810968-83.964028 79.810968-83.964027 65.907247 9.750661 42.252865 93.534121 42.252866 93.534121-16.43167-73.129959-63.379298-50.739552-63.379298-50.739552-44.600247 34.669018-9.389526 101.298536-9.389526 101.298536 18.779051 46.76706 79.810968 22.390407 79.810968 22.390407l422.528655-232.932463-274.643626-158.177394z m218.306472 267.601481c39.905484-11.195204 47.669899 14.084288 56.337154 28.71028v206.027861c-10.111797 19.68189-32.86334 27.988009-32.86334 27.988009-115.202257-10.111797-145.718215 46.76706-145.718216 46.767061-28.349145 33.585611-33.224475 65.72668-30.696526 90.464468H1088.643273c-0.902839-20.765297-6.861576-40.447187-22.932111-52.54523 0 0-51.642391 31.057662-75.116205 2.889085l-95.339799 49.656145h-125.314054l274.643625-158.177394c39.905484-23.293246 56.337154 2.708517 56.337154 2.708517 7.042144 55.434315 46.947628 102.201375 46.947629 102.201376 65.72668 77.283019 136.148122-0.361136 136.148122-0.361136 51.642391-98.770587-32.86334-122.244401-32.86334-122.244401 28.168577 27.988009 14.084288 72.046553 14.084288 72.046553-39.905484 76.560748-98.590019 13.542585-98.590019 13.542585-44.600247-70.963146 2.347381-133.259037 2.347381-133.259038l89.200494-54.350908c46.947628-23.654382 53.989773 5.236466 53.989773 5.236467 16.43167 115.563393 105.632164 80.533239 105.632163 80.533239 77.463587-24.737789 30.515958-90.825604 30.515959-90.825604-4.694763 75.296773-72.768824 58.503968-72.768824 58.503967-61.031917-43.697408-16.43167-108.340681-16.43167-108.34068l124.411215-67.532358z m-65.72668 317.077058c112.674308-26.001763 122.063834 60.670781 122.063834 60.670782l-0.722272 22.390407h-159.441368c-10.472932-52.364662 38.099806-83.061189 38.099806-83.061189z" fill="#2c2c2c" p-id="15794"></path></svg>