<?xml version="1.0" standalone="no"?><!DOCTYPE svg PUBLIC "-//W3C//DTD SVG 1.1//EN" "http://www.w3.org/Graphics/SVG/1.1/DTD/svg11.dtd"><svg t="1784481188376" class="icon" viewBox="0 0 7153 1024" version="1.1" xmlns="http://www.w3.org/2000/svg" p-id="19389" xmlns:xlink="http://www.w3.org/1999/xlink" width="1397.0703125" height="200"><path d="M920.490972 570.706547c16.935447-6.485916 32.789908-14.052818 47.563383-22.340377 36.393195-19.457748 68.462445-45.041082 90.802822-73.146718 37.474181-46.842726 47.563383-105.576297 4.684272-172.237099-28.826293-42.87911-101.252353-59.0939-142.32982-67.381459h-0.720657V87.505815c2.882629 3.603287 5.765259 6.485916 8.287559 10.449531 3.603287 4.684273 7.566902 9.368545 7.566902 9.368545 14.773475 3.603287-1.080986 0 11.170188 1.801643 59.814557 12.971832 164.670197 35.672537 222.683111 123.592731 81.434277 121.791087 60.895543 233.8533-11.170188 322.854478-33.870894 42.158453-78.551648 77.83099-129.357989 105.576297-34.591551 18.73709-70.984746 34.591551-109.539912 46.842726v-137.645548z" fill="#BE9C78" p-id="19390"></path><path d="M920.490972 874.823935v131.880289c56.211271-12.251174 108.458926-30.988265 155.301652-58.012914 96.568081-58.012914 172.237099-137.645548 230.250013-220.881468 82.154934-117.106814 131.159632-243.221845 154.580995-323.935464 19.457748-69.183103 89.001179-136.564562 179.804001-187.370903 66.300473-37.474181 143.050478-63.778173 222.683111-75.669019 77.83099-12.251174 157.103295-10.449531 229.169027 10.449532 91.883808 26.303992 173.318085 83.23592 227.727713 180.524658 41.077467 75.669018 59.814557 142.32982 61.616201 198.541091 2.882629 64.49883-16.935447 117.106814-46.842726 159.985925-32.069251 45.041082-76.750004 79.632634-122.511744 105.936625-60.174886 32.789908-119.989443 49.725355-158.184282 50.446013-45.041082 1.801643-94.766437-5.765259-143.050477-19.818077-62.697187-18.73709-122.511744-48.644369-167.552827-90.802822-40.35681-37.474181-67.381459-83.23592-69.183102-136.564561-0.720657-21.61972 1.801643-43.239439 8.287559-65.579816 26.303992-87.199536 83.23592-136.564562 147.014093-157.103296 34.591551-11.170188 72.065732-14.052818 108.458926-10.449531 35.672537 4.684273 68.102117 15.854461 95.487095 33.870894 36.753523 23.421363 61.976529 59.0939 60.895543 101.252353 0 49.725355-25.943663 77.83099-56.931928 89.001179-19.457748 7.566902-41.077467 9.368545-60.895543 6.485916-86.839207-23.421363 36.753523-101.252353-75.669019-128.99766-61.976529-18.73709-98.369724 20.538734-107.738269 51.526998-22.340377 73.146718 7.566902 131.159632 61.616201 168.633813 29.907279 19.818076 67.381459 32.789908 107.738269 37.47418 38.555167 4.684273 79.632634 0 117.106814-12.971832 79.632634-28.105635 143.050478-94.406109 144.131464-210.431936 1.080986-90.802822-48.644369-163.94954-121.430758-210.792266a357.914457 357.914457 0 0 0-147.734751-51.526998c-53.328642-6.485916-110.620898-2.882629-163.949539 14.773475-101.973011 32.789908-190.974189 109.539912-231.331 243.221845-10.449531 37.474181-14.773475 72.065732-14.052817 105.936625 3.603287 91.883808 46.842726 167.552827 110.620898 227.367384 59.814557 55.130285 139.447191 96.207752 219.800482 119.629115 61.616201 18.73709 125.394373 27.024649 182.68663 25.223006 55.130285-1.801643 137.645548-23.421363 216.197196-67.381459 61.976529-33.870894 121.791087-81.434277 165.751183-143.050478 1.801643-3.603287 3.603287-6.485916 6.485916-9.368545 39.275824 51.526998 93.685451 92.604465 153.500009 122.511744 92.604465 46.842726 200.342734 66.300473 287.54227 53.328642 12.971832-1.801643 26.303992-4.684273 39.275823-8.287559 59.0939-17.656104 87.199536-34.591551 106.657284-46.842726 9.368545-5.40493 12.971832-8.287559 38.555166-1.801643 161.787568 41.077467 302.315745-35.672537 381.948379-139.447191 29.186621-38.555167 50.446012-80.353291 62.697186-121.791087 13.33216-45.76174 14.052818-90.802822 2.88263-131.880289-21.61972-73.146718-79.272305-127.196017-185.208931-138.366205-1.801643-1.080986-2.882629-1.801643-3.603287-4.684273-3.603287-10.089202-8.287559-21.61972-14.773475-32.789908-20.538734-36.393195-54.409628-66.300473-95.487094-89.001179-64.49883-34.591551-148.815736-51.526998-233.132643-52.607984-83.23592 0-168.633812 17.656104-232.051656 53.328641-39.275824 22.340377-71.345075 51.526998-90.802822 89.001179-46.842726 86.11855-50.446012 163.94954-27.384978 228.44837 17.656104 48.644369 49.725355 87.920193 89.721836 116.746486 38.555167 28.105635 84.316906 47.923712 132.961275 56.931928 87.920193 16.935447 184.488273 1.080986 253.671376-56.211271 40.35681-32.789908 60.895543-68.462445 67.381459-103.053996 4.684273-22.700706 2.882629-43.960096-2.882629-63.778173-5.40493-19.457748-14.773475-36.393195-27.02465-51.526998-24.502349-28.826293-60.895543-54.409628-96.56808-61.97653-48.644369-9.368545-232.051656 25.223006-170.435456 113.143199 52.247656 76.750004 59.814557-17.656104 122.511744-38.555166 61.976529-19.457748 145.21245 43.960096 71.345075 104.134982-37.474181 30.627936-140.528177 41.077467-193.856819 30.627936-29.907279-6.485916-58.012914-17.656104-80.353291-34.591551-21.61972-15.133804-37.474181-34.591551-46.122068-56.931928-42.158453-114.944842 46.842726-180.524658 155.301652-197.460105 89.001179-14.052818 192.775833 8.287559 246.104474 36.393194 19.818076 11.170188 35.672537 24.14202 43.960096 39.275824 4.684273 7.566902 6.485916 14.052818 9.368546 18.73709 18.73709 45.76174 30.988265 74.948361 108.458926 82.515263 43.960096 4.684273 67.381459 23.421363 74.227704 46.842726 5.40493 17.656104 3.603287 38.194838-1.801644 61.616201-7.566902 26.303992-21.61972 53.328642-41.077467 77.83099-52.607984 69.183103-144.131464 119.629115-248.266446 92.604465-77.83099-18.73709-96.207752-8.287559-136.564562 16.935447-15.133804 8.287559-35.672537 21.61972-76.750004 33.870894-6.485916 1.801643-14.052818 3.603287-22.340377 4.684273-60.895543 9.368545-140.167848-6.485916-209.71128-41.077467-66.660802-32.789908-121.791087-83.23592-140.528177-143.050478-0.720657-5.40493-2.882629-12.251174-3.603286-18.73709-0.720657-7.566902-1.801643-15.133804-3.603287-21.61972 1.080986-17.656104 1.801643-35.672537 1.080986-53.328641-2.882629-75.669018-26.303992-161.066911-78.551648-256.554006-72.065732-131.159632-181.605644-207.909636-304.117388-242.501187-90.802822-26.303992-189.172546-29.186621-284.659641-14.052818-94.406109 15.133804-186.289917 46.842726-264.841564 89.721836-119.629115 66.300473-211.512923 161.066911-241.420202 264.841565-20.538734 70.984746-63.778173 182.326302-135.843904 285.380298-49.725355 70.984746-113.143199 137.645548-192.055176 184.488273-25.943663 15.854461-56.211271 27.024649-89.001178 36.393195zM647.361848 443.51053c-12.251174 6.485916-22.340377 15.854461-28.105635 27.02465-5.765259 11.170188-7.566902 25.223006-4.684273 42.158453 2.882629 12.251174 7.566902 25.223006 15.854461 39.275824 28.105635 54.409628 119.989443 63.417844 213.314566 42.87911 26.303992-5.40493 52.607984-14.052818 76.750005-24.502349v137.645548c-15.854461 4.684273-32.789908 9.368545-49.725355 12.251174-145.21245 31.708922-295.109172 4.684273-354.92373-107.738269-12.971832-26.303992-22.340377-50.446012-27.024649-74.948361-10.449531-47.923712-2.882629-90.802822 15.854461-126.475359 17.656104-35.672537 46.842726-62.697187 82.154934-81.434277 19.818076-10.449531 42.158453-18.73709 64.49883-23.421363 45.76174-9.368545 159.985925-3.603287 221.602126 38.194838 46.842726 31.708922 66.660802 93.685451-7.566902 131.159632-122.511744 36.393195-145.933107-67.381459-215.11621-34.591552-0.720657 1.080986-1.801643 1.080986-3.603286 1.801644z" fill="#BE9C78" p-id="19391"></path><path d="M920.490972 235.600894V87.505815C894.18698 54.715907 854.911156 18.322712 739.605985 3.188909c-56.211271-7.566902-117.106814-1.801643-171.156113 18.73709-50.446012 19.457748-96.568081 51.526998-130.078646 100.171367-14.052818 19.818076-41.077467 17.656104-70.984746 15.854461-27.384978-1.801643-54.409628-3.603287-87.199536 2.882629C151.189284 163.174833 68.674021 244.60911 28.317212 341.177191c-20.178405 49.004698-29.907279 101.252353-28.105636 151.698365 1.080986 50.446012 12.251174 101.252353 33.870894 144.131464 37.474181 74.948361 103.053997 128.277003 194.577476 135.843905 32.789908 1.801643 34.591551 6.485916 46.842726 38.194837 2.882629 7.566902 6.485916 15.854461 14.052818 32.789908 14.773475 37.474181 53.328642 73.867375 105.576297 103.774654 42.87911 24.14202 97.288738 44.680754 159.985924 56.931928 76.029347 15.854461 181.605644 25.223006 285.380298 14.052818 27.024649-2.882629 53.328642-6.485916 79.632634-12.251174v-131.88029c-28.826293 7.566902-60.895543 12.971832-92.604465 16.935447-89.721836 8.287559-181.605644 1.080986-246.825132-12.251174-47.923712-10.449531-89.721836-26.303992-121.791087-43.960096-28.105635-15.854461-45.76174-29.907279-50.446012-41.077468-2.882629-6.485916-8.287559-19.457748-13.33216-30.988264-38.194838-97.288738-43.960096-111.341556-156.382638-119.629115-41.077467-2.882629-72.065732-29.186621-89.721837-64.49883-12.251174-25.223006-19.818076-56.211271-20.538733-89.001179 0-33.510565 5.765259-67.381459 18.73709-99.090381 24.502349-59.0939 74.948361-109.539912 154.580995-123.59273 15.854461-2.882629 36.393195-1.080986 56.931928 0 67.381459 4.684273 130.078646 9.368545 185.208931-72.065732 17.656104-25.223006 42.158453-42.158453 69.183102-52.247656 34.591551-12.971832 73.867375-16.935447 110.620899-12.251174 74.948361 9.368545 90.802822 30.988265 103.774654 46.842726 19.818076 24.502349 36.393195 45.041082 80.713619 55.130285 7.566902 1.801643 11.170188 2.882629 12.251175 2.882629zM4543.955968 570.706547c16.935447-6.485916 32.789908-14.052818 47.563383-22.340377 36.393195-19.457748 68.462445-45.041082 90.802822-73.146718 37.474181-46.842726 47.563383-105.576297 4.684273-172.237099-28.826293-42.87911-101.252353-59.0939-142.329821-67.381459h-0.720657V87.505815c2.882629 3.603287 5.765259 6.485916 8.287559 10.449531 3.603287 4.684273 7.566902 9.368545 7.566902 9.368545 14.773475 3.603287-1.080986 0 11.170188 1.801643 59.814557 12.971832 164.670197 35.672537 222.683112 123.592731 81.434277 121.791087 60.895543 233.8533-11.170189 322.854478-33.870894 42.158453-78.551648 77.83099-129.357988 105.576297-34.591551 18.73709-70.984746 34.591551-109.539913 46.842726v-137.645548z" fill="#BE9C78" p-id="19392"></path><path d="M4543.955968 874.823935v131.880289c56.211271-12.251174 108.458926-30.988265 155.301652-58.012914 96.568081-58.012914 172.237099-137.645548 230.250013-220.881468 82.154934-117.106814 131.159632-243.221845 154.580995-323.935464 19.457748-69.183103 89.001179-136.564562 179.804001-187.370903 66.300473-37.474181 143.050478-63.778173 222.683111-75.669019 77.83099-12.251174 157.103295-10.449531 229.169028 10.449532 91.883808 26.303992 173.318085 83.23592 227.727712 180.524658 41.077467 75.669018 59.814557 142.32982 61.616201 198.541091 2.882629 64.49883-16.935447 117.106814-46.842726 159.985925-32.069251 45.041082-76.750004 79.632634-122.511744 105.936625-60.174886 32.789908-119.989443 49.725355-158.184281 50.446013-45.041082 1.801643-94.766437-5.765259-143.050478-19.818077-62.697187-18.73709-122.511744-48.644369-167.552826-90.802822-40.35681-37.474181-67.381459-83.23592-69.183103-136.564561-0.720657-21.61972 1.801643-43.239439 8.287559-65.579816 26.303992-87.199536 83.23592-136.564562 147.014093-157.103296 34.591551-11.170188 72.065732-14.052818 108.458926-10.449531 35.672537 4.684273 68.102117 15.854461 95.487095 33.870894 36.753523 23.421363 61.976529 59.0939 60.895544 101.252353 0 49.725355-25.943663 77.83099-56.931929 89.001179-19.457748 7.566902-41.077467 9.368545-60.895543 6.485916-86.839207-23.421363 36.753523-101.252353-75.669018-128.99766-61.976529-18.73709-98.369724 20.538734-107.738269 51.526998-22.340377 73.146718 7.566902 131.159632 61.6162 168.633813 29.907279 19.818076 67.381459 32.789908 107.738269 37.47418 38.555167 4.684273 79.632634 0 117.106815-12.971832 79.632634-28.105635 143.050478-94.406109 144.131463-210.431936 1.080986-90.802822-48.644369-163.94954-121.430758-210.792266a357.914457 357.914457 0 0 0-147.73475-51.526998c-53.328642-6.485916-110.620898-2.882629-163.94954 14.773475-101.973011 32.789908-190.974189 109.539912-231.330999 243.221845-10.449531 37.474181-14.773475 72.065732-14.052818 105.936625 3.603287 91.883808 46.842726 167.552827 110.620898 227.367384 59.814557 55.130285 139.447191 96.207752 219.800482 119.629115 61.616201 18.73709 125.394373 27.024649 182.686631 25.223006 55.130285-1.801643 137.645548-23.421363 216.197195-67.381459 61.976529-33.870894 121.791087-81.434277 165.751183-143.050478 1.801643-3.603287 3.603287-6.485916 6.485916-9.368545 39.275824 51.526998 93.685451 92.604465 153.500009 122.511744 92.604465 46.842726 200.342734 66.300473 287.54227 53.328642 12.971832-1.801643 26.303992-4.684273 39.275824-8.287559 59.0939-17.656104 87.199536-34.591551 106.657283-46.842726 9.368545-5.40493 12.971832-8.287559 38.555166-1.801643 161.787568 41.077467 302.315745-35.672537 381.948379-139.447191 29.186621-38.555167 50.446012-80.353291 62.697187-121.791087 13.33216-45.76174 14.052818-90.802822 2.882629-131.880289-21.61972-73.146718-79.272305-127.196017-185.208931-138.366205-1.801643-1.080986-2.882629-1.801643-3.603286-4.684273-3.603287-10.089202-8.287559-21.61972-14.773475-32.789908-20.538734-36.393195-54.409628-66.300473-95.487095-89.001179-64.49883-34.591551-148.815736-51.526998-233.132642-52.607984-83.23592 0-168.633812 17.656104-232.051657 53.328641-39.275824 22.340377-71.345075 51.526998-90.802822 89.001179-46.842726 86.11855-50.446012 163.94954-27.384978 228.44837 17.656104 48.644369 49.725355 87.920193 89.721836 116.746486 38.555167 28.105635 84.316906 47.923712 132.961275 56.931928 87.920193 16.935447 184.488273 1.080986 253.671376-56.211271 40.35681-32.789908 60.895543-68.462445 67.38146-103.053996 4.684273-22.700706 2.882629-43.960096-2.88263-63.778173-5.40493-19.457748-14.773475-36.393195-27.024649-51.526998-24.502349-28.826293-60.895543-54.409628-96.568081-61.97653-48.644369-9.368545-232.051656 25.223006-170.435456 113.143199 52.247656 76.750004 59.814557-17.656104 122.511745-38.555166 61.976529-19.457748 145.21245 43.960096 71.345074 104.134982-37.474181 30.627936-140.528177 41.077467-193.856819 30.627936-29.907279-6.485916-58.012914-17.656104-80.353291-34.591551-21.61972-15.133804-37.474181-34.591551-46.122068-56.931928-42.158453-114.944842 46.842726-180.524658 155.301652-197.460105 89.001179-14.052818 192.775833 8.287559 246.104474 36.393194 19.818076 11.170188 35.672537 24.14202 43.960097 39.275824 4.684273 7.566902 6.485916 14.052818 9.368545 18.73709 18.73709 45.76174 30.988265 74.948361 108.458926 82.515263 43.960096 4.684273 67.381459 23.421363 74.227704 46.842726 5.40493 17.656104 3.603287 38.194838-1.801643 61.616201-7.566902 26.303992-21.61972 53.328642-41.077467 77.83099-52.607984 69.183103-144.131464 119.629115-248.266446 92.604465-77.83099-18.73709-96.207752-8.287559-136.564562 16.935447-15.133804 8.287559-35.672537 21.61972-76.750005 33.870894-6.485916 1.801643-14.052818 3.603287-22.340377 4.684273-60.895543 9.368545-140.167848-6.485916-209.711279-41.077467-66.660802-32.789908-121.791087-83.23592-140.528177-143.050478-0.720657-5.40493-2.882629-12.251174-3.603287-18.73709-0.720657-7.566902-1.801643-15.133804-3.603286-21.61972 1.080986-17.656104 1.801643-35.672537 1.080986-53.328641-2.882629-75.669018-26.303992-161.066911-78.551648-256.554006-72.065732-131.159632-181.605644-207.909636-304.117388-242.501187-90.802822-26.303992-189.172546-29.186621-284.659641-14.052818-94.406109 15.133804-186.289917 46.842726-264.841565 89.721836-119.629115 66.300473-211.512923 161.066911-241.420201 264.841565-20.538734 70.984746-63.778173 182.326302-135.843905 285.380298-49.725355 70.984746-113.143199 137.645548-192.055175 184.488273-25.943663 15.854461-56.211271 27.024649-89.001179 36.393195zM4270.466516 443.51053c-12.251174 6.485916-22.340377 15.854461-28.105636 27.02465-5.765259 11.170188-7.566902 25.223006-4.684272 42.158453 2.882629 12.251174 7.566902 25.223006 15.854461 39.275824 28.105635 54.409628 119.989443 63.417844 213.314566 42.87911 26.303992-5.40493 52.607984-14.052818 76.750004-24.502349v137.645548c-15.854461 4.684273-32.789908 9.368545-49.725355 12.251174-145.21245 31.708922-295.109172 4.684273-354.923729-107.738269-12.971832-26.303992-22.340377-50.446012-27.024649-74.948361-10.449531-47.923712-2.882629-90.802822 15.854461-126.475359 17.656104-35.672537 46.842726-62.697187 82.154934-81.434277 19.818076-10.449531 42.158453-18.73709 64.49883-23.421363 45.76174-9.368545 159.985925-3.603287 221.602125 38.194838 46.842726 31.708922 66.660802 93.685451-7.566901 131.159632-122.511744 36.393195-145.933107-67.381459-215.11621-34.591552-0.720657 1.080986-1.801643 1.080986-3.603287 1.801644z" fill="#BE9C78" p-id="19393"></path><path d="M4543.955968 235.600894V87.505815c-26.303992-32.789908-65.579816-69.183103-180.884987-84.316906-56.211271-7.566902-117.106814-1.801643-171.156113 18.73709-50.446012 19.457748-96.568081 51.526998-130.078646 100.171367-14.052818 19.818076-41.077467 17.656104-70.984746 15.854461-27.384978-1.801643-54.409628-3.603287-87.199535 2.882629-128.99766 22.340377-211.512923 103.774654-251.869733 200.342735a360.004363 360.004363 0 0 0-28.105635 151.698365c1.080986 50.446012 12.251174 101.252353 33.870894 144.131464 37.474181 74.948361 103.053997 128.277003 194.577475 135.843905 32.789908 1.801643 34.591551 6.485916 46.842726 38.194837 2.882629 7.566902 6.485916 15.854461 14.052818 32.789908 14.773475 37.474181 53.328642 73.867375 105.576297 103.774654 42.87911 24.14202 97.288738 44.680754 159.985925 56.931928 76.029347 15.854461 181.605644 25.223006 285.380298 14.052818 27.024649-2.882629 53.328642-6.485916 79.632633-12.251174v-131.88029c-28.826293 7.566902-60.895543 12.971832-92.604465 16.935447-89.721836 8.287559-181.605644 1.080986-246.825132-12.251174-47.923712-10.449531-89.721836-26.303992-121.791086-43.960096-28.105635-15.854461-45.76174-29.907279-50.446013-41.077468-2.882629-6.485916-8.287559-19.457748-13.33216-30.988264-38.194838-97.288738-43.960096-111.341556-156.382638-119.629115-41.077467-2.882629-72.065732-29.186621-89.721836-64.49883-12.251174-25.223006-19.818076-56.211271-20.538734-89.001179 0-33.510565 5.765259-67.381459 18.737091-99.090381 24.502349-59.0939 74.948361-109.539912 154.580994-123.59273 15.854461-2.882629 36.393195-1.080986 56.931928 0 67.381459 4.684273 130.078646 9.368545 185.208931-72.065732 17.656104-25.223006 42.158453-42.158453 69.183103-52.247656 34.591551-12.971832 73.867375-16.935447 110.620898-12.251174 74.948361 9.368545 90.802822 30.988265 103.774654 46.842726 19.818076 24.502349 36.393195 45.041082 80.71362 55.130285 7.566902 1.801643 11.170188 2.882629 12.251174 2.882629z" fill="#BE9C78" p-id="19394"></path></svg>