<?xml version="1.0" standalone="no"?><!DOCTYPE svg PUBLIC "-//W3C//DTD SVG 1.1//EN" "http://www.w3.org/Graphics/SVG/1.1/DTD/svg11.dtd"><svg t="1784481128426" class="icon" viewBox="0 0 2007 1024" version="1.1" xmlns="http://www.w3.org/2000/svg" p-id="16096" xmlns:xlink="http://www.w3.org/1999/xlink" width="391.9921875" height="200"><path d="M2006.763913 96.630487l-207.419288 293.077083 31.325268 3.893536 167.599032-236.797788 8.494988-12.034566v48.315244l-147.069478 207.773246 26.723816 10.441756c36.457656 16.459039 72.915313 43.890771 105.479433 85.303836l1.946768 2.300726 1.415831 2.477705c0.530937 0.884895 5.309367 9.556861 11.50363 23.538196v336.613895c-12.034566 21.768406-27.431732 43.005876-46.368476 63.181473l-1.59281 1.769789-1.946768 1.59281c-1.061873 1.061873-13.981334 11.503629-36.103699 24.246112-22.122364 12.919461-53.447632 28.316626-91.852056 38.758382-25.484964 6.902178-54.155548 11.680608-85.126858 11.680608-27.608711 0-56.810232-3.716557-86.896647-12.919461-30.086415-9.202904-60.880747-23.715175-91.144141-44.952644l-1.238853-0.884894-1.238852-1.061874-121.053578-100.701002-1.946768-1.238853-8.671967-5.486346c-7.610093-4.424473-18.582786-9.556861-30.263394-12.919461l-23.538196-3.539578c-8.671967 0-16.459039 1.59281-24.600069 5.132388-7.964051 3.716557-16.459039 9.556861-25.307985 20.529554-5.663325 6.902178-11.503629 15.928102-17.166954 27.608711v0.530937l-2.477705 8.14103c-1.59281 6.902178-3.18562 16.636018-3.185621 25.661943l1.946768 16.105081 5.309368 10.264777 6.371241 5.309367c3.893536 2.300726 9.73384 4.601452 18.759765 6.017283h4.601452l12.034566-1.238852 8.671967-4.070515 3.18562-4.070515c1.415831-2.654684 3.008642-7.610093 3.008642-17.343934 0-20.706533 16.636018-37.51953 36.988593-37.51953s36.988593 16.812997 36.988593 37.51953c0 16.28206-2.654684 31.148289-7.964051 44.421708a90.259246 90.259246 0 0 1-22.653301 32.741099l-19.113723 13.09644c-8.494988 4.424473-16.989976 7.256135-24.777048 8.848946-10.264777 2.300726-19.290702 2.831663-26.369858 2.831662-8.494988 0-13.981334-0.707916-15.397166-0.884894-18.936744-3.008642-35.572762-9.025925-49.554096-18.405808a97.161424 97.161424 0 0 1-31.856205-34.687867c-4.778431-8.671967-7.964051-17.520913-10.087798-26.192879a136.273764 136.273764 0 0 1-3.893536-32.741099c0-17.166955 2.654684-32.210162 5.309367-43.182856 2.477705-10.972693 5.309367-18.051849 5.663326-19.113722l0.530936-1.592811 0.707916-1.59281c12.211545-25.661943 26.900795-46.014518 43.890771-61.411683 16.812997-15.397166 35.572762-25.484964 54.332527-30.794331 12.565503-3.539578 24.777048-4.95541 36.280677-4.95541 15.751123 0 30.263394 2.477705 43.182855 6.194262 13.09644 3.716557 24.42309 8.318009 33.802973 12.919461 19.113723 9.379882 30.97131 18.405807 32.387141 19.290702l0.530937 0.530936 0.530937 0.530937 120.168683 99.993087c24.069132 16.636018 47.430349 27.608711 69.906671 34.333909 22.83028 6.902178 44.775665 9.73384 65.659178 9.733841 22.299343 0 43.713792-3.18562 63.181472-8.318009 19.64466-4.95541 37.342551-12.034566 52.385759-19.113723a301.395092 301.395092 0 0 0 49.554096-29.201521c24.42309-26.723816 40.174214-54.155548 50.085033-81.941238 8.318009-23.361217 12.211545-46.899412 13.450397-69.906671l-0.530936-15.220187 0.530936-14.512271c-1.769789-35.92672-9.379882-69.729692-17.87487-95.922571a350.59523 350.59523 0 0 0-21.591428-52.562738c-25.484964-31.502247-51.323885-50.085033-76.277912-61.588662-25.484964-11.680608-50.61597-15.751123-73.269271-15.751124s-43.359834 4.070515-58.403041 8.494988c-10.618735 3.008642-18.228828 6.194262-22.299344 7.964051-31.856205 26.723816-50.792948 52.20878-61.765641 74.685102-11.326651 23.361217-14.866229 44.06775-14.866229 61.942621 0 17.166955 3.362599 31.856205 7.079157 42.474939 3.539578 10.441756 7.079157 16.636018 7.256135 16.812997 8.671967 14.158313 17.343934 23.361217 25.661943 29.3785 8.318009 6.194262 16.459039 9.73384 24.600069 11.503629l16.989976 1.946768c14.335292 0 29.024542-3.893536 40.351193-8.14103l12.565502-5.486346 8.318009-17.166955c2.300726-6.371241 2.831663-10.972693 2.831663-14.335292l-1.061873-6.725199-2.831663-5.663325c-2.477705-3.893536-7.079157-7.964051-12.034566-11.326651l-9.910819-5.486346c-4.070515-1.769789-6.725199-2.654684-6.902178-2.654684-19.467681-5.840304-30.617352-26.369858-25.131006-46.191496 5.663325-19.998617 26.0159-31.502247 45.66056-25.838922 1.59281 0.353958 9.73384 3.008642 21.060491 8.494988 11.326651 5.663325 25.661943 14.335292 38.935361 29.024542 8.848946 9.556861 16.989976 22.299343 21.768407 37.873488 2.654684 8.848946 4.247494 18.405807 4.070515 28.493605 0 12.919461-2.300726 26.369858-7.256136 39.820256-4.778431 13.627376-12.034566 27.254753-21.591427 41.236087l-4.247494 6.194262-6.371241 4.070515c-1.415831 0.884895-12.211545 7.787072-29.3785 14.68925-17.166955 6.902178-40.882129 13.981334-69.021777 13.981334-10.618735 0-21.945385-1.061873-33.449015-3.716557-11.503629-2.654684-23.184238-6.902178-34.864846-13.273419-22.83028-12.565503-44.244729-32.741099-61.411683-60.880746v-0.353958h-0.353958c-1.415831-2.300726-7.256135-12.211545-13.273419-28.670584l-2.477705-7.610094-20.883511 9.556862c-18.759765 7.256135-36.811614 10.618735-53.270654 10.618735-12.919461 0-24.954027-2.123747-35.749741-5.663326-10.618735-3.539578-19.998617-8.494988-27.785689-13.804355a117.213135 117.213135 0 0 1-30.794331-32.033183c-3.893536-5.840304-5.663325-10.087798-6.371241-11.50363l-0.884895-2.123747-0.707915-2.123747c-3.716557-11.857587-5.486346-23.361217-5.486347-34.510888s2.123747-22.83028 5.840304-32.741099c3.716557-9.910819 8.848946-18.582786 14.866229-25.661943 11.857587-14.335292 25.484964-23.184238 37.342551-29.201521l21.060491-8.494988c7.787072-2.477705 13.09644-3.539578 14.335292-3.893536 19.998617-3.716557 39.289319 9.73384 43.005876 30.086415 3.716557 20.352575-9.556861 39.820256-29.378499 43.536813h-0.884895l-4.424473 1.415832-13.804355 6.017283-7.964051 5.840304-4.778431 7.256136-0.707916 5.663325 1.415832 9.025924 0.353957 0.707916 7.964052 8.671967 8.14103 5.132388c4.247494 1.769789 9.025925 3.18562 15.928102 3.185621 6.725199 0 15.574144-1.415831 27.254753-5.840304 10.441756-4.070515 23.184238-10.972693 38.227445-21.23747 2.300726-23.538196 8.671967-49.554096 21.768407-75.923954 7.079157-14.512271 16.28206-29.201521 27.431732-43.713792-45.66056-4.424473-83.003111-16.105081-113.089527-32.210163-38.935361-20.883512-64.951262-49.023159-81.233322-75.216038-10.972693-17.343934-17.697891-33.979952-22.122364-47.43035-5.663325-17.87487-6.902178-30.263394-7.079157-32.56412-3.008642-20.352575-4.424473-39.11234-4.424472-56.98721v-1.415832c-5.309367-1.946768-10.264777-5.132389-14.335292-9.556861-36.988593-41.059108-71.145524-66.721051-101.054961-81.941238-29.909437-15.220187-55.748358-20.352575-78.401659-20.352575-17.166955 0-32.741099 3.18562-46.722433 7.787073-13.981334 4.778431-26.369858 11.149672-36.634636 17.87487-15.574144 9.910819-26.369858 20.352575-30.617352 24.954027-8.848946 15.751123-14.866229 29.555479-18.582786 41.413066-3.893536 12.565503-5.309367 23.007259-5.309367 31.325268l2.831662 19.113723 7.256136 14.335292c6.017283 8.671967 15.043208 16.105081 24.600069 21.591427l17.87487 8.494988 8.14103 2.654684c10.441756-0.353958 17.87487-2.477705 23.007259-4.95541 5.840304-2.831663 9.556861-6.194262 12.919461-10.795714l5.663325-10.087798 4.601452-15.928102c1.415831-7.079157 1.59281-13.450398 1.415831-16.812997v-2.477705c-1.238852-20.529554 13.981334-38.227446 34.156931-39.820255 20.352575-1.59281 38.050467 13.981334 39.466298 34.687867 0 0.707916 0.353958 3.539578 0.353958 7.787072 0 6.725199-0.353958 17.166955-2.654684 29.909437-2.300726 12.565503-6.371241 27.431732-14.512271 42.651918-5.309367 10.087798-12.565503 20.352575-21.945385 29.555479-12.742482 12.211545-29.732458 22.122364-49.731075 27.431732-11.503629 3.008642-23.715175 4.424473-36.811615 4.424472h-3.893536l-3.716557-0.884894c-1.59281-0.353958-13.804355-3.008642-30.440373-10.087798-16.459039-7.256135-37.342551-18.582786-56.102316-38.227446-12.388524 12.919461-25.838922 22.476322-38.227446 29.555479-10.795714 6.017283-20.883512 10.264777-28.847563 13.09644-10.795714 3.893536-18.228828 5.486346-19.467681 5.840304l-3.716557 0.884894h-3.893536c-22.299343 0-42.120982-4.247494-59.110957-12.742482-16.812997-8.14103-30.086415-19.998617-39.643277-32.741099a129.017629 129.017629 0 0 1-14.866229-25.838921c-4.778431-11.503629-7.610093-22.476322-9.556861-32.033184-2.300726-12.919461-2.831663-23.538196-2.831663-30.440373 0-4.247494 0-6.902178 0.353958-7.787072a36.811614 36.811614 0 0 1 39.466298-34.510889c20.175596 1.59281 35.395783 19.467681 34.15693 39.820256v2.477705c0 3.18562 0.176979 9.556861 1.415832 16.459039l6.725198 20.529554 7.787073 10.441756c4.070515 3.716557 9.025925 6.902178 17.343933 9.202904l14.68925 1.769789 5.840304-1.769789c6.54822-2.477705 15.574144-6.371241 24.069133-11.857588l15.397165-12.742482c6.017283-6.371241 10.441756-13.450398 12.919461-22.122364l2.477705-17.697891c0-8.318009-1.415831-18.582786-5.309368-31.325268-3.716557-11.680608-9.556861-25.661943-18.582786-41.236087l-1.59281-1.76979c-2.831663-3.008642-7.433114-7.256135-13.450397-12.034566a174.111856 174.111856 0 0 0-50.969928-28.493605c-14.335292-4.95541-30.440373-8.318009-48.138265-8.318009-22.653301 0-48.492223 5.132389-78.401659 20.352575-29.909437 15.220187-63.889388 40.882129-101.05496 81.941238-4.070515 4.601452-9.025925 7.610093-14.335292 9.556861v1.415831c0 17.697891-1.415831 36.634635-4.424473 56.810232-0.176979 2.477705-1.769789 17.87487-9.379882 39.466298-7.787072 21.591428-21.768406 49.554096-47.43035 75.746975-16.989976 17.520913-39.11234 33.802973-66.898029 46.722434-27.608711 12.742482-60.526789 21.768406-99.639129 25.661942 11.149672 14.512271 20.352575 29.201521 27.254753 43.713792 13.09644 26.546837 19.467681 52.385759 21.768406 75.923955 14.866229 10.441756 27.78569 17.343934 38.227446 21.23747 11.680608 4.424473 20.529554 5.663325 27.077774 5.840304 6.371241 0 10.972693-1.238852 14.866228-2.654684l9.91082-6.194262 7.787072-8.848946 1.415831-9.202903-0.884894-5.840305-2.477705-4.424472c-2.123747-2.831663-6.54822-6.54822-11.857587-9.379883l-10.264777-4.424473c-4.070515-1.415831-6.902178-2.123747-7.256136-2.123747-19.998617-3.893536-33.095057-23.184238-29.3785-43.713792a36.953197 36.953197 0 0 1 43.005876-30.086415c1.061873 0.176979 6.371241 1.238852 13.981335 3.716557 7.610093 2.477705 17.697891 6.194262 28.493605 12.565503 7.256135 4.247494 14.866229 9.556861 22.122364 16.459039 9.73384 9.379882 18.936744 21.945385 24.069133 37.873488 3.008642 9.025925 4.601452 18.936744 4.601451 29.3785 0 11.326651-1.946768 22.83028-5.486346 34.687867l-0.707916 2.123747-0.884894 2.123747c-0.707916 1.59281-3.18562 6.725199-7.964051 13.627376-4.601452 6.902178-11.857587 15.751123-22.122365 24.246112-6.725199 5.663325-15.043208 11.149672-24.777048 15.574144-12.919461 5.840304-28.670584 9.556861-45.837539 9.556861s-34.510888-3.362599-53.270653-10.618734l-20.883512-9.556862-2.477705 7.610094c-6.017283 16.636018-11.857587 26.369858-13.273418 28.670584s0 0.353958 0 0.353958c-12.919461 21.060491-27.962669 37.696509-44.598687 49.908053-16.636018 12.388524-34.510888 19.998617-51.677843 24.069133-11.503629 2.654684-22.83028 3.716557-33.449015 3.716557-27.962669 0-51.854822-7.079157-69.021776-13.981334-17.343934-6.902178-27.962669-13.804355-29.3785-14.68925l-6.371241-4.070515-4.247494-6.194262c-9.556861-14.158313-16.636018-27.608711-21.414449-41.236087a115.390252 115.390252 0 0 1-7.433114-39.820256c0-11.326651 1.769789-22.122364 5.309367-31.856205l13.450398-25.661942c10.618735-14.512271 23.184238-24.246111 34.15693-31.148289l19.64466-10.264777c7.256135-3.18562 12.388524-4.778431 13.450397-5.132389a36.811614 36.811614 0 0 1 45.66056 25.838922c5.663325 19.821638-5.663325 40.351193-24.954027 46.191496h-0.176978l-1.592811 0.707916-7.256135 3.185621c-5.840304 2.831663-12.919461 7.610093-17.166955 12.388524l-5.486346 9.202903-0.884895 6.371241c0 3.362599 0.530937 7.787072 2.831663 14.335292l8.318009 17.166955 10.972692 4.955409c11.326651 4.601452 26.900795 9.025925 41.767024 8.848946l16.989976-1.946768 16.459039-6.194262c10.972693-6.017283 22.476322-15.928102 33.802973-34.687867s0-0.353958 0-0.353958l1.238852-2.477705c1.238852-2.477705 3.18562-6.725199 5.132389-11.857587 3.716557-10.618735 7.787072-26.0159 7.787072-44.421708 0-18.051849-3.539578-38.581403-15.043208-61.94262-10.972693-22.476322-29.909437-47.784307-61.765641-74.685102l-1.769789-0.707915c-3.893536-1.59281-9.910819-3.893536-17.520913-6.371241-15.220187-4.601452-36.811614-9.379882-61.234704-9.379883-22.653301 0-47.607328 4.070515-73.269271 15.751124-24.954027 11.326651-50.792948 30.086415-76.277912 61.588662l-4.601452 9.202903c-3.893536 8.318009-9.202904 20.706533-14.512271 35.92672-9.202904 26.369858-18.228828 61.234704-20.352575 99.108192l0.353958 18.405807-0.530937 15.043208c1.238852 23.184238 5.132389 46.722433 13.450398 69.906671 9.910819 27.78569 25.484964 55.217421 50.085033 81.941238l4.247494 3.18562c4.601452 3.362599 11.503629 7.964051 20.529554 13.09644 17.87487 10.441756 43.713792 23.007259 74.154165 31.325268 20.352575 5.486346 42.651918 9.025925 66.013135 9.025925 21.060491 0 43.005876-2.831663 65.659177-9.733841 22.476322-6.902178 45.66056-17.697891 69.729693-34.333909l120.345662-99.993087 0.530936-0.530937 0.530937-0.530936c1.061873-0.707916 7.964051-6.017283 19.467681-12.565503 11.503629-6.54822 27.431732-14.335292 46.722433-19.821639 12.919461-3.539578 27.431732-6.194262 43.182855-6.194262 17.343934 0 36.457656 3.362599 55.040443 11.857588 18.582786 8.494988 36.457656 22.122364 51.854822 40.882129 10.264777 12.565503 19.467681 27.254753 27.60871 44.421707l0.707916 1.592811 0.530937 1.59281c0.530937 1.061873 3.008642 8.14103 5.663325 19.113723 2.477705 10.972693 5.309367 26.0159 5.309368 43.182855 0 11.326651-1.238852 23.892153-4.95541 36.988593-3.716557 12.919461-10.264777 26.546837-20.529554 38.581403-6.902178 7.964051-15.220187 15.043208-24.954027 20.883512-12.919461 7.610093-28.139647 12.742482-44.775666 15.397166h-0.176978c-1.415831 0.176979-6.902178 0.884895-15.397166 0.884894-7.964051 0-18.405807-0.707916-30.263394-3.716557-11.680608-3.008642-25.307985-8.671967-37.873488-19.290702-8.318009-7.079157-15.928102-16.459039-21.591428-27.431731-7.610093-14.866229-11.326651-32.387141-11.32665-51.500864 0-20.706533 16.636018-37.51953 36.988593-37.51953s36.988593 16.812997 36.988593 37.51953c0 8.14103 1.238852 12.919461 2.477705 15.928102l3.539578 5.309367 3.3626 2.123747 7.079156 2.477705 10.618735 1.061874h4.601452c10.264777-1.946768 16.28206-4.601452 20.175596-7.256136l7.610093-8.318009 3.008642-7.964051 1.59281-14.512271-3.008641-24.246111c-1.061873-4.601452-2.123747-7.964051-2.654684-9.91082-8.671967-17.697891-17.697891-29.3785-26.015901-36.988593-8.671967-7.787072-16.459039-11.857587-24.600069-14.158313l-16.636018-2.123747-22.122364 3.185621-20.706533 7.433114c-11.857587 5.486346-20.352575 11.503629-21.768406 12.388524l-121.053578 100.701002-1.238852 1.061874-1.238853 0.884895c-30.263394 21.23747-61.057726 35.749741-91.144141 44.952644-30.086415 9.202904-59.287936 12.919461-86.896647 12.919461-30.794331 0-59.464915-4.601452-85.126858-11.680609-25.661943-6.902178-48.138265-16.105081-66.721051-25.307985-37.342551-18.228828-59.818873-36.457656-61.411683-37.873487l-1.946768-1.592811-1.59281-1.769789a313.836709 313.836709 0 0 1-48.669202-67.251987l-0.353958 0.530937V529.520913l0.353958 0.707915c7.433114-17.343934 13.273419-27.78569 13.804355-28.670584l1.415832-2.477705 1.769789-2.300726c32.741099-41.413066 69.198756-68.844798 105.479433-85.303837l24.777048-9.556861L0 193.260975V144.945731l8.494988 12.034566 167.95299 237.151746 31.148289-4.070515L0 96.630487V0l16.989976 24.069132 262.45973 370.416869c10.972693 2.123747 21.23747 4.778431 29.555479 7.256135l9.910819 3.185621 11.857587-1.238853 34.33391 1.415832c54.155548 0 91.675078-10.618735 118.398894-24.246112 26.723816-13.804355 42.828897-30.97131 53.978569-47.25337 7.256135-10.972693 12.034566-21.591428 14.866229-30.263394 3.893536-11.503629 4.95541-19.467681 4.955409-19.64466v-0.884894l0.176979-1.238853c2.831663-17.520913 3.893536-33.449015 3.893536-47.784307 0-29.732458-5.132389-52.385759-12.388524-70.08365s-16.989976-30.617352-27.608711-41.059108l-21.945385-16.812997c-9.910819-6.017283-19.64466-10.087798-27.78569-12.742482-10.441756-3.539578-17.87487-4.601452-18.405807-4.778431h-1.59281c-13.09644-2.123747-24.600069-3.008642-34.687867-3.008641-19.998617 0-34.510888 3.539578-45.306602 8.14103-10.795714 4.601452-18.051849 10.618735-24.069133 17.166955l-9.73384 13.981334-7.256135 18.759765c-1.59281 5.663325-2.300726 10.441756-2.477705 12.742482 0.884895 11.680608 3.008642 20.529554 5.486346 26.723816 2.831663 6.725199 5.663325 10.972693 9.025925 14.158313l7.079156 5.486346 12.034566 4.778431 19.290702 2.123747c12.034566 0 22.653301-2.300726 25.131006-2.831663h0.353958c19.64466-5.486346 39.820256 6.017283 45.306602 26.015901 5.486346 19.821638-6.017283 40.70515-25.661943 46.191497-1.946768 0.530937-19.998617 5.663325-45.306602 5.840304-12.565503 0-27.077774-1.415831-42.474939-5.840304-15.220187-4.601452-31.502247-12.565503-45.66056-26.015901-9.379882-8.848946-17.87487-19.998617-24.069133-32.918078-8.318009-17.343934-13.450398-37.696509-14.866228-60.880747v-1.769789-1.769789c0-1.769789 0.353958-10.441756 3.18562-23.361217 2.654684-12.919461 7.787072-29.732458 18.051849-47.430349 6.902178-11.857587 15.928102-24.069132 28.139648-35.041825 16.105081-14.68925 37.696509-26.900795 63.889388-33.449015 15.043208-3.716557 31.502247-5.840304 49.554096-5.840304l44.421708 3.716557c2.123747 0 15.574144 1.769789 35.041825 8.494988 19.290702 6.54822 44.598686 18.228828 68.667819 39.289319 16.105081 13.981334 31.679226 32.387141 43.89077 55.3944l12.211545 28.139648c32.918078-32.033184 65.128241-55.3944 96.453509-71.322503 39.466298-20.175596 77.339786-28.316626 111.673695-28.316626 26.723816 0 50.969927 4.95541 72.030418 12.211545 21.060491 7.433114 38.935361 16.989976 53.447633 26.546837 29.024542 19.290702 45.129623 38.227446 46.722433 39.997235l1.946768 2.477705 1.238852 2.123747 1.238853-2.123747 2.123747-2.477705c1.238852-1.415831 10.441756-12.388524 27.431732-25.838922 16.812997-13.627376 41.236087-29.732458 72.915312-40.70515 21.060491-7.256135 45.306602-12.388524 72.030419-12.211545 34.156931 0 72.207397 8.14103 111.496716 28.316626 31.502247 15.928102 63.712409 39.466298 96.630487 71.676461l4.95541-13.273419c12.034566-28.139647 29.024542-50.262012 46.899412-66.89803 12.034566-10.972693 24.42309-19.64466 36.280678-26.546837 15.928102-9.025925 30.794331-14.866229 42.651918-18.405807 16.105081-4.95541 27.077774-6.194262 28.847563-6.371241l44.598687-3.716557c30.263394 0 56.456274 5.840304 78.047701 15.928102 21.768406 10.087798 38.581403 24.42309 50.61597 39.643277 8.14103 10.087798 14.158313 20.529554 18.582786 30.263395 6.194262 13.09644 9.73384 25.307985 12.034566 35.218804 2.831663 13.09644 3.008642 22.122364 3.18562 23.892153v3.539578c-1.415831 26.0159-7.787072 48.669202-18.228828 67.251988a111.709091 111.709091 0 0 1-40.528171 41.590045c-10.264777 6.017283-20.883512 9.910819-30.97131 12.565503-13.450398 3.362599-26.192879 4.601452-37.51953 4.601452-25.307985 0-43.359834-5.309367-45.306602-5.840305a37.43104 37.43104 0 0 1-25.484964-46.191496c5.486346-19.821638 25.661943-31.502247 45.306602-26.015901h1.238852l5.309368 1.415832c4.778431 0.884895 11.680608 1.59281 18.936744 1.59281l21.591427-2.831663 16.459039-9.025925c2.831663-2.654684 5.486346-6.194262 8.14103-11.32665 3.18562-6.725199 6.017283-16.28206 7.079157-30.263394s-1.238852-8.14103-1.238852-8.141031c-1.415831-7.079157-4.424473-16.636018-9.556862-25.484963l-13.450397-16.812997c-7.433114-6.725199-17.343934-12.742482-32.387142-16.636018-8.671967-2.123747-19.113723-3.539578-31.679225-3.539578-10.264777 0-21.768406 0.884895-34.687868 3.008641h-2.123747l-3.893536 0.884895c-3.539578 0.707916-8.848946 1.946768-15.220186 4.247494-12.742482 4.424473-29.3785 12.211545-44.244729 25.131006a118.398894 118.398894 0 0 0-26.900795 33.979951c-10.087798 19.113723-17.520913 44.952644-17.520913 81.410301 0 14.158313 1.061873 30.263394 3.893537 47.784307v1.238852l0.353957 0.884895v0.530937l0.707916 3.893536c0.884895 3.716557 2.123747 9.379882 4.601452 16.28206 4.95541 13.627376 13.981334 31.679226 30.440373 48.492222 10.972693 11.326651 25.307985 22.122364 44.952644 31.148289 26.192879 12.034566 61.94262 20.883512 111.496717 20.883512l34.333909-1.415831 11.857587 1.238852 9.733841-3.18562 26.723816-6.54822 262.45973-371.655721 17.166955-24.069132v96.630487zM1161.866574 722.781887c0-50.262012-10.795714-96.630487-28.670584-134.326996-17.87487-37.696509-42.651918-66.190114-69.375734-82.118216-17.87487-10.795714-36.457656-16.28206-55.925337-16.28206s-38.050467 5.486346-55.925337 16.28206c-17.87487 10.618735-34.864846 26.723816-49.554096 47.607328-29.201521 41.590045-48.669202 101.762876-48.669202 168.660905 0 50.438991 10.795714 96.807466 28.670584 134.326997 17.87487 37.696509 42.651918 66.190114 69.375735 82.118216 17.87487 10.618735 36.457656 16.105081 55.925337 16.105081s38.050467-5.486346 55.925337-16.105081c17.87487-10.618735 34.864846-26.900795 49.377117-47.607328 29.3785-41.590045 48.669202-101.762876 48.669202-168.837885z m6.017284-208.481161c-19.290702-27.608711-42.828897-50.438991-69.906672-66.721051-27.077774-16.28206-57.872105-25.838922-90.259246-25.661943-32.210162 0-63.181473 9.379882-90.259247 25.661943-40.528171 24.42309-73.092292 63.712409-95.745592 111.319737-22.653301 47.607328-35.395783 103.709644-35.395783 163.882475 0 80.348427 22.653301 153.617698 61.234704 208.658141 19.290702 27.431732 42.828897 50.438991 69.906671 66.72105 27.077774 16.28206 57.872105 25.838922 90.259247 25.838922 32.387141 0 63.181473-9.379882 90.259246-25.838922 40.70515-24.600069 73.092292-63.712409 95.568614-111.142758 22.653301-47.607328 35.395783-103.709644 35.395783-164.059454 0-80.171448-22.653301-153.440719-61.234704-208.481161z m-126.893882 208.481161c0-22.83028-3.716557-43.713792-9.379883-59.818873-5.663325-16.28206-13.627376-27.254753-18.582786-31.148289-3.539578-2.654684-4.601452-2.477705-4.955409-2.477705-0.530937 0-1.415831 0-5.132389 2.477705-3.362599 2.654684-8.14103 8.318009-12.388524 16.636018-8.848946 16.812997-15.751123 44.06775-15.574144 74.331144 0 22.83028 3.716557 43.890771 9.379882 59.995852 5.486346 16.28206 13.627376 27.254753 18.582786 31.148289 3.539578 2.831663 4.601452 2.477705 5.132389 2.654684 0.353958 0 1.415831 0 4.955409-2.654684 3.362599-2.654684 8.14103-8.318009 12.388524-16.812997 9.025925-16.812997 15.751123-43.890771 15.751124-74.331144z m43.713792-106.364327c-7.610093-14.68925-17.343934-27.78569-29.909437-38.050467-12.565503-10.264777-29.024542-17.520913-46.899412-17.520913-18.051849 0-34.510888 7.256135-46.899413 17.520913-18.936744 15.574144-31.325268 36.988593-39.997234 61.411683-8.671967 24.600069-13.273419 52.739717-13.450398 83.003111 0 40.351193 8.14103 76.985828 23.538196 106.541307 7.787072 14.68925 17.343934 27.78569 29.909436 38.050467 12.565503 10.264777 29.024542 17.520913 46.899413 17.520912s34.510888-7.256135 46.899412-17.520912c18.936744-15.574144 31.325268-36.988593 39.997235-61.588663 8.671967-24.600069 13.273419-52.916695 13.273418-83.003111 0-40.174214-8.14103-76.808849-23.538195-106.364327z" fill="#BE9C78" p-id="16097"></path></svg>