<?xml version="1.0" standalone="no"?><!DOCTYPE svg PUBLIC "-//W3C//DTD SVG 1.1//EN" "http://www.w3.org/Graphics/SVG/1.1/DTD/svg11.dtd"><svg t="1784481201496" class="icon" viewBox="0 0 1813 1024" version="1.1" xmlns="http://www.w3.org/2000/svg" p-id="20737" xmlns:xlink="http://www.w3.org/1999/xlink" width="354.1015625" height="200"><path d="M1813.439565 349.522861v372.70077c-142.312359-33.839746-183.569036-93.175192-183.569035-93.175193-80.659122-72.315075-108.009054-161.318244-112.644636-239.659574-133.968311-86.22182-295.286555-68.143051-401.441376-40.329561l-21.787234 6.026256-19.005885 6.489814-19.469443 6.953373c-65.361702 24.105025-114.498868 71.851517-160.854686 127.014939l-15.760978 24.568583c-51.454957 87.148936-30.131281 155.755545-2.31779 198.866455l10.661838 15.29742c28.740607 47.282933 97.347216 47.282933 146.484382 29.204165l15.760977-9.271164c19.469443-13.443187 33.839746-30.594839 44.501585-47.282933l9.734721-18.078769c-0.463558-12.979629 19.005885-31.985514 9.271164-37.084653-14.833861-19.469443-39.402445-57.481213-9.734722-67.215935 39.402445-9.734722 83.904029-19.469443 121.452241-6.489815l17.615211 1.854233c332.834767 33.376188 478.392033 395.878678 478.392032 395.878678-222.97148 34.303305-332.371209-53.30919-332.371209-53.309189-449.651426 273.962879-777.850611-95.029425-777.850611-95.029426-191.449525 125.624264-375.482119 72.315075-375.482118 72.315075 0-38.01177 43.11091-156.219104 43.11091-156.219104-120.061566 5.09914-210.45541-5.09914-278.134903-21.323675V361.111815l4.172024 25.959258 3.708465 13.443187c31.058397 89.466727 156.682662 91.32096 156.682662 91.32096 265.618832 34.303305 512.231779-163.636034 512.231779-163.636035l171.980081-98.73789C1200.152105 20.39656 1526.960616 165.953825 1561.26392 182.178361c12.052512-20.860118 27.349932-38.475328 44.501585-54.236306l16.224536-13.443187 14.833861-12.51607 15.760978-12.052513c46.355817-42.647352 101.982798-62.116795 160.854685-72.315074v331.90765zM0 353.694885C1.854233 300.385695 44.038026 254.029878 91.32096 231.779086l22.71435-9.734722 31.058398-8.344047 16.224536-2.317791c44.965143-10.661838 104.300589 18.078769 74.632865 70.460842l-11.125396 17.615211c-9.734722 12.052512-24.105025 24.568583-44.501584 36.157537 0 0-23.641467 41.720235 101.519239 22.71435 0 0 343.960163-26.422816 546.998642-335.152557 0 0-258.201901-30.594839-414.421005 45.892258C414.884563 69.533726 247.076505-32.91263 40.329561 11.125396l-18.542327 4.172024L0 18.542327v335.152558z" fill="#BE9C78" p-id="20738"></path></svg>