<?xml version="1.0" standalone="no"?><!DOCTYPE svg PUBLIC "-//W3C//DTD SVG 1.1//EN" "http://www.w3.org/Graphics/SVG/1.1/DTD/svg11.dtd"><svg t="1784481108957" class="icon" viewBox="0 0 1361 1024" version="1.1" xmlns="http://www.w3.org/2000/svg" p-id="15607" xmlns:xlink="http://www.w3.org/1999/xlink" width="265.8203125" height="200"><path d="M1360.998942 166.693474l-121.724162 232.973545s64.654674 26.728748 122.085361 24.380953V746.057143c-38.467725 4.153792-64.112875 21.852557-64.112875 21.852557-80.005644 93.731217 15.53157 152.967901 15.53157 152.967901-33.952734-46.775309 12.461376-96.801411 12.461376-96.801411 12.822575-6.862787 24.742152-11.016578 36.119929-13.183774v212.204586l-173.556261-5.23739c22.574956-84.340035-11.377778-130.934744-11.377778-130.934744-102.761199-159.288889-196.311817 3.070194-196.311816 3.070194 109.804586-71.87866 148.814109 18.601764 148.814109 18.601763 14.809171 76.57425-14.267372 104.928395-39.009524 115.403175H873.018695c-53.638095-20.949559-42.079718-76.93545-42.079718-76.93545l123.530159-222.679365c18.240564-31.243739 63.571076-21.852557 63.571076-21.852557 59.417284 34.313933 142.854321 31.243739 142.854321 31.243739 125.516755 0 111.791182-106.192593 111.791181-106.192593-13.003175-87.410229-124.433157-56.34709-124.433157-56.34709 97.34321 22.033157 67.724868 84.340035 67.724868 84.340036-46.05291 59.417284-134.727337 12.461376-134.727337 12.461375-62.126279-24.922751-29.798942-106.192593-29.798942-106.192592L1360.998942 0.1806h0.180599v166.512874h-0.180599zM747.32134 630.653968c-48.942504-65.557672-191.796825-6.320988-191.796825-6.320987l121.904762 233.154144 65.918871-126.961552c-37.384127-31.063139 3.973192-99.871605 3.973192-99.871605z m140.506526 28.173545c31.063139-53.096296-3.431393-74.948854-3.431393-74.948853-73.684656-9.391182-135.991534-62.306878-135.991535-62.306879-102.761199-87.410229 0.541799-181.141446 0.541799-181.141446 131.295944-68.627866 162.359083 43.705115 162.359083 43.705115-37.022928-37.564727-95.717813-18.782363-95.717813-18.782364-101.858201 53.096296-18.059965 131.115344-18.059965 131.115344 94.453616 59.236684 177.168254-3.250794 177.168254-3.250793l72.05926-118.473369c31.424339-62.306878-6.862787-71.87866-6.862787-71.87866-153.6903-21.852557-107.27619-140.325926-107.276191-140.325925 33.049735-103.122399 120.640564-40.634921 120.640565-40.634921-99.871605 6.140388-77.657848 96.801411-77.657848 96.801411 58.153086 81.269841 143.937919 21.852557 143.937918 21.852557l90.119224-165.429277c14.989771-52.915697-18.601764-63.209877-38.287125-74.948853H897.399647c-26.367549 13.364374-37.203527 43.705115-37.203527 43.705114 13.364374 152.967901-62.126279 193.602822-62.126279 193.602822C701.62963 318.577778 614.038801 256.270899 614.038801 256.270899c-80.186243-93.731217 15.53157-152.967901 15.531569-152.967901-33.952734 46.775309 12.280776 96.801411 12.280776 96.801411C733.234568 250.130511 788.136861 162.720282 788.136861 162.720282c34.494533-150.078307-80.908642-162.539683-80.908642-162.539682L504.234215 6.320988c22.574956 84.340035-11.377778 131.115344-11.377778 131.115344-102.761199 159.288889-196.131217-3.250794-196.131217-3.250794 109.804586 71.69806 148.814109-18.601764 148.81411-18.601764 14.628571-76.57425-14.447972-104.928395-39.190124-115.583774H189.26843C135.630335 20.949559 147.188713 76.93545 147.188713 76.93545L270.899471 299.795414c18.059965 31.243739 63.390476 21.671958 63.390476 21.671958 59.236684-34.313933 142.854321-31.243739 142.854321-31.243739 125.516755 0 111.791182 106.192593 111.791182 106.192593-13.003175 87.410229-124.433157 56.34709-124.433157 56.34709 97.34321-21.852557 67.544268-84.340035 67.544268-84.340036-45.87231-59.417284-134.546737-12.461376-134.546737-12.461375-62.126279 24.922751-29.979541 106.192593-29.979542 106.192592l309.908995 561.845503 210.217989-365.172487z m-355.781305 290.223633c14.989771 53.276896-18.601764 63.390476-38.287125 74.948854H219.789771c-26.367549-13.364374-37.384127-43.705115-37.384127-43.705115 13.364374-152.967901-62.126279-193.602822-62.126279-193.602822C75.671252 749.127337 33.049735 742.44515 0 746.057143V424.047972c27.812346-1.083598 53.818695-9.029982 69.892063-30.70194 0 0-41.357319-68.627866-3.792592-99.871605L0 166.693474V0.361199l210.398589 364.991887c31.063139 53.096296-3.611993 74.948854-3.611993 74.948854-73.684656 9.391182-135.991534 62.306878-135.991534 62.306878-102.761199 87.410229 0.541799 181.141446 0.541799 181.141447 131.295944 68.627866 162.359083-43.705115 162.359083-43.705115-37.022928 37.564727-95.717813 18.782363-95.717813 18.782363-101.858201-53.096296-17.879365-131.295944-17.879366-131.295943 94.273016-59.417284 177.168254 3.250794 177.168254 3.250793l72.239859 118.473369c31.243739 62.306878-6.862787 71.69806-6.862786 71.69806-153.6903 21.852557-107.27619 140.506526-107.276191 140.506525 33.049735 103.122399 120.640564 40.634921 120.640565 40.634921-100.052205-6.140388-77.657848-96.801411-77.657849-96.801411 57.972487-81.269841 143.937919-21.852557 143.937919-21.852557l89.758025 165.248677zM110.526984 861.640917c34.675132 149.897707-80.728042 162.359083-80.728042 162.359083L0 1023.097002V810.892416c69.530864-13.725573 110.346384 50.748501 110.346384 50.748501z" fill="#2c2c2c" p-id="15608"></path></svg>