<?xml version="1.0" standalone="no"?><!DOCTYPE svg PUBLIC "-//W3C//DTD SVG 1.1//EN" "http://www.w3.org/Graphics/SVG/1.1/DTD/svg11.dtd"><svg t="1784481174471" class="icon" viewBox="0 0 2498 1024" version="1.1" xmlns="http://www.w3.org/2000/svg" p-id="18757" xmlns:xlink="http://www.w3.org/1999/xlink" width="487.890625" height="200"><path d="M1311.667808 856.486594c-13.715844-1.443773-18.047163-7.579808-19.851879-14.618202-14.618202 1.985188-29.416876 2.707074-44.576493 2.707074-16.242447 0-32.304422-1.08283-48.185925-3.068017-1.624245 7.579808-5.955564 13.535372-20.032351 14.979145-40.064702 4.150847-44.035078 33.748195-37.538099 59.555638 3.970376 16.061975 16.242447 28.334046 28.514517 30.319234 13.896316 2.346131 27.612159-6.496979 28.69499-3.428961 8.662638 29.958291 35.37244 35.37244 46.742152 36.094326 11.550184-0.721887 37.899042-6.136035 46.922624-36.094326 1.08283-3.068018 14.618202 5.775092 28.514517 3.428961 12.091599-1.985188 24.724613-14.257259 28.514518-30.319234 6.496979-25.807443 2.526603-55.40479-37.718571-59.555638zM1699.32087 543.729259c29.597347-6.136035 34.831025-24.905085 35.552911-33.026309-0.721887-7.76028-5.955564-26.52933-35.552911-32.665365-3.248489-0.721887 5.775092-10.286883 3.428961-19.671407-1.804716-8.482167-13.896316-16.964333-29.777819-20.212823-25.4465-4.331319-54.502432-1.624245-58.65328 26.348858-1.263301 9.564996-7.038394 12.993957-14.076787 13.896316 1.804716 10.106411 2.707074 20.754237 2.707074 31.221592 0 11.189241-1.08283 22.378482-3.248489 33.387251 7.399337 1.443773 13.354901 4.511791 14.618202 14.257259 4.150847 27.973103 33.20678 30.680177 58.65328 26.168386 15.881503-3.068018 27.973103-11.550184 29.777819-20.032351 2.346131-9.564996-6.496979-19.129993-3.428961-19.671407zM796.601776 476.052397c-29.597347 6.136035-34.831025 24.905085-35.552912 32.665365 0.902358 8.301695 6.136035 26.890273 35.552912 33.026309 3.248489 0.721887-5.775092 9.92594-3.428961 19.671407 2.16566 8.482167 14.076787 17.144805 29.777819 19.85188 25.4465 4.692262 54.502432 1.624245 58.653279-26.168387 1.263301-9.564996 7.038394-12.633014 14.076788-13.896315-1.624245-10.106411-2.707074-20.393294-2.707075-30.860649 0-11.550184 1.08283-22.378482 3.248489-33.748195-7.399337-1.08283-13.354901-3.970376-14.618202-13.896315-4.150847-27.973103-33.20678-30.680177-58.653279-26.168387-15.701032 2.707074-27.792631 11.550184-29.777819 20.032351-2.346131 9.564996 6.496979 19.129993 3.428961 19.671408zM1181.547763 165.28025c13.896316 1.443773 18.227635 7.399337 20.212822 14.618202 14.618202-1.624245 29.597347-2.707074 44.756965-2.707074 16.242447 0 31.943479 0.902358 47.64451 3.068018 1.804716-7.218865 6.316507-13.535372 20.212823-14.979146 40.064702-3.789904 44.215549-33.387252 37.71857-59.194694-3.970376-16.061975-16.422918-28.334046-28.514517-30.319234-13.896316-1.985188-27.431688 6.857922-28.514518 3.428961-8.84311-29.958291-35.37244-35.191968-46.922624-36.094326-11.550184 0.902358-38.259986 6.136035-46.922624 36.094326-1.08283 3.428961-14.618202-5.414149-28.514517-3.428961-12.272071 1.985188-24.544142 14.257259-28.514518 30.319234-6.496979 25.807443-2.707074 55.40479 37.357628 59.194694z" fill="#BE9C78" p-id="18758"></path><path d="M67.49639 770.762569C31.943479 761.197573 0.721887 810.827271 0 860.637441v3.428961c0.180472 27.612159 10.467355 54.863376 34.650553 71.466766 44.396021 30.860649 61.179883 18.76905 117.847974 14.618202 27.973103-9.204053 18.949521 51.795358 72.730067 46.381209 9.204053-0.721887 19.129993-4.150847 28.514518-8.84311 20.393294-10.647826 39.162344-27.973103 46.020266-44.396021 5.053206-12.272071 6.496979-5.053206 25.4465-6.496979 25.4465-1.624245 47.103095-36.094326 45.839794-57.209507-3.068018-60.638468-56.307149-78.324687-95.649964-64.969786-15.881503 5.414149-3.068018 20.754237-10.647827 33.748194-2.887546 4.692262-6.857922 7.76028-11.008769 8.84311-16.061975 4.511791-36.996684-15.701032-33.20678-39.162343 2.887546-17.68622 15.52056-31.582535 33.20678-38.981873 35.011496-14.979145 91.679588-6.857922 138.963155 38.079514 71.647237 67.676861 0.721887 71.286294 14.979146 126.330142 14.076787 55.585262 124.164482 96.732794 157.190789 54.502432 33.20678-42.591305-20.754237-73.812897-44.576492-66.41356-23.822255 7.940752-3.609433-62.984599 41.688946-33.387252 31.582535 21.837067 69.301106 36.816213 107.561092 40.786589 16.60339 1.624245 33.20678 1.263301 49.449227-1.443773 56.848564-9.204053 103.410244-50.351585 105.034488-46.922624 1.804716 4.331319-1.804716 14.618202 3.068018 34.650553 11.550184 46.561681 46.922624 38.079514 70.564408 53.780546 0 0 8.662638 51.795358 68.037804 44.215549 1.804716-0.360943 3.970376-0.360943 5.775092-0.721886 54.682904-9.204053 68.037805-48.907812 73.632425-77.241858 2.16566-11.189241 12.813486-3.068018 24.36367-5.775092 19.310464-4.150847 48.546869-43.313191 25.807444-81.753649-37.177156-63.345542-107.38062-55.40479-107.38062-29.597347 0 7.76028 14.43773 15.340089 8.301695 23.822255-5.233677 8.121223-14.618202 13.535372-24.905085 16.061975-18.227635 3.789904-39.523287-2.707074-46.742153-24.905085-0.180472-1.985188 18.227635-19.129993 46.742153-43.674134 15.340089-12.993957 33.20678-27.973103 52.697716-44.035078 60.097053 48.366397 138.060797 77.783273 223.062935 77.783273 93.664776 0 178.847386-35.733383 240.929626-93.484305 24.36367 15.881503 51.975829 27.431688 73.451953 48.72734 15.159617 16.422918 13.535372 25.626971 9.745468 37.177156-11.189241 35.011496-57.029035 31.221592-71.827708 9.204053-5.775092-8.84311 8.662638-16.061975 8.662638-24.183198 0-25.807443-70.203464-33.748195-107.38062 29.597347-22.739425 38.8014 6.316507 77.602801 25.626971 81.93412 11.730656 2.707074 22.558954-5.414149 24.544142 5.414149 5.414149 29.597347 19.671408 70.744879 79.407517 77.963744 59.555638 7.399337 67.857333-44.215549 67.857333-44.215549 23.641784-15.340089 59.194695-7.218865 70.744879-53.780546 4.692262-19.671408 1.263301-30.319234 3.068018-34.470081 1.624245-3.789904 48.005454 37.357627 105.034489 46.922624 5.775092 1.08283 11.189241 1.443773 16.964333 1.624244 48.72734 3.428961 99.439868-13.535372 139.865513-41.508475 45.298379-29.236404 65.691673 41.147532 41.869419 33.748195-23.822255-7.76028-77.783273 23.461312-44.756965 66.052617 33.20678 42.591305 142.933531 0.902358 157.19079-54.141489 14.076787-55.40479-56.48762-58.833751 15.159617-126.691085 47.464039-44.937436 103.771187-53.058659 138.782684-38.079514 18.047163 7.940752 30.319234 21.476124 33.20678 39.523287 3.609433 23.461312-17.325276 43.674135-33.20678 38.801401-3.970376-1.08283-7.76028-3.789904-10.647826-8.84311-7.940752-12.993957 5.233677-27.973103-10.828298-33.387252-39.523287-13.535372-92.401475 4.511791-95.830436 64.969787-1.08283 21.115181 20.754237 55.224319 45.839794 56.848564 18.76905 1.443773 20.393294-5.414149 25.626972 6.496979 6.857922 16.422918 25.626971 34.109138 45.839794 44.215549 9.745468 4.692262 19.490936 8.121223 28.514517 9.204053 54.141489 5.414149 44.756964-55.40479 73.09101-46.381209 56.307149 3.789904 73.271482 16.061975 117.847975-14.618202 24.183198-16.964333 34.109138-44.215549 34.650553-71.827709v-3.068017c-0.721887-49.629698-32.304422-99.439868-67.857333-90.235816-30.680177 6.857922-9.745468 53.419603-23.28084 57.57045-15.52056 7.218865-50.351585-2.707074-48.005454-35.733382 5.775092-73.812897-48.907812-92.581946-114.960428-86.806854-74.895727 6.857922-164.229183 46.020266-196.353134 72.910538-20.754237 16.964333-16.60339 12.272071-5.233677-10.106411 21.115181-41.147532 17.325276-93.303833-9.92594-131.74429-29.416876-41.147532-84.280251-68.037805-135.353723-44.937436-17.866691 11.550184-49.629698-36.094326-90.235815-28.694989-3.068018 0.721887-6.496979 1.443773-10.828297 3.068017-28.334046 9.92594-77.061386 41.869418-81.934121 97.815624-5.414149 57.029035-43.493663 82.656007-3.609432 121.096464 21.837067 21.115181 31.402064 0.721887 47.103095 6.857922 10.286883 3.609433 14.618202 20.032351 22.739426 26.168386 5.233677 3.970376 10.467355 7.218865 15.701032 9.92594 31.04112 14.979145 62.262712 6.136035 75.076198-9.564997 35.37244-43.674135-14.076787-44.937436-21.476124-77.602801-10.286883-44.937436 49.449227-63.886957 74.17384-48.005453 46.020266 30.319234 43.13272 97.996095-9.204053 132.82712-33.026308 22.017539-75.978556 26.890273-110.990053 19.671407-2.346131-0.360943-5.053206-1.08283-7.579808-1.804716-61.540826-17.68622-186.246722-111.350996-236.237364-147.986737l-12.0916-8.662638c28.334046-46.922624 44.576493-101.064113 44.576493-158.815034s-16.242447-111.531467-44.396021-158.27362c31.943479-24.544142 64.608844-49.268755 95.649964-73.451954 53.780546-42.591305 114.960428-90.957702 160.258808-99.800811 8.121223-1.263301 16.783862-2.346131 25.4465-2.707075 29.055932-1.08283 60.097053 5.414149 85.543552 22.378483 52.336773 35.011496 55.224319 102.688358 9.204053 133.007591-24.724613 16.061975-84.280251-3.428961-74.17384-48.005454 7.399337-32.665365 56.848564-34.470081 21.476124-77.963744-8.121223-9.745468-23.822255-16.964333-42.049889-16.964333-15.159617 0-32.484893 5.053206-48.727341 17.325276-8.121223 6.496979-12.633014 22.378482-22.739425 26.52933-15.701032 6.136035-25.4465-14.257259-47.103095 6.857922-39.703759 38.440457-1.804716 63.706485 3.609432 121.276935 5.775092 63.706485 68.398748 96.010907 92.762418 100.70317 7.940752 1.443773 15.159617 0.721887 22.198011-1.08283 29.777819-7.399337 53.600074-37.177156 68.037804-27.612159 51.073471 22.739425 106.117319-3.970376 135.353723-44.937436 27.251216-38.440457 31.221592-90.596758 9.925939-132.105233-11.189241-22.378482-15.52056-27.251216 5.233678-9.92594 32.304422 26.890273 121.457407 65.691673 196.353133 72.549595 66.052617 6.136035 120.735521-12.633014 114.960429-86.806854-2.346131-32.665365 32.484893-42.952248 48.005453-35.733383 13.535372 4.331319-7.399337 50.712528 23.280841 57.389979 35.552911 9.564996 66.954975-40.064702 67.857333-89.874872v-3.068018c-0.541415-27.612159-10.467355-54.863376-34.650553-71.466765-44.576493-30.680177-61.540826-18.408106-117.847975-14.618202-28.334046 9.204053-18.76905-51.795358-73.09101-46.381209-9.204053 1.08283-18.76905 4.150847-28.514518 8.84311-20.212823 10.467355-38.981872 27.973103-45.839794 44.215549-5.233677 12.272071-6.857922 5.053206-25.626971 6.496979-25.085557 1.624245-46.922624 36.094326-45.839794 57.209507 3.428961 60.277524 56.307149 78.324687 95.830435 64.608843 16.061975-5.414149 2.887546-20.393294 10.828298-33.387251 2.887546-5.053206 6.857922-7.76028 10.647826-9.204054 15.881503-4.331319 36.996684 15.701032 33.20678 39.162344-2.887546 18.047163-15.159617 31.582535-33.20678 39.523287-35.011496 14.979145-91.318645 6.857922-138.782683-38.079514-71.647237-67.676861-1.08283-71.286294-15.159617-126.330141s-123.803538-96.732794-157.19079-54.141489c-33.026308 42.230361 20.934709 73.451953 44.756964 66.052617 23.822255-7.579808 3.428961 62.984599-41.869418 33.387251-31.221592-21.476124-68.940163-36.455269-106.839205-40.425645-16.783862-1.985188-33.567723-1.804716-49.990642 1.08283-57.029035 9.204053-103.410244 50.712528-105.034488 46.922624-1.804716-3.970376 1.624245-14.618202-3.068018-34.650553-11.550184-46.200737-47.103095-38.079514-70.744879-53.419603 0 0-8.301695-51.795358-67.857333-44.576492-1.263301 0.360943-2.526603 0.360943-3.789904 0.721886-56.307149 8.482167-70.022993 48.72734-75.437142 77.602801-1.985188 10.828298-12.813486 2.707074-24.544141 5.414149-19.310464 4.331319-48.546869 43.313191-25.626972 81.392705 37.177156 63.345542 107.38062 55.40479 107.38062 29.958291 0-8.121223-14.43773-15.340089-8.662638-24.183199 5.775092-8.482167 16.061975-13.896316 27.070744-16.061975 17.866691-3.068018 37.899042 3.789904 44.756965 24.905085 3.789904 11.911128 5.414149 20.754237-9.745468 37.538099-10.467355 10.467355-22.558954 18.76905-35.191968 26.168387-15.881503 9.384525-32.665365 18.047163-47.283567 28.87546-61.179883-52.878188-142.572588-85.363081-231.906045-85.363081-95.830436 0-182.817761 37.357627-245.260946 97.274209-10.828298-7.579808-21.476124-15.52056-31.582535-23.461312-12.813486-9.92594-24.544142-19.671408-34.470081-29.95829-15.159617-16.422918-14.979145-22.017539-11.189241-33.748195 7.038394-21.656596 27.792631-28.514518 45.839794-25.085557 10.647826 1.985188 20.393294 7.76028 25.987914 15.881504 5.955564 8.84311-8.301695 16.422918-8.301695 24.183198 0 25.807443 70.203464 33.748195 107.38062-29.597347 22.739425-38.079514-6.496979-77.241858-25.807443-81.753649-11.550184-2.346131-22.378482 5.775092-24.36367-5.414149-5.594621-28.514518-19.129993-68.398748-74.715255-77.241857-1.624245-0.360943-3.248489-0.721887-4.692262-0.721887-59.375166-7.579808-68.037805 44.215549-68.037805 44.215549-23.641784 15.701032-59.014223 7.218865-70.564407 53.780546-4.872734 20.032351-1.263301 30.319234-3.068018 34.650553-1.624245 3.428961-48.185925-37.718571-105.034488-47.283567-16.422918-2.346131-33.20678-2.707074-49.81017-1.08283-38.259986 3.970376-75.978556 19.129993-107.38062 40.786589-45.298379 28.875461-65.511202-41.147532-41.688947-33.387252 23.822255 7.579808 77.783273-23.822255 44.576493-66.41356-33.026308-42.230361-143.114003-1.08283-157.19079 54.502433-14.076787 55.224319 56.848564 58.472808-14.979145 125.969197-47.464039 44.937436-103.951659 53.058659-138.963156 38.079514-17.866691-7.399337-30.499705-21.476124-33.20678-39.162343-3.609433-23.461312 17.325276-43.674135 33.20678-39.162344 4.150847 1.08283 8.121223 4.150847 11.00877 8.84311 7.579808 12.813486-5.233677 28.153574 10.647826 33.748195 39.342815 13.174429 92.401475-4.331319 95.649964-64.608844 1.263301-21.115181-20.393294-55.585262-45.839794-57.209507-18.949521-1.263301-20.393294 5.775092-25.4465-6.496978-6.857922-16.422918-25.626971-33.748195-46.020266-44.21555-9.384525-4.692262-19.490936-8.121223-28.514517-8.84311C171.62852 39.311052 180.832573 100.129992 152.859471 91.10641c-56.48762-4.150847-73.271482-16.422918-117.847975 14.618202C10.467355 123.410832 0.180472 150.662048 0 177.913264V181.342225c0.721887 49.629698 31.943479 99.439868 67.49639 89.874872 30.860649-6.857922 9.92594-53.058659 23.641783-57.57045 15.52056-7.218865 50.351585 3.068018 47.644511 35.733383-5.775092 73.812897 48.907812 92.94289 114.960428 86.806854 74.895727-6.857922 164.409655-45.659322 196.533605-72.910539 20.754237-16.964333 16.422918-12.272071 5.053206 10.286883-20.934709 41.508475-17.325276 93.664776 10.286883 132.105234 29.055932 40.786588 84.09978 67.676861 135.353722 44.937436 14.43773-9.564996 38.259986 20.032351 68.398748 27.612159 6.857922 1.624245 14.076787 2.346131 22.017539 0.721886 24.002727-4.331319 86.626382-37.177156 92.762418-100.703169 5.414149-57.209507 43.13272-82.295063 3.609433-120.735521-21.656596-21.115181-31.402064-0.721887-47.103096-6.857922-10.106411-4.150847-14.618202-20.032351-23.100368-26.529329-15.881503-12.272071-33.026308-17.325276-48.185926-17.325277-18.588578 0-34.28961 7.218865-42.410833 16.964333-35.37244 43.493663 14.076787 45.298379 21.476124 77.602801 10.286883 44.937436-49.81017 63.886957-74.17384 48.005454-46.381209-30.319234-43.313191-97.635152 8.84311-132.82712 25.626971-16.964333 57.029035-23.822255 86.084968-22.739425 8.662638 0.360943 16.964333 1.263301 25.085556 3.068018 58.472808 11.550184 191.660871 111.350996 243.817173 150.152396l9.564996 6.857922a303.860084 303.860084 0 0 0-43.854606 157.19079c0 67.315918 22.198011 129.759102 59.916581 181.55446-98.53751 71.466766-200.323509 139.324098-269.263672 152.85947-7.940752 1.624245-16.242447 2.707074-24.905085 2.707075-29.055932 1.443773-60.818939-5.414149-86.445911-22.378482-52.156301-35.011496-55.224319-102.507886-8.84311-132.82712 24.36367-16.242447 84.280251 3.068018 74.17384 48.005453-7.399337 32.304422-56.848564 34.109138-21.476124 77.602801 8.121223 9.745468 24.002727 17.325276 42.591305 16.964334 15.159617 0 31.943479-5.053206 47.824982-17.325277 8.301695-6.496979 12.813486-22.378482 23.100369-26.529329 15.701032-6.136035 25.4465 14.257259 47.103095-6.857922 39.523287-38.440457 1.804716-63.706485-3.609433-121.096464-6.136035-63.345542-68.579219-96.010907-92.762417-100.342227-7.579808-1.804716-14.979145-1.08283-21.837068 0.721887-30.138762 7.218865-54.141489 37.177156-68.579219 27.612159-51.253943-22.739425-106.29779 4.150847-135.353723 44.937436-27.431688 38.440457-31.221592 90.596758-10.286883 132.105234 11.550184 22.378482 15.701032 27.251216-5.053205 9.925939-32.12395-26.890273-121.81835-65.691673-196.533606-72.549595-66.052617-6.136035-120.735521 12.993957-114.960428 86.806854 2.707074 32.665365-32.12395 42.952248-47.64451 35.733383-13.715844-4.331319 7.399337-50.712528-23.641784-57.57045z m2040.953665-36.816212c42.230361-19.129993 83.738836-33.026308 128.315329-36.274798 1.804716 0 3.609433-0.360943 5.233678-0.360943 22.017539-1.443773 44.035078-0.721887 62.262712 2.707074 24.36367 4.692262 37.899042 23.461312 43.313191 43.854607 3.609433 12.993957 1.985188 23.822255 3.428961 40.786588 0.180472 0.360943 0.180472 1.08283 0.180472 1.624245 2.16566 22.017539 28.514518 39.523287 54.321961 35.011496 24.36367-4.150847 16.242447-46.922624 16.242446-46.922624-2.526603-13.715844 16.783862-6.136035 16.242447 20.032351 0 0.360943-1.804716 36.094326-36.094326 41.869418-30.319234 5.053206-56.668092-20.393294-59.555638-48.72734-0.180472-1.624245-0.180472-3.068018-0.180472-4.331319 0-12.813486-0.902358-29.597347-5.955563-43.493663-5.233677-13.354901-14.979145-24.905085-33.026309-28.153574-17.866691-3.068018-39.342815-3.789904-60.999411-2.346131-1.624245 0-3.248489 0-4.692262 0.360943-30.860649 2.346131-59.194695 8.482167-87.889684 18.408106-19.851879 7.218865-39.88423 16.061975-59.194695 24.544142-24.002727 10.467355-43.674135 20.393294-43.674134 20.393294 16.242447-13.896316 44.035078-30.680177 62.082241-38.8014z m-116.584673 137.880325c4.511791 6.136035 7.579808 13.535372 9.204053 21.115181 1.624245 7.940752 1.624245 16.422918-0.721886 23.822255-1.624245 4.692262-3.609433 8.84311-6.857922 12.633014-9.204053 11.550184-15.52056 9.92594-23.28084 8.121224-5.414149-1.443773-12.272071-3.068018-23.100369 3.789904-7.579808 4.511791-11.189241 8.84311-12.452543 12.993957a9.204053 9.204053 0 0 0 0.721887 6.496979c1.263301 3.068018 3.609433 5.775092 6.857922 8.121223 10.467355 8.121223 27.070745 13.354901 38.981872 11.189241 36.455269-6.857922 96.191379-31.582535 91.86006-69.481577 0-1.624245-0.360943-3.428961-0.721887-5.053206-3.789904-14.979145-8.121223-24.183198-11.550184-30.860649-6.316507-13.174429-9.745468-20.032351-1.804716-40.245173 6.857922-17.325276 24.183198-42.952248 52.878187-64.2479 20.393294-14.979145 46.561681-27.973103 79.046574-34.470082 12.633014-2.346131 25.4465-1.985188 37.538099 0.360943 4.692262 0.902358 9.204053 1.985188 13.535373 3.609433 10.828298 3.789904 20.393294 9.204053 28.334046 16.242447 11.550184 10.647826 19.310464 24.183198 21.295652 39.88423 0.541415 4.692262 0.541415 9.564996 0 14.257259-1.263301 11.550184-4.511791 21.115181-8.662638 28.875461h0.180471c-5.053206 8.84311-11.550184 14.979145-18.588578 18.769049-6.857922 3.789904-14.43773 4.511791-21.476124 3.068018h-1.082829c-5.775092-1.263301-11.189241-4.331319-16.242447-8.84311-12.272071-11.189241-12.272071-20.032351-12.272071-27.612159 0-3.068018 0-5.414149-3.789904-7.76028-25.085557-14.618202-43.313191 4.511791-49.629698 20.03235-5.414149 14.257259 0.360943 23.822255-4.150848 36.45527 0.360943 1.443773-6.496979 6.857922-12.272071 5.053205-5.955564-1.624245-10.647826-10.106411-11.189241-15.701031-0.180472-7.218865 0.721887-13.535372 2.707075-19.671408 4.150847-11.911128 12.813486-21.656596 23.100368-28.875461 9.92594-6.857922 21.476124-10.828298 32.304422-11.911128 8.662638-1.08283 16.783862 0.360943 22.919897 3.789905 9.384525 5.414149 9.384525 11.550184 9.384525 18.588578 0 4.692262 0 10.286883 8.301695 18.047163 3.428961 3.068018 7.038394 5.053206 11.008769 6.496978 0.721887 0 1.624245 0.360943 2.346132 0.360944 5.594621 1.08283 11.550184 0.360943 17.144804-2.346132 5.414149-2.707074 10.467355-7.76028 14.076788-14.618202 3.428961-6.136035 5.955564-14.257259 7.038393-23.822255 0.541415-3.789904 0.541415-7.399337 0-10.828298-1.263301-12.272071-7.940752-23.100369-17.505748-31.582535-6.316507-5.775092-14.076787-10.467355-23.100369-13.896315-4.692262-1.985188-9.745468-3.428961-14.979145-4.33132-11.189241-1.985188-22.919897-2.346131-34.831025 0a186.066251 186.066251 0 0 0-75.978556 32.665366c-27.251216 20.212823-43.13272 44.035078-49.268755 59.194694-5.775092 14.257259-3.068018 19.310464 1.263301 28.875461 3.609433 7.399337 8.301695 16.964333 12.633015 33.748195 0.541415 2.346131 1.08283 4.331319 1.263301 6.857922 4.692262 46.200737-59.916581 75.617613-99.800812 82.656006-14.076787 2.346131-33.20678-3.428961-44.937435-12.633014-4.150847-3.789904-7.76028-7.76028-9.92594-12.272071-2.346131-5.053206-3.068018-10.828298-1.263301-16.964333 2.16566-6.496979 7.399337-13.174429 16.964333-19.129993 13.354901-8.482167 21.656596-6.496979 28.875461-4.692262 5.233677 1.443773 9.384525 2.346131 15.52056-5.053206 2.16566-2.707074 3.428961-5.414149 4.511791-8.482166 1.624245-5.053206 1.624245-10.828298 0.541414-16.242447-1.263301-5.775092-3.609433-11.189241-7.038393-16.061975-3.068018-4.331319-6.857922-7.76028-11.00877-9.92594-8.662638-4.692262-15.52056-6.136035-23.822255-3.970376-8.84311 1.985188-20.212823 8.121223-37.71857 18.408107-18.047163 10.828298-36.455269 18.76905-55.765734 23.822255-19.129993 5.053206-39.523287 7.579808-60.999411 6.857922-0.721887 0-1.263301-0.360943-2.16566-0.360943-43.493663-2.346131-106.839205-40.786588-106.839205-40.786589-2.16566-1.263301-4.150847-2.346131-2.346131-7.76028 2.16566-5.053206 4.150847-3.970376 6.136035-2.707074 0.180472 0 61.540826 36.996684 103.229773 39.88423h2.346131c20.934709 0.721887 40.245174-1.443773 59.194695-6.496979 18.588578-4.692262 36.455269-12.633014 53.600074-22.739425 18.047163-10.828298 29.777819-16.964333 39.703759-19.310465 10.467355-2.346131 18.408106-0.721887 28.87546 4.692263 5.233677 2.707074 10.106411 7.218865 14.076788 12.633014z m-255.006413-61.721297c15.159617 8.482167 30.319234 16.422918 46.742152 21.837067 3.428961 1.443773 7.038394 2.346131 10.467355 3.428961 12.993957 3.789904 26.52933 5.775092 41.147531 5.414149 27.251216-0.360943 55.765734-6.857922 79.046574-21.476124 19.310464-12.272071 30.680177-25.4465 38.981872-49.990642 22.198011-66.774503-30.860649-127.052028-81.392705-100.703169-9.204053 4.331319-16.061975 9.564996-20.934709 14.979145-6.496979 7.218865-9.92594 14.618202-11.189241 21.837067-3.609433 24.544142 13.715844 46.561681 30.499706 60.277525 3.970376 3.428961 3.068018 9.204053 2.346131 10.467354-30.138762 51.795358-105.575904-74.895727-14.979146-122.179293 99.800811-51.434415 159.175978 114.05807 60.81894 175.959839-40.064702 25.266028-82.656007 27.251216-124.164482 16.422919-20.393294-5.414149-40.786588-14.257259-60.457996-25.085557-4.692262-2.346131-115.1409-73.632425-113.877599-79.407517 2.887546-4.331319 109.726751 64.2479 117.30656 68.398747z m-792.6314 64.969787c8.84311 3.789904 18.588578 4.511791 27.251216 3.068017 1.804716-0.360943 3.970376-0.721887 5.955564-1.263301 4.692262-1.08283 9.023582-3.068018 12.272071-5.053206 4.692262-3.068018 10.467355-8.84311 13.896315-15.340088 1.263301-2.707074 2.346131-5.053206 2.526603-7.940752 0.360943-2.346131 0-5.053206-1.08283-7.399337a23.28084 23.28084 0 0 0-7.038393-9.564996c-9.384525-8.121223 12.091599-13.535372 23.28084-3.068018 11.189241 11.189241 12.091599 41.508475-20.934709 60.638468-8.662638 5.053206-18.949521 7.218865-29.055932 6.496979-14.076787-0.721887-28.334046-6.496979-39.523287-17.325277-10.828298-10.106411-22.739425-33.026308-15.701032-42.230361 3.609433-5.053206 1.08283 26.890273 27.973102 39.162343z m144.557776-172.71135c68.579219-55.946205 135.534194-109.365808 148.167208-118.750333l-62.262712-46.381209c-39.342815 25.987915-89.874872 64.428372-144.377304 105.21496-26.348858-38.079514-41.869418-83.377893-41.869419-132.105233 0-38.981872 9.92594-75.798085 27.431688-108.643921l403.895509 289.115551c-45.839794 38.8014-106.478262 62.443184-172.530879 62.443184-59.555638 0-114.599485-19.129993-158.454091-51.073471z m-52.878188-51.97583c47.103095-35.913854 92.762418-71.647237 135.895138-103.410244l4.150847 3.789904 3.609433 3.428961s-1.08283 1.624245-4.150848 3.789905c-13.896316 11.189241-67.135446 55.765734-129.759102 104.673545-3.428961-3.970376-6.67745-7.940752-9.745468-12.091599zM1136.97127 454.756745c128.315329 92.94289 262.40575 192.563229 299.763378 220.716804-2.526603 2.707074-5.053206 5.053206-7.76028 7.579808-6.857922-5.233677-13.354901-10.106411-19.85188-14.979145-3.428961-2.346131-5.775092-4.150847-8.121223-5.775092-126.510613-90.055343-253.021226-180.110687-379.351367-270.166031 2.707074-4.511791 5.594621-9.023582 8.662639-13.3549 35.913854 25.4465 71.647237 50.351585 106.658733 75.978556z m441.433608 321.961388c20.393294 27.612159 13.535372 59.194695-3.609433 79.407518-19.851879 22.378482-53.600074 30.860649-79.407517 16.061975-33.20678-19.310464-32.12395-49.629698-20.934709-60.638468 11.008769-10.467355 32.665365-5.414149 23.28084 2.707074-3.609433 3.428961-5.955564 6.496979-7.399337 9.564997-0.721887 2.707074-1.08283 5.053206-0.721887 7.579808 0.180472 2.707074 1.08283 5.414149 2.346132 7.76028 3.609433 6.857922 9.384525 12.272071 14.076787 15.340089 3.428961 2.346131 7.579808 4.150847 12.272071 5.414149 9.92594 2.707074 22.017539 2.707074 33.026308-1.624245 16.061975-6.496979 26.709801-21.476124 30.138762-42.591305 1.263301-8.84311-1.624245-19.671408-9.745468-30.680177-7.579808-10.106411-19.310464-20.393294-36.635741-28.875461-12.813486-6.316507-25.987915-14.618202-39.342815-23.461311 2.526603-2.707074 5.233677-5.233677 7.76028-7.940752 11.730656 7.940752 23.641784 14.979145 34.831025 20.573766 18.588578 9.204053 31.763007 20.393294 40.064702 31.582535z m-110.087695-391.262494c2.16566 3.428961 4.331319 7.038394 6.496979 10.647826-0.180472 0.180472-0.541415 0.360943-0.721887 0.541415-64.428372 51.434415-117.667503 92.221003-119.111276 91.318645l-7.399336-6.496979c-2.16566-2.16566 52.336773-44.215549 120.73552-96.010907z m867.527126-118.208918c5.233677-13.896316 5.955564-30.680177 5.955564-43.493663 0-1.443773 0-2.707074 0.180472-4.150847 2.887546-28.514518 29.055932-53.780546 59.555638-48.72734 34.28961 5.775092 36.094326 41.508475 36.094326 41.508475 0.541415 26.168386-18.76905 33.748195-16.242447 20.393294 0-0.360943 8.121223-43.313191-16.242447-47.283567-25.626971-3.970376-52.156301 12.993957-54.32196 35.372439 0 0.721887 0 1.08283-0.180472 1.804717-1.263301 16.60339 0.180472 27.792631-3.428961 40.786588-5.233677 20.393294-18.949521 39.162344-43.313191 43.493663-18.227635 3.428961-40.245174 4.511791-62.262713 3.068018-1.624245-0.360943-3.428961-0.360943-5.233677-0.360944-44.576493-3.789904-86.084968-17.325276-128.315329-36.455269-18.047163-8.121223-45.839794-25.266028-62.082241-39.162344 0 0 19.671408 10.286883 43.674135 20.393295 19.310464 8.482167 39.342815 17.68622 59.194695 24.544141 28.875461 10.106411 57.029035 16.242447 87.889683 18.76905 1.624245 0 3.248489 0.360943 4.692263 0.360943 21.656596 1.443773 43.13272 0.721887 60.999411-2.707074 18.047163-3.428961 27.792631-14.618202 33.026308-28.153575zM1686.868327 133.878187s65.511202-39.88423 109.004865-41.147532c10.467355-0.360943 20.934709 0 30.860649 1.08283 10.286883 1.263301 20.393294 3.068018 30.138762 5.775092 19.310464 4.692262 37.718571 12.993957 55.765734 23.461312 17.505748 10.467355 28.875461 16.783862 37.71857 18.769049 8.301695 1.985188 15.159617 0.360943 23.822256-4.150847 4.150847-2.346131 7.940752-5.775092 11.008769-9.92594 3.428961-4.872734 5.775092-10.286883 7.038394-16.061975 1.08283-5.775092 1.08283-11.550184-0.541415-16.783862-1.08283-2.707074-2.346131-5.775092-4.511791-8.121223-6.136035-7.579808-10.286883-6.496979-15.52056-5.053206-7.038394 1.804716-15.340089 3.428961-28.875461-4.692262-9.745468-6.136035-14.979145-12.452542-16.964333-19.310464-1.804716-5.775092-1.08283-11.550184 1.263301-16.783862 2.16566-4.692262 5.775092-8.84311 9.92594-12.272071 11.730656-9.564996 30.860649-14.979145 44.937436-12.633014 39.703759 7.218865 104.493074 36.094326 99.800811 82.295063-0.180472 2.346131-0.721887 4.692262-1.263301 7.218866-4.150847 16.422918-8.84311 26.168386-12.633014 33.748194-4.511791 9.564996-7.038394 14.618202-1.263302 28.153575 5.955564 15.701032 22.017539 39.523287 49.268755 59.194694 19.310464 14.618202 44.756964 26.890273 75.978556 33.026309 11.911128 2.346131 23.641784 1.985188 34.831025 0 5.233677-1.08283 10.286883-2.707074 14.979145-4.331319 8.84311-3.428961 16.783862-8.301695 23.100369-13.896316 9.745468-8.482167 16.242447-19.310464 17.505748-31.943478 0.541415-3.428961 0.541415-6.857922 0-10.467355-1.08283-9.92594-3.609433-17.68622-7.038393-23.822255-3.609433-7.218865-8.662638-11.911128-14.076788-14.257259-5.414149-2.707074-11.550184-3.789904-17.144804-2.346131-0.721887 0-1.624245 0-2.346132 0.360943-3.970376 1.08283-7.579808 3.428961-11.008769 6.136036-8.301695 7.579808-8.301695 13.174429-8.301695 17.686219 0 7.399337 0 13.174429-9.384525 18.588578-6.316507 3.789904-14.43773 5.053206-22.919897 4.150848a67.49639 67.49639 0 0 1-32.304422-12.272071c-10.106411-6.857922-18.76905-16.783862-23.100368-28.875461-1.804716-5.414149-2.887546-12.272071-2.707075-19.129993 0.541415-5.414149 5.233677-14.257259 11.189241-16.061975 5.775092-1.624245 12.633014 4.150847 12.272071 5.414149 4.511791 12.272071-1.263301 22.198011 4.150848 35.733383 6.316507 16.061975 24.36367 34.650553 49.629698 20.393294 3.789904-2.346131 3.789904-5.053206 3.789904-8.121223 0-7.218865 0-16.061975 12.272071-27.251216 5.053206-4.511791 10.467355-7.218865 16.242447-8.482167 0.180472 0 0.541415-0.360943 1.08283-0.360943 7.038394-1.263301 14.798674-0.360943 21.476124 3.428961 7.038394 3.428961 13.535372 9.92594 18.588577 18.408106h-0.180471c4.150847 7.579808 7.399337 16.964333 8.662638 28.694989 0.541415 5.053206 0.541415 9.745468 0 14.257259-1.804716 16.061975-9.745468 29.597347-21.295652 40.245173-7.940752 6.857922-17.505748 12.633014-28.334046 16.422919-4.511791 1.263301-9.023582 2.707074-13.535372 3.789904-12.091599 2.346131-24.905085 2.346131-37.5381 0-32.484893-6.136035-58.65328-19.129993-79.046574-34.28961-28.694989-21.115181-46.020266-46.922624-52.878187-64.067428-7.76028-19.671408-4.511791-26.52933 1.804716-39.703759 3.428961-7.218865 7.76028-16.061975 11.550184-31.221592 0.541415-1.804716 0.721887-3.428961 0.721887-4.692262 4.150847-38.079514-55.585262-62.984599-91.86006-69.481578-12.091599-1.985188-28.514518 2.707074-38.981872 10.828298-3.068018 2.707074-5.414149 5.414149-6.857922 8.482166-1.08283 1.985188-1.263301 4.150847-0.721886 6.496979 1.263301 3.789904 5.053206 8.121223 12.452542 12.813486 10.647826 6.496979 17.505748 5.053206 23.100369 3.789904 7.940752-1.985188 14.076787-3.428961 23.28084 8.121223 3.068018 3.789904 5.233677 7.76028 6.857922 12.272071 2.346131 7.76028 2.346131 16.061975 0.721887 23.822255-1.624245 7.940752-4.692262 15.340089-9.204054 21.476124-3.970376 5.053206-8.84311 9.564996-14.076787 12.633015-10.467355 5.414149-18.227635 7.218865-28.875461 4.692262-9.92594-2.346131-21.656596-8.84311-39.703758-19.310465-17.144805-10.647826-35.011496-18.047163-53.600074-23.100368-9.384525-2.346131-18.949521-4.150847-28.514518-5.053206-9.92594-0.902358-20.212823-1.263301-30.680177-0.902358-1.804716 0-22.198011 0-45.117908 6.857922-34.650553 10.467355-74.715255 28.514518-64.067428 22.378482z m-135.714666 15.701031c-8.121223-3.428961-17.144805-4.150847-25.085556-3.068017-2.707074 0-5.233677 0.721887-7.940752 1.443773-4.692262 1.263301-8.84311 3.068018-12.272071 5.053205-4.692262 3.428961-10.467355 8.84311-14.076787 14.979146-1.263301 2.707074-2.16566 5.414149-2.346131 7.76028-0.360943 2.707074 0 5.053206 0.721886 7.579808 1.263301 3.428961 3.609433 6.496979 7.399337 9.92594 9.384525 8.121223-12.272071 13.174429-23.28084 2.707074-11.189241-10.828298-12.272071-40.786588 20.934709-60.277524 10.467355-6.136035 20.573766-9.564996 30.860649-9.564997 14.618202 0.360943 29.777819 7.76028 46.922624 25.807444 20.934709 35.011496 8.301695 51.434415 8.301695 39.342815-3.428961-20.754237-14.076787-35.37244-30.138763-41.869418z m138.060797 69.842521c22.558954-17.325276 41.869418-33.387252 66.41356-44.576492 23.100369-10.467355 46.922624-17.325276 70.925351-18.949522 30.680177-2.707074 61.540826 3.428961 91.138173 21.656596 98.357038 61.901769 38.981872 227.394254-60.818939 175.95984-13.715844-7.218865-23.641784-16.061975-30.319234-25.987915-20.032351-28.875461-13.896316-65.33073 0-87.889684 12.993957-21.115181 33.026308-29.597347 45.298379-8.482167 0.721887 1.263301 1.624245 7.218865-2.346131 10.286883-16.783862 13.535372-34.109138 36.094326-30.499705 60.277525 1.263301 7.579808 4.692262 14.979145 11.189241 22.19801 5.053206 5.053206 11.730656 10.286883 20.934709 14.979145 50.532056 25.807443 103.771187-34.28961 81.392705-100.703169-8.301695-24.905085-19.671408-37.899042-38.981872-49.990642-23.28084-14.618202-51.795358-21.115181-79.046574-21.656595-2.887546 0-5.414149 0-8.121224 0.360943-15.52056 0.541415-29.958291 3.609433-43.493662 8.482167-10.286883 3.789904-20.032351 8.121223-29.597348 12.813485-11.008769 5.414149-23.28084 14.257259-33.567723 21.115181-28.514518 19.129993-104.854017 77.061386-179.569272 135.353723-1.985188-3.068018-3.970376-5.955564-6.136035-9.023582 59.375166-44.576493 118.750333-88.972514 154.664187-116.22373z m-442.335965 48.72734c64.428372 0 123.442595 22.378482 168.921446 59.375167l-136.436553 116.22373 77.42233 54.863375c41.328003-31.943479 81.753648-61.721298 122.359765-93.845248 16.783862 31.943479 26.168386 68.037805 26.168386 105.936847s-10.286883 77.061386-28.334046 110.268166L1110.622412 360.009139c-12.091599-8.84311-25.4465-17.866691-39.342815-27.251216 46.200737-40.064702 107.922035-64.608844 175.418424-64.608844zM929.97031 161.309874c11.730656-10.286883 25.626971-15.701032 40.064702-16.061975 10.286883-0.360943 20.393294 1.985188 30.138762 7.940752 33.026308 18.588578 32.12395 48.907812 20.93471 60.277524-11.189241 10.647826-32.665365 5.053206-23.280841-3.068017 3.609433-3.068018 5.955564-6.496979 7.038394-9.564997 1.08283-2.346131 1.263301-5.053206 1.08283-7.579808-0.180472-2.707074-1.263301-5.053206-2.526603-7.940752-3.428961-6.496979-9.204053-12.272071-13.896316-15.340088-3.428961-1.985188-7.579808-4.150847-12.272071-5.053206-2.346131-0.721887-4.692262-1.263301-7.038393-1.624245-8.482167-0.721887-17.505748 0-26.168387 3.428961-16.061975 6.136035-26.709801 20.934709-29.777819 42.230362-1.804716 12.993957-9.023582-26.890273 15.881504-47.644511z m-543.039135 129.759102c-41.869418 18.76905-83.558365 32.665365-128.315329 36.094327-1.624245 0.360943-3.428961 0.360943-5.233677 0.360943-21.837067 1.263301-43.674135 0.721887-62.082241-2.707075-24.544142-4.331319-37.899042-23.461312-43.493663-43.674134-3.428961-13.174429-1.804716-24.183198-3.428961-40.786589v-1.804716c-2.346131-22.378482-28.514518-39.88423-54.141489-35.372439-24.36367 4.150847-16.242447 46.922624-16.242447 46.922623 2.707074 13.535372-16.783862 6.136035-16.242446-20.032351 0 0 1.985188-35.733383 36.094326-41.508474 30.138762-5.053206 56.48762 20.032351 59.375166 48.366396 0 1.624245 0.360943 3.068018 0.360943 4.511791 0 12.993957 0.721887 29.597347 5.955564 43.674135 5.233677 13.535372 14.979145 24.905085 33.026308 28.153574 17.68622 3.428961 39.342815 4.150847 60.81894 2.707074 1.624245-0.360943 3.068018-0.360943 4.692262-0.360943 30.860649-2.346131 59.194695-8.84311 88.250627-18.588578 19.851879-7.218865 39.523287-16.061975 59.194695-24.544141 23.822255-10.647826 43.493663-20.393294 43.674135-20.393295-16.242447 13.896316-44.215549 30.860649-62.262713 39.162344z m116.765145-137.880325c-4.511791-6.136035-7.579808-13.174429-9.384525-21.115181-1.624245-7.76028-1.263301-16.242447 1.08283-23.822255 1.263301-4.511791 3.609433-8.84311 6.496979-12.633014 9.384525-11.189241 15.701032-9.92594 23.28084-8.121223 5.775092 1.263301 12.272071 3.068018 23.28084-3.789905 7.399337-4.331319 11.189241-8.84311 12.272071-12.993957 0.902358-1.985188 0.541415-4.331319-0.541415-6.496979-1.263301-2.707074-3.970376-5.414149-7.038394-8.121223-10.286883-8.301695-26.709801-13.354901-38.981872-11.008769-36.455269 6.496979-95.830436 31.402064-91.860059 69.120634 0.360943 1.624245 0.541415 3.428961 0.721886 5.053206 3.970376 14.979145 8.301695 24.183198 11.550184 30.860648 6.496979 12.993957 9.92594 20.032351 2.16566 40.245174-6.857922 16.964333-24.002727 42.591305-52.878188 63.886957a195.089832 195.089832 0 0 1-79.407517 34.470081c-12.633014 2.346131-25.085557 1.985188-37.177156-0.360943-4.692262-0.721887-9.384525-2.16566-13.715844-3.789904-10.467355-3.789904-20.212823-9.204053-27.973102-16.422919-11.911128-10.286883-19.671408-23.822255-21.476124-39.88423-0.541415-4.692262-0.541415-9.564996 0.360943-14.257259 1.263301-11.550184 4.150847-21.115181 8.482167-28.514517 4.872734-9.204053 11.189241-15.340089 18.227634-18.949521 7.038394-3.428961 14.618202-4.150847 21.656596-3.068018h0.902358c5.955564 1.263301 11.550184 4.511791 16.242447 8.84311 12.272071 11.189241 12.272071 20.393294 12.272071 27.612159 0 3.068018 0 5.775092 4.150847 7.940752 25.085557 14.618202 43.13272-4.150847 49.449227-20.212823 5.233677-13.896316-0.180472-23.822255 3.970376-35.733382 0-1.804716 6.857922-7.218865 12.633014-5.414149 5.775092 1.804716 10.647826 10.647826 11.008769 16.061975 0.541415 6.496979-0.541415 12.993957-2.707074 19.129993-4.150847 12.272071-12.633014 22.198011-22.739426 28.87546-9.92594 6.857922-21.837067 11.189241-32.304421 12.272071-8.662638 0.721887-16.783862-0.360943-23.100369-4.150847-9.384525-5.414149-9.384525-11.550184-9.384525-18.76905 0-4.331319 0-10.286883-8.662638-18.047163-3.248489-3.068018-7.038394-5.053206-11.00877-6.136035-0.902358-0.360943-1.263301-0.360943-2.165659-0.721887-5.775092-1.08283-11.550184-0.360943-16.964333 2.707075-5.414149 2.707074-10.467355 7.399337-14.437731 14.618202-3.068018 6.136035-5.775092 13.896316-6.857922 23.461312-0.541415 3.789904-0.541415 7.579808 0 10.828297 1.263301 12.272071 7.940752 23.461312 17.325277 31.943479 6.496979 5.775092 14.43773 10.286883 23.100368 13.535372 4.872734 1.985188 9.92594 3.428961 15.159617 4.331319 11.189241 2.346131 23.100369 2.346131 34.650553 0.360944 31.402064-6.136035 56.668092-18.408106 76.159028-33.026309 26.890273-20.032351 42.952248-43.493663 49.268755-59.194694 5.414149-14.257259 3.068018-19.129993-1.624244-28.153575-3.789904-7.579808-8.482167-17.325276-12.272071-34.109138-0.721887-1.985188-1.08283-4.331319-1.263302-6.857922-4.872734-46.200737 59.916581-75.617613 99.800812-82.295063 13.896316-2.707074 33.026308 3.068018 44.756964 12.633014 4.511791 3.428961 7.940752 7.579808 9.92594 11.911128 2.707074 5.414149 3.248489 10.828298 1.624244 16.964333-1.985188 6.496979-7.399337 13.174429-16.964333 19.310464-13.535372 8.121223-21.656596 6.136035-28.694989 4.331319-5.233677-1.08283-9.384525-1.985188-15.52056 5.053206v0.360943c-2.16566 2.346131-3.609433 5.053206-4.511791 8.121224-1.624245 5.053206-1.804716 10.828298-0.541415 16.422918 1.08283 5.775092 3.789904 11.550184 7.038394 16.422918 3.248489 3.970376 6.857922 7.579808 11.008769 9.92594 8.662638 4.511791 15.159617 5.775092 23.822255 4.150848 8.84311-2.346131 20.212823-8.301695 37.538099-18.76905 18.047163-10.467355 36.635741-18.76905 55.765734-23.822255 9.92594-2.346131 20.212823-4.331319 30.680177-5.414149 9.92594-1.08283 20.212823-1.263301 30.680177-1.08283 43.493663 1.443773 108.643921 40.786588 108.824393 40.786589 2.16566 1.443773 4.150847 2.346131 2.16566 7.940751-1.804716 5.053206-3.970376 3.789904-5.955564 2.707075 0 0-63.706485-38.440457-105.21496-39.884231-10.467355-0.360943-20.754237 0-30.319234 1.443774-9.92594 1.08283-19.490936 2.707074-28.875461 5.053205-18.588578 5.053206-36.455269 12.633014-53.780546 22.739426-18.227635 10.828298-29.777819 17.144805-39.703758 19.129992-10.467355 2.707074-18.588578 0.902358-28.69499-4.872734-5.414149-2.707074-10.286883-6.857922-14.076787-12.272071z m433.673327 179.749744c-59.73611-42.230361-117.847975-84.641195-178.847385-118.38939-14.979145-8.121223-30.319234-16.061975-46.561681-21.656595-13.354901-4.872734-27.792631-8.121223-42.952248-8.84311h-8.301695c-27.251216 0.360943-55.765734 7.218865-79.407517 21.837067-19.129993 11.911128-30.319234 25.266028-38.801401 49.629698-22.198011 66.774503 30.680177 127.052028 81.392706 100.883642 8.84311-4.331319 15.701032-9.564996 20.754237-14.979146 6.857922-6.857922 10.106411-14.257259 11.189241-21.837067 3.970376-24.183198-13.354901-46.561681-30.138762-60.277524-4.150847-3.428961-3.068018-8.84311-2.526603-10.467355 12.452542-21.115181 32.665365-12.272071 45.839794 9.204053 13.535372 22.378482 19.310464 58.472808 0 86.806854-6.857922 10.286883-16.783862 19.129993-30.680177 26.52933-99.800811 51.073471-160.439279-117.126088-62.082241-179.027857 30.138762-19.129993 61.360354-25.4465 92.762418-23.100369 31.402064 2.346131 62.623656 13.535372 92.221003 29.958291 68.579219 37.718571 135.173251 84.641195 201.225868 132.105233-3.068018 4.331319-6.136035 8.84311-9.204053 13.354901-5.233677-3.789904-10.647826-7.399337-15.881504-11.189241zM638.328156 671.14223c14.076787 7.579808 24.002727 16.783862 30.860649 26.890273 18.949521 28.334046 13.354901 63.706485 0 85.724024-12.813486 21.656596-33.20678 31.221592-46.020266 9.92594-0.541415-1.624245-1.624245-7.218865 2.526603-10.467355 16.783862-13.535372 34.109138-36.094326 30.138762-60.277525-1.08283-7.579808-4.511791-14.979145-11.189241-21.837067-5.053206-5.414149-11.911128-10.467355-20.754237-14.979145-50.893-26.168386-103.771187 34.109138-81.392706 100.70317 8.301695 24.544142 19.671408 37.718571 38.801401 49.629698 23.461312 14.618202 52.156301 21.115181 79.407517 21.837067 2.887546 0 5.775092 0 8.662638-0.360943 15.159617-0.721887 29.416876-3.789904 42.771777-8.482167 52.517244-18.408106 104.132131-47.283567 156.649375-80.309875 33.748195-21.476124 67.315918-44.756964 100.883641-68.940163 3.248489 4.331319 6.67745 8.482167 10.286883 12.633014-2.887546 2.16566-5.594621 4.150847-8.482167 6.136036-19.310464 14.257259-38.440457 27.973103-56.848563 40.245173-87.889684 58.833751-151.415698 81.392705-153.400886 82.295064-29.597347 16.422918-60.457996 27.251216-91.679588 29.236404-30.860649 1.985188-61.901769-4.692262-91.86006-23.822256-98.53751-61.901769-38.8014-227.033311 60.999411-175.959839z m-124.164482 326.112235c12.272071 2.346131 28.875461-2.707074 38.981872-10.828297 3.068018-2.707074 5.775092-5.414149 7.038394-8.121224 1.08283-2.346131 1.263301-4.331319 0.541415-6.496979-1.08283-3.970376-4.872734-8.482167-12.272071-12.813485-11.008769-6.857922-17.505748-5.053206-23.28084-3.789904-7.579808 1.624245-13.896316 3.068018-23.28084-8.482167v0.360943c-2.887546-3.789904-5.233677-8.121223-6.496979-12.633014a48.546869 48.546869 0 0 1-1.08283-23.822255c1.804716-7.76028 4.872734-14.979145 9.384525-21.115181 3.970376-5.414149 8.662638-9.92594 14.076787-12.633014 10.106411-5.775092 18.408106-7.399337 28.694989-4.692262 9.92594 1.985188 21.476124 8.482167 39.703759 18.949521 17.325276 10.467355 35.011496 18.047163 53.780546 23.100368 9.384525 2.346131 19.129993 4.150847 29.055932 5.414149 9.745468 1.08283 19.851879 1.443773 30.138762 1.08283 41.688947-1.263301 105.21496-39.703759 105.214961-39.703758 2.16566-1.443773 4.150847-2.707074 5.955563 2.707074 2.16566 5.053206 0 6.496979-2.165659 7.76028-0.180472 0-65.511202 39.523287-108.824393 40.786588-10.467355 0.360943-20.573766 0-30.499706-1.082829-10.467355-0.902358-20.754237-3.068018-30.860648-5.414149-19.129993-5.053206-37.718571-13.354901-55.765734-23.822255-17.325276-10.467355-28.514518-16.422918-37.538099-18.76905-8.662638-1.985188-15.159617-0.360943-23.822255 3.970376-4.150847 2.346131-7.76028 5.775092-11.00877 9.92594-3.428961 4.692262-5.955564 10.467355-7.038393 16.422918-1.263301 5.414149-0.902358 11.189241 0.541415 16.422918 0.721887 3.068018 2.346131 5.775092 4.51179 8.121224 5.955564 7.579808 10.286883 6.496979 15.520561 5.414149 7.038394-1.624245 15.159617-3.789904 28.694989 4.51179 9.745468 6.136035 14.979145 12.633014 16.964333 19.310465 1.624245 5.775092 1.08283 11.550184-1.624245 16.964333-1.985188 4.511791-5.594621 8.482167-9.925939 11.911128-11.730656 9.564996-30.860649 15.340089-44.756965 12.633014-39.703759-6.857922-104.673546-36.094326-99.800811-82.295064 0.360943-2.346131 0.541415-4.692262 1.263301-6.857922 3.970376-16.60339 8.662638-26.52933 12.272071-34.109138 4.692262-9.564996 7.038394-14.257259 1.624245-28.514517-6.316507-15.701032-22.198011-39.162344-49.268755-59.194695-19.671408-14.618202-44.756964-26.890273-76.159028-33.026308-11.550184-1.985188-23.28084-1.985188-34.650553 0.360943-5.233677 1.08283-10.286883 2.346131-15.159617 4.511791-8.662638 3.428961-16.60339 7.76028-23.100369 13.535372-9.384525 8.482167-15.881503 19.671408-17.325276 31.943479-0.541415 3.428961-0.541415 7.218865 0 10.828297 1.08283 9.564996 3.609433 17.325276 6.857922 23.461312 3.970376 7.218865 8.84311 11.911128 14.43773 14.618202 5.414149 3.068018 11.189241 3.609433 16.964333 2.707075 0.721887-0.360943 1.263301-0.360943 2.16566-0.721887 3.789904-1.08283 7.76028-3.068018 11.008769-6.136035 8.662638-7.76028 8.662638-13.535372 8.662639-18.047163 0-7.579808 0-13.174429 9.384524-18.76905 6.316507-3.789904 14.43773-4.692262 23.100369-4.150847 10.467355 1.08283 22.198011 5.414149 32.304422 12.272071 10.106411 6.857922 18.588578 16.60339 22.739425 28.87546 1.985188 6.136035 3.068018 12.633014 2.707075 19.310465-0.360943 5.414149-5.233677 14.257259-11.00877 16.061975-5.775092 1.624245-12.633014-3.789904-12.633014-5.414149-4.150847-12.272071 1.263301-22.198011-3.970376-36.094326-6.316507-16.061975-24.36367-34.831025-49.449226-20.032351-4.150847 1.985188-4.150847 4.692262-4.150848 7.76028 0 7.218865 0 16.422918-12.272071 27.61216-4.692262 4.331319-10.106411 7.579808-16.242446 8.482166-0.360943 0.360943-0.541415 0.360943-0.902359 0.360943-7.038394 1.443773-14.618202 0.360943-21.656595-3.068017-7.038394-3.789904-13.354901-9.92594-18.227635-19.129993-4.150847-7.579808-7.038394-16.964333-8.482167-28.514518-0.721887-5.053206-0.721887-9.92594-0.360943-14.257258 1.985188-16.061975 9.745468-29.597347 21.476124-39.884231 7.76028-7.218865 17.505748-12.633014 27.973103-16.242446 4.331319-1.624245 9.204053-3.068018 13.715844-4.150848 12.091599-1.985188 24.724613-2.346131 37.177156 0 32.665365 6.136035 59.014223 19.310464 79.407517 34.470081 28.875461 21.295652 46.020266 46.922624 52.878188 64.067429 7.940752 20.032351 4.511791 27.251216-2.16566 40.425645-3.068018 6.857922-7.579808 16.061975-11.550184 31.041121-0.180472 1.624245-0.541415 3.428961-0.721887 4.692262-3.970376 38.079514 55.585262 62.984599 91.86006 69.481578zM90.596758 838.800374c25.626971 4.511791 51.795358-12.813486 54.141489-35.372439v-1.624245c1.624245-16.783862 0-27.612159 3.428961-40.786589 5.414149-20.032351 18.76905-39.162344 43.493663-43.493662 18.408106-3.428961 40.425645-4.150847 62.082241-2.707075 1.804716 0 3.609433 0 5.233677 0.360943 44.756964 3.428961 86.445911 17.325276 128.315329 36.094326 18.047163 8.121223 46.020266 25.085557 62.262713 39.162344-0.180472 0-19.851879-9.92594-43.674135-20.393294-19.671408-8.482167-39.342815-17.325276-59.194694-24.544142-29.055932-10.286883-57.389978-16.242447-88.250628-18.769049-1.624245 0-3.068018 0-4.692262-0.360944-21.476124-1.443773-43.313191-0.721887-60.818939 2.707075-18.047163 3.428961-27.792631 14.618202-33.026309 28.153574-5.233677 13.896316-5.955564 30.499705-5.955563 43.493663 0 1.443773-0.360943 2.707074-0.360944 4.331319-2.887546 28.334046-29.236404 53.419603-59.375166 48.366397-34.28961-5.775092-36.094326-41.508475-36.094326-41.508475-0.541415-26.168386 18.949521-33.748195 16.242447-20.032351 0 0-8.121223 42.952248 16.242446 46.922624z" fill="#BE9C78" p-id="18759"></path><path d="M1249.946511 608.338102c-5.955564 4.331319-20.754237 15.340089-40.606117 30.499706v97.274208c12.272071 1.804716 25.085557 2.526603 37.899042 2.526603 14.979145 0 29.416876-1.08283 43.493663-3.428961v-97.635152l-40.786588-29.236404zM1288.567439 390.147901v-97.274208c-12.633014-1.804716-24.905085-2.707074-37.899042-2.707075-14.979145 0-29.416876 1.263301-43.674134 3.789905v97.815623l41.328003 29.236404c5.775092-4.331319 20.212823-15.340089 40.425645-30.680177zM1488.890949 543.729259c1.624245-9.564996 2.346131-19.129993 2.346131-28.875461 0-11.189241-1.08283-22.378482-3.248489-33.387252h-69.842521c-12.813486 10.828298-28.514518 21.837067-41.688947 32.304422l42.410833 29.958291h70.022993zM1009.197356 488.50494c-1.804716 9.564996-2.526603 19.490936-2.526603 29.236404 0 11.189241 1.08283 22.378482 3.428961 33.026308h80.670819c14.979145-10.647826 32.665365-21.476124 48.185925-31.943478l-48.907812-30.319234h-80.670818z" fill="#BE9C78" p-id="18760"></path></svg>