<?xml version="1.0" standalone="no"?><!DOCTYPE svg PUBLIC "-//W3C//DTD SVG 1.1//EN" "http://www.w3.org/Graphics/SVG/1.1/DTD/svg11.dtd"><svg t="1784481197788" class="icon" viewBox="0 0 2017 1024" version="1.1" xmlns="http://www.w3.org/2000/svg" p-id="20575" xmlns:xlink="http://www.w3.org/1999/xlink" width="393.9453125" height="200"><path d="M0 0h2017.217724v84.339878H0zM1009.231625 845.178106c4.270374 40.034752 36.476108 40.034752 36.476107 40.034752 30.782276-8.896612 6.939357-31.138141 6.939357-31.13814-12.633189-28.113293 18.32702-23.664987 18.32702-23.664987 127.577411 87.364726 256.57828 25.088445 256.57828 25.088444 18.149088 23.664987 74.375673 28.291225 74.375674 28.291226h611.375152c-108.004865-28.291225-168.323892-77.222589-168.323893-77.22259C1739.821373 729.522155 1665.445699 744.468462 1665.445699 744.468462c-49.109296-108.182798-144.480973-72.596351-144.480973-72.596351-72.952215 30.960209-39.323023 96.261338-39.323023 96.261338 50.532754 51.956212 88.43232 1.60139 88.43232 1.60139-18.32702 11.92146-42.169939-8.896612-42.16994-8.896611-15.480104-25.266377 7.117289-40.034752 7.11729-40.034753 65.834926-26.511903 106.403475 60.852824 106.403475 60.852824 133.271242 1.60139 159.783145 57.650043 159.783145 57.650043H1435.379322c-51.956212 4.626238-113.698697-30.960209-113.698696-30.960208-48.931364 34.162989-140.210599 22.241529-140.2106 22.241529-140.388532-28.113293-109.428323-170.281147-109.428323-170.281147 37.899566-97.862728 151.42033-96.261338 151.42033-96.261338 16.72563 0 20.996003 19.216681 20.996003 19.216681 9.786273 45.906516-6.939357 38.611295-6.939357 38.611295-42.169939-22.241529-86.83093 11.743527-86.830929 11.743527-63.165943 51.956212-8.540747 121.527715-8.540747 121.527715 106.581407 68.148045 166.900434-28.113293 166.900434-28.113293 44.838923-65.123197 79.891573-51.77828 79.891573-51.778279 61.742485 19.216681 25.266377 63.699739 25.266377 63.699739-32.383666 20.640139-45.016855-26.689835-45.016855-26.689835-32.205734 41.45821 12.633189 65.301129 12.633188 65.30113 56.048653 20.640139 77.222589-37.009904 77.222589-37.009905 22.241529-53.37967-25.266377-90.389574-25.266377-90.389574-70.1053-54.803128-126.153953 29.536751-126.153953 29.53675-15.480104 26.689835-50.532754 47.507906-50.532754 47.507907-58.895569 32.561599-84.161946-17.793223-84.161946-17.793224-15.302172-43.0596 29.358818-44.483058 29.358818-44.483058 7.117289 38.433362 47.685838 28.291225 47.685839 28.291225 64.589401-37.187837 37.899566-115.655951 37.899565-115.655951-33.629192-72.596351-8.540747-114.054561-8.540747-114.054561-51.77828 5.871764-54.625195 54.803128-54.625195 54.803127-82.738488-1.423458-148.751347 59.251434-148.751347 59.251434-88.43232 88.788184-33.629192 207.291051-33.629192 207.291051-36.476108 22.241529-33.629192 60.852824-33.629192 60.852824z" fill="#BE9C78" p-id="20576"></path><path d="M2015.794266 182.380539c-4.270374-40.212685-36.65404-40.212685-36.65404-40.212685-30.960209 8.896612-7.117289 31.138141-7.117289 31.138141 12.811121 28.291225-18.32702 23.842919-18.32702 23.842919-128.28914-87.898523-258.001738-25.444309-258.001738-25.444309-18.32702-23.842919-74.731538-28.291225-74.731538-28.291225H396.610947s-56.404518 4.448306-74.731538 28.291225c0 0-129.712598-62.454214-258.001737 25.444309 0 0-31.138141 4.448306-18.32702-23.842919 0 0 23.842919-22.241529-6.939357-31.138141 0 0-32.561599 0-36.65404 40.212685 0 0-2.846916 38.611295 33.807124 61.030756 0 0-54.98106 119.214596 33.807124 208.536576 0 0 66.368723 61.030756 149.463076 59.429366 0 0 2.846916 49.287228 54.98106 55.158992 0 0-25.266377-41.636142 8.362815-114.588358 0 0 26.867767-79.001911-38.077498-116.189748 0 0-40.746481-10.32007-47.863771 28.291225 0 0-45.016855-1.60139-29.536751-44.66099 0 0 25.444309-50.710686 84.517811-17.793223 0 0 35.230582 20.818071 50.710686 47.685838 0 0 56.58245 84.873675 126.865682 29.892615 0 0 47.863771-37.365769 25.44431-90.923371 0 0-21.173936-58.005908-77.578454-37.187836 0 0-45.194787 23.842919-12.633188 65.479061 0 0 12.633189-47.685838 45.016855-26.867767 0 0 36.65404 44.66099-25.44431 64.055604 0 0-35.230582 13.52285-80.247437-52.134144 0 0-60.674891-96.795135-167.790095-28.291225 0 0-54.98106 70.1053 8.540747 122.061511 0 0 45.016855 34.340921 87.364726 11.92146 0 0 16.903562-7.473154 6.939357 38.789227 0 0-4.092441 19.216681-21.173935 19.216681 0 0-114.232493 1.60139-152.309992-96.617203 0 0-30.960209-143.057515 109.96212-171.34874 0 0 91.6351-11.92146 140.922329 22.241529 0 0 61.920417-35.764379 114.232493-31.316073h367.785925s-26.689835 56.58245-160.672806 58.18384c0 0-40.924414 87.720591-107.115204 61.030756 0 0-22.419461-14.946308-6.939357-40.212684 0 0 23.842919-20.818071 42.347871-8.896612 0 0-38.077498-50.710686-88.788184 1.423458 0 0-33.807124 65.479062 39.500956 96.795135 0 0 95.727541 35.764379 145.192702-72.952216 0 0 74.731538 14.946308 180.601216-62.632146 0 0 59.607298-48.219635 166.54457-76.866724 106.937272 28.469157 166.54457 76.866725 166.54457 76.866724 105.691746 77.400521 180.423284 62.632146 180.423284 62.632146 49.287228 108.716594 145.192702 72.952215 145.192702 72.952216 73.30808-31.316073 39.500956-96.795135 39.500956-96.795135-50.710686-52.134144-88.788184-1.423458-88.788184-1.423458 18.32702-11.92146 42.347871 8.896612 42.347871 8.896612 15.480104 25.266377-6.939357 40.212685-6.939357 40.212684-66.190791 26.689835-107.293136-61.030756-107.293137-61.030756-133.805039-1.60139-160.494874-58.18384-160.494874-58.18384h367.785926c52.312076-4.448306 114.232493 31.316073 114.232493 31.316073 49.287228-34.340921 140.922328-22.241529 140.922329-22.241529 140.922328 28.291225 109.96212 171.34874 109.962119 171.34874-38.077498 98.218593-152.132059 96.617202-152.132059 96.617203-16.903562 0-21.173936-19.216681-21.173935-19.216681-9.786273-46.262381 6.939357-38.789227 6.939357-38.789227 42.347871 22.419461 87.542659-11.92146 87.542658-11.92146 63.521807-52.134144 8.540747-122.061512 8.540748-122.061511-107.293136-68.50391-167.790096 28.291225-167.790096 28.291225-45.194787 65.479062-80.425369 52.134144-80.425369 52.134144-61.920417-19.394613-25.266377-64.055604-25.266377-64.055604 32.383666-20.818071 45.016855 26.867767 45.016855 26.867767 32.561599-41.636142-12.633189-65.479062-12.633189-65.479061-56.404518-20.818071-77.578454 37.187837-77.578453 37.187836-22.597394 53.557602 25.444309 90.923371 25.444309 90.923371 70.461164 54.98106 126.865682-29.892615 126.865682-29.892615 15.480104-26.867767 50.710686-47.685838 50.710686-47.685838 59.251434-32.739531 84.517811 17.793223 84.517811 17.793223 15.480104 43.237533-29.536751 44.66099-29.536751 44.66099-6.939357-38.789227-48.041703-28.291225-48.041703-28.291225-64.767333 37.187837-38.077498 116.189748-38.077498 116.189748 33.807124 72.952215 8.540747 114.588358 8.540748 114.588358 52.134144-5.871764 54.98106-55.158992 54.98106-55.158992 83.272285 1.60139 149.463076-59.429366 149.463075-59.429366 88.966116-89.321981 33.807124-208.536577 33.807124-208.536576 36.65404-22.419461 33.807124-61.030756 33.807125-61.030756zM0 939.482189h2017.217724v84.339879H0z" fill="#BE9C78" p-id="20577"></path><path d="M447.321633 769.556907s37.899566 50.354822 88.43232-1.60139c0 0 33.629192-65.301129-39.323023-96.261338 0 0-95.371677-35.586447-144.480973 72.596351 0 0-74.375673-14.768375-179.533623 62.098349 0 0-60.319027 48.931364-168.323893 77.222589H615.645526s56.048653-4.626238 74.375673-28.291225c0 0 129.000869 62.276281 256.57828-25.088445 0 0 30.782276-4.448306 18.32702 23.664987 0 0-24.020851 22.241529 6.939357 31.138141 0 0 32.205734 0 36.476108-40.034752 0 0 2.846916-38.611295-33.629192-60.852824 0 0 54.625195-118.502867-33.807125-207.291051 0 0-65.834926-60.674891-148.573414-59.251434 0 0-2.846916-48.931364-54.625196-54.803127 0 0 25.266377 41.45821-8.540747 114.054561 0 0-26.689835 78.468115 37.899566 115.655951 0 0 40.568549 10.32007 47.685838-28.291225 0 0 44.838923 1.423458 29.358819 44.483058 0 0-25.266377 50.354822-84.161947 17.793224 0 0-35.05265-20.640139-50.532754-47.507906 0 0-56.048653-84.339878-126.153953-29.536751 0 0-47.685838 37.009904-25.266377 90.389574 0 0 20.996003 57.827976 77.222589 37.009905 0 0 44.838923-23.842919 12.633189-65.30113 0 0-12.633189 47.329974-44.838923 26.689835 0 0-36.476108-44.483058 25.444309-63.699739 0 0 35.05265-13.344917 79.891573 51.778279 0 0 60.319027 96.261338 166.900434 28.113293 0 0 54.803128-69.571503-8.540747-121.527715 0 0-44.838923-33.985056-87.008862-11.743527 0 0-16.903562 7.295222-6.939357-38.611295 0 0 4.092441-19.216681 20.996004-19.216681 0 0 113.520765-1.60139 151.42033 96.261338 0 0 30.782276 142.345786-109.250391 170.281147 0 0-91.279235 11.92146-140.388532-22.241529 0 0-61.742485 35.586447-113.698697 30.960208H216.009731s26.689835-56.226586 159.783145-57.650043c0 0 40.568549-87.364726 106.581407-60.852824 0 0 22.597394 14.946308 6.939357 40.034753 0 0-23.842919 20.640139-41.992007 8.896611z" fill="#BE9C78" p-id="20578"></path><path d="M2017.573588 719.735882L1009.231625 206.757255v-0.533797l-0.355865 0.177932-0.533796-0.177932v0.533797L0 719.735882v97.328931l1008.87576-513.156559 1008.697828 513.156559v-97.328931z" fill="#BE9C78" p-id="20579"></path></svg>