<?xml version="1.0" standalone="no"?><!DOCTYPE svg PUBLIC "-//W3C//DTD SVG 1.1//EN" "http://www.w3.org/Graphics/SVG/1.1/DTD/svg11.dtd"><svg t="1784481162813" class="icon" viewBox="0 0 2722 1024" version="1.1" xmlns="http://www.w3.org/2000/svg" p-id="18276" xmlns:xlink="http://www.w3.org/1999/xlink" width="531.640625" height="200"><path d="M853.056771 846.718128c-31.400863-14.978572-77.238904 14.978572-77.238904 29.054821 0 3.970224-4.331153 6.85766-10.106024 8.301378-13.895784 3.609295-36.814805-3.248365-27.430639-29.415751 3.970224-11.910672 14.437178-24.723668 27.430639-37.175734 28.152498-26.528315 69.47892-51.612912 91.856546-62.98219 22.016697-11.369278 145.093642-109.54209 233.340894-179.38194l-57.207319-43.672464c-70.561709 49.808265-183.352164 131.378322-267.990121 201.940031-17.324614 14.617643-33.566439 28.693892-47.823153 41.867817-25.084597 22.919021-48.364547 40.06317-70.020315 51.973841-24.001809 13.534855-45.838041 21.114373-65.147767 24.362739-51.432448 8.301378-126.686239-21.114373-131.378322-105.932796-2.526506-49.447336 10.827884-90.954223 42.228746-117.482538 45.657576-38.619452 118.926256-24.723668 123.798804 45.116182 2.887436 45.838041-44.755253 89.510505-75.795186 59.011966-13.35439-14.256714-3.789759-40.06317 5.413942-33.20551 17.866008 13.173925 55.041742 16.061361 54.319883-22.91902-1.804647-86.983999-145.815501-55.944066-139.138306 68.396132 2.887436 70.922638 78.502157 99.255601 119.467651 92.75887 19.670655-3.248365 42.048282-11.369278 66.591484-25.806456 20.031585-11.549743 41.326423-27.250174 64.064979-48.364547 6.135801-5.413942 26.889245-21.836232 53.778489-42.950606 60.094755-46.19897 151.409907-115.677891 183.352164-141.123417a1777.577575 1777.577575 0 0 1 73.629609-55.944066l-5.233477-3.609295-246.875748 187.683318-4.872548 3.248365c-36.453875 27.611103-76.33658 67.674273-117.843468 93.480729-46.740365 28.693892-95.826771 40.06317-145.274106-3.970224-47.642688-42.589676-44.935717-100.879783 1.804647-147.439683 21.294838-21.114373 80.667734-30.498539 83.19424 23.64088 0.721859 21.114373-24.723668 25.084597-33.025045 10.647419-8.481842-14.617643-55.402672-2.887436-50.349659 53.778489 4.511618 49.086406 32.483651 57.568248 49.447335 47.281759 9.023236-5.053012 7.399054-12.271602 12.452066-3.970224 22.919021 39.341311 75.253792 17.866008 81.389593-21.475303 0.541394-3.609295 0.721859-6.85766 0.541394-10.827884-0.721859-8.662307 23.099485 3.248365 46.5599-6.85766s46.5599-42.589676 36.995269-86.623069c-8.301378-37.175734 19.129261-60.094755-10.827883-99.61653-21.836232-28.693892-51.071518-44.394323-73.088215-42.950606-8.301378 0.721859-15.339502 3.609295-21.114374 9.023237-20.572979 20.392514-12.271602 46.920829 2.346042 50.891053 14.978572 3.609295 15.159037 20.392514 7.759983 29.054822-7.759983 8.662307-18.948796-0.360929-32.664116-19.309726-6.316265-8.662307-38.619452-27.972033-68.035202-29.054822-34.288298-1.443718-73.629609 17.144149-92.578406 35.371087-35.190622 33.927369-51.612912 65.869626-47.281759 97.811883 1.804647 15.700431-38.258522-45.477112-94.924447-43.311535-8.842772 0.360929-18.046473 2.165577-27.430639 5.413942-52.876165 17.505079-110.083484 77.058439-116.219285 153.214554-2.165577 25.806456-36.27341 34.288298-46.920829 17.866008-3.789759-5.774871-4.511618-14.256714-0.541394-25.806456 0.360929-0.360929 0.360929-0.721859 0.541394-1.082788 6.135801-14.978572 24.001809 2.887436 27.430639-6.135801 4.331153-12.091137-8.481842-37.897593-27.430639-53.05663-16.241826-13.534855-37.175734-19.670655-55.944066-2.887436-40.06317 36.453875-31.581327 69.47892-31.039933 105.932796 0.541394 26.528315-23.640879 36.63434-23.64088 65.869626v0.721859c0 10.466954 3.248365 23.640879 11.910673 40.785028 33.025045 65.147767 86.983999 32.303186 77.419368 10.827884-9.384166-21.836232-16.78322-37.897593 5.233477-40.06317 7.218589-0.721859 11.730207 1.804647 15.880896 4.692083 9.384166 6.49673 17.505079 16.42229 47.823153 9.023237 6.135801-1.443718 3.789759 1.804647 6.85766 13.534854 7.399054 25.084597 36.63434 62.621261 82.291916 65.869626 5.413942 0.360929 15.700431-0.360929 25.986921-3.609294 14.437178-4.331153 29.054821-12.632531 31.761792-26.528316 1.263253-7.940448 6.85766 2.887436 20.933909 7.399054 21.836232 6.49673 58.831501-12.812996 68.396132-52.6957 15.339502-66.230555-14.617643-115.677891-45.838041-138.957841-26.528315-20.392514-65.147767-13.895784-75.253792 17.144149-1.624183 5.413942-2.706971 11.369278-2.346041 18.226938 0 3.609295 1.082788 6.49673 2.346041 9.023236 6.677195 10.106025 24.723668 6.49673 23.460415 17.866008 0 0-4.511618 17.144149-14.437179 21.836232-2.706971 1.443718-5.955336 1.804647-9.023236 1.804648-12.271602-0.721859-26.528315-11.730207-30.498539-29.776681-6.135801-28.693892-2.165577-74.171003 30.498539-86.623069 11.188813-4.331153 25.265062-4.692083 43.672464 0.721859 125.242522 36.814805 169.997774 215.474886 330.430918 176.494504 2.165577-0.360929 4.331153-1.082788 6.677195-1.804647 0 0 19.670655 65.869626 58.470572 73.810074 21.836232 4.331153 39.341311 2.887436 52.695701-5.053013 10.827884-6.135801 18.587867-17.144149 23.640879-32.664116 5.053012-16.061361 16.42229-3.609295 32.664116 0.36093 18.587867 5.053012 45.477112-9.023236 53.05663-33.025045 13.895784-44.755253 9.203701-83.013775-22.016697-97.450954zM636.138168 570.246164c-2.706971-0.721859-5.413942-1.082788-4.511619-8.301377 0.902324-6.85766 3.42883-6.677195 6.135801-5.774872 3.789759 0.721859 7.218589 2.887436 10.106025 5.774872 12.271602 11.910672 15.880896 38.258522 15.880896 38.258522 0.541394 3.609295 1.082788 6.85766-3.970224 8.301378-5.413942 1.443718-5.955336-1.804647-6.49673-5.413942 0 0-1.624183-11.008348-5.594407-20.031585-2.706971-6.135801-6.677195-11.730207-11.730207-12.812996zM110.624879 906.993347c-11.730207 1.443718-44.394323-5.053012-45.838042 21.475303-0.360929 3.970224 0.180465 7.579519 1.263254 10.106025 2.887436 7.218589 9.384166 10.28649 9.384165 10.286489 2.706971 1.082788 5.053012 2.526506 3.248366 9.023237-1.804647 6.85766-11.549743 6.49673-13.895785 5.053012-13.534855-9.92556-14.076249-37.175734-6.316265-53.05663 7.940448-16.42229 40.785029-13.35439 52.154307-8.301378 2.706971 1.443718 3.970224 2.526506 3.789759 3.970224-0.541394 0.721859-1.804647 1.082788-3.789759 1.443718z m0-68.035202c-13.35439-14.617643-29.77668-48.003618-3.248366-77.960763 1.082788-1.082788 2.165577-1.804647 3.248366-2.526506 7.218589-3.970224 14.076249 4.692083 16.241825 10.466954 4.331153 10.28649-6.677195 11.730207-12.271601 13.895784-1.624183 0.721859-2.887436 1.443718-3.970224 2.165577-13.35439 9.564631-8.301378 31.942257 0 44.033394 0.541394 1.082788 1.263253 1.804647 1.804647 2.526506 3.42883 4.331153 10.106025 12.452066 9.56463 13.895784-1.082788 2.165577-5.955336-0.721859-11.369277-6.49673z m163.140114-82.652846c-12.99346 3.970224-25.445527 12.632531-33.56644 31.220398-19.670655 40.06317-9.023236 92.397941 23.460415 109.181161 3.42883 1.443718 6.85766 1.804647 10.106025 1.804647 30.13761 0.360929 49.447336-51.251983 15.159037-64.786837-10.28649-5.774871 2.165577-35.732016 15.339502-30.859469 49.447336 30.859469 13.35439 109.181161-30.679004 109.90302-3.970224 0-8.301378-0.721859-12.452066-2.165577-43.672464-14.978572-52.154307-85.179352-29.77668-131.017393 10.647419-21.475303 26.34785-30.859469 42.228746-34.288298 27.069709-5.413942 54.319883 8.481842 54.319883 12.812995 0.541394 2.526506-27.972033-9.745095-54.319883-1.804647zM765.711843 920.708667c-25.986921-0.360929-51.612912-17.505079-53.056631-52.334772 1.624183-30.498539 26.167386-57.387784 30.318075-54.139418 4.150689 1.082788-22.016697 25.806456-19.670656 53.41756 0.180465 6.85766 1.804647 13.173925 4.511619 17.866008 7.940448 15.700431 24.001809 21.114373 37.717128 17.144149 10.827884-2.887436 20.753444-11.369278 24.543203-24.723668 3.970224-8.662307 30.13761-13.35439 28.693892 9.564631-9.564631 22.197162-31.400863 33.385975-53.237095 33.385974z" fill="#BE9C78" p-id="18277"></path><path d="M1268.667041 896.887323c-18.046473-15.700431-15.159037-53.958954 1.082788-72.366357 15.159037-17.144149 40.243634-31.581327 64.425908-49.447335 49.447336-36.453875 106.47419-76.156115 144.732712-106.293725 14.978572-12.091137 63.523584-48.003618 113.151385-84.457493-19.670655-15.339502-40.424099-31.220398-61.718937-47.642688-53.237095 40.424099-103.04536 78.502157-135.529011 104.128148-46.018506 35.551551-92.939335 70.200779-141.303883 93.1198-14.617643 7.218589-29.235286 12.99346-44.213858 17.866008-45.477112 14.256714-92.037011 16.061361-140.762488-1.804647-20.392514-7.579519-41.506888-18.948796-62.801726-34.107834-10.466954-7.579519-20.031585-15.339502-29.054821-22.919021-32.122722 25.084597-59.372896 45.838041-74.531933 55.944066 32.483651 33.385975 72.185891 59.011966 115.136497 77.058439 15.700431 6.49673 34.829693 11.730207 51.071518 19.309726 5.053012 2.165577 10.106025 4.692083 14.437178 7.940448 0 0 29.054821 41.145958-8.301377 42.950606-2.165577 0-4.331153 0-6.135801-0.36093-26.889245-3.609295 1.263253-44.394323-40.785029-43.311535-44.935717 1.082788-66.591485 65.508696-21.836232 105.932796 20.392514 15.700431 31.942257 3.609295 51.071518 14.617643 3.789759 2.526506 7.759983 4.331153 11.369278 6.135801 25.084597 11.369278 47.101294 10.466954 65.147767-2.526507 47.101294-34.649228 20.392514-86.62307 16.78322-102.323501-7.218589-18.948796 20.753444-4.331153 34.288298-13.354389 14.076249-3.248365-20.392514 36.995269-6.316265 82.291916 14.076249 45.477112 39.882705 46.5599 55.402672 41.506887 11.188813-3.609295 11.910672 5.413942 19.670655 14.256714 3.42883 3.609295 7.940448 7.579519 15.339502 10.106025 24.182274 8.842772 84.277028-22.919021 63.704049-77.058439-20.572979-54.500348-47.101294-20.392514-63.884514-34.829693z m-177.938223 18.948796c-6.677195 3.248365-14.437178 5.053012-22.016696 5.413942-18.948796 0.721859-38.078058-9.023236-41.145959-33.746904-0.541394-16.061361 16.42229-21.475303 18.587868-8.301378 2.706971 15.339502 12.812996 25.084597 22.016696 26.528315h0.541395c14.978572 1.804647 41.867817-15.700431 29.054821-40.06317-5.053012-9.745095-4.692083-17.866008 2.706971-9.745095 17.866008 19.309726 9.384166 50.169194-9.564631 60.094755z m211.504662 21.475303c-26.167386 6.49673-41.326423-10.106025-48.725477-29.054822-6.85766-17.866008-7.218589-37.536664-3.248365-41.867817 0.721859 0.721859 1.624183 6.135801 3.248365 13.173926 2.165577 9.023236 5.774871 20.753444 12.452067 28.332962 6.85766 7.940448 20.21205 10.106025 31.039933 2.165577 7.759983-4.331153 18.407402 24.001809 5.053012 27.250174z" fill="#BE9C78" p-id="18278"></path><path d="M1003.203425 672.3892c-5.413942 3.970224-10.647419 8.301378-15.880896 12.452067 7.399054 6.135801 15.159037 12.091137 23.460415 18.226937 19.670655 14.256714 39.160846 24.723668 58.109642 32.122722 47.823153 18.226938 94.022123 16.78322 138.416447 2.526506 15.700431-4.692083 31.220398-11.369278 46.5599-18.948796 46.5599-22.558091 91.495617-55.944066 135.88994-90.593294 31.581327-24.723668 79.043551-61.177543 130.11507-99.796995-3.248365-2.526506-6.135801-5.053012-9.384166-7.218589-101.060248 78.502157-205.72979 158.628496-256.801309 184.074023-26.70878 13.534855-66.050091 24.723668-88.608181 26.528315-25.986921 1.804647-60.997078-5.774871-96.368165-21.475303-22.377626-9.745095-44.935717-22.558091-65.508697-37.897593zM1857.523449 180.081421c31.400863 14.437178 77.419368-14.978572 77.419369-29.054821 0-4.331153 4.150689-7.218589 9.745095-8.662307 14.076249-3.248365 36.995269 3.248365 27.791568 29.77668-3.970224 11.549743-14.437178 24.723668-27.791568 37.175734-28.152498 26.528315-69.47892 51.793377-91.856547 62.982191-20.21205 10.28649-126.686239 94.743982-212.046055 162.59872 21.294838 16.061361 42.048282 30.859469 59.372895 43.672464 70.200779-50.169194 168.734521-122.174621 244.529707-185.517741 17.685543-14.617643 33.566439-28.332962 48.184083-41.867817 24.904133-22.919021 48.364547-39.70224 70.020314-51.973841 24.001809-13.534855 45.838041-21.114373 65.147767-24.001809 51.251983-8.842772 126.686239 20.753444 131.197858 105.75233 2.706971 49.447336-10.647419 90.593294-42.228747 117.121609-45.838041 38.980381-118.926256 24.723668-123.437874-44.755252-2.887436-45.838041 44.394323-89.510505 75.795186-59.011967 13.35439 13.895784 3.42883 39.70224-5.594407 33.20551-17.866008-13.173925-55.041742-16.42229-54.319883 22.558091 2.165577 86.983999 146.17643 56.48546 139.499235-68.035202-3.248365-71.283568-78.863086-99.255601-119.46765-92.758871-19.670655 3.248365-42.048282 11.369278-66.591485 25.445527-20.031585 11.730207-41.145958 27.250174-64.064978 48.364547-6.316265 5.774871-26.889245 22.197162-53.958954 42.950606-60.094755 46.5599-151.048978 115.677891-183.352164 141.484347-15.700431 12.452066-33.025045 25.806456-50.530124 38.619452 1.624183 1.443718 3.42883 2.526506 5.053012 3.609294l224.137193-170.178239c1.624183-1.082788 3.248365-2.526506 4.692083-3.609294 36.814805-27.611103 76.33658-67.313344 118.204397-93.1198 46.5599-29.054821 95.826771-40.424099 144.913177 3.609295 47.823153 42.589676 45.296647 100.699318-1.624183 147.620147-21.294838 21.114373-80.667734 30.13761-83.194239-24.001809-1.082788-20.753444 24.723668-25.084597 33.025045-10.466954 8.301378 14.798108 55.041742 3.248365 49.98873-53.778489-4.331153-49.086406-32.122722-57.568248-49.447336-47.281759-8.842772 5.413942-7.399054 12.271602-12.271601 3.970224-22.919021-39.341311-75.614721-17.866008-81.389593 21.475303-0.541394 3.609295-0.902324 7.218589-0.541394 10.827884 0.541394 9.203701-23.099485-3.248365-46.5599 6.857659-23.640879 10.106025-46.740365 42.950605-36.995269 86.983999 8.301378 36.814805-19.129261 59.733825 10.827883 99.255601 21.836232 28.693892 51.071518 44.394323 73.26868 42.950605 8.301378-0.721859 15.339502-3.609295 21.114373-9.023236 20.572979-20.031585 12.271602-46.920829-2.706971-50.530124-14.617643-3.970224-15.159037-20.753444-7.399054-29.415751s18.948796 0.360929 32.664116 19.309726c6.316265 8.842772 38.619452 27.972033 68.035203 29.415751 34.288298 1.082788 73.629609-17.505079 92.578406-35.732016 35.190622-33.927369 51.612912-65.508696 47.281758-97.811883-2.165577-15.700431 38.078058 45.477112 94.924448 43.311535 8.842772-0.360929 17.866008-2.165577 27.430638-5.053013 53.05663-17.866008 109.90302-77.058439 116.219285-153.214554 2.165577-26.167386 36.27341-34.649228 46.92083-17.866008 3.42883 5.413942 4.331153 13.895784 0.360929 25.806456 0 0.360929-0.360929 0.721859-0.360929 0.721859-6.316265 14.978572-24.001809-2.887436-27.430639 6.49673-4.511618 11.730207 8.301378 37.536664 27.430639 53.05663 16.241826 13.534855 37.175734 19.309726 55.583136 2.526507 40.424099-36.092946 31.581327-69.47892 31.039933-105.932796-0.360929-26.528315 23.640879-36.63434 24.001809-65.869626v-0.721859c0-10.466954-3.42883-23.640879-11.910672-40.785028-33.025045-65.147767-86.983999-32.303186-77.780298-10.827884 9.564631 21.836232 16.963684 37.897593-5.053012 40.06317-7.218589 0.721859-11.730207-1.443718-16.061361-4.331154-9.384166-6.49673-17.866008-16.78322-47.823153-9.384166-6.135801 1.443718-3.789759-1.804647-7.218589-13.173925-7.399054-25.445527-36.814805-62.98219-82.291916-66.230555-5.053012-0.360929-15.339502 0.721859-25.806456 3.609294-14.437178 4.331153-29.054821 12.812996-31.581328 26.528315-1.624183 7.940448-6.85766-2.887436-21.114373-6.857659-22.016697-6.49673-58.831501 12.452066-68.396132 52.6957-15.519967 65.869626 14.617643 115.316961 45.838041 138.957841 26.34785 20.031585 65.147767 13.534855 75.253792-17.505078 1.624183-5.053012 2.346041-11.369278 2.346041-18.226938-0.360929-3.609295-1.082788-6.49673-2.346041-8.662307-6.85766-10.466954-24.723668-6.49673-23.64088-18.226937 0 0 4.511618-17.144149 14.617643-21.836233 2.706971-1.082788 5.594407-1.804647 9.023237-1.443717 11.910672 0.721859 26.528315 11.188813 30.679003 29.77668 5.774871 28.332962 1.804647 74.171003-30.679003 86.623069-11.188813 3.970224-25.445527 4.331153-43.852929-1.082788-125.062057-36.453875-169.997774-215.113956-330.250453-176.494504-2.165577 0.721859-4.511618 1.082788-6.677195 1.804647 0 0-19.670655-65.869626-58.831502-73.449145-21.475303-4.331153-39.341311-3.248365-52.695701 4.692083-10.647419 6.49673-18.587867 17.144149-23.460414 32.664116-5.053012 16.061361-16.602755 3.609295-32.664116-0.360929-18.948796-5.053012-45.838041 9.023236-53.237095 33.025045-13.895784 45.116182-9.023236 83.013775 22.016697 97.811883z m217.099069 276.471964c2.526506 0.360929 5.053012 1.082788 4.150688 7.940448-0.902324 7.218589-3.248365 6.49673-5.955336 6.135801-3.970224-1.082788-7.218589-2.887436-10.106024-5.774871-12.271602-12.452066-15.880896-38.258522-15.880897-38.619452-0.541394-3.248365-1.082788-6.85766 3.970225-8.301378 5.053012-1.443718 5.594407 2.165577 6.1358 5.413942 0 0 1.624183 11.008348 5.955336 20.392515 2.706971 6.135801 6.316265 11.549743 11.730208 12.63253z m525.513289-337.288577c11.730207-1.443718 44.394323 5.053012 45.838041-21.475303 0-3.609295-0.360929-7.218589-1.263253-9.745095-2.887436-7.399054-9.564631-10.647419-9.564631-10.647419-2.346041-1.082788-4.692083-2.526506-2.887436-9.023237 1.624183-6.85766 11.369278-6.49673 13.895784-5.053012 13.35439 10.106025 14.076249 37.536664 6.135801 53.05663-7.759983 16.78322-40.785029 13.534855-51.973842 8.301378-2.706971-1.082788-4.331153-2.526506-3.970224-3.609295 0.541394-1.082788 1.804647-1.443718 3.970224-1.804647z m0 68.396132c12.99346 14.617643 29.596215 48.003618 3.248365 77.599833-1.082788 1.082788-2.165577 2.165577-3.248365 2.526506-7.218589 3.970224-14.076249-4.692083-16.422291-10.466954-3.970224-10.28649 6.85766-11.369278 12.452067-13.895784 1.624183-0.721859 2.706971-1.443718 3.970224-2.165577 12.99346-9.384166 8.301378-32.122722 0-44.033393-0.721859-1.082788-1.263253-1.804647-1.804648-2.526507-3.789759-4.331153-10.28649-12.271602-9.56463-13.895784 1.082788-2.165577 5.774871 0.721859 11.369278 6.85766z m-163.140115 82.652846c12.812996-3.970224 25.265062-12.99346 33.56644-31.581328 19.490191-40.06317 8.842772-92.037011-23.64088-109.181161-3.42883-1.082788-6.677195-1.804647-9.92556-1.804647-30.318074-0.360929-49.808265 51.251983-15.159037 65.147767 10.466954 5.774871-2.165577 35.551551-15.519967 30.498539-49.447336-30.498539-13.35439-109.181161 30.679004-109.54209 3.970224-0.360929 8.301378 0.360929 12.452067 1.804647 43.672464 14.978572 52.154307 85.540281 29.77668 131.017393-10.647419 21.836232-26.528315 31.220398-42.228747 34.107834-27.430639 5.413942-54.319883-7.940448-54.319883-12.632531-0.541394-2.526506 27.972033 10.106025 54.319883 2.165577z m-492.307779-164.403368c26.34785 0 51.973842 17.144149 53.05663 52.334771-1.624183 30.13761-25.806456 57.568248-30.137609 53.778489-4.150689-1.082788 22.016697-25.445527 19.670655-53.417559-0.180465-6.85766-1.804647-12.812996-4.511618-17.866008-8.301378-15.700431-24.001809-20.753444-38.078058-17.14415-10.827884 3.248365-20.392514 11.730207-24.543203 24.723668-3.970224 9.203701-29.77668 13.534855-28.513427-9.384166 9.384166-22.197162 31.400863-33.566439 52.876165-33.20551z" fill="#BE9C78" p-id="18279"></path><path d="M1436.318773 113.850866c18.046473 15.700431 15.339502 53.778489-1.082788 72.366356-14.798108 17.505079-39.521776 31.581327-63.884514 49.447336-49.447336 36.27341-106.654654 75.975651-145.093642 106.293725-15.339502 11.910672-66.230555 49.808265-116.760679 87.344928 24.182274 18.948796 45.477112 36.092946 61.177543 48.003618 54.861277-41.867817 106.47419-81.209128 139.860165-107.376513 46.5599-36.092946 94.022123-70.922638 142.567135-94.202589 14.076249-6.49673 28.152498-12.091137 42.589676-16.783219 45.296647-14.256714 92.037011-16.061361 140.401559 1.804647 20.753444 7.579519 41.867817 18.948796 63.162655 34.107834 13.35439 9.745095 25.265062 19.670655 36.092945 29.41575 35.732016-27.611103 63.34312-48.364547 72.727286-52.6957a6.49673 6.49673 0 0 1 2.706971-1.443718c-33.746904-37.536664-76.69751-65.869626-123.25741-85.540281-15.880896-6.49673-34.829693-11.730207-51.251983-19.309726-5.053012-2.165577-9.92556-4.692083-14.437178-7.940448 0 0-28.693892-41.145958 8.301378-42.950606 2.346041 0 4.511618 0 6.1358 0.36093 27.069709 3.609295-1.263253 44.394323 40.965494 43.311534 44.935717-1.082788 66.41102-65.508696 21.836232-105.932795-20.572979-15.700431-31.942257-3.609295-51.071518-14.617643-3.970224-2.526506-7.759983-4.331153-11.730208-6.135801-25.084597-11.369278-46.740365-10.647419-64.967302 2.526506-47.281759 34.649228-20.753444 86.62307-16.78322 102.323501 7.218589 18.948796-21.114373 4.331153-34.649227 13.35439-13.895784 3.248365 20.753444-37.175734 6.316265-82.291916-14.076249-45.477112-39.70224-46.5599-55.402672-41.506887-10.106025 3.248365-11.369278-3.970224-17.866008-12.091137-3.42883-4.692083-8.481842-9.023236-16.963684-12.271602-24.543203-8.662307-84.096563 22.919021-63.523585 77.058439 20.572979 54.680813 46.740365 20.392514 63.523585 35.010158z m178.299152-18.948796c6.677195-3.248365 14.076249-5.053012 21.836232-5.413942 19.129261-0.721859 38.078058 9.023236 41.506888 33.746904 0.541394 16.42229-16.42229 21.475303-18.587867 8.481842-2.706971-15.339502-12.812996-25.084597-22.377627-26.528315h-0.541394c-14.978572-1.804647-41.506888 15.700431-29.054821 40.06317 5.233477 9.745095 5.053012 17.866008-2.346042 9.745095-17.866008-19.309726-9.384166-50.169194 9.564631-60.094754zM1403.293728 73.426767c27.972033-6.85766 43.311535 13.173925 49.98873 33.746904 5.413942 16.42229 5.053012 33.20551 1.263253 37.175734-0.180465-0.360929-0.721859-2.526506-1.263253-5.413942-1.804647-8.662307-5.233477-25.806456-14.076249-36.092945-6.85766-7.940448-20.21205-10.106025-31.039933-2.165577-7.399054 4.331153-18.407402-24.001809-4.872548-27.250174z" fill="#BE9C78" p-id="18280"></path><path d="M1725.242803 332.574117c-9.384166-8.301378-19.490191-16.78322-30.679003-24.723668-19.670655-14.256714-39.160846-24.723668-58.290108-31.942257-47.642688-18.226938-93.661194-16.42229-138.416446-2.526506-14.978572 4.692083-29.77668 11.008348-44.755253 17.866008-46.740365 22.919021-92.578406 56.846389-137.333658 91.676082-32.664116 25.084597-81.930987 62.98219-134.626688 103.04536 3.970224 2.887436 7.399054 5.053012 9.92556 6.85766 102.68443-79.76541 209.15862-161.515932 260.410604-186.961459l1.624182-1.082788c26.34785-12.812996 64.967302-23.640879 86.803534-25.445527 26.167386-1.804647 61.177543 5.774871 96.368165 21.475303 25.625991 11.008348 51.071518 25.806456 73.449145 44.033393 5.233477-3.970224 10.28649-7.940448 15.519966-12.091136zM1702.684712 852.492999c-44.935717-1.082788-9.745095 45.116182-46.740364 43.672465-37.175734-1.804647-8.481842-42.950605-8.481842-42.950606 18.587867-12.452066 44.935717-18.587867 65.689161-27.250174 125.96438-52.695701 224.859052-171.802421 190.570753-355.154585-5.594407-30.13761-14.437178-59.372896-24.001809-85.179352l-59.91429 45.477112c10.28649 30.859469 16.42229 60.816613 16.963685 89.510505 1.624183 72.005427-30.679004 136.070405-112.068597 195.082371-30.13761 21.836232-59.372896 35.190622-88.427717 41.867817-39.341311 9.023236-77.960763 5.774871-115.136496-5.774871-23.460415-7.218589-46.379435-17.866008-68.937527-30.498539-5.774871-3.248365-11.369278-6.49673-17.324614-9.745096-20.031585 14.617643-41.506888 30.13761-63.162654 45.838041 8.481842 5.774871 16.78322 12.091137 24.723667 17.866009 20.031585 14.978572 40.424099 27.250174 55.583137 41.145958 2.887436 2.526506 5.774871 5.413942 8.301377 8.301377 16.42229 18.587867 19.129261 56.846389 1.082789 72.366356-2.706971 2.526506-5.774871 3.609295-9.384166 3.970224-16.241826 1.443718-37.536664-14.256714-54.319884 30.859469-18.046473 48.364547 26.889245 78.682622 54.319884 78.682621 3.42883 0 6.677195-0.721859 9.384166-1.443717 24.182274-8.662307 19.129261-29.415751 34.829692-24.362739 15.700431 5.053012 41.326423 3.970224 55.402672-41.506887 14.437178-45.116182-20.21205-85.540281-6.316266-82.291916 13.534855 9.023236 41.867817-5.413942 34.649228 13.354389-3.970224 15.700431-30.318074 67.674273 16.78322 102.323501 11.730207 8.301378 25.084597 11.730207 39.70224 9.745096 11.730207-1.082788 24.001809-5.774871 36.995269-13.534855 19.129261-11.008348 30.498539 1.082788 51.071519-14.617643 44.755253-40.424099 23.099485-104.850007-21.836233-105.932795z m-250.304578 83.735634c-6.677195 2.887436-14.617643 3.248365-24.001809 1.082789-13.534855-3.248365-2.706971-31.581327 4.692083-27.250174 6.135801 4.331153 12.99346 5.774871 19.129261 4.692083 4.872548-1.082788 9.023236-3.248365 12.271602-6.85766 11.730207-13.534855 13.895784-39.70224 15.700431-41.506888 6.677195 7.218589 1.624183 58.290107-27.972033 69.83985z m187.502853-20.392514c-1.082788-0.721859-2.346041-1.443718-3.42883-2.165577-16.42229-11.188813-22.919021-40.06317-6.135801-57.748713 7.399054-7.940448 7.759983 0 2.346042 9.745095-6.135801 11.910672-2.887436 22.197162 3.789759 29.415751 7.218589 7.579519 18.407402 11.730207 25.806456 10.647419 9.564631-1.443718 19.670655-11.369278 22.377627-26.528315 2.165577-13.173925 19.129261-7.579519 18.587867 8.301378-4.511618 35.010157-40.424099 40.06317-63.34312 28.332962z" fill="#BE9C78" p-id="18281"></path><path d="M1565.711984 731.581631c-22.558091-1.804647-62.260331-13.173925-88.608182-26.528315-5.955336-2.887436-12.452066-6.49673-19.490191-10.466954-1.804647 1.082788-3.42883 2.526506-5.233477 3.970224-1.804647 1.082788-3.789759 2.526506-5.233477 3.970224 1.624183 1.082788 3.42883 2.165577 5.233477 2.887436 23.460415 13.534855 47.101294 24.723668 71.103103 31.942257 36.63434 11.730207 74.531933 14.978572 113.151385 5.413941 27.430639-6.49673 55.041742-19.309726 83.555169-40.063169 77.238904-55.944066 107.737443-115.677891 106.11326-181.908446-0.541394-26.528315-6.135801-53.958954-15.700431-82.652846l-10.106025 7.579519c6.316265 31.942257 9.023236 64.786837 8.481842 93.480729-2.165577 85.901211-93.300265 153.936413-172.343815 180.464728-26.34785 8.662307-51.071518 13.173925-70.742174 11.549743zM2664.922644 740.063474c-18.587867-16.78322-39.70224-10.827884-55.944066 2.526506-18.948796 15.700431-31.581327 41.506888-27.430638 53.05663 3.42883 9.384166 21.294838-8.301378 27.430638 6.135801 0.180465 0.360929 0.180465 0.721859 0.541395 1.082788 3.970224 11.730207 3.248365 20.392514-0.541395 25.806456-10.647419 16.78322-44.755253 8.301378-46.740364-17.866008-6.135801-75.975651-63.34312-135.348546-116.219285-153.214554-9.384166-2.887436-18.587867-4.692083-27.430639-5.053013-56.665925-2.165577-96.909559 59.011966-94.924447 42.950606 4.150689-31.942257-12.271602-63.704049-47.281759-97.450954-18.948796-18.226938-58.109643-36.995269-92.578406-35.551551-29.596215 1.443718-61.718937 20.753444-68.035202 29.415751-13.895784 18.948796-25.084597 27.972033-32.664116 19.309725-7.399054-9.023236-7.218589-25.806456 7.759983-29.41575 14.617643-3.609295 22.919021-30.498539 2.346042-50.530124-5.594407-5.774871-12.812996-8.662307-20.933909-9.023237-22.016697-1.443718-51.432448 13.895784-73.26868 42.950606-30.13761 39.341311-2.706971 62.260331-10.827883 99.2556-9.564631 44.033394 13.534855 76.33658 36.995269 86.62307 23.460415 10.106025 47.281759-1.804647 46.5599 7.218589-0.360929 3.609295 0 7.218589 0.541394 10.827884 6.135801 38.980381 58.470572 60.455684 81.389593 21.114373 5.053012-8.301378 3.42883-1.082788 12.452066 4.331154 16.963684 10.106025 44.935717 1.804647 49.447336-47.281759 5.053012-57.207319-41.687352-68.757062-50.169195-54.139419-8.301378 14.978572-33.746904 10.466954-33.025045-10.106025 2.706971-54.680813 62.079867-45.116182 83.374704-24.001809 46.920829 46.920829 49.447336 105.210937 1.804648 147.800613-49.447336 44.033394-98.353277 32.844581-145.274107 3.609295-41.506888-25.806456-81.389593-65.508696-117.843467-93.1198-1.624183-1.443718-3.248365-2.526506-4.692083-3.609295l-41.687353-31.581327c-1.082788 2.165577-2.346041 4.331153-3.428829 6.49673l49.988729 38.619452c26.889245 20.753444 47.642688 37.175734 53.778489 42.950605 22.919021 20.753444 44.213858 36.814805 64.064979 48.364547 24.723668 14.256714 46.920829 22.197162 66.591485 25.445527 40.965493 6.49673 116.580215-21.836232 119.46765-92.75887 6.85766-124.340198-137.333658-155.019202-139.138306-68.035203-0.902324 38.619452 36.453875 35.732016 54.319884 22.558091 9.023236-6.49673 18.587867 18.948796 5.233477 33.025045-31.039933 30.498539-78.863086-13.173925-75.614722-58.831501 4.511618-69.47892 77.780298-83.735634 123.437875-45.116182 31.400863 26.528315 44.755253 68.035203 42.228746 117.482538-4.692083 85.179352-80.126339 114.234173-131.378322 105.932796-19.490191-3.248365-41.326423-10.466954-65.147767-24.001809-21.655767-12.452066-44.935717-29.415751-70.020315-52.334771-14.437178-13.173925-30.679004-26.889245-48.003617-41.506888-17.324614-14.617643-35.551551-29.054821-54.319884-44.033394-12.812996 22.197162-28.513427 41.867817-46.018505 59.733825 3.42883 2.526506 6.316265 3.970224 8.481842 5.053013 22.377626 11.369278 63.523584 36.453875 91.676082 62.98219 12.99346 12.452066 23.460415 25.084597 27.430639 37.175734 9.384166 26.528315-13.534855 33.025045-27.430639 29.77668-5.774871-1.443718-10.106025-4.331153-10.106025-8.662307 0-14.256714-45.838041-43.672464-77.238904-29.054821-20.031585 9.384166-29.235286 28.332962-29.596215 52.334771v3.248365c0.360929 12.632531 2.706971 26.889245 7.399054 42.228747 7.399054 24.001809 34.288298 37.897593 53.237095 33.025045 15.880896-4.331153 27.430639-16.42229 32.483651-0.360929 5.053012 15.700431 12.812996 26.167386 23.640879 32.84458 13.35439 7.940448 30.859469 9.203701 52.695701 4.692083 38.799917-7.579519 58.831501-73.449144 58.831501-73.449144 2.165577 0.721859 4.331153 1.082788 6.49673 1.443717 160.433144 38.980381 205.188396-139.6797 330.430918-176.494504 18.407402-5.053012 32.483651-4.692083 43.672464-0.721859 32.664116 12.452066 36.63434 58.109643 30.679004 86.62307-3.970224 18.587867-18.407402 29.054821-30.679004 29.77668-3.248365 0.360929-6.316265-0.360929-9.023236-1.443718-9.92556-4.692083-14.437178-21.836232-14.437178-21.836232-1.263253-11.730207 16.78322-7.759983 23.460414-18.226938 1.263253-2.165577 2.346041-5.053012 2.346042-9.023236 0.180465-6.49673-0.902324-12.812996-2.346042-18.226938-10.106025-30.498539-48.725477-37.175734-75.253791-17.144149-31.039933 23.640879-61.177543 72.727286-45.838041 138.957841 9.564631 40.424099 46.5599 59.372896 68.396132 52.695701 14.076249-3.970224 19.670655-14.978572 21.114373-7.399054 2.706971 14.256714 17.324614 22.558091 31.581327 26.528315 10.28649 3.248365 20.753444 4.331153 25.986921 3.970224 45.477112-3.248365 74.712398-41.145958 82.291916-66.230555 3.248365-11.369278 0.902324-14.617643 6.85766-13.173925 30.318074 7.218589 38.619452-2.887436 47.823153-9.384166 4.331153-2.887436 8.842772-5.053012 15.880896-4.331154 22.016697 1.804647 14.617643 18.226938 5.413942 39.70224-9.564631 21.836232 44.394323 54.500348 77.419369-10.466954 8.842772-17.505079 11.910672-30.498539 11.910672-41.145958v-0.360929c0-29.054821-24.182274-39.341311-23.64088-65.869626 0.541394-36.453875 9.023236-69.83985-31.039933-105.932796z m-593.187562-151.048978c-3.970224 9.384166-5.594407 20.031585-5.594407 20.392514-0.541394 3.248365-1.082788 6.85766-6.316265 5.413942-5.053012-1.443718-4.511618-5.053012-3.970224-8.662307 0 0 3.789759-25.806456 15.880896-38.258522 2.887436-2.887436 6.316265-5.053012 10.106025-5.774872 2.706971-0.360929 5.413942-1.082788 6.135801 6.135801 0.721859 6.85766-1.804647 7.759983-4.511619 7.940448-5.053012 1.082788-9.023236 6.49673-11.730207 12.812996z m-117.843468 338.010436c-21.836232 0.360929-43.672464-11.008348-53.237095-33.20551-1.263253-23.27995 24.723668-18.587867 28.693892-9.384166 3.789759 13.173925 13.534855 21.475303 24.362739 24.723668 13.895784 3.609295 29.77668-1.443718 38.078057-17.144149 2.346041-5.053012 3.970224-10.827884 4.150689-17.866008 2.346041-27.972033-24.001809-52.334771-19.670655-53.778489 4.150689-3.248365 28.693892 23.640879 30.318074 54.139418-1.263253 35.371087-26.889245 52.334771-53.05663 52.334771z m504.579381-9.92556c-4.331153 1.443718-8.481842 1.804647-12.452066 1.804647-43.852929-0.360929-80.126339-79.043551-30.679004-109.903019 13.35439-4.692083 25.986921 25.084597 15.339502 31.039933-34.288298 13.895784-14.978572 65.147767 15.159037 65.147767 3.248365 0 6.677195-0.721859 10.106025-2.165577 32.483651-16.78322 43.13107-68.757062 23.460414-109.18116-7.940448-18.226938-20.392514-27.250174-33.566439-31.220398-26.34785-7.940448-54.861277 4.692083-54.319883 2.165576 0-4.692083 27.069709-18.226938 54.319883-12.812995 15.880896 2.887436 31.581327 12.271602 42.228746 34.288298 22.377626 45.477112 13.715319 116.03882-29.77668 131.017393z m139.138306-65.147767c-0.541394-1.804647 6.135801-9.384166 9.56463-13.895784 0.541394-0.721859 1.263253-1.804647 1.804647-2.526506 8.301378-11.910672 13.35439-34.468763 0-44.033394a7.796076 7.796076 0 0 0-3.970224-2.165577c-5.594407-2.526506-16.42229-3.609295-12.271601-13.895784 2.165577-5.774871 9.023236-14.617643 16.241825-10.647419 1.082788 0.360929 2.165577 1.443718 3.248366 2.526507 26.528315 29.415751 10.106025 62.98219-3.248366 77.419368-5.233477 6.135801-10.28649 9.023236-11.369277 6.85766z m57.207318 117.482538c-2.346041 1.082788-11.910672 1.443718-13.895784-5.053012-1.804647-6.85766 0.541394-7.940448 3.248365-9.384166 0 0 6.49673-2.887436 9.384166-10.106025 1.082788-2.526506 1.624183-6.135801 1.263253-9.745095-1.263253-26.528315-34.107834-20.031585-45.838041-21.836232-1.804647 0-3.248365-0.721859-3.789759-1.443718-0.180465-1.082788 1.082788-2.526506 3.789759-3.609295 11.549743-5.053012 44.213858-8.301378 52.154307 8.301378 7.759983 15.700431 7.218589 42.950605-6.316266 53.05663zM1019.084321 166.546567c44.935717 1.082788 9.92556-45.477112 46.740365-43.672465 2.706971 0 5.053012 0.360929 6.85766 0.721859 26.34785 6.49673 1.624183 42.228746 1.624182 42.228747-0.541394 0.360929-1.082788 0.360929-1.624182 0.721859-18.587867 12.091137-43.852929 17.866008-64.064979 26.167385-125.783916 53.05663-224.859052 171.802421-190.570753 355.154586 5.594407 30.498539 14.076249 59.372896 23.640879 85.179352l60.094755-45.477112c-10.28649-30.859469-16.602755-60.816613-16.963685-89.149576-1.624183-72.005427 30.498539-136.431335 111.888132-195.443301 25.806456-18.587867 51.071518-31.039933 75.795186-38.619452 43.852929-13.173925 86.442605-10.106025 127.769028 2.887436 21.114373 6.49673 41.506888 15.700431 62.079866 26.528315 2.165577-1.804647 4.511618-3.609295 6.85766-5.053012 18.948796-13.895784 39.160846-28.332962 59.011966-42.950606l-3.248365-2.165576c-20.21205-14.978572-40.785029-27.250174-55.763601-41.145958-2.887436-2.526506-5.774871-5.413942-8.301378-8.301378-16.602755-18.587867-19.129261-56.846389-1.263253-72.366356 2.887436-2.526506 6.135801-3.609295 9.564631-3.970224 16.241826-1.443718 37.536664 14.256714 54.500348-30.859469 18.046473-48.003618-27.069709-78.502157-54.500348-78.141227-3.42883 0-6.677195 0.360929-9.384166 1.082788-24.182274 9.023236-19.490191 29.415751-34.829693 24.362739-15.700431-5.053012-41.326423-3.609295-55.583136 41.506887-14.076249 45.116182 20.392514 85.540281 6.316266 82.291916-13.35439-9.023236-41.506888 5.413942-34.288299-12.99346 3.970224-16.061361 30.318074-68.035203-16.78322-102.68443-14.978572-10.466954-32.483651-13.173925-52.154306-7.21859-7.759983 2.165577-15.880896 5.774871-24.543203 10.827884-19.129261 10.827884-30.679004-1.082788-51.071518 14.978573-44.755253 40.06317-23.099485 104.489078 21.836232 105.932795z m250.304579-84.096564c6.677195-2.526506 14.617643-3.248365 24.001808-1.082788 13.35439 3.248365 2.706971 31.761792-4.692083 27.250174-6.316265-4.331153-12.99346-5.413942-19.129261-4.331154-4.692083 0.721859-9.384166 3.248365-12.271601 6.677195-11.730207 13.35439-13.895784 40.06317-15.700432 41.506888-6.677195-6.85766-1.624183-57.929178 27.972033-69.83985z m-196.706554 17.144149c3.248365 0.721859 6.135801 2.165577 9.023236 3.609295 18.948796 9.564631 27.430639 40.785029 9.564631 59.733825-7.399054 7.940448-7.759983 0.360929-2.346042-9.745095 9.384166-18.226938-3.248365-32.483651-16.241825-37.897593-4.872548-1.804647-9.564631-2.526506-13.534855-2.165577-9.384166 1.443718-19.490191 11.188813-22.016697 26.889245-2.165577 12.812996-19.129261 7.579519-18.587867-8.662307 3.970224-30.498539 31.942257-38.258522 54.319883-31.761793z" fill="#BE9C78" p-id="18282"></path><path d="M1720.009326 663.185499c3.248365-2.526506 6.135801-5.053012 8.842772-7.579518-40.965493-31.220398-107.196049-81.209128-173.246139-131.017393-67.132879-50.891053-134.085293-102.143036-174.870322-133.904829-2.887436-2.526506-6.135801-4.692083-9.384166-7.218589-3.248365 2.526506-6.677195 4.692083-10.106025 7.218589 59.55336 44.033394 129.934604 98.894671 194.180048 149.244331 66.77195 51.973842 127.408098 98.533742 164.403368 123.257409zM1072.86281 302.977901c30.859469-11.549743 60.636149-17.505079 83.374705-15.700431 21.114373 1.443718 57.026854 11.730207 83.013775 23.640879 3.789759-2.887436 7.399054-5.413942 11.188813-8.481842-17.324614-8.842772-34.649228-16.061361-52.154306-21.475303-40.424099-12.812996-82.291916-15.339502-125.422987-1.804647-23.099485 7.218589-46.920829 18.948796-71.103103 36.273411-77.058439 56.124531-107.737443 115.677891-106.474189 182.269375 0.721859 26.167386 6.135801 53.41756 15.700431 82.652846l10.286489-7.940448c-6.316265-31.581327-9.023236-64.786837-8.481842-93.480729 1.804647-81.209128 84.096563-146.717824 159.89175-176.133575zM1446.966192 332.574117c-18.046473 10.647419-39.882705 25.445527-64.425908 42.950605 1.082788 1.082788 2.165577 1.804647 3.42883 2.887436 39.341311 30.498539 104.128148 80.126339 169.45638 129.573675 70.200779 53.41756 140.942953 107.015584 182.81077 138.235982 18.407402-18.587867 33.20551-39.341311 42.048282-62.260332l-73.449145-59.011966s-82.83331-60.455684-151.409907-110.985808c-38.799917-28.693892-73.26868-54.319883-85.359816-63.704049-7.218589-5.774871-14.978572-11.730207-23.099486-17.866008z" fill="#BE9C78" p-id="18283"></path><path d="M1330.746907 622.580935s-121.633227-89.149576-151.048977-108.098372c-16.42229-10.827884-107.556978-84.096563-188.946571-147.981077-20.031585 16.061361-37.175734 34.829693-49.98873 55.583136 86.442605 63.34312 158.808961 112.790455 159.169891 113.151385l0.541394 0.360929 138.055517 110.263949c2.165577 1.804647 21.475303 17.866008 18.948796 24.001809-2.706971 6.135801-21.836232-9.745095-24.182273-11.549742l-137.875053-110.263949c-46.5599-31.581327-101.601642-70.922638-145.995965-106.293726-3.789759-3.248365-8.301378-6.85766-13.534855-10.827883-1.082788 1.804647-1.804647 3.970224-2.887435 5.774871l320.685822 243.446919c31.581327-14.256714 56.304995-34.288298 77.419369-57.568249zM54.861277 287.097005c18.587867 16.78322 39.70224 11.008348 55.944066-2.526506 18.948796-15.700431 31.761792-41.506888 27.430639-53.05663-3.42883-9.384166-21.294838 8.301378-27.430639-6.49673-0.180465 0-0.180465-0.360929-0.541394-1.082789-3.970224-11.730207-3.248365-20.031585 0.541394-25.445526 10.647419-16.78322 44.755253-8.301378 46.92083 17.866008 6.135801 75.975651 63.34312 135.348546 116.219285 153.214554 9.384166 2.887436 18.587867 4.692083 27.430638 5.053013 56.665925 2.165577 96.909559-59.011966 94.924448-43.311535-4.331153 32.303186 12.271602 64.064979 47.281758 97.811883 18.948796 18.226938 58.290107 36.814805 92.578406 35.732016 29.596215-1.443718 61.718937-20.753444 68.035203-29.415751 13.895784-18.948796 25.084597-27.972033 32.664116-19.309726 7.399054 8.842772 7.218589 25.445527-7.759984 29.415751-14.617643 3.609295-22.919021 30.679004-2.346041 50.710588 5.594407 5.413942 12.812996 8.301378 21.114373 9.023237 22.016697 1.443718 51.432448-14.256714 73.088215-42.950605 30.13761-39.70224 2.706971-62.621261 10.827884-99.436066 9.564631-44.033394-13.534855-76.69751-36.99527-86.983999-23.460415-10.106025-47.281759 2.165577-46.5599-6.85766 0.360929-3.609295 0-7.218589-0.541394-10.827883-6.135801-39.341311-58.470572-60.816613-81.389592-21.475303-5.053012 8.301378-3.42883 1.443718-12.452067-3.970224-16.963684-10.106025-44.935717-1.804647-49.447335 47.281759-5.053012 57.026854 41.687352 68.757062 50.349659 53.778489 8.301378-14.617643 33.746904-10.106025 33.025045 10.647419-2.706971 54.139419-61.899402 45.116182-83.194239 24.001809-46.920829-46.920829-49.447336-105.210937-1.804648-147.620148 49.447336-44.033394 98.533742-32.844581 145.274107-3.609295 41.506888 25.806456 81.389593 65.508696 117.843467 93.1198 1.624183 1.082788 3.248365 2.526506 4.872548 3.609295l50.530124 38.258522c1.082788-2.165577 1.804647-4.692083 2.887436-6.857659-20.572979-15.700431-40.785029-31.220398-58.290108-44.755253-26.889245-21.114373-47.642688-37.175734-53.778489-42.950605-22.919021-21.114373-44.213858-36.814805-64.064978-48.364548-24.543203-14.437178-46.740365-22.197162-66.591485-25.445526-40.965493-6.85766-116.580215 21.475303-119.46765 92.397941v0.360929c-6.677195 124.520663 137.333658 155.019202 139.138305 68.035203 0.902324-38.980381-36.453875-35.732016-54.319883-22.558091-9.023236 6.49673-18.587867-19.309726-5.413942-33.025046 31.039933-30.498539 78.682622 12.812996 75.795186 59.011966-4.872548 69.47892-77.960763 83.735634-123.798804 44.755253C461.989705 366.321021 448.635315 325.175063 451.161821 275.727727c4.692083-85.179352 80.126339-114.595103 131.378322-105.932795 19.490191 2.887436 41.326423 10.466954 65.147767 24.001809 21.475303 12.271602 44.935717 29.054821 70.020315 51.973841 14.256714 13.534855 30.498539 27.250174 47.823153 41.867817 19.490191 16.42229 40.424099 33.20551 62.079866 49.808265 10.827884-23.27995 25.084597-44.755253 41.326423-63.704049-5.053012-3.248365-8.842772-5.774871-11.369278-6.857659-22.377626-11.188813-63.523584-36.453875-91.856546-62.982191-12.99346-12.812996-23.460415-25.445527-27.430639-37.175734-9.384166-26.528315 13.534855-33.025045 27.430639-29.77668 5.774871 1.443718 10.106025 4.331153 10.106024 8.662307 0 13.895784 45.838041 43.672464 77.238904 29.054821 31.400863-14.978572 35.912481-52.695701 22.016697-97.811882-7.399054-24.001809-34.288298-38.258522-53.05663-33.025046-16.241826 3.970224-27.611103 16.42229-32.664116 0.36093-5.053012-15.700431-12.812996-26.167386-23.640879-32.664116-13.35439-7.940448-30.859469-9.023236-52.695701-4.692083-38.799917 7.579519-58.470572 73.449144-58.470572 73.449145-2.346041-0.721859-4.511618-1.082788-6.677195-1.804648-160.433144-38.619452-205.188396 140.040629-330.430918 176.494505-18.407402 5.413942-32.483651 5.053012-43.672464 1.082788-32.664116-12.271602-36.63434-58.109643-30.498539-86.62307 3.970224-18.587867 18.407402-29.054821 30.498539-29.77668 3.248365-0.360929 6.49673 0.360929 9.023236 1.443718 9.92556 4.692083 14.437178 21.836232 14.437179 21.836232 1.263253 11.730207-16.78322 7.579519-23.460415 18.226938-1.263253 2.165577-2.346041 5.053012-2.346041 8.662307-0.360929 6.85766 0.721859 13.173925 2.346041 18.226937 10.106025 31.039933 48.725477 37.536664 75.253792 17.505079 31.039933-23.640879 61.177543-73.088215 45.838041-138.957841-9.564631-40.424099-46.5599-59.372896-68.396132-52.695701-14.076249 3.970224-19.670655 14.978572-20.933909 6.85766-2.706971-13.895784-17.324614-22.197162-31.761792-26.528315-10.28649-2.887436-20.753444-3.970224-25.986921-3.609295-45.477112 3.248365-74.712398 40.785029-82.291916 66.230556-3.248365 11.369278-0.902324 14.617643-6.85766 13.173925-30.318074-7.218589-38.619452 2.887436-47.823153 9.023236-4.331153 3.248365-8.842772 5.413942-15.880896 4.692083-22.016697-2.165577-14.617643-18.226938-5.233477-40.06317C99.255601 42.206369 45.296647 9.361788 12.271602 74.509555 3.42883 91.653704 0.360929 104.647165 0.360929 115.294584v0.721859c0 29.054821 24.182274 39.341311 23.64088 65.869626-0.541394 36.453875-9.023236 69.83985 31.039933 105.932795z m593.187563 151.048978c3.970224-9.384166 5.594407-20.392514 5.594406-20.392514 0.541394-3.248365 1.082788-6.85766 6.49673-5.413942 5.053012 1.443718 4.511618 5.053012 3.970225 8.301377 0 0.360929-3.789759 26.167386-15.880897 38.619452-2.887436 2.887436-6.316265 4.692083-10.106024 5.774871-2.706971 0.360929-5.233477 1.082788-6.135801-6.1358-0.902324-6.85766 1.804647-7.579519 4.511618-7.940448 5.053012-1.082788 9.023236-6.49673 11.730207-12.812996z m117.843467-338.010436c21.836232-0.360929 43.672464 11.008348 53.237095 33.20551 1.263253 22.919021-24.723668 18.587867-28.693892 9.384166-3.789759-13.173925-13.534855-21.475303-24.543203-24.723668-13.895784-3.609295-29.77668 1.443718-37.717128 17.144149-2.706971 5.053012-4.331153 10.827884-4.511618 17.866008-2.346041 27.972033 24.001809 52.334771 19.670655 53.41756-4.150689 3.609295-28.693892-23.640879-30.318074-53.778489 1.263253-35.371087 26.889245-52.334771 53.05663-52.334772z m-504.57938 9.92556c4.331153-1.443718 8.481842-2.165577 12.452066-1.804648 43.852929 0.360929 80.126339 78.863086 30.679004 109.542091-13.35439 5.053012-25.806456-24.723668-15.339502-30.679004 34.288298-13.895784 14.978572-65.508696-15.159037-65.147767-3.248365 0-6.677195 0.721859-10.106025 1.804647-32.483651 17.144149-43.13107 69.117991-23.460415 109.181161 7.940448 18.587867 20.572979 27.611103 33.56644 31.581327 26.34785 7.940448 54.861277-4.692083 54.319883-2.165577 0 4.692083-27.069709 18.226938-54.319883 12.632531-15.880896-2.887436-31.581327-12.271602-42.228747-34.107833-22.377626-45.477112-13.895784-116.03882 29.77668-131.017393zM122.174621 175.208874c0.541394 1.443718-6.135801 9.384166-9.56463 13.895784-0.541394 0.721859-1.263253 1.443718-1.804648 2.526506-8.301378 11.910672-13.35439 34.468763 0 44.033394 1.082788 0.721859 2.346041 1.443718 3.970224 2.165576 5.594407 2.526506 16.42229 3.609295 12.271602 13.895784-2.165577 5.774871-9.023236 14.617643-16.241826 10.647419a9.943607 9.943607 0 0 1-3.248365-2.526506c-26.70878-29.415751-10.106025-62.98219 3.248365-77.419368 5.594407-6.135801 10.466954-9.023236 11.369278-6.85766zM64.967302 57.365406c2.346041-1.443718 11.910672-1.804647 13.895784 5.053012 1.804647 6.49673-0.541394 7.940448-3.248365 9.023237 0 0-6.316265 3.248365-9.384166 10.466954-1.082788 2.526506-1.624183 6.135801-1.263253 9.92556 1.263253 26.528315 34.107834 20.031585 45.838041 21.475303 1.804647 0.360929 3.248365 0.721859 3.78976 1.804647 0.180465 1.082788-1.082788 2.526506-3.78976 3.609295-11.369278 5.053012-44.213858 8.301378-52.154306-8.301378-7.759983-15.700431-7.218589-42.950605 6.316265-53.05663z" fill="#BE9C78" p-id="18284"></path></svg>