<?xml version="1.0" standalone="no"?><!DOCTYPE svg PUBLIC "-//W3C//DTD SVG 1.1//EN" "http://www.w3.org/Graphics/SVG/1.1/DTD/svg11.dtd"><svg t="1784387916515" class="icon" viewBox="0 0 1024 1024" version="1.1" xmlns="http://www.w3.org/2000/svg" p-id="13981" xmlns:xlink="http://www.w3.org/1999/xlink" width="200" height="200"><path d="M896.7 513.8c-11.2 9.8-23.6 19.2-34.1 30.3-29.4 31.1-44 68.5-43 111.4 1 45.3-18.7 79.2-56 103.2-8.3 5.3-12.1 10.8-14 20.6-8.5 42.8-36.2 68.5-77.2 80.2-11.1 3.2-23.3 2.7-34.9 4.4-3.6 0.5-7.9 1.6-10.3 4-60.2 61.2-159 79.2-240.4 38.3-57.5-28.9-94.7-74.8-102.9-139.6-12.1-95.8 48.3-164.3 136.5-175.5 25.2-3.2 50.3-0.9 73.7 8.4 63 25 83.3 106.2 28.5 154.4-33.2 29.2-71.8 33.7-112.8 18.3-8.7-3.3-12.7-14.2-9.3-23.3 3.7-9.9 15.4-15.7 25.6-12 13.9 5 27.9 6.3 42.2 2.5 38.5-10.4 56.1-51 36.2-83.4-10.1-16.4-25.4-24.2-44.4-27.1-52.4-8-106.9 20.2-126.6 68.2-14.6 35.5-13.2 71.9 4.2 106.1C391.3 908.6 541 919.9 610.3 824c2.8-3.8 5-3.9 9.1-2.6 35.9 11.4 73.4-5.3 86.2-38.2 5.6-14.4 4.8-28.9-0.8-43.9 4-0.9 7.5-1.6 11-2.4 35-8 61.2-39 62.2-73.3 0.4-14.3 0.1-28.7 2.2-42.8 5.7-38.2 22.2-71.7 48.5-100.1 4.5-4.9 4.9-7.8 0.2-13-36-39.7-53.1-86.4-51.1-140 1.3-35-25.6-67.9-62.4-76.4-3.3-0.8-6.6-1.5-9.3-2 1.1-8.9 3.3-17.3 3-25.7-1-29.9-24.6-55.4-56-59.2-11.1-1.3-22.8 1.1-34.1 2.7-3.9 0.6-6 0.8-8.5-2.7-63.5-86.4-194.4-88-258.8-2.4-31.3 41.6-37.6 88.3-15 135.9 21.6 45.2 74.7 69.4 125.2 61.1 24.3-4 40.9-16.9 48.3-40 9.8-30.5-10.3-62.3-43.4-70.4-13.6-3.3-27-2.1-40.2 2.6-14.7 5.2-29.6-6.4-26.7-21.4 0.9-5 5-11.5 9.3-13.4 52.8-22.5 115.3-0.3 137.4 50.5 21 48.2-4.2 105.7-54.5 122.6-61.9 20.8-129.2 3.8-171.9-42.3-28.6-30.8-38.7-68.4-37.7-109.1 1.9-78.1 56.1-141.1 125.9-165.3 66.4-23 129.7-15.4 188.8 23 10 6.5 18.9 14.7 27.8 22.8 4.4 4 8.4 6 14.6 5.9 36-0.3 66.3 12.5 89.8 40.2 11.3 13.3 18.8 28.8 20.6 46.2 0.9 8.7 4.8 13.1 11.9 17.4 31.3 19 51.1 46.4 56.6 83 2 13.4 0.7 27.2 2 40.8 4.1 42.5 23.6 77.2 55.5 105.2 6.6 6 13.9 11.2 20.7 16.5z" p-id="13982"></path></svg>