<?xml version="1.0" standalone="no"?><!DOCTYPE svg PUBLIC "-//W3C//DTD SVG 1.1//EN" "http://www.w3.org/Graphics/SVG/1.1/DTD/svg11.dtd"><svg t="1784387066126" class="icon" viewBox="0 0 1193 1024" version="1.1" xmlns="http://www.w3.org/2000/svg" p-id="7343" xmlns:xlink="http://www.w3.org/1999/xlink" width="233.0078125" height="200"><path d="M436.709238 744.334726s-25.023707 21.433582-66.069017 16.075187c0 0-90.181797 2.679198-96.45112 2.679198s-67.890872 10.716791-89.324454 41.956237c0 0-48.22556 66.069017-55.352226 82.144204 0 0-41.956237 76.785808-73.195683 62.532476l-30.382103-17.843457-14.306916 0.857343s-11.627718 7.126666-11.627718 11.627718 5.358396 3.590125 5.358395 3.590125l8.037593-0.910927h11.627719s20.522655 22.344509 41.098894 21.433582l35.686914-10.716791s69.659142-61.621549 80.375933-60.710621c0 0 58.031424-29.471176 135.72816-6.269323 0 0 118.742045 44.689019 165.199335 36.597842 1.446767 0 11.681302 1.125263 22.344509-0.80376 15.914435-2.83995 33.918644-9.002105 33.918644-9.002104l2.679198 14.306916s5.465563 21.969422 17.843457 37.723105c5.626315 7.18025 9.162856 13.074485 20.576239 14.949923 5.358396 0.910927 28.560248 16.075187 48.22556 15.16426 8.948521 0.910927 39.277039-6.269323 45.546362-11.574135 0 0 14.306916 18.754384 31.239446 26.791978 0 0 22.344509 15.164259 70.57007 6.269323 0 0 46.457289-22.344509 48.22556-32.150374 0 0 9.805864-15.164259 9.805863-22.290925l0.857344-5.358396s24.11278 8.037593 44.689019 2.679198c0 0 38.419696-17.843457 42.867164-42.867164 0 0 8.037593-26.791978 3.590125-37.508769 0 0 15.164259-4.447468 20.522655-9.805864 0 0 20.522655 37.508769 75.017538 27.702905 0 0 60.710622-7.126666 78.554079-59.853278 0 0 39.277039 11.627718 65.211674-15.16426 0 0 58.888767-61.889469 4.822556-106.685655-10.234536-8.519849-21.915838-15.700099-44.956939-19.23664 0 0 7.126666-64.300747-69.659142-53.583956 0 0 5.358396-23.201853-4.447469-41.098894 0 0-14.306916-37.508769-73.249267-43.778091 0 0-24.11278-7.126666-55.352226 7.126666l-2.679198 3.590125-6.269322-13.395989s41.098894 1.768271 66.069017-27.649321c0 0 21.433582-30.328519 16.075186-53.583956 0 0 32.150373 0 56.20957-12.485061 0 0 44.689019-23.201853 54.494883-59.799695 0 0 11.627718-38.419696-20.522655-66.069017 0 0 22.344509-19.665312 19.665311-46.45729 0 0 11.574134-42.867164-50.047414-67.837287l-22.290926-6.269323s2.679198-16.075187 0.910927-22.344509c0 0 1.286015-19.50456-15.646515-38.7412-24.434284-27.756489-77.107312-54.119795-145.105351-13.020902 0 0-9.537944-16.986114-27.381401-28.18516-35.794082-22.451677-99.612573-40.402302-148.534725 17.468369l-31.239446-2.679197s12.485062-78.554079-83.966059-78.554079c0 0-39.277039-108.078838-145.534023-16.075187 0 0-16.289522-14.038996-38.848368-18.325713-21.862254-4.179549-72.391924 8.894937-99.773325 29.417592-11.52055 8.627017-23.148269 31.936038-27.220649 44.689019-2.143358 6.697994 4.87614-1.232431-0.26792 9.48436 0 0-36.597842 5.358396-54.494883 24.11278-3.536541 0.910927-52.673028 53.583956-49.136487 83.966058 0 0-12.485062 45.546362 49.136487 76.785809 7.126666 1.768271 58.031424 8.948521 80.375934-0.910928 2.089774-0.910927 3.697293-1.607519 5.144059-2.250526-2.518446 4.661804-25.077291 51.654933 52.887364 89.753126l-9.805863 18.754384s-35.740498-26.791978-75.928465-16.986114c0 0-15.110675 5.304812-28.131577 16.557443-14.306916 12.32431-26.738394 31.346614-27.22065 49.511574 0 0-2.57203 23.898444 4.447469 45.546363 0 0-37.508769 24.11278-41.098894 55.352226-3.590125 31.239446-3.590125 61.621549 7.126666 77.696735s35.740498 39.277039 61.621549 46.403706l31.239446-0.857344s5.358396 49.993831 32.150373 65.211674c0 0 20.522655 24.11278 75.928465 21.433583 4.447468-0.910927 27.702905 0 52.673028-31.239447l5.358396-7.126666s9.805864 16.986114-6.269323 30.382103z m482.202016-158.983596s28.560248-22.344509 51.815685-15.164259c0 0 35.686914 1.768271 64.300747 34.829571 0 0 17.843457 25.023707-2.679198 63.389819l7.126666 1.768271 12.485062-12.485062s37.508769-8.037593 56.263153 14.253332c0 0 15.164259 17.897041-7.126666 36.597842v4.501052s12.485062 0.910927 16.075187-3.590125c0 0 21.433582-2.679198 42.867164 14.306916 0 0 17.843457 17.843457 19.665312 25.023708 0 3.536541 5.358396 67.837288-54.441299 82.144204l-10.716791 0.910927-12.485062-6.269323-15.217843 11.574134s-2.679198 17.843457-14.253332 26.791978c0 0-44.635435 47.368217-110.704453 11.627719l-7.126666-11.627719s-7.18025-8.037593-14.306916-8.037593l-3.590125 6.269323s-13.985412 11.78847-36.490673 10.020199c-26.41689-2.03619-61.889469-20.736991-59.960447-68.96255 0 0 0.910927-9.805864 6.269323-8.948521l1.768271-7.126666s-42.867164-24.11278-25.881051-78.607663c0 0 12.485062-40.187967 66.979944-49.082903 0 0 59.853278-9.805864 58.942352 41.956237 0 0 8.948521 49.993831-42.867165 49.993831l-9.805864-8.037594-1.76827 7.18025 7.126666 9.805864 25.023707 1.768271s27.113482-9.859448 34.079396-37.455185c0.321504-1.125263 0.53584-2.357694 0.750175-3.590125 5.358396-30.328519-12.485062-58.942351-30.328519-67.837288 0 0-26.791978-12.485062-64.300746 0.910927 0 0-24.11278 4.447468-51.815685 43.778092 0 0-23.201853 47.314633 13.395989 87.502599l2.679197 8.037594s-32.150373-17.843457-44.635435-17.843458h-44.635435l-37.508768 17.843458-10.716792-11.627719s34.829571-4.447468 47.314633-12.485061c0 0 39.277039-19.665312 44.635435-53.583956 0 0 0.910927-30.382103 0.910927-33.918644s-24.11278-35.740498-29.471175-39.277039c0 0-30.382103-15.164259-71.427413-8.948521 0 0-44.635435 8.948521-47.314633 46.45729 0 0 0.910927 41.04531 27.649321 31.239446 1.768271-3.590125-8.894937-8.894937-8.894936-8.894937s-17.843457-32.150373 10.716791-49.136487c0 0 18.754384-23.201853 69.659142-1.768271 0 0 28.560248 14.306916 28.560248 39.27704 0 0 2.679198 66.979944-30.328518 66.069017 0 0-33.918644 21.433582-63.38982 11.574134 0 0-28.560248-0.910927-34.829571-9.805863l-2.679198-3.590125-14.306916-10.716792s-25.023707 24.11278-73.195683 1.768271c0 0-66.069017-21.54075-9.805864-87.502599l36.597842-20.522655 2.679197-9.805864 2.679198-15.16426s0.910927-14.306916 12.485062-26.791977c0 0 33.918644-43.778092 86.591672-25.934635 0 0 27.702905 13.395989 34.829571 20.522655l7.126666 4.447468 4.501052-4.447468s-12.485062-12.485062 11.627719-35.740498c0 0 23.201853-28.560248 66.069017-25.881051 0 0 58.031424 42.867164 88.413527 37.508769 0 0 29.471176 11.627718 6.215738 44.635435l1.768271 6.269323 7.18025-2.679198s10.716791-12.485062 13.395989-19.665312z m-253.612861-151.803346c-3.590125-45.546362-34.829571-62.478892-34.829572-62.478892 8.037593 5.358396 44.635435 6.269323 44.635435 6.269323 28.560248 40.187967 99.987661 13.395989 99.987661 13.395989l-1.76827 8.94852c-25.881051 59.799694 22.344509 110.704452 22.344509 110.704453l-4.447468 1.76827c-56.263153-1.768271-80.375933 51.815685-80.375933 51.815685l-16.986114-7.126666-0.910927-5.358396c11.627718-3.590125 17.843457-37.508769 17.843457-37.508768v-41.098894c-8.948521-28.560248-45.546362-39.277039-45.546362-39.27704z m25.023707-280.404839l7.126666 5.358395 8.94852-3.590125s-6.269323-20.522655 21.433583-29.471175c3.590125-2.679198 30.382103-10.716791 30.382102-10.716791s32.150373-10.716791 57.174081 2.679198c0 0 36.597842 16.075187 42.867164 35.740498 0 0 5.358396 17.843457-1.76827 33.061301l0.910927 7.126666 14.306916-12.485062s-3.590125-31.239446 38.419696-41.956237c0 0 62.532476-8.037593 88.413527 22.344509 0 0 43.778092 41.098894 8.037593 65.211674l-4.447468 3.590125 7.126666 6.269323 16.986114-0.910927s17.843457-6.269323 32.150373 4.447468c0 0 34.829571 21.433582 35.686915 41.956237 0 0 3.482957 10.288119 0.160752 22.773181-3.643709 13.663909-14.89634 29.739095-34.990323 33.489973l0.910927 6.269322 13.395989 3.590125s32.150373 21.433582 16.075186 65.15809c0 0-29.471176 64.300747-88.413526 44.635435l-8.037594-1.76827-8.037593 2.679197-9.859448 0.857344s4.661804 18.754384 2.411278 36.919345c-2.30411 18.432881-11.681302 36.276338-25.61313 37.187265 0 0-8.948521 26.791978-75.017538 7.126666 0 0-79.465006-16.93253-95.540193-87.502599 0 0-6.269323-51.815685 7.126666-66.069017 0 0 23.201853-10.716791 41.098894-26.791978 0 0 36.597842-20.522655 61.621549-2.679198l19.665312 14.306916s23.201853 34.829571 6.269322 48.22556c0 0-8.948521 30.382103-38.419696 18.754385h-6.269322l2.679197 6.269323 6.269323 6.269322h15.16426s25.023707-8.037593 38.419696-38.419696c0 0 8.948521-18.754384-9.805864-48.22556 0 0-28.560248-32.150373-79.465006-21.433582 0 0 12.485062-24.970123 16.075186-34.829571 0 0 1.768271-47.314633-32.150373-63.389819 0 0-31.29303-34.829571-95.540193-5.358396 0 0-32.150373 32.150373-30.382102 44.635435 0 0 7.126666 37.508769 14.253332 45.546362l14.306916-0.910927 2.679198-5.358396s-20.522655-3.536541-14.306917-43.778091c0 0 16.075187-33.061301 33.061301-33.061301 0 0 44.635435-14.306916 61.621549 8.037593l24.11278 27.649322s11.574134 19.665312 5.358395 35.740498c0 0-23.201853 67.837288-95.540192 66.979944l-27.702905 0.910928s-28.560248-8.948521-37.508769-18.754385l-20.522655-4.447468-20.522655 1.76827s-59.853278-25.023707-32.150373-81.28686c0 0 8.037593-12.485062 22.344509-16.986114l14.306916-12.485062-10.716791-2.679198s-36.651426-25.023707-20.522655-73.249267l14.253332-15.164259s35.740498-24.11278 59.853279-9.805864z m-80.375934 208.977427l-14.306916-0.910928-26.791977-4.447468 22.344509-21.433582 7.126666 10.716791 7.126666 1.76827-0.910927 5.358396 5.358396 8.948521zM311.69787 272.795918l-12.485062-3.590125s-97.362047 37.508769-116.062847-48.22556c0 0-0.910927-0.107168-1.018096-0.26792-1.607519-4.286716-15.592931-55.566562 73.356436-106.846407h16.075186l8.948521 8.037593 7.126666 0.910927-0.910927-22.344509s-12.485062-26.791978 33.918644-55.352226c0 0 45.546362-33.918644 91.092724-9.805864 0 0 18.754384 6.269323 19.611728 24.11278l7.126666-2.679198s28.560248-39.277039 62.532476-42.867165c0 0 36.597842-7.126666 48.22556 14.306917 0 0 20.522655 12.485062 16.986114 36.597841l4.447468 5.358396s0-4.447468 8.948521-4.447469c0 0 29.471176-2.679198 33.0613-0.910927 0 0 25.452379 7.876841 39.169872 30.971527 5.894235 9.913032 6.697994 22.612429 7.287418 38.687615 0 0-56.263153 16.075187-62.532476 61.621549 0 0 1.768271 43.778092 23.201852 58.942351l-13.395989 9.805864s-25.881051-37.508769-41.956237-38.419696l0.910927-8.037593s9.805864-1.768271 14.306917-1.768271 13.395989-7.126666 13.395988-7.126666 5.358396-7.126666-5.358395-6.269323l-7.126666 1.768271-19.665312-1.768271-8.94852 0.910928-3.590125 17.843457s2.679198 0 3.590125 8.037593c0 0-7.126666 31.239446-37.508769 33.918644 0 0-37.508769 18.754384-81.286861-15.164259 0 0-51.762101-33.489972-19.343808-81.661949 3.965213-5.894235 12.699397-11.145463 19.343808-17.468369 0 0 33.061301-19.665312 47.314633-8.948521l15.164259 8.948521h8.948521l-1.768271-16.986114-41.098894-5.358396s-45.546362 9.805864-65.211673 45.546363c0 0-18.754384 58.031424 31.239446 92.860995 0 0 59.853278 31.239446 100.898588 4.447468 0 0 25.881051-11.627718 33.918644-29.471176 0 0 16.39669 0.803759 29.524759 31.453782 0.589424 1.339599 1.125263 2.786366 1.714687 4.233133 0 0-8.037593 27.702905-6.269323 42.867164 0 0-39.277039 73.195683-113.38365 33.007717V334.363883l-9.805864-0.910928s-18.754384 41.956237-106.256984 29.471176c0 0-72.33834-25.934634-46.457289-90.181797z m132.138034 411.68553h-4.447468l-1.768271 10.716791s-11.574134 30.328519-34.829571 30.328519c0 0-3.161453 5.41198-10.877543 7.341002-18.7008 4.768972-55.512978 6.751578-75.767713-10.931127 0 0-43.778092-30.382103-27.702905-70.570069l-1.76827-4.447469s-5.358396 12.485062-42.867165 3.536541c-1.768271-7.126666-94.682849-14.253332-43.778091-138.407357l20.522655-17.843457 3.590125-3.536541 4.447468 6.269323 6.269323-3.590125s-31.239446-35.740498 1.76827-80.375934c0 0 25.881051-46.403705 88.413527-25.023707l8.037593 9.805864 11.627719 9.805864s2.679198 3.536541 26.791977-29.471176c0 0 43.778092-7.126666 58.031424 6.269323 0 0 30.328519 25.881051 35.686915 29.471176 0 0 19.665312 6.269323 28.560248 0 0 0 22.344509-13.395989 32.150373-26.791978 0 0 24.11278-25.881051 68.748215-19.665312 0 0 39.277039 11.627718 42.867165 23.201853 0 0 19.665312 30.328519 13.395988 39.277039l7.126667 24.11278 13.395988-1.76827s29.471176 8.037593 28.560249 26.791978c0 0 15.164259 39.277039-21.433582 66.979944l-3.590126 3.590125h-16.986113l-24.11278-0.910927s-60.710622 18.754384-67.890872 47.314633l-31.239446-4.447469s-59.853278-33.918644-17.843457-96.45112c0 0 31.239446-33.061301 52.673028-23.201853 0 0 26.791978 6.269323 30.328519 29.471176 0 0 2.679198 4.768972 0.857343 10.395287-1.768271 5.519147-7.984009 11.895638-7.984009 11.895639l8.037593 6.269322 6.269323-5.358395v-4.447469l5.358395-2.679197 2.679198-8.037594s-4.447468-29.471176-24.11278-41.04531c0 0-19.665312-13.395989-47.314633-8.037593 0 0-38.419696 19.611728-46.457289 38.366112 0 0-16.075187 18.754384-6.269323 54.441299 0 0 15.164259 34.829571 25.023707 41.956237 0 0 3.911629 11.949222 1.339599 27.434986-2.143358 12.806565-10.663207 28.077993-19.558143 41.098893-9.645112 14.253332-20.415487 25.827467-40.723807 28.774585 0 0-13.395989 0.910927-13.395989-8.037594z m8.037594 25.934635l1.76827-5.358396s16.986114 3.590125 30.382103-13.395989c0 0 22.290926-21.433582 31.239446-48.22556 0 0 12.485062-32.150373 10.716791-43.778092 0 0 24.11278 13.395989 33.061301 9.805864l-0.910928 18.754385s-37.508769 24.11278-40.187966 35.740498c0 0-32.150373 56.263153 0.910927 79.465006 0 0 41.956237 35.740498 96.45112 16.075187 0 0 16.075187 8.037593 16.075187 12.485061 0 0-47.314633 7.126666-62.532476 35.740499l2.679197 11.574134s29.471176-28.560248 36.597842-29.471175c0 0 66.979944-19.665312 85.734329 10.716791l8.037593 8.94852 12.485062-3.590125s16.075187-16.075187 32.150373-17.843457c16.075187-1.768271 62.532476-6.269323 80.375933 22.290926l1.768271 4.447468s-4.447468 28.560248 17.843457 49.082903c0 0 32.150373 25.023707 65.15809 20.576239 0 0 13.395989 22.344509 3.536541 28.560248 0 0-17.843457 38.419696-43.724508 38.419697 0 0-27.702905 13.395989-45.546362-12.538646 0 0 2.679198 16.075187-4.447468 25.934634 0 0-15.164259 43.778092-70.57007 47.314633 0 0-30.328519 14.306916-70.516485-28.560248l2.679198-5.358396-6.269323-6.215738s-25.881051 16.075187-40.187967 14.253332c0 0-78.607663 3.590125-84.823401-64.300747 0 0 12.485062-73.195683 96.45112-79.465006 0 0 41.098894-8.948521 66.069017 23.201853 0 0 14.306916 13.395989 9.859448 17.843457-3.590125 2.679198-9.859448 25.934634-16.075187 29.471175 0 0-26.791978 23.201853-50.904758 9.805864 0 0-11.627718-2.679198-14.306916-16.075186l-4.447468-1.768271 2.679198 11.574135s3.590125 24.11278 42.867164 23.201852c6.269323-2.679198 17.843457 0.910927 42.867164-21.433582 0 0 4.447468-5.894235 5.519148-13.342405 1.821854-12.59223 0.750175-29.471176 0.750175-29.471175s-16.771778-60.710622-107.650166-36.758594c-9.162856 2.411278-20.040399 7.501754-30.810775 11.734886 0 0-36.597842 25.023707-51.815685 57.174081l-26.791978 7.126666s-54.494883 9.805864-86.591672-5.358396c0 0-79.465006-22.344509-88.413526-28.560248 0 0-87.502599-17.897041-106.256984-9.859448 0 0-87.502599 21.433582-99.130318 47.314633l-25.023707 18.754384 22.344509-33.972227s25.881051-15.164259 34.829571-29.471176c0 0 26.791978-34.829571 72.33834-45.546362 0 0 32.150373-13.395989 140.229212 0.857343 0 0 62.532476 8.037593 92.860995-14.306916 0 0 16.075187-20.522655 16.986114-35.740498 0 0 2.679198-24.11278-6.269323-30.328519 0 0-5.358396-3.590125 0.857343 28.560248 0 0-7.126666 40.187967-41.956237 38.419696 0 0-68.748215 13.395989-108.078838-0.910927 0 0-5.626315 5.304812-16.235939 4.661804-31.56095-1.875438-100.094829-7.019498-138.246605 31.078694l-38.419696 38.419697s41.098894-75.017538 62.532476-83.912475c0 0 24.11278-35.686914 115.205504-29.471175l80.375934-2.679198s62.532476-2.679198 51.815685-62.532476z" fill="#D0BE92" p-id="7344"></path><path d="M462.643873 561.23835c-0.910927 16.075187-30.382103 41.956237-30.382103 41.956238-33.918644 25.934634-77.696736-6.269323-77.696736-6.269323-40.187967-55.352226 30.382103-84.823402 30.382103-84.823402C460.875602 493.347479 482.309184 529.087977 482.309184 529.087977l0.910928-7.126666c-4.447468-21.433582-49.136487-26.791978-49.136488-26.791978-67.890872-7.18025-92.860995 36.597842-92.860995 36.597842-24.11278 41.956237 8.037593 80.375933 8.037594 80.375933 36.597842 27.702905 66.069017 14.306916 66.069017 14.306916 41.956237-16.986114 50.904758-50.904758 50.904758-50.904758l-3.590125-14.306916z" fill="#D0BE92" p-id="7345"></path></svg>