<?xml version="1.0" standalone="no"?><!DOCTYPE svg PUBLIC "-//W3C//DTD SVG 1.1//EN" "http://www.w3.org/Graphics/SVG/1.1/DTD/svg11.dtd"><svg t="1784387058893" class="icon" viewBox="0 0 1364 1024" version="1.1" xmlns="http://www.w3.org/2000/svg" p-id="7195" xmlns:xlink="http://www.w3.org/1999/xlink" width="266.40625" height="200"><path d="M28.758509 323.712646c-11.338621-32.838843 5.061184-69.640319 48.336267-55.202214l1.608593 0.666978c5.649693-53.20128 88.943438-62.382032 112.40536-19.813161l1.569359 1.922465c31.112548-20.401671 70.778105-3.021017 81.096642 4.472674 14.28117-54.3783 65.167645-83.960723 116.603396-54.496002 29.817827-38.017729 91.885987-38.253133 106.912603 3.452591l2.236337 0.627743c61.126545-48.257799 141.399273 53.358216 48.218564 120.683731 1.020084 1.647827 7.88603 43.314317-40.214832 53.946726 3.021017 56.026127-28.993913 58.4194-76.623968 58.4194-10.671643 22.088732-41.07798 37.782325-64.186795 40.528704 0 0 24.599707 13.731894 27.777659 21.068648 43.039679-20.009331 70.385765 3.531058 88.433397 19.499289 0 0 11.809429-53.98596 49.16018-62.931308l2.236337-0.941615c-5.806629-38.567005 44.609038-70.974274 84.196127-51.043411 0 0 10.946281-51.749623 70.660402-43.157381h1.922466c25.580557-31.936462 76.231628-46.374567 104.087755-6.395139 16.399805-4.786546 28.993913-15.222785 61.322715-2.550209 0 0 15.340487 8.317604 14.987381 30.955612 24.325069-1.726295 61.793523 2.824847 74.073759 28.091531 24.128899-9.84773 17.262952-70.268063-18.518439-82.077491l-25.227451-2.550209c-17.184484 17.92993-78.624901 32.2111-91.650583 0.666978-41.980361 6.709011-96.829469-24.835111-76.93784-74.426865-36.2522-34.447437-16.439039-95.103174 39.273216-88.119525 28.483871-56.967743 98.12419-31.544122 121.978452 16.909847 24.678175-9.141518 65.873857 18.950014 65.442283 23.932729 0.627744-1.922465 4.786546-11.495557 4.786546-11.495557-10.946281-3.021017-27.58149-2.471741-33.858927-31.936462-107.265708 9.886964-63.63752-105.735583-15.968231-90.983605 7.062117-79.80192 63.676754-36.2522 74.740737-31.308718 11.927131-47.041545 92.513731-61.479651 112.40536 5.100417 42.843509-17.694526 57.713188-4.001866 77.918689 10.867814 32.132632-48.885542 91.572115-44.020528 124.175555 5.728161h14.359637c38.017729 7.964498 59.40025 56.850041 37.350752 90.04199 0 0-10.985515 20.715543-38.959345 21.068649-3.923398 0.039234-9.494624 1.255487-14.045766 0.313872-38.449303 46.453035-111.110639 8.435306-111.110638-44.059763-3.923398 11.574025-36.487604 39.783258-62.578202 26.169066l-0.313872 5.728162s20.127033 16.595975 22.049498 31.308718c4.865014-9.298454 71.445082-19.342353 81.724386 8.631476l3.217186 0.313872c34.565139-12.554874 62.538968 8.67071 71.131211 34.408203 6.277437 18.793078 2.197103 39.979428-17.184485 52.102729-0.98085 1.255487-9.886964 9.573092-9.886963 9.573091 3.491824 9.337688-4.276504 35.114414-15.026616 35.114415 12.947214 8.827646 64.500667 54.064428 12.476407 84.941572 4.080334 51.318049-8.86688 107.226474-80.78277 93.533814-12.162535 10.0439-30.916378 20.048565-46.2961 22.991114 0 70.856572-16.988314 105.029371-96.280193 92.945305-4.0411 21.57869-60.891141 40.057896-91.140541 34.133564l1.608593 4.472674c27.895362-5.178886 52.887408 1.098552 72.5044 6.748245 99.026572-62.185862 187.028395 44.13823 107.932686 90.002756l-15.968231 6.39514c17.53759 30.680974-11.024749 82.587533-60.027994 64.500667l-10.514707-4.786546c-5.885097 17.655292-29.150849 25.384387-36.134498 28.680041 7.768329 19.185417 5.139652 34.918244-16.870612 41.86266 7.650627 11.299387 12.51564 24.089665 4.158802 37.036879-82.077491 130.099886-421.019867-23.030348-412.859198 87.177909l1.608593 0.627744c-27.503022-6.395139 8.86688-44.13823 11.495557-45.354484 19.930863-18.793078 48.022395-38.567005 75.36848-45.158314 33.780459-8.160668 82.352129-7.964498 113.974719-8.788412 68.541768-0.117702 62.146628-60.027993 12.790279-60.027993h-4.472674c-28.326935 20.754777-84.941572 13.967298-93.259177-26.522172-38.567005-2.354039-65.991559-29.700125-59.400249-73.446016l0.980849-1.922465c-22.794944 30.798676-142.066251 67.09011-237.797168 57.556253-53.672088-5.335822-99.928954-25.109749-117.584246-68.424066-40.724874-10.789345-68.345598-30.680974-68.345597-75.996224l0.980849-1.608593s-17.576824-2.550209-20.754776-8.631476l-39.587089 1.255487c-47.669289 7.532925-132.571627-15.458189-95.770151-82.666001 0 0 20.754777-24.246601 37.664623-28.091532 0 0 62.578202-21.696392 67.364748-23.618857 0 0 35.114414-11.495557 43.118147-31.936462 7.219053-9.06305 7.532925-25.305919 2.275571-39.822492-6.316671-17.498356-20.794011-32.368036-40.921044-28.836978-57.203147 2.079401-52.730473 22.088732-96.751001-8.945348-9.965432 7.219053-21.460988 9.25922-32.799609 7.572159C12.397938 423.759301-29.817827 359.533272 28.836977 323.477242z m508.43318-3.256421c17.34142-8.160668 44.765974-48.257799 38.606239-79.919622-4.590376-23.658091-20.676309-33.898161-38.920111-34.486671-13.339554-0.431574-27.856128 4.276504-39.90096 12.633342l-1.059318 1.490892-2.981782-0.627744c-5.61046-59.361016-96.829469-35.428286-102.165291-4.668844-31.151782-32.642673-97.574915-11.770195-109.541279 44.3344 5.649693 8.631476 17.772994 14.006532 17.576824 30.994846l2.354039 0.431574c8.0822-8.160668 21.068649-8.317604 31.504888-8.317604 4.472674-65.795389 82.312895-42.490403 93.259177-29.229317 36.919178-25.698259 139.555276 34.212033 67.247046 77.957923-15.889763 18.636142-44.491336 23.265752-70.071893 19.852395-64.775305-8.631476-61.636587-60.538035-26.365237-58.144762 6.591309 0.470808 9.376922 2.157869 14.948148 5.728162l0.39234 2.118635-1.490892 0.823913c-29.935529-12.947214-46.021462 34.251267 11.181685 43.118147 19.146183 2.942549 43.196615-1.647827 67.796322-21.814094 43.824359-28.719275-6.159735-77.761753-50.886475-64.696837l-13.849596 9.376922c-6.591309-12.123301-77.055542-49.787924-82.587533 21.931796h-1.687062c-26.482938-5.806629-50.180264 11.103217-57.713188 37.664623 0.235404 21.107883 5.02195 36.173732 12.711811 46.727673 28.680041 39.430152 97.339511 15.301253 116.093354 4.158802 3.021017 5.571226 47.002311 38.959345 70.660402-7.846796 15.105083-0.39234 51.200347 8.317604 54.927576-49.630988z m-264.162404 172.197949l-1.059318 1.687062c20.244735-13.731894 29.111615-45.746824 21.500222-68.541768-6.630543-17.851462-46.296099-55.712255-65.952324-56.418467l-12.123301 15.536657c35.506754 4.276504 88.315695 63.598286 57.673955 107.697282z m34.2905-43.432018l-1.922465-0.313872c-1.098552 22.75571-10.671643 39.861726-30.64174 51.749623l-0.98085 1.922465 11.495557 4.158802c7.022883-32.250334 42.490403-30.955612 42.490403-30.955612l0.627744-1.922465c-25.227451-15.340487-21.068649-24.599707-21.068649-24.599707z m-2.981782-24.050432c1.687061-12.751044 3.923398-17.302186 10.475473-24.207367-15.889763-8.906114-33.466587-21.931796-38.135431-40.48947l-1.608593-0.353106s-16.282103 8.945348-42.765041 4.472674l-1.922465 1.294722c41.862659 8.435306 69.287213 50.53337 73.956057 59.282547z m120.48756 1.726296c35.938328 4.0411 77.761753 4.158802 76.427798-44.295167l-16.399805 0.863148c-21.029415 28.013064-52.259665 23.069582-77.918689 7.650627-8.317604 9.25922-39.822492 14.673509-46.649205 13.653425 21.186351 8.749178 15.458189 31.42642 7.49369 38.056964-17.969164 14.555808-35.035946-6.826713-9.573091-4.904248 18.91078-12.633342 5.649693-26.718342-11.220919-30.641741-36.919178-8.631476-44.098996 36.801476-21.774861 53.829024 28.797743 21.97103 99.654316 4.786546 99.615082-34.212032z m383.786817-66.423133l-18.714609 8.945348c-2.275571-28.758509-66.776238-52.848174-94.514664 5.100418-17.419888-13.30032-77.722519-6.395139-67.129345 41.27415-69.404915-22.991114-93.455346 20.127033-76.545499 47.630054-39.351684-12.280237-71.91589 45.942994-57.360083 79.880389 7.375989 17.14525 26.79681 28.130765 63.519818 20.637075 7.650627-2.981783 6.395139-6.826713 6.395139-6.826713-4.276504 9.769262-4.82578 37.115347 17.890696 23.815027 13.849596 10.083134 50.3372 2.589443 56.183063-4.276504-10.632409-11.495557-9.769262-39.155515-9.769262-39.155515-64.069093 41.195682-105.460945-40.960278-37.468453-60.027993 10.122367-45.550654 78.860305-48.493202 102.165291-6.395139 6.630543-8.239136 18.086866-10.122367 30.210166-11.063983-59.910291-47.433885 16.360571-108.011154 51.945793-76.074692 20.205501 14.751977 13.535724 34.368969-9.376922 34.368968v-2.981782c10.240069-1.255487 11.495557-10.200835 11.495557-10.200836 0.431574-8.513774-12.358705-16.635209-12.358704-16.635208-77.13401-42.529637-66.854706 146.617393 46.413801 43.000445 2.550209-2.550209 18.32227-5.963565 18.32227-5.963566 3.217187-21.931796 12.241003-32.132632 35.349818-40.018662 10.632409-28.640807-40.254066-33.898161-56.614637-25.109749z m-187.734606 334.195064c2.785613-1.922465-13.025682-36.801476 7.964498-48.689373 15.497423-8.749178 45.472186-9.416156 49.94486 10.828579l-2.118635 3.413357s-10.632409-8.513774-13.182618-8.945348c-42.725807-8.749178-48.179331 26.561406-20.676309 48.728606 28.248467 22.794944 74.819205 21.38252 90.512798-17.655292 0.863148-2.118635 3.84493 0.431574 3.84493 0.431574 15.889763-7.297521 22.010264-36.212966 12.319471-50.258732 0 0-48.532436 9.808496-60.027994-34.447437 0 0-31.936462 10.200835-48.532436-16.595974 0 0-17.890696 15.301253-40.018662 13.614192-14.948147-3.491824-25.070515 2.981783-17.890696 14.477339-18.832312-11.848663-46.806141-11.887897-56.418467 28.17-9.337688 39.037813 30.210167 64.069093 61.715054 67.129344 14.320404 1.373189 26.953746-1.765529 32.564206-10.161601z m412.545326-97.574915c30.994846 2.354039 85.176976 1.333955 77.604818-59.714122l-16.595975-0.313871c13.10415 38.096197-36.683774 45.276016-61.950458 43.432018-22.36337 50.729539-145.832713 58.301698-198.288548 22.36337h-16.909847c36.487604 33.545055 180.201682 61.440417 213.629035-2.236337v-0.313871s1.922465-3.177953 2.550209-3.177953z m163.919579-210.215679c30.367102 64.932241-67.09011 77.447882-107.38341 83.136809 42.725807 13.182618 115.190973-3.256421 130.374524-36.723007 7.611393-16.752911 1.569359-36.566072-28.523105-56.183063l5.531991 9.769261z m-18.832311-12.162534c-8.042966-1.098552-16.046699-2.746379-21.147117 0.902381 17.184484 13.49649 22.441838 25.737493 21.225585 37.350752-2.314805 22.1672-31.387186 39.626322-61.283481 47.120013 38.174665-2.118635 115.073271-29.857061 61.205013-85.373146z m-55.006044 6.081267c-27.659958 5.688927-32.40727 7.493691-52.926642-6.042033-9.769262 8.945348-33.309651 7.846797-33.309651 7.846796 1.294721 24.285835-5.963565 35.349818-5.963566 35.349819-2.550209 13.221852-32.368036 28.091532-32.368035 28.091531l1.255487 3.413357 12.790278 17.459122 2.550209 1.294721c9.65156-4.511908 79.80192-5.924331 122.606196-21.814094 54.103662-20.087799 34.604373-75.721586-14.634276-65.559985z m-145.832713 49.081712l12.790278 9.769262 7.219053 0.431574s45.982228-10.632409 28.523105-62.578202l-18.322269-20.440905c6.905181 31.661824-16.007465 75.721586-30.210167 72.818271z m-15.105083 107.501112c-10.279303 41.901893-42.921977 51.357283-90.04199 34.800543l-2.903315-0.313872c-2.275571 13.88883-22.75571 26.561406-26.561406 27.071448 11.534791 7.88603 32.917311 14.28117 57.006977 17.262952 50.297966 6.238203 112.287658-2.510975 120.566028-44.059762 12.201769 4.0411 91.375945 1.922465 64.186795-37.664623-20.754777-1.294721-55.045278-20.990181-65.795388-29.072381 0 0-1.608593 35.46752-56.496935 31.936462z m-106.637965-10.436239s-41.313384-13.221852-45.550654-23.854261c0 0-19.146183-21.304053-17.459122-36.605306l-16.595974 5.531992c1.804763-0.902382 18.832312 14.241936 13.025682 23.579623 18.871546 4.511908 27.659958 22.75571 24.442771 42.804275-6.512841 52.102729-85.373146 42.451169-100.399761 10.789345-5.21812-10.985515-2.746379-24.638941 13.10415-39.31245 12.437172-7.650627 40.09713-11.691727 46.413801 7.219053 0.58851 5.531992-1.530125 6.944415-6.395139 4.276504-2.903315-9.612326-31.583356-16.792145-40.450236 0.431573-29.857061 59.635653 101.537547 59.243314 78.350263-1.687061-5.335822-12.437172-12.437172-15.144317-22.127966-17.890696 11.927131-31.112548-91.807519-64.343731-100.792101 7.572159-67.129344-5.453524-57.006977 98.202658 14.634275 78.154093 15.536657 68.031726 72.975208 29.464721 111.306809 3.64876 27.816894 13.88883 85.137742-27.699192 48.532436-64.696837z m-240.111973-35.781392c14.830445 2.000933 20.872479 9.141518 23.854261 20.872479 10.907047-6.983649 23.030348-9.612326 35.742159-10.24007-1.804763-8.199902 9.25922-23.932729 11.92713-24.246601-23.658091-65.128411-105.343243-10.750111-90.23816 5.924331-38.802409 2.236337-39.233983 33.309651-24.011197 49.395585 20.911713 22.1672 63.04901 0.745446 51.278815-28.95468-4.080334-5.571226-10.0439-5.21812-8.513774-12.790278z m142.105485 140.693061l-0.98085 1.294722c10.632409 16.792145 2.236337 39.783258-11.338621 52.61277-0.470808 0.235404-0.706212 0.431574-0.510041 0.353106 0.117702 0 0.274638-0.156936 0.510041-0.353106 14.241936-8.0822 33.937395-7.572159 47.394651 0.706212 5.688927-39.70479 70.228829-42.804275 94.08309-9.102284 4.198036-7.375989 11.966365-13.614192 22.127966-19.028481 0 0-87.805653-5.728161-121.978451-40.214832 0 0-11.181685 8.317604-29.386253 13.731893z m79.488048-203.702837l1.608594 0.666978 0.627743 4.472674-14.045765 1.922465s-18.51844 5.100418-22.049499 25.541323c0 0-2.314805 8.317604-0.235403 17.655292 7.572159 34.055097 47.708523 38.920111 75.250778 40.450236 41.627255-5.728161 44.883676-52.769707-5.100418-58.4194l-0.627743-1.56936-0.313872-2.550208 14.987381-0.313872c22.049498 6.159735 31.936462 22.088732 29.033147 43.118147 0 0-1.294721 25.541323-49.16018 27.463787l-0.941615 2.864081s13.10415 13.10415 5.414289 37.350751c26.090598 11.574025 89.767352 9.886964 80.78277-31.936461l-2.236337-2.550209 0.313872-2.864081 29.386253-0.313872s54.927576-4.786546 22.010264-66.10926c0 0-18.51844-27.149916-39.90096-30.994847h-13.731894c-15.065849-46.178397-106.716433-63.009776-111.110639-3.805696z m113.660848-13.10415l0.745446 9.65156s8.827646 1.216253 20.323202 2.197103c29.857061-14.085 29.033147-41.901893 27.463788-68.973342 0 0-32.878077-6.395139-40.567938-35.114414-14.712743 3.727228-18.283036 7.532925-20.127033 7.454457-5.531992-0.156936 55.947659 37.978495 12.162535 84.784636z m13.418022-202.094244c33.074247 58.458634-22.245668 89.021906-77.447882 89.335778-78.350263 0.431574-109.933619-92.827603-18.989247-102.126056 0 0 31.936462-1.294721 35.114414 26.169066l-3.177952 1.294721s-10.867813-19.146183-24.285836-19.146183c0 0-26.169066-5.728161-45.354483 12.1233-22.284902 27.503022-11.848663 46.178397 17.066782 61.793523 51.318049 27.659958 137.318939 5.492758 116.8388-49.35635-11.966365-32.132632-60.341865-55.712255-77.094776-41.784192-19.263885-40.999512-86.432464-77.644051-109.305875-14.869679-70.621169-27.306852-64.539901 69.758021-31.191016 79.370347-45.472186 44.059762 55.633787 75.172311 66.423132 65.128411 20.166267 38.449303 78.742603 7.532925 88.747269-2.746379 16.125167-1.255487 31.975696 10.161601 54.927575-5.571225 0 0 3.177953-34.486671 35.781392-42.137298 0 0-5.100418-31.269484 24.246602-31.936462 0.627744-18.204568 0.235404-23.226518 15.968231-23.618857l-3.217187 2.550209s-12.123301 6.395139-4.472674 19.146183c0 0 5.728161 18.51844 26.836044 14.67351 37.193815-3.374122 27.856128-33.780459 15.968231-53.005111 0 0-40.214832 3.177953-60.655737-17.223718 0 0-31.269484 4.472674-42.804275 31.936462z m159.643075 4.119568c0-1.922465 2.864081-14.045766-14.045766-30.64174-8.239136 5.885097-18.32227 14.830445-33.701991 12.71181 5.885097 6.512841 11.063983 13.30032 10.553941 28.523105 13.261086 4.001866 21.57869 9.337688 31.347952 19.067716-1.177019-9.25922 0.706212-27.228384 5.845864-29.660891z m74.073759-105.696349c60.067227-66.344664 104.480096 25.384387 55.555319 37.664623 0 0-7.650627-0.627744-10.200835-8.317604 31.81876 9.690794 32.838843-34.800543 10.043899-42.568871-18.557674-6.316671-50.023328 8.631476-50.415667 34.290501-0.313872 20.519373 8.317604 35.428286 20.911712 44.295166 22.481072 15.811295 57.673954 12.51564 77.408648-12.162535 87.805653 8.042966 56.026127-112.248424-4.158802-93.612282 3.374122-37.154581-90.316628-58.576336-109.34511-7.532925 0 0 17.262952 31.308718 10.24007 47.904693z m-104.715499-49.984094l3.217186-12.594108c-14.948147-77.173244-107.38341-27.463788-103.224608-0.941616-17.223718-1.608593-70.503467-50.651071-71.405848 32.956546-22.284902-1.490891-36.683774 3.727228-43.353551 12.044832-21.77486 27.110682 3.177953 78.232561 57.085445 54.927576 10.828579 34.251267 5.100418 32.564206 38.331601 38.959344 0 0 12.123301-12.123301 24.285835-13.418022 0 0-8.317604-5.963565-14.320404-17.419888-20.637075-39.351684 10.907047-72.582868 53.907492-64.971475 0 0 38.331601 10.867813 31.308718 42.137297-6.630543 5.178886-9.65156 3.923398-4.472674-2.550208 0 0 7.022883-15.968231-21.696392-29.386253-28.013064-10.200835-67.992492 9.494624-54.927576 44.059762 0 0 13.418022 45.982228 75.368481 47.904693 0 0 51.710389 3.177953 56.222297-44.687506l3.805696-8.317605c5.453524 19.067716 57.046211 9.023816 63.323648-25.42362 11.456323-62.85284-52.926642-80.665068-93.337645-53.318983z m30.327868 106.834135s-7.022883 12.123301-9.25922 12.437172c5.649693 6.748245 11.299387 13.025682 13.731894 27.149916 4.982716-5.728161 10.593175-10.240069 16.792145-13.574958 0 0-3.687994-22.834178-21.264819-26.01213z m149.44224 121.311474c32.054164-12.162535 49.905626-61.087311-5.767396-82.391364-10.750111-4.119568-23.422688-1.804763-34.447437 5.492758-6.983649-14.751977-70.621169-47.551587-106.324092 19.420821-1.804763 12.280237 0.823914 19.695459 7.650626 22.677242 17.92993-19.460055 68.934107-27.58149 85.60855-4.708078 27.856128 38.174665-40.607172 69.404915-55.947659 32.171866-2.589443-6.355905 3.64876-5.335822 4.158802-2.550209 13.10415 14.712743 24.246601 11.181685 24.246601 11.181685 22.245668-0.353106 38.213899-27.58149 16.635209-40.921044-9.416156-5.806629-23.932729-7.297521-37.939261-4.982715-36.44837 6.002799-44.452102 25.384387-36.64454 57.163912 9.886964 40.057896 48.061629 38.449303 63.44135 26.443704 14.006532 16.870612 83.019107 19.303119 75.250779-38.998578z m-78.389498 210.411848c74.191461 30.44557 80.97894-42.490403 73.916824-85.569316 24.089665 6.277437 44.177464-57.203147-9.886964-76.93784-20.911713 15.575891-44.687506 9.06305-60.969609-1.608593-23.854261 19.342353-66.815472-4.394206-65.795389-21.38252-33.231183 9.416156-54.731406 4.001866-66.30543-6.277438-19.263885-17.14525-10.789345-47.826225 17.459122-45.746823 0 0 14.673509 1.608593 22.36337 14.359637 1.294721 3.177953 1.530125 6.395139-0.627744 9.573092-0.19617 3.491824 2.314805-14.791211-22.010264-16.909846-43.432019 4.276504-8.27837 68.894873 43.432019 36.05603-2.667911-14.673509-7.179819-31.191016 2.864081-43.432019-4.982716-0.863148-33.623523-22.991114-42.765041-26.482938-4.198036 27.97383-58.301698 36.173732-66.109261 8.945348 0 0-19.460055 0.353106-20.127033 15.968231l-0.313872 18.204568s-8.945348-2.550209-16.282103 4.158802c-33.858927 13.10415-20.480139 51.514219 7.650627 62.892074l19.813161 0.313872 5.100418 0.666977v10.24007c24.089665 32.250334 47.708523 8.631476 59.20408 0.313872 2.864081 6.512841 4.904248 13.614192 11.809428 17.027548 22.794944 11.338621 76.977074-20.323203 107.148007-5.571225 89.218076 52.887408 0.274638 121.46841-77.251712 112.719231-35.428286-3.687994-65.010709-10.240069-99.928954-8.592242 3.805696 3.805696 4.82578 24.207367 3.923399 25.502089 78.114859 56.810807 141.830847 28.719275 173.728074 1.608593z m-146.068117 116.878034c57.124679 8.788412 91.454413 8.749178 96.437129-81.410514l-28.758509 1.922466c13.653426 48.022395-37.350751 74.544567-77.957923 67.207812-58.733272 74.348397-182.163381 35.820626-233.049856-0.78468l-11.181685 8.631476c55.319915 39.233983 204.683687 69.247979 254.47161 4.472674z m0.313872 207.86164s-1.608593-10.867813-1.608593-12.123301 2.550209-1.608593 2.550209-1.608593 2.550209 8.945348 18.204568 12.1233c30.053231 10.553941 68.031726-21.304053 52.063495-53.632854l-18.51844-6.395139 2.236337-4.158802c101.105973 17.812228 79.762687-152.89483-65.363815-78.232561l-3.923398 0.666977c-39.077047-24.913579-100.831335-8.86688-106.794901 40.842576-3.84493 31.936462 34.839776 50.964943 71.994358 50.768774 45.668356 4.080334 72.975208-53.907492 14.67351-50.768774l-1.56936-3.177952 1.255488-2.550209h13.731894c27.97383 2.118635 31.073314 22.441838 23.265751 39.626322-4.668844 10.279303-13.30032 19.460055-22.794944 22.912646 7.964498 16.164401 11.181685 33.113481-14.045765 43.94206-18.636142 7.964498-47.433885 4.472674-51.867325-16.125166l3.531058-5.728162h2.236337c-3.256421 18.479206 31.740292 23.461922 47.826225 11.181685 7.846797-5.963565 11.417089-31.62259 2.275571-31.62259-16.439039 5.61046-46.099929-0.313872-57.791656-5.414289l-7.650627-0.313872s-15.968231 6.709011-17.223718 17.262952c-6.434373 29.033147 18.361504 49.591754 47.041545 55.516085 25.305919 5.21812 53.672088-1.020084 66.30543-22.951879z m-89.531948 140.771529c33.819693-20.480139 60.969609-51.278815 32.054164-65.716921l0.627744-4.158802c22.75571-1.373189 32.289568-20.715543 22.010264-40.842576l-0.313872 1.56936s-44.059762 11.181685-82.352129-30.955613c0 0-11.809429 12.751044-31.308719 23.304986v2.236337c42.843509 24.364303 34.290501 75.093843-8.317604 92.906071-35.192882 15.262019-81.724386 10.475473-120.055986 12.1233-31.387186 1.922465-59.086378 4.23727-89.728119 11.456323 72.582868 13.535724 214.256779 36.2522 277.345023-1.961699z m-66.30543-111.385276s-18.204568-0.313872-22.049499 4.786545c6.198969 28.444637 57.203147 70.464233-67.050876 85.569316 0 0-1.922465 0.627744-2.236337 1.608594 23.422688 2.393273 81.37128-3.84493 97.614149-17.419889 25.384387-21.186351 31.661824-55.869191-6.316671-74.544566z m-42.45117 64.814539s-21.068649 13.10415-33.231183 13.10415c-31.03408 1.098552-90.669734-0.313872-131.865415 11.063983-3.923398 1.059318-42.647339 17.890696-54.57447 31.701058 6.709011-0.353106 9.926198-2.628677 17.92993-5.296588 40.057896-13.221852 81.292812-19.577757 123.155471-22.794944 17.772994-8.121434 32.721141-8.553008 52.377367-11.181685 53.711322-6.434373 61.832756-37.429219 37.350752-74.387631 0 0-38.645473 2.236337-44.687507-6.709011l-0.941615 3.531059c25.580557 5.178886 61.126545 32.721141 34.48667 60.969609z m-122.920067-92.278327c-8.356838 15.772061-2.471741 30.916378 15.222785 38.488537 29.621657 12.672576 78.154093-14.555808 73.799122-20.401671 27.463788 24.050431 114.367059-11.691727 109.894385-28.640807-4.786546-16.282103 1.922465-31.62259 1.922465-31.62259l-0.627744-6.39514c-5.100418-17.223718-18.204568-27.463788-18.204568-27.463787-31.347952-28.169999-88.786502-24.364303-109.188173 14.673509-9.376922 39.50862 63.598286 63.990626 79.841154 22.991114l0.313872-11.809429 2.236337-0.313872c23.658091 62.695904-116.760332 47.198481-91.650583-15.654359 26.836044-58.537102 123.194705-38.684707 144.02795 14.712744l9.886963-5.728162c-9.298454-6.002799-15.615125-12.986448-19.577757-20.362437-13.535724-25.227451 0.156936-55.359149 15.732827-69.051809l16.282103-11.809429c0.313872-3.805696-13.418022-8.631476-13.418022-8.631476l-22.991114 0.627744c-13.418022 1.608593-32.564206 28.091532-32.564205 28.091531l-1.922466-0.313872c8.160668-16.556741-83.999957-61.087311-86.510931 4.865014-73.799121-32.2111-82.195193 48.297033-64.500667 37.62539l-4.472674 5.728161c-5.885097-2.550209-11.574025-4.119568-17.027549-4.747312-44.255932-5.375056-70.738871 47.590821-33.152715 87.295611 14.163468 14.908913 34.094331 10.161601 46.649205 7.846797z m-64.814539-80.155027l14.359638-12.437172c20.127033-15.968231 43.745891-8.003732 43.74589-8.003732l1.294722-13.104151c-19.773927 6.748245-31.661824 15.418955-53.868258 7.768329-15.105083-5.21812-29.582423-15.105083-40.960278-21.147117-29.660891 30.83791-116.760332-4.394206-111.738383-47.276949l-2.236337-0.941615c-42.647339 46.296099 47.041545 96.554831 80.782771 70.5427-5.531992 34.094331 43.118147 40.528704 68.659469 24.599707z m-169.883144-85.255444s-44.13823-2.275571-47.276949-5.414289c0 0-27.463788 30.327869-77.91869 24.560473h-2.550209s-9.886964 14.673509-23.618857 17.890696c3.099485 17.34142 42.254999 36.291434 87.295611 45.90376 45.040612 9.612326 96.044789 9.886964 122.802365-10.122368-28.640807-4.119568-66.344664-42.529637-58.733271-72.818272z m-157.406738 38.959345l-31.936462-5.100418c-3.64876 52.063495 77.722519 76.15316 154.738827 79.488049 59.910291 2.589443 81.37128-7.022883 133.277839-25.227451l-6.395139-10.200835-22.677242-2.236337c-60.930375 32.132632-178.239983 29.660891-227.007823-36.723008z m-25.737493 43.314317c2.432507 40.646406 48.061629 61.636587 105.029371 67.67862 83.215277 8.827646 202.290414-16.595975 228.184843-47.747757v-1.608593s-30.64174 0.941616-43.118147-7.650627c-27.032214 18.086866-91.807519 31.308718-155.013465 28.993913-75.015375-2.746379-147.833646-27.424554-152.777128-91.925221l0.353106-1.569359s-26.836044-13.731894-28.444638-19.146184l-1.569359-0.784679-0.353106-0.19617 0.353106 0.19617c0.666978 0.470808 0.941616 2.000933-15.654359 4.62961l-3.531058 2.550208c-14.791211 46.139163 50.258732 62.303564 66.580068 66.619303z m-227.164759-147.715944c-5.963565 29.896295 21.539456 60.969609 50.768774 62.578202l65.128411 0.627743-11.809429-10.553941-11.181685-0.627744-9.25922-1.922465c-45.354484-3.099485-98.202658-34.643607-41.195682-83.960722-30.955612 11.495557-42.451169 33.858927-42.451169 33.858927z m38.959345-18.832312s-10.240069 10.867813-9.25922 21.068649c3.609526 24.678175 18.793078 42.961211 47.237715 40.881809l22.677242 2.236337-8.278371-11.809428c-63.009776-8.827646-44.72674-64.932241-1.294721-85.883188 0 0-51.082645 23.304986-51.082645 33.545055z m81.410514-43.745891c-6.238203 1.726295-16.046699 7.964498-24.285836 13.771128-8.27837 5.806629-14.987381 11.142451-14.987381 11.142451-22.324136 18.283036-33.035013 63.24518 6.709011 63.24518-0.313872-31.269484-2.746379-50.729539 33.231183-64.186795l-0.666977-23.93273z m10.553941 31.191016c-36.566072 4.001866-41.47032 28.052298-25.894429 64.696838 11.927131 22.55954 57.673954 55.162979 77.487116 23.422687 3.962632 37.821559 90.316628 55.476851 89.414246 23.422688-10.200835-0.863148-33.191949-18.32227-33.191949-18.32227-48.650138-5.531992-61.832756-53.240514-22.245668-79.566517 22.010264-14.673509 55.045278-16.242869 82.822937-10.750111 20.715543 4.119568 54.927576 24.128899 37.782325 47.747757-12.123301 12.397938-63.480584 26.01213-86.00089 0.863148-4.865014-6.120501-3.923398-6.355905-2.118635-9.376922 37.860793 52.926642 139.437574-16.203635 29.347019-33.505821-25.619791-4.0411-54.731406 4.198036-70.817338 26.2083-21.500222 29.503955 7.611393 49.003244 38.096197 49.003244 26.090598 43.000445 97.496447 23.304986 119.624413-5.531991 10.828579 8.003732 50.651071 18.047632 67.28628 1.687061-1.726295-19.577757 19.734693-42.765041 19.734693-42.765041 3.884164-30.524038-30.83791-35.66369-50.808007-47.473119 5.61046-67.639386-104.519329-53.711322-88.786503-43.74589l-7.415223-6.473608c-25.580557-29.621657-103.93082-34.055097-92.670666 18.51844-27.58149-27.738426-100.203591-19.460055-81.56745 41.941127z m-123.351641-159.643074c10.553941 11.260153 10.593175 31.504888 43.588954 29.347018 38.763175-2.550209 64.579135-27.738426 95.927088 14.28117 10.632409 14.241936 12.868746 35.389052 3.413356 56.693105 7.611393-2.314805 15.889763-6.159735 22.677242-4.315738 23.775793-23.461922 20.440905-48.689372 8.003733-69.208745-15.026615-24.795877-43.353551-42.804275-53.358217-42.765041l-7.022883 3.217186c-22.95188 12.084067-66.737004 12.476406-84.313828-9.573092-23.226518-20.519373-26.679108-54.731406-5.139652-75.917756 12.476406-12.280237 32.956545-20.205501 49.74869-22.873412 26.40447-4.23727 53.122812 2.981783 51.435751 37.900028-4.590376 15.497423-22.481072 25.894428-38.763175 25.580556-8.513774-0.156936-16.635209-3.217187-22.127966-10.043899v-3.844931h2.354039c4.394206 3.923398 10.397005 6.277437 16.713677 7.022883 13.967298 1.647827 29.739359-4.394206 34.133565-17.851462 0.823914-32.328802-21.421754-32.681907-45.11908-29.817827-54.456768 6.552075-80.704302 69.875723-17.851462 93.180709 27.149916 10.083134 73.642185 0.902382 78.389497-31.936462 6.669777 2.275571 27.110682 15.575891 50.533369 0.941616-5.02195-16.752911-3.805696-42.215765 20.440905-57.477785 0 0-0.863148-14.28117-17.027548-24.913579-22.127966-17.419888-72.268996-30.367102-93.455347-2.785612-0.902382 4.943482-7.454457 2.785613-7.454456-1.059318v-2.118635l8.27837-8.513774s1.255487-2.903315-1.294721-6.748245c-26.561406-43.706657-106.637965-22.206434-95.573982 26.953746 0 0-0.431574-0.078468-0.98085-0.117702-0.274638 0-0.58851-0.039234-0.902381-0.078468-0.313872 0-0.627744-0.039234-0.902382-0.039234-27.659958-14.555808-74.701503-3.177953-44.020528 53.475918-67.050876 15.222785-28.640807 82.312895 9.769262 93.926154 15.615125 4.747312 31.23025 0.313872 39.783258-20.519372z" fill="#D0BE92" p-id="7196"></path><path d="M553.591494 571.514479c-3.256421 17.027548 19.381587 22.481072 17.459122 20.597841-1.333955-1.294721-26.718342 1.608593-25.188217 0.510042 2.707145-1.961699-4.904248-18.675376-8.749178-18.283036-2.981783 0.274638 17.812228-0.235404 16.478273-2.824847z" fill="#D0BE92" p-id="7197"></path></svg>