<?xml version="1.0" standalone="no"?><!DOCTYPE svg PUBLIC "-//W3C//DTD SVG 1.1//EN" "http://www.w3.org/Graphics/SVG/1.1/DTD/svg11.dtd"><svg t="1784387071001" class="icon" viewBox="0 0 3041 1024" version="1.1" xmlns="http://www.w3.org/2000/svg" p-id="7491" xmlns:xlink="http://www.w3.org/1999/xlink" width="593.9453125" height="200"><path d="M2950.521926 927.09878c-177.73671-27.058424-332.811041-100.578513-492.054037-167.504533-46.613252-7.200421-93.605474-22.51079-130.365519 16.29569-11.217498-29.332242-31.227089-50.175566-60.028773-64.349026-48.12913-5.608749-85.040763 26.679455-108.233698 59.95298l-27.588982-19.100065c-25.466752-4.320253-54.420025-16.674659-76.324463 6.745658-20.085385-24.178256-27.134218-65.106965-54.495819-77.461372-16.674659-11.293292-40.54974-8.943681-56.921223 2.880168-28.119539 13.642903-18.796889-35.69893-38.579098-48.432305-27.664776-24.026668-72.686356-19.630622-100.730101-4.168665-9.853208-27.816364-32.742967-48.583894-61.241476-49.493421-6.2151-8.185742-3.562314-16.29569-0.606352-26.224691-18.872683-30.999708 24.481432-46.76484 17.659981-79.35622-5.153986-29.483829-19.100064-50.478741-39.337038-71.322066-22.738172-14.249254-57.300193-13.491315-82.691151-6.366688l-17.432599-37.517983c-26.300485-32.136616-71.625241-42.520381-111.947599-30.165975-32.667173 10.611147-51.539856 39.109655-61.31727 72.080005-19.479034 2.046435-49.569215-2.198023-70.488332 6.59407l-45.40055 45.476343-48.735482-23.571904c1.136909-18.190537-2.122229-32.970349-10.004795-45.77952-13.794491-14.476636-33.349319-17.356804-51.61565-20.085385l-23.420317-43.884671c-24.481432-19.175858-60.710919-24.860401-90.649512-20.994912 6.821452-32.894555 2.804375-70.715714-12.80917-98.153109-23.041347-27.513188-65.637523-44.642611-99.896368-33.804082l-18.872682-42.444587c-12.278613-6.2151-23.117141-20.76753-39.412832-17.281011-22.738172-2.576993-20.464355-30.696532-25.390958-48.508099-22.207614-50.25136-80.947892-62.151003-128.925434-61.089889-55.481139 4.699222-86.253465 41.53506-112.023393 91.483245-13.718697-9.550032-33.197731-0.985321-46.461665 7.57939-25.694134 49.948184-79.810983-9.550032-113.387683 30.469151-18.948477 23.571905-30.544944 46.916428-38.80648 76.703433-16.826247-11.293292-32.894555 3.941283-46.158489 9.171062-25.239371 13.794491-36.532663 48.432306-40.398152 76.551845 1.894848 13.18814 5.002398 22.965554-0.757939 34.562021-46.38587 1.061115-81.554243 42.975145-95.576115 84.358618-37.745365-2.273817-79.35622 10.156383-96.485643 46.689046-8.867887 13.18814-5.305573 31.302883-0.454763 46.006901 12.733376 37.593777 45.703725 26.755249 72.989532 42.747763 1.74326 8.034154 9.625826 17.735774 6.669863 27.664775l-16.523071 3.713902c-15.613545 33.121937-47.825955 6.063512-71.701035 10.004795-23.87508 5.457161-49.114451 17.508392-60.635125 44.03626-0.833733 21.373881-12.430201 44.718405-1.440084 64.197438-23.87508 5.457161-48.12913 4.244459-68.669279 16.447278-22.207614 18.493713-56.239078 40.54974-52.449383 76.855021-4.85081 42.747763 36.002105 53.207322 61.696239 67.380782 36.911632 33.728288 97.167788-25.163577 121.118662 38.42751 18.569507 17.508392 33.273525 5.760337 55.708521 5.22978l26.148898 25.61834c28.574303 5.836131 73.899058 14.628224 102.018597-8.867887 11.823849-2.046435 12.278613 16.068308 25.542546 10.838529 29.10486 17.281011 59.422422 28.195333 95.424528 35.471548 59.270834 21.752851 106.111468-25.390959 153.558454-49.569215 15.234575 7.95836-0.682145 29.635417 8.640505 42.671969 19.858003 15.91672 25.087783 48.5081 55.177964 47.825955 60.407743 15.158781 140.067138 14.931399 179.252587-43.429908 33.652494 28.574303 80.265746 27.513188 118.011112 39.867594 193.27446 39.943388 401.707702 26.755249 594.224223-27.134218 14.779812-11.748055 42.141412-0.985321 50.706123-17.584186-174.25019-2.425405-363.05281 16.750453-509.56243-83.221709-27.816364-29.180654-64.349026-47.825955-75.793906-87.087198 9.853208-31.378677 28.953272 10.762735 45.097374-7.579391 42.293 15.386163 71.473653-21.449675 105.429323-46.916427 14.779812 116.343646 134.003626 139.763963 221.545588 162.42634 107.020995 12.278613 239.281361 19.100064 350.698403 29.48383 19.175858-13.491315 40.777121 7.352009 59.952979-6.366689 88.754664 9.625826 192.364933 8.716299 278.087841 11.672262 173.037487 5.836131 354.791274 13.036552 527.373998 7.427803 27.210012 4.320253 64.500614-3.334932 94.742383 4.320252 79.35622-19.782209 159.69776 11.06591 240.266682-3.789695 18.190537 1.136909 39.033862-0.909527 55.556933-3.10755-0.075794-3.334932 1.36429-8.33733-1.819054-9.853208-31.227089 7.200421-57.072811-3.638107-88.527282 3.638108zM1339.067691 475.291306c11.369086-21.828645 24.329844-43.429908 46.689046-53.813673 18.03895 4.547634 46.38587-12.505994 57.224399 11.899643l0.227382 9.853208c12.278613 7.806772 13.415521-11.748055 17.65998-20.161179-8.109948-21.1465 9.70162-36.381075 16.674659-52.904147 29.332242-28.72589 71.246272-39.564419 107.778934-20.691736 12.127025 9.550032 21.525469 27.513188 33.879876 40.246564-5.684543 14.931399 11.06591 22.662378 0.833733 34.562021 12.430201 24.405638 14.704018-15.158781 32.667174-14.021872 19.40324-3.562314 40.54974-2.501199 57.300193 5.381367 20.009591 22.434996 41.838236 53.055734 33.728288 89.588397-5.684543 16.523072-32.742967 17.129423-24.860401 39.867594 18.417919 9.398444 6.745658 29.483829 5.684543 40.92871-14.476636 23.420317-40.019182 22.434996-62.529973 27.967951-28.650096-6.063512-50.023978-18.569507-68.441897-41.231885-5.078192-26.148898-16.447278-60.407743 7.124627-78.901456 13.263934-8.640505 31.151295-20.691736 44.869993-7.806772 9.246857 11.217498 27.74057 27.3616 16.068308 45.627931-2.576993 14.855606-17.811568 3.789695-25.315165 10.459559-4.47184 0.075794-12.354407-9.625826-16.598865 0.37897 3.183344 3.259138 1.819054 11.596468 7.882566 11.444879 22.662378 9.095269 41.686648-9.246857 50.478741-27.664775 7.124627-11.596468-4.926604-19.40324-0.757939-31.151296-16.977835-17.508392-43.202526-43.429908-69.881981-24.633019-26.603661 12.051231-34.789403 46.76484-37.214808 76.476051-27.3616-20.691736-65.106965-24.708813-96.334054-15.91672-0.530557-22.88976-17.508392-39.109655-37.290602-50.023978-15.234575-9.550032-23.87508 3.941283-37.44219 9.171062-11.520674 15.082987-12.657582 34.865197-10.611147 54.571613 4.47184 1.440084 10.686941 7.806772 15.007194-0.37897 13.036552-16.902041-12.960758-37.593777 13.870285-49.645008 22.207614-8.792093 24.405638 17.584186 38.04854 26.906836 4.926604 19.630622-5.305573 33.121937-16.902041 46.385871-31.378677 10.611147-66.016492 4.926604-89.133633-24.178256-6.518276-21.1465-19.175858-43.733084-10.535353-68.593485z m-134.988947-115.282531c4.85081 14.704018-2.349611 26.527867 5.381367 37.821159 8.640505-13.415521 27.967951-21.980233 43.202527-12.430201 13.946079 11.141704 11.141704 25.99731 17.584186 43.808878-2.728581 6.821452-4.168665 13.339727-4.017077 19.858003 11.899643-0.303176 25.542546-2.122229 36.229487 4.092871 24.25405 10.838529 23.420317 43.884672 16.598866 66.926019-26.755249 15.461957-62.908942 14.704018-87.617756 41.535061-16.447278 5.305573-30.46915-7.352009-38.124334-18.872683-20.540149 22.056027-56.46646 32.515586-86.632435 25.163577-24.405638-19.175858-54.874788-34.789403-46.689046-79.432013l14.097666-38.275923c15.91672-19.858003 41.53506-17.356804 64.121645-20.994912 16.371484 1.212702 30.165975 15.689339 35.395754 35.31996 5.002398 22.738172-3.865489 36.229487-20.009591 44.642611-13.263934 8.640505-21.1465-4.244459-31.833441-9.095269-10.762735-7.806772-0.682145-27.816364-9.777414-32.515585-17.811568 6.897245-12.80917 28.346921-6.669863 41.231884 3.638107 19.630622 25.921516 15.765132 36.608456 20.464355 16.447278-6.897245 23.799286-8.640505 38.503304-22.207614 11.672262-18.190537 6.745658-37.821159 4.699223-57.527575-5.002398-22.965554-26.300485-30.544944-45.931107-38.42751-28.498509-0.909527-62.757354 9.777414-77.082403 39.488625-12.80917 28.346921-21.298088 58.133926-11.44488 87.541961l-48.356512-7.200421c1.061115-19.782209 12.884964-33.046143 9.171063-57.679163-4.85081-16.523072-18.796889-37.44219-37.06322-40.17077-16.598865-9.474238-34.562021 0.833733-47.750161 9.171063-16.219896 16.750453-7.95836 43.050939-4.623428 62.454178 7.730978 5.002398 30.46915 19.251652 33.121937-3.941283-10.762735-9.625826-35.016785-20.464355-21.980233-40.549739 13.263934-8.640505 32.515586-20.464355 47.825955-7.806773 12.505994 17.887362 18.948477 34.107258 16.371483 57.300193-11.293292 24.936195-36.835838 27.134218-59.346628 30.999708-11.899643-1.515878-15.386163-15.992514-27.134218-11.06591-18.493713-15.91672-33.879876-30.393356-37.44219-56.542254 0.985321-24.708813 1.74326-50.933505 20.843324-67.759752 23.420317-33.500906 60.028774-12.80917 91.028481-28.574303l45.476344 17.129423c-2.804375 6.59407 0.37897 16.371484 7.730978 16.219896 10.611147 4.699222 10.307971-8.33733 14.779812-11.748056-8.261536-35.926311 15.386163-51.312474 36.002105-73.065325 38.503304-20.615942 95.955085-10.535353 114.979356 35.016785z m-368.88894 151.7394c-20.994912 3.638107-18.872683-30.999708-31.075502-45.476344-3.865489-32.667173-10.838529-80.038365 26.452073-87.693549 5.987719-1.74326 10.686941 4.699222 15.158782 6.366688-20.236973 34.789403-27.967951 87.693549-10.459559 126.727411zM627.590295 503.335051c-11.369086-35.850518-46.840634-77.840341-22.283408-117.935318l24.405637 15.992515c2.955962 60.710919 28.346921 119.14802 77.233991 149.389788l0.151587 4.926604c-25.845722-14.17346-57.679162-23.344523-79.432013-52.449383z m5.153986 27.892158l-41.838236 5.684543 14.097666-39.791801c9.171063 6.518276 16.902041 22.662378 27.74057 34.107258z m10.990116-113.766653c2.425405-19.782209 15.91672-20.085385 30.923914-18.645301-0.227382 49.114451 18.796889 94.666589 46.76484 130.365518l0.227381 9.625826c-49.87239-15.234575-61.847827-75.718112-77.916135-121.346043z m47.901749-4.471841c-3.334932-16.29569 8.488917-19.933797 17.205216-30.014387 10.611147 3.10755 31.757647 5.987719 30.696532 19.024271-13.036552 26.755249-3.410726 55.935903 1.819054 78.901456 13.567109 4.623428 10.914322 24.405638 18.796889 35.69893-7.503597 6.669864-22.283408 13.794491-28.650097 0.682145-27.588982-30.544944-32.894555-64.955377-39.867594-104.292415z m126.500029-45.552137c-15.91672 18.569507-49.190245 15.91672-71.701035 11.520673-10.762735-9.625826-25.769928-9.246857-14.097667-27.740569 15.992514-15.158781 41.307679-25.390959 55.860109-45.476344-6.745658 27.967951 19.100064 40.625534 29.938593 61.69624z m-68.214516 93.52968c-0.454763-19.706416-8.792093-49.190245 13.56711-61.089889 9.095269 4.699222 20.76753-3.638107 27.058424 7.655185-8.33733 27.967951 1.212702 52.449383 5.002398 80.417334 7.503597 4.547634 7.655185 12.80917 7.882566 21.1465-31.227089 17.129423-41.231885-28.650096-53.586292-48.12913z m105.050354-63.212118c10.535353-1.819054 19.251652-11.899643 31.378677-9.019475-20.312767 31.909234-41.53506 83.297503-18.190537 122.255571 4.547634 3.031756 9.171063 7.882566 7.95836 14.628224-18.114744 3.562314-17.053629-21.1465-27.816364-27.361601-8.488917-35.926311-12.127025-68.820867 6.59407-100.426925z m155.453301-34.789403c2.576993-13.339727 16.144102-20.161179 28.195333-12.127025 3.10755-1.894848 4.547634 1.440084 6.139307 3.031757-5.911925 6.897245-2.425405 19.782209-11.672262 18.417919-8.943681-1.36429-15.158781-6.139306-22.662378-9.322651zM439.394026 221.684896c11.823849-1.819054 31.227089-5.684543 34.713609 7.503597 30.46915 17.205217 5.22978-34.637815 19.933798-48.053336 12.80917-28.346921 33.5767-42.065618 60.256155-50.781917 18.190537 2.728581 42.141412 0.606351 50.023978 21.677057 16.219896-16.750453 27.210012-62.984736 57.679162-43.960466 11.975437 4.623428-1.061115 22.88976 14.021873 22.586584 13.112346-15.082987 11.217498-37.972747 18.190537-56.314872 21.449675-39.791801 60.331949-55.481139 97.698345-61.31727 43.581496 3.941283 78.446693 16.144102 104.898766 54.950582 4.926604 21.222294 8.716299 45.779519 13.567109 63.818469 7.124627-11.823849 23.723493-10.459559 36.002106-2.652787 12.051231 6.442482 22.88976 20.994912 29.332241 37.214808 1.819054 9.853208-4.017077 21.373881 2.273818 29.559623 23.647699-13.794491 57.982338-21.070706 83.979647-3.562313 21.525469 19.02427 32.742967 46.76484 37.669572 77.840341-0.682145 28.043745-19.782209 46.461664-40.473946 60.180362-14.931399 5.305573-28.422715 0.682145-39.261243-10.535353-13.263934 8.413124-11.520674 26.527867-21.752851 36.608456-27.058424-4.320253-58.437102 4.47184-82.539564-1.440084-11.748055 15.082987-29.711211 13.946079-44.642611 17.432599-25.694134-5.911925-51.767238-28.422715-62.908942-54.420025-14.097667-27.74057-2.728581-60.710919 8.564712-85.647114 28.346921-13.642903 57.527575-42.368793 89.815778-15.082987 10.990116 19.251652 32.439792 36.911632 25.466753 61.772033-5.836131 10.004796-12.960758 21.601263-26.527867 16.977835-24.25405-2.576993-7.276215-50.781917-30.772326-30.46915-6.973039 28.195333 11.44488 37.669571 31.227089 50.175566 15.007193-1.894848 29.787005-12.127025 36.760044-28.877478 10.080589-18.190537 0.682145-37.669571-5.83613-57.300193-12.884964-32.439792-50.478741-38.048541-82.084801-39.109656-19.251652 11.899643-43.126733 15.840926-54.647406 40.777122-29.559623-45.324756-76.551845-62.378385-125.666296-51.388269-22.283408 17.129423-33.95567 35.31996-43.884672 61.847828 0.757939 31.378677 4.547634 60.710919 33.349319 73.216913 21.1465 2.652787 49.493421-2.728581 56.542254-25.99731 7.200421-10.004796 9.853208-29.862799 3.48652-41.156091-9.246857-13.036552-19.858003-15.91672-33.273525-14.021872-5.987719 3.48652-5.836131 10.004796-5.684543 16.523071 11.975437 4.623428 25.466752 4.320253 27.437394 20.919118 0.454763 17.963156-18.948477 23.344523-30.772326 26.982631-16.598865-1.440084-27.437394-14.17346-33.879876-28.801685-6.745658-30.999708 16.902041-54.7232 32.818761-72.989531 37.366396-12.505994 66.319668 8.109948 93.984444 30.544944 12.354407 19.479034 10.004796 44.187847 5.987718 65.561729-13.491315 6.821452-26.376279 31.833441-41.762442 15.765132-1.440084-4.926604-7.503597-4.775016-10.535353-1.288496-1.212702 16.371484-0.682145 37.669571-13.794491 52.828352-24.936195 26.831043-62.605766 19.630622-94.287619 13.642903-4.623428-4.85081-6.366688-12.884964-13.794491-14.476636-14.704018 13.567109-33.95567 23.87508-54.950581 27.513188-12.051231-7.806772-34.410433 5.987719-30.469151-18.796889-10.838529-14.55243-21.1465-1.288496-34.562021-2.576992-28.801684-14.097667-72.231592-11.520674-83.676472-48.962864-11.520674-40.777121 13.263934-74.353822 36.760044-94.666588z m140.597696 174.174396l0.227382 8.261536h-1.36429l-0.227382-8.261536h1.36429z m-331.674133 132.639336c-25.61834-2.576993-39.716007-20.388561-49.266038-44.794198-0.454763-19.706416 11.369086-33.046143 24.557225-43.202527 31.075501-23.799286 80.568922-25.011989 112.781332-1.061115 15.840926-23.496111 48.5081-33.879876 75.642318-34.486227 22.813966 5.987719 43.808878 13.567109 50.554536 41.459267 0.454763 19.706416 4.168665 44.339435-15.007194 57.754956-16.371484 8.640505-32.818761 17.356804-49.569214 9.474238-9.246857-11.44488-24.557226-24.102462-14.325048-37.593777 10.459559-3.410726 17.887362-11.899643 29.862799-8.792093-1.515878 3.183344 1.74326 6.442482 3.334931 7.95836 5.911925 1.667466 8.792093-6.745658 11.672262-10.156383-0.303176-11.44488-13.642903-9.32265-19.858003-15.916721-21.1465-2.652787-34.258846 12.430201-42.747763 30.620738-3.789695 29.711211 18.796889 35.69893 28.195333 55.177964 22.738172 4.396047 43.581496-5.987719 61.241476-19.630622 17.584186-16.750453 30.620738-43.354114 22.359202-70.943096-6.442482-16.447278-15.840926-36.002105-33.95567-42.065618-25.769928-9.246857-59.195041-18.342125-84.131236-2.955962-17.963156 7.124627-29.256448 33.652494-50.706123 15.992514-2.349611-32.667173 21.601263-43.126733 39.033862-65.031171 16.598865-0.37897 25.239371-13.567109 44.794198-12.505995l24.557226 25.694135c28.72589 10.990116 58.891865 15.234575 87.541961 22.662377 17.432598 35.69893 76.855021 6.518276 79.659395 58.967659 16.902041 22.738172 5.760337 54.116849-2.652786 77.233991-11.672262 20.009591-30.772326 35.244166-51.691444 42.520381-17.811568 5.381367-31.530265-4.168665-48.12913-5.608749-23.192935 35.092578-67.835546 54.268437-110.128546 45.40055-37.517983-4.092871-75.642318-22.88976-89.967366-60.483537 2.804375-3.183344 1.36429-9.929002 1.212702-14.855606-9.171063-11.217498-20.994912 3.865489-34.562021-0.757939z m132.487748 333.872156c-7.124627 19.933797-23.117141 46.537458-43.884671 50.402947-25.542546 2.198023-49.569215-0.606351-70.867303-10.004795l-18.872682-29.180654c-11.823849 0.303176-10.004796 13.491315-22.056027 13.718697-27.058424 4.017077-38.048541-15.461957-53.434704-33.273525 3.031756-5.002398 7.352009-11.596468 2.728581-17.963155-10.686941-6.518276-17.65998 11.823849-28.195333 12.127025-43.429908 10.914322-91.710626-1.212702-124.150418-35.016785-6.139306-12.884964-9.70162-30.923914-5.532955-45.855313 27.285806-49.796596 90.346336-57.982338 129.531785-50.554536 22.738172 12.505994 51.464062 15.158781 75.339143 9.70162 13.718697 9.550032 28.953272 20.615942 47.143809 21.980233-19.327446 8.488917-32.363998 35.31996-39.185449 58.361308 3.48652 24.633019 17.356804 42.444587 37.290602 50.023978 22.51079 4.396047 50.933505 3.713901 59.270834-24.25405 4.320253-14.931399-7.95836-24.481432-17.053629-30.999708-4.547634-1.440084-8.943681 1.970642-11.975437 5.22978 0.303176 13.18814 22.965554 14.249254 9.625826 29.408035-13.18814 11.975437-32.818761 5.684543-45.097374-0.530557-9.246857-11.217498-21.525469-29.10486-11.44488-47.522779 17.584186-16.750453 42.596175-40.246564 72.913738-26.148898 16.674659 4.547634 26.982631 4.320253 40.928709 13.870285 25.845722 22.283408 16.371484 58.588689 17.053629 86.632435z m-67.608164-121.573425l13.339727-15.310369c4.623428 4.85081 9.246857 13.036552 9.474239 21.298087l-22.813966-5.987718z m65.334347 23.192935c25.163577-7.352009 24.708813 32.136616 44.415229 38.200129 6.366688 14.628224 24.25405 12.657582 32.21241 23.950874 25.466752 5.911925 48.356512 17.053629 75.339142 17.963156 13.339727-13.567109 29.862799-9.019475 46.310077-14.325049l7.882566 9.70162c-35.31996 31.985028-89.436809 30.165975-130.441312 12.960758-37.896953-9.019475-65.713317-47.825955-75.642318-88.451488z m39.109655 5.608749c1.212702-6.518276 11.823849-3.638107 16.144102-10.232177 23.041347 15.840926 46.234283 51.388268 80.493129 37.366395 12.202819 3.10755 27.058424-2.198023 36.381074 10.838529 0.37897 16.371484-17.735774 8.488917-26.603661 13.642903-42.141412 2.804375-81.630037-20.994912-106.414644-51.61565z m170.460495 97.849933c-2.652787 11.520674-14.55243 20.085385-25.011989 25.23937-56.46646 21.070706-112.478157 2.652787-161.365226-25.845722l-3.410726-23.041347c57.982338 34.789403 125.969472 54.7232 189.787941 23.647699z m-153.10369 67.53237c-16.902041-14.17346-54.495818-18.266331-50.554535-42.975145 20.615942-20.236973 37.821159 15.461957 62.075209 16.523072 46.76484 15.537751 111.492836 22.056027 148.177086-19.858004 6.139306 4.775016 19.706416 7.882566 19.933797 19.251652-43.733084 56.84543-126.803205 42.444587-179.631557 27.058425z m453.853909 12.505994c3.941283-21.373881 8.109948-37.896953-2.880168-57.375986 67.153401 42.596175 138.627054 80.417334 216.012632 108.233697-73.974852-9.70162-149.313995-17.811568-213.05667-50.857711z m116.949997-4.320252c-47.068016-26.982631-95.803497-50.478741-137.18697-93.90865-7.95836-12.80917 6.59407-34.486227-5.608749-47.446985 5.836131-1.667466 13.263934-8.640505 20.615943-11.899643l0.227381 9.853208c36.911632 33.652494 73.899058 72.080005 113.615065 104.140826 34.789403 12.202819 67.077607 37.896953 100.351132 51.918826 57.754956 23.344523 116.41944 30.014387 175.387098 49.948184-100.351132 12.202819-182.360138-30.317562-267.4009-62.605766z m268.537809 44.64261c-65.031171-18.190537-138.627054-23.192935-195.01772-56.239078-56.46646-38.124335-118.844845-66.319668-162.123165-124.529387 24.405638 16.068308 75.111761-1.74326 84.964969 39.033861 56.693842 44.869992 122.63454 104.140827 197.973682 113.842447 86.101877 27.588982 188.347856 30.165975 279.982689 26.224691-64.42482 6.442482-138.020703 13.339727-205.780455 1.667466z m-183.421253-135.44371c89.209427 94.818176 221.772969 106.566232 346.681327 118.390082l-5.987719 3.486519c-153.179484 0.227382-316.060588-23.799286-420.959354-146.282238 1.212702-16.371484 23.647699-16.902041 32.363998-25.466753 16.826247 7.882566 32.439792 33.804082 47.825955 49.796596z m121.118662-150.678285c-11.369086 33.046143-45.324756 56.921223-78.143517 62.605767-22.586584 3.638107-42.293-5.532955-58.967659-18.342126-18.796889 30.090181-42.520381 51.918826-76.930814 57.679163-40.625534-2.425405-84.20703-4.547634-107.475759-41.91403-18.721095-22.434996 0.227382-47.598573 8.943681-69.048249 19.175858-15.234575 44.187847-35.547342 69.881981-23.192935 15.386163 6.366688 37.896953 10.762735 41.307679 30.46915 5.305573 26.148898-21.752851 29.862799-35.168372 30.241769-3.259138-6.442482-12.581788-19.479034-19.933798-9.398444-11.596468 11.975437 6.669864 18.03895 9.853208 27.816363 19.630622 4.47184 43.505702 0.757939 51.99462-19.40324 11.899643-10.156383 6.973039-27.967951 8.034154-41.231885-14.17346-32.439792-53.207322-33.273525-83.373297-35.69893-22.434996 8.564711-46.234283 17.432598-59.19504 39.033862-32.363998-33.804082-73.520089-57.300193-121.194456-43.126732-28.119539 15.461957-60.559331 39.337037-58.285514 78.522486 3.713901 24.557226 20.615942 47.295397 44.945786 53.207322 18.114744 6.290894 35.774724-4.168665 47.598573-17.508392 8.640505-13.415521 18.721095-33.197731 6.290895-47.901749-7.579391-6.366688-21.525469-19.02427-31.606059-10.68694-3.031756 3.410726-2.804375 13.263934 1.667466 13.188139 7.730978 2.955962 21.298088 9.398444 20.009591 22.434996-0.985321 15.082987-13.036552 16.902041-23.420317 23.647699-11.823849 3.638107-24.102462-4.396047-36.381075-10.611147-10.838529-12.960758-17.205217-35.926311-10.232177-54.041055 17.811568-15.234575 29.256448-33.652494 53.131528-37.366395 31.606059-0.757939 73.974852 8.109948 91.104275 40.473945 3.638107 21.222294-4.699222 49.493421 7.655184 67.380783 0.303176 11.44488-13.112346 13.339727-20.615942 18.417919-10.459559 1.819054-18.190537-12.80917-25.61834-2.576993-2.804375 4.775016-4.244459 8.185742-4.092871 14.704018 10.686941 6.518276 30.165975 6.063512 26.224691 27.437394 0.227382 8.261536-2.501199 16.447278-10.004795 23.117141-22.131821 12.202819-43.808878-13.567109-65.864905 1.515878-19.175858 15.234575-37.06322 27.3616-40.928709 53.662086-7.048833 23.041347 12.884964 34.258846 26.452073 38.882274 24.102462 4.396047 43.354114-5.987719 57.982338-22.88976-0.151588-6.518276 8.640505-14.779812-1.970641-19.479034-16.447278-1.440084-15.765132 26.603661-35.31996 25.239371-14.931399 3.713901-24.178256-7.503597-30.469151-18.796889-0.530557-21.525469 15.840926-31.757647 33.652495-38.730686 26.679455-8.943681 39.564419 22.207614 63.212117 10.156384 12.505994 16.068308 33.804082 27.058424 28.422715 54.950581-8.413124 23.268729-21.601263 44.945786-46.916428 53.813674-53.737879 12.657582-127.10638 22.738172-162.956898-34.107258 1.212702-14.855606-9.70162-30.923914 1.970642-42.671969 4.47184-1.667466 5.911925-6.669864 10.307971-10.08059-3.48652-23.041347-20.994912 2.046435-33.121937-7.503596-20.994912 3.865489-28.953272-22.207614-39.867594-35.168373-15.613545-25.845722 32.515586-18.721095 10.914322-42.89935-11.672262 10.156383-28.422715 0.682145-37.593777-7.427803-35.092578-25.390959 15.840926-31.530265 19.782209-54.7232 11.369086-23.117141 15.158781-52.828352 2.652787-77.233991-30.696532-27.058424-70.109363-36.002105-105.656705-22.207614-7.276215 15.007193-21.904439 30.165975-10.990117 48.053336 2.046435 19.479034 26.073104 22.283408 39.716007 30.241769 12.051231-2.122229 25.315165-10.459559 31.075502-22.056027-12.581788-21.222294-28.043745 18.569507-43.505702-2.349611-10.762735-8.034154-10.914322-16.144102-14.325049-27.740569-1.667466-12.960758 13.415521-11.748055 20.767531-13.491316 31.378677-9.019475 46.916428 10.307971 72.686356 21.222294 6.518276 19.554828 3.865489 40.928709-4.699223 57.754956-14.628224 18.266331-33.804082 31.985028-56.390666 32.515586-37.290602 5.836131-67.91134-16.371484-88.148312-48.887069-14.931399 5.305573-11.672262 20.009591-27.967952 20.38856-18.569507-16.144102-37.517983 7.352009-54.268436-10.156383-15.310369-12.884964-14.55243-36.002105-26.603661-45.552138-13.718697-1.212702-7.276215 16.750453-17.659981 21.980233-17.584186 15.007193-43.050939 17.356804-64.349026 9.550032-25.61834-2.576993-6.897245-35.926311-33.728288-31.985028-5.836131 8.185742-8.413124 24.860401-20.615942 20.236973-22.738172-12.733376-60.331949-11.823849-68.745073-44.415229 0.909527-26.527867 15.386163-51.539856 39.185449-60.104568 19.100064-26.679455 42.368793 8.867887 63.136324-3.259137l10.762735 11.369085c2.273817-28.119539 32.439792-22.283408 50.251359-29.256447 48.962863 31.833441 118.541669 53.131528 168.717235 14.249254 16.068308-12.051231 29.256448-33.652494 49.190245-17.508392 8.792093-8.488917 13.642903 7.730978 20.994912 7.57939 34.031464-30.393356 77.082402-51.160887 120.739692-45.476343 16.826247 9.474238 45.40055 13.718697 47.522779 39.943388l4.547635 3.259138c18.342125-49.796596 63.212118-59.119247 103.610269-66.547049 39.033862-0.909527 71.246272 26.148898 98.683666 48.583893 10.535353-1.819054-1.74326-8.261536 4.168665-13.339727 25.163577-15.386163 52.676765 0.530557 79.204632-14.855606 39.109655 4.017077 90.497924 15.840926 105.277735 61.468858 3.334932 16.523072-14.55243 21.904439-5.22978 34.637815 30.999708-17.129423 64.273232-11.369086 95.879292-2.273817 12.581788 19.479034 36.835838 32.136616 28.650096 63.515293z m-10.611147-68.820866c-33.500906-14.021873-57.83075-28.271127-93.681267-15.992515 1.36429-9.70162-9.853208-37.44219 8.488917-31.378677 20.843324 1.288496 55.329551-1.288496 71.473653-22.965553 9.019475 1.591672 18.493713 16.144102 30.393357 15.91672-8.564711 16.598865-3.562314 39.337037-16.67466 54.420025z m20.615943-18.645301c2.425405-21.373881 10.838529-44.415229 31.757647-51.464063 28.271127-10.535353 65.637523-21.298088 90.346335 7.503597 11.748055-6.745658 15.310369 12.884964 24.25405 12.657582 22.88976 10.914322 43.808878 12.202819 67.91134 6.745658 25.163577-7.352009 22.662378-56.390666 60.331949-47.371191 29.938593-4.092871 60.256155 6.669864 76.021288 37.442189 1.970642 18.114744 14.249254 36.002105 4.168665 54.192643-5.457161 14.931399-15.765132 25.087783-30.84812 25.390959-7.579391 1.74326-12.278613-6.2151-19.554828-2.880169l-8.867887 13.415522c0.303176 13.263934 13.870285 9.550032 18.569507 17.735774-6.973039 18.114744 0.909527 39.261243-21.601263 44.718404-23.950874 2.349611-41.156091 33.95567-67.001813 21.298088-19.858003-14.097667-44.036259-23.647699-49.190245-51.312475-6.518276-21.1465 1.894848-44.491023 12.051231-61.089888 11.520674-16.674659 29.862799-9.019475 46.385871-9.398444 10.611147 11.217498 28.877478 15.689339 27.740569 35.471548-0.985321 14.855606-9.929002 24.936195-23.344523 26.98263-16.523072 3.562314-8.109948-19.554828-20.085385-24.178256-8.943681 1.819054-10.307971 10.080589-11.672261 18.190538 1.819054 11.369086 9.625826 19.479034 20.009591 20.843324 12.278613 6.442482 19.40324-5.381367 29.938593-3.865489 13.415521-10.156383 20.388561-28.498509 20.009591-44.869993-6.669864-27.892157-35.547342-43.581496-58.058132-49.569214-28.801684-5.836131-40.019182 23.799286-54.571612 45.703725-13.18814 21.601263-3.334932 51.009299 1.743259 73.747471 15.613545 26.148898 42.899351 40.246564 70.185157 47.750161-1.136909 19.782209-25.390959 7.124627-35.926311 5.760336-28.72589-10.762735-57.83075-28.271127-79.128838-47.522779-3.48652-14.704018 14.628224-16.750453 21.752851-26.755248 20.464355-25.163577 19.479034-67.759752 3.713902-98.75946-17.053629-19.100064-43.960465-20.312767-67.759752-11.44488-11.823849 11.748055-26.527867 25.315165-27.664776 45.097374 3.48652 14.704018-0.303176 46.006901 23.571905 38.958068 9.019475 1.36429 14.931399-3.713901 19.251652-10.307971l-0.151588-4.926604c-7.806772-8.109948-16.447278 5.305573-22.738172-4.396047-7.579391-8.109948-7.95836-24.481432-2.122229-34.486227 11.520674-16.826247 30.923914-18.872683 50.781917-15.992514 13.567109 6.2151 18.342125 17.735774 24.708813 30.620738 0.606351 24.633019-3.562314 49.417627-22.51079 64.652202-25.163577 18.493713-60.104567 9.70162-87.31458-2.880169-26.148898-24.026668-41.838236-53.283116-35.092578-91.40745z m228.291245 192.061757l-0.985321 22.88976c-30.090181-0.833733-72.610562-16.219896-104.368209-33.652494-21.449675-17.65998-50.327154-33.349319-55.329551-56.087491 40.094976-20.691736 56.390666 33.197731 81.857419 39.109656 25.769928 9.246857 48.811275 26.679455 78.901456 27.740569z m-209.645944-37.972746c-16.902041-14.400842-8.564711-39.261243-16.371484-57.072812l2.652787-9.929001c19.933797 19.251652 49.190245 51.312474 64.727996 75.642318 43.202526 43.429908 103.761857 63.287912 160.986256 75.187555 1.819054 9.853208 12.430201 14.55243 11.141704 25.997309-81.402655-19.40324-183.724428-21.980233-223.213053-109.901163z m268.462015 117.101584c-16.598865-9.474238-35.092578-22.283408-41.686648-46.840634-1.819054-21.298088-1.061115-45.931107 12.202818-62.68156 23.647699-15.386163 51.388268-45.627931 81.857419-29.938593 4.699222 8.185742 8.034154 17.963156 17.053629 19.327446 37.139014-13.870285-12.884964-34.258846 6.063512-57.527574 29.711211-15.537751 58.058132-27.588982 95.65191-21.980233 15.386163 17.584186 63.515293 23.192935 48.053336 61.241476-14.779812 8.640505-34.107258 17.432598-52.525177 7.730978-7.427803-2.955962-13.642903-9.32265-18.342125-19.100064 2.804375-3.410726 10.383765-6.973039 7.048833-15.007193-4.623428-6.59407-15.158781-6.366688-17.963156 0.454763-7.352009 10.080589-2.273817 27.892157 2.349612 34.258846 12.354407 21.222294 36.305281 20.691736 57.527574 25.163576 19.327446-7.200421 34.031464-22.131821 37.972747-43.733083-7.806772-16.219896-0.985321-42.596175-23.496111-46.992222-44.187847-30.165975-105.732499-25.542546-147.191765 6.59407-10.307971 8.564711-2.122229 33.046143-21.828645 26.98263h-4.471841c-0.37897-14.704018-2.425405-37.745365 6.290895-46.006901 33.046143-5.684543 36.532663-48.659688 43.27832-75.035967 24.405638 17.584186 64.273232 44.491023 96.63723 19.024271 25.390959-7.124627 50.402947-32.363998 77.764548-11.672262 19.858003 15.91672 11.520674 40.777121 19.554827 60.331949 6.669864-31.302883 38.275923-30.46915 60.483537-39.109655 19.554828 1.136909 36.381075 10.611147 53.207322 23.420317 12.505994 27.513188 11.975437 62.075209-5.532955 90.573718-16.068308 13.415521-42.596175 38.654892-70.033569 26.073103-18.03895-4.47184-36.153693-13.718697-42.747763-35.092578-0.37897-14.779812 12.884964-23.192935 23.344523-28.346921 10.535353-0.227382 22.586584-3.865489 28.650097 7.427803 6.2151 6.59407-0.909527 18.190537-8.640506 15.234575-7.124627 11.596468 9.095269 4.47184 10.838529 11.217498 13.339727-3.638107 14.476636-21.904439 11.293292-34.789403-14.249254-24.329844-44.036259-12.202819-61.847827-8.413123-17.584186 16.750453-18.645301 36.532663-12.051231 59.498216 8.261536 35.926311 45.855313 31.681853 71.246271 36.002105 18.190537-0.454763 38.80648-17.281011 50.402948-30.772326 7.655185 1.36429 6.366688 14.628224 9.70162 22.88976 18.03895 2.728581 29.332242 35.471548 49.87239 15.234575 19.175858-15.234575 18.417919-44.869992 11.975437-62.605766-3.183344-3.259138-6.2151-6.59407-10.686941-4.699223-19.100064 16.826247 17.584186 42.217206-12.278613 51.236681-10.611147-3.10755-21.222294-6.2151-29.104859-15.91672-9.398444-17.735774 6.745658-36.305281 9.246856-54.268437 19.100064-17.053629 41.459267-29.029066 67.229195-21.298088 30.620738 23.950874 49.341833 59.649804 44.263641 100.805895 16.826247 11.06591 13.339727-13.567109 23.496111-21.828645 31.227089-15.537751 70.488333-6.59407 92.165389 19.175859 5.22978 32.818761 15.007193 66.926019 42.520382 82.918533 24.026668 2.576993 55.632727 1.819054 74.656997-18.342125 11.596468-13.263934 15.765132-36.456869 6.139306-52.600971-7.730978-13.036552-26.073104-22.51079-41.004503-17.205217-5.760337 3.48652-13.18814 11.975437-11.369086 21.601263 9.019475 1.591672 34.031464-22.131821 39.109656 2.425405 0.37897 14.779812 2.273817 29.559623-5.153986 38.048541-28.271127 8.716299-65.78911 16.371484-78.522486-21.298087-9.32265-16.144102-5.305573-34.410433-7.276215-50.781917 20.464355-25.163577 52.752559-57.072811 91.938008-46.537459 33.273525 2.576993 43.354114 49.948184 57.375987 75.793906 21.828645-34.789403 51.691444-42.293 92.316977-39.867594 36.002105 5.684543 69.351424 11.596468 101.260658 33.728288 48.5081 12.127025 92.695947 42.293 139.612375 54.420024 24.25405 10.838529 55.860109 21.601263 81.705831 32.439792 18.114744-0.454763 32.136616 22.359202 48.583894 15.461957 20.994912 7.579391 37.896953 20.388561 61.847827 18.266331-458.022574 3.941283-881.634715 0.833733-1340.491022-34.410433z" fill="#D0BE92" p-id="7492"></path></svg>