<?xml version="1.0" standalone="no"?><!DOCTYPE svg PUBLIC "-//W3C//DTD SVG 1.1//EN" "http://www.w3.org/Graphics/SVG/1.1/DTD/svg11.dtd"><svg t="1784387088950" class="icon" viewBox="0 0 3041 1024" version="1.1" xmlns="http://www.w3.org/2000/svg" p-id="8658" xmlns:xlink="http://www.w3.org/1999/xlink" width="593.9453125" height="200"><path d="M2950.499185 927.095019c-177.735589-27.058785-332.808358-100.578201-492.050094-167.50367-46.61263-7.199943-93.605257-22.509821-130.364965 16.295871-11.216911-29.331767-31.226752-50.175602-60.027523-64.349489-48.129618-5.607955-85.040325 26.679788-108.233141 59.953524l-27.589781-19.099849c-25.465798-4.319966-54.419568-16.674868-76.323394 6.744947-20.084841-24.177808-27.133785-65.105483-54.494567-77.459385-16.674868-11.29391-40.549678-8.944929-56.921548 2.879977-28.119777 13.641892-18.795851-35.699717-38.578694-48.432615-27.66378-24.026809-72.685423-19.629844-100.7292-4.168967-9.852922-27.815779-32.74274-48.583614-61.240514-49.492607-6.214951-8.185935-3.562972-16.295871-0.606995-26.224792-18.87185-30.999754 24.481806-46.764629 17.65986-79.35537-5.153959-29.483766-19.099848-50.478599-39.336688-71.321434-22.737819-14.249887-57.299545-13.490893-82.689344-6.366949l-17.432861-37.517703c-26.299791-32.135745-71.625431-42.519662-111.947111-30.16576-32.666741 10.610916-51.539591 39.109689-61.316514 72.079428-19.479845 2.046984-49.569606-2.197983-70.48844 6.593947l-45.399639 45.476639-48.735613-23.571813c1.136991-18.189856-2.121983-32.969738-10.003921-45.779636-13.79489-14.475885-33.349735-17.356862-51.61559-20.084841l-23.419814-43.884651c-24.481806-19.175848-60.710518-24.859803-90.649281-20.994834 6.821946-32.893739 2.803978-70.714439-12.809898-98.15222-23.039817-27.512782-65.636479-44.641646-99.894207-33.803732l-18.87285-42.443663c-12.278903-6.215951-23.116816-20.767835-39.412687-17.280863-22.737819-2.57698-20.463838-30.696756-25.389798-48.508615C889.374549 10.905293 830.635015-0.993612 782.658396 0.066379 727.177837 4.767342 696.405081 41.60305 670.635286 91.550653c-13.717891-9.549924-33.196736-0.985992-46.460632 7.57994-25.694796 49.946603-79.810366-9.549924-113.387099 30.467758-18.94885 23.571813-30.544757 46.916628-38.806692 76.703391-16.825866-11.29391-32.893739 3.940969-46.157634 9.169927-25.2398 13.79489-36.53271 48.432615-40.397679 76.552392 1.894985 13.187895 5.00196 22.964818-0.757994 34.561726-46.385632 1.059992-81.553353 42.974659-95.575241 84.35733-37.7457-2.273982-79.35637 10.156919-96.485234 46.68963-8.86793 13.186895-5.305958 31.301751-0.454997 46.005634 12.733899 37.593702 45.703637 26.754788 72.989421 42.747661 1.742986 8.033936 9.625924 17.735859 6.669947 27.66478l-16.522869 3.713971c-15.613876 33.121737-47.82562 6.062952-71.700431 10.00392-23.87481 5.457957-49.11461 17.508861-60.635518 44.036651-0.832993 21.37383-12.429901 44.717645-1.439989 64.19649-23.87481 5.456957-48.128618 4.244966-68.668455 16.44687C30.637367 730.941577-3.393363 752.997402 0.395607 789.302113c-4.849961 42.747661 36.002714 53.207578 61.69651 67.380465 36.911707 33.728732 97.167229-25.1628 121.118038 38.427695 18.569853 17.507861 33.272736 5.759954 55.707558 5.229959l26.148793 25.617796c28.573773 5.835954 73.899413 14.627884 102.01819-8.867929 11.822906-2.045984 12.277903 16.067872 25.541797 10.838914 29.104769 17.279863 59.422528 28.194776 95.424242 35.470718 59.269529 21.752827 106.110158-25.389798 153.556781-49.569606 15.234879 7.959937-0.681995 29.635765 8.639931 42.672661 19.858842 15.916874 25.087801 48.507615 55.178562 47.82562 60.40652 15.15888 140.065888 14.930881 179.250577-43.429655 33.652733 28.573773 80.265363 27.512782 118.010063 39.866683 193.273466 39.943683 401.704811 26.755788 594.220282-27.133784 14.779883-11.747907 42.140665-0.984992 50.705598-17.58386-174.248617-2.424981-363.050118 16.749867-509.558955-83.22134-27.815779-29.179768-64.348489-47.82562-75.793398-87.086308 9.853922-31.378751 28.95377 10.762915 45.097642-7.57994 42.292664 15.386878 71.472433-21.44883 105.428163-46.915628 14.779883 116.343076 134.002936 139.76289 221.544241 162.425711 107.01915 12.277903 239.2791 19.099848 350.695216 29.482766 19.175848-13.489893 40.776676 7.352942 59.952524-6.36595 88.754295 9.625924 192.363473 8.715931 278.085792 11.671908 173.035626 5.835954 354.788183 13.036896 527.369813 7.427941 27.209784 4.319966 64.499488-3.334974 94.741248 4.319965 79.35537-19.781843 159.696732 11.065912 240.265092-3.78997 18.189856 1.136991 39.03369-0.909993 55.556559-3.106975-0.075999-3.334974 1.363989-8.336934-1.819985-9.852922-31.225752 7.199943-57.071547-3.637971-88.525298 3.637971zM1339.057979 475.289606c11.36891-21.827827 24.329807-43.429655 46.688629-53.812572 18.038857 4.546964 46.385632-12.505901 57.223546 11.899905l0.227998 9.851922c12.277903 7.806938 13.414893-11.747907 17.65986-20.15984-8.109936-21.146832 9.700923-36.381711 16.673867-52.90458 29.331767-28.725772 71.245434-39.563686 107.779145-20.691836 12.125904 9.549924 21.524829 27.513782 33.878731 40.246681-5.684955 14.930881 11.065912 22.66182 0.833993 34.561725 12.429901 24.405806 14.703883-15.15888 32.666741-14.021888 19.402846-3.561972 40.549678-2.50098 57.299545 5.381957 20.009841 22.433822 41.837668 53.054579 33.727732 89.587289-5.683955 16.522869-32.74274 17.129864-24.859803 39.866683 18.417854 9.398925 6.745946 29.483766 5.683955 40.929675-14.475885 23.419814-40.018682 22.433822-62.529503 27.966778-28.649773-6.062952-50.022603-18.569853-68.440457-41.231672-5.07896-26.148792-16.447869-60.40652 7.123943-78.900374 13.263895-8.639931 31.151753-20.691836 44.869644-7.806938 9.246927 11.217911 27.73978 27.361783 16.068873 45.627638-2.57698 14.855882-17.811859 3.78997-25.315799 10.459917-4.470965 0.074999-12.353902-9.625924-16.597869 0.378997 3.182975 3.258974 1.818986 11.595908 7.881938 11.443909 22.66182 9.095928 41.686669-9.245927 50.478599-27.663781 7.123943-11.596908-4.926961-19.403846-0.757994-31.151752-16.977865-17.507861-43.202657-43.429655-69.881445-24.632805-26.603789 12.051904-34.789724 46.764629-37.214705 76.475393-27.360783-20.690836-65.106483-24.707804-96.333235-15.915873-0.529996-22.889818-17.507861-39.109689-37.289704-50.023603-15.234879-9.549924-23.87581 3.939969-37.442703 9.169927-11.519909 15.08388-12.6569 34.865723-10.609915 54.571567 4.470965 1.439989 10.685915 7.806938 15.005881-0.378997 13.036896-16.901866-12.959897-37.592702 13.869889-49.644606 22.207824-8.79193 24.405806 17.58486 38.049698 26.906786 4.925961 19.629844-5.305958 33.121737-16.902865 46.385632-31.378751 10.610916-66.015476 4.926961-89.133293-24.177808-6.517948-21.146832-19.174848-43.732653-10.534916-68.593456z m-134.988929-115.281084c4.851961 14.703883-2.348981 26.527789 5.381958 37.819699 8.639931-13.414893 27.967778-21.979825 43.202657-12.429901 13.945889 11.141912 11.140912 25.997794 17.58386 43.809652-2.728978 6.820946-4.168967 13.339894-4.016968 19.857843 11.899906-0.303998 25.541797-2.122983 36.229712 4.091967 24.252807 10.838914 23.419814 43.884652 16.597868 66.926469-26.754788 15.460877-62.908501 14.703883-87.617304 41.53467-16.446869 5.304958-30.468758-7.351942-38.123697-18.87285-20.539837 22.055825-56.465552 32.514742-86.631312 25.1628-24.405806-19.174848-54.874564-34.788724-46.68963-79.431369l14.097888-38.274696c15.916874-19.857842 41.53467-17.356862 64.121491-20.994834 16.37087 1.21199 30.165761 15.688875 35.395719 35.31972 5.00196 22.737819-3.865969 36.229712-20.009841 44.641645-13.263895 8.639931-21.145832-4.243966-31.832747-9.094927-10.762915-7.806938-0.682995-27.815779-9.777923-32.515742-17.810859 6.897945-12.808898 28.346775-6.669947 41.231672 3.637971 19.629844 25.921794 15.764875 36.60871 20.464838 16.446869-6.897945 23.798811-8.639931 38.502694-22.207824 11.671907-18.189856 6.745946-37.8207 4.699963-57.527543-5.00296-22.964818-26.300791-30.544757-45.931636-38.426695-28.497774-0.909993-62.756502 9.776922-77.081388 39.487687-12.809898 28.346775-21.297831 58.133538-11.444909 87.541305l-48.356616-7.199943c1.060992-19.781843 12.884898-33.045738 9.170927-57.679542-4.849961-16.521869-18.795851-37.440703-37.062705-40.169681-16.598868-9.473925-34.561726 0.833993-47.749621 9.170927-16.219871 16.749867-7.957937 43.050658-4.622964 62.453504 7.729939 5.00296 30.468758 19.251847 33.121738-3.939969-10.762915-9.626924-35.016722-20.464838-21.979826-40.549678 13.262895-8.640931 32.514742-20.464838 47.82462-7.806938 12.505901 17.886858 18.94885 34.106729 16.37187 57.299545-11.29391 24.935802-36.835708 27.133785-59.346528 30.999754-11.899906-1.515988-15.385878-15.992873-27.133785-11.065912-18.493853-15.916874-33.879731-30.393759-37.441703-56.542551 0.984992-24.708804 1.742986-50.932596 20.842835-67.759462 23.419814-33.499734 60.028523-12.808898 91.028277-28.573773l45.475639 17.129864c-2.804978 6.593948 0.378997 16.37087 7.729939 16.219871 10.611916 4.698963 10.308918-8.337934 14.779882-11.748907-8.259934-35.925715 15.386878-51.311593 36.002714-73.06442 38.502694-20.615836 95.954238-10.534916 114.979088 35.016722zM835.183979 511.748317c-20.994833 3.636971-18.87285-30.999754-31.075753-45.476639-3.864969-32.666741-10.837914-80.038365 26.45179-87.693304 5.987952-1.742986 10.686915 4.699963 15.159879 6.36695-20.237839 34.789724-27.968778 87.693304-10.459917 126.725994z m-207.598352-8.413933c-11.36891-35.849715-46.839628-77.839382-22.282823-117.934064l24.405806 15.991873c2.954977 60.710518 28.345775 119.147054 77.233387 149.388814l0.150999 4.926961c-25.845795-14.173887-57.679542-23.344815-79.431369-52.449584z m5.153959 27.891778l-41.837667 5.684955 14.097888-39.791684c9.169927 6.517948 16.901866 22.66182 27.739779 34.106729z m10.989913-113.765096c2.425981-19.782843 15.916874-20.085841 30.923755-18.645852-0.226998 49.11461 18.796851 94.666248 46.764628 130.364965l0.227999 9.625923c-49.872604-15.234879-61.847509-75.718399-77.916382-121.345036z m47.90162-4.471965c-3.334974-16.295871 8.489933-19.933842 17.204863-30.014762 10.611916 3.107975 31.757748 5.987952 30.696757 19.024849-13.036896 26.754788-3.409973 55.935556 1.818985 78.900374 13.566892 4.622963 10.913913 24.405806 18.796851 35.698716-7.50394 6.669947-22.283823 13.79389-28.649773 0.681995-27.589781-30.544757-32.894739-64.954484-39.867683-104.291172z m126.498995-45.551638c-15.916874 18.569853-49.189609 15.915874-71.69943 11.519908-10.763915-9.625924-25.769795-9.246927-14.098888-27.739779 15.992873-15.15988 41.307672-25.390798 55.859556-45.476639-6.744946 27.967778 19.099848 40.625677 29.939762 61.69651z m-68.213458 93.529257c-0.454996-19.706844-8.79193-49.190609 13.566892-61.089515 9.094928 4.698963 20.766835-3.638971 27.057786 7.654939-8.336934 27.967778 1.21299 52.448584 5.00296 80.416362 7.50294 4.547964 7.654939 12.809898 7.881937 21.145832-31.226752 17.129864-41.231673-28.649773-53.585574-48.128618z m105.049166-63.212498c10.534916-1.818986 19.251847-11.899906 31.378751-9.019928-20.312839 31.909747-41.53467 83.297339-18.189856 122.255029 4.546964 3.031976 9.169927 7.882937 7.957937 14.627884-18.114856 3.562972-17.053865-21.145832-27.816779-27.360783-8.488933-35.925715-12.126904-68.820454 6.593948-100.426203z m155.451766-34.789724c2.57698-13.338894 16.143872-20.15984 28.195776-12.125903 3.106975-1.894985 4.546964 1.439989 6.138951 3.030975-5.911953 6.897945-2.424981 19.782843-11.671907 18.417854-8.943929-1.363989-15.15988-6.138951-22.66282-9.321926z m-571.026467-141.278878c11.823906-1.817986 31.226752-5.683955 34.713725 7.50394 30.468758 17.205863 5.229958-34.636725 19.932842-48.052618 12.809898-28.346775 33.576733-42.064666 60.256521-50.781597 18.189856 2.728978 42.140665 0.606995 50.023603 21.676828 16.219871-16.749867 27.209784-62.9835 57.678542-43.959651 11.974905 4.622963-1.060992 22.889818 14.021889 22.585821 13.111896-15.08288 11.216911-37.971699 18.189855-56.313553 21.44983-39.791684 60.331521-55.48156 97.697225-61.317513 43.581654 3.941969 78.446377 16.143872 104.899167 54.949563 4.925961 21.222832 8.715931 45.779637 13.565892 63.819494 7.124943-11.824906 23.723812-10.459917 36.001714-2.652979 12.051904 6.441949 22.889818 20.993833 29.332767 37.213704 1.818986 9.853922-4.016968 21.37383 2.273982 29.559766 23.646812-13.79489 57.98154-21.069833 83.979334-3.561972 21.524829 19.023849 32.74174 46.763629 37.668701 77.839382-0.681995 28.043777-19.781843 46.461631-40.473679 60.179522-14.931881 5.305958-28.422774 0.682995-39.260688-10.534916-13.263895 8.412933-11.520909 26.527789-21.752828 36.607709-27.058785-4.319966-58.436536 4.471964-82.539344-1.439989-11.747907 15.08288-29.710764 13.945889-44.641646 17.432862-25.694796-5.911953-51.767589-28.422774-62.9095-54.419568-14.096888-27.73978-2.727978-60.710518 8.564932-85.64632 28.346775-13.642892 57.527543-42.368664 89.815286-15.08288 10.989913 19.251847 32.439742 36.910707 25.466798 61.771509-5.835954 10.004921-12.959897 21.600829-26.527789 16.977866-24.253807-2.57698-7.275942-50.781597-30.771756-30.469758-6.972945 28.195776 11.444909 37.669701 31.226752 50.175601 15.006881-1.894985 29.786764-12.126904 36.759708-28.876771 10.07992-18.189856 0.681995-37.669701-5.835953-57.299545-12.884898-32.439742-50.479599-38.049698-82.084349-39.109689-19.251847 11.899906-43.126658 15.839874-54.647566 40.776676-29.559765-45.32464-76.550392-62.377505-125.665002-51.387592-22.282823 17.129864-33.95573 35.31972-43.884652 61.846509 0.757994 31.379751 4.547964 60.710518 33.349736 73.216419 21.145832 2.652979 49.492607-2.727978 56.541551-25.996794 7.199943-10.004921 9.852922-29.862763 3.486972-41.155673-9.246927-13.036896-19.857842-15.916874-33.273736-14.021889-5.987952 3.486972-5.835954 10.004921-5.684955 16.522869 11.975905 4.623963 25.466798 4.319966 27.437783 20.919834 0.454996 17.961857-18.94885 23.343815-30.771756 26.981786-16.599868-1.439989-27.437782-14.173887-33.879731-28.801772-6.745946-30.999754 16.901866-54.722566 32.817739-72.98942 37.366703-12.504901 66.319473 8.109936 93.984254 30.545757 12.353902 19.478845 10.004921 44.187649 5.987953 65.56048-13.491893 6.821946-26.376791 31.833747-41.762669 15.765875-1.439989-4.926961-7.50294-4.774962-10.534916-1.28899-1.21299 16.37187-0.681995 37.669701-13.794891 52.827581-24.935802 26.830787-62.604503 19.630844-94.286251 13.642891-4.623963-4.849961-6.366949-12.884898-13.794891-14.475885-14.703883 13.566892-33.95473 23.87481-54.949563 27.512782-12.051904-7.806938-34.409727 5.987952-30.469758-18.796851-10.837914-14.551884-21.145832-1.28899-34.561726-2.57698-28.800771-14.097888-72.230427-11.519909-83.675336-48.962611-11.519909-40.776676 13.263895-74.35341 36.759708-94.665248zM579.988005 395.860237l0.226998 8.261934h-1.363989l-0.227998-8.261934h1.364989zM248.316639 528.499184c-25.618797-2.57698-39.715685-20.388838-49.265609-44.794644-0.454996-19.705844 11.36891-33.045738 24.556805-43.201657 31.074753-23.799811 80.56836-25.011801 112.780104-1.060992 15.840874-23.495813 48.507615-33.879731 75.6414-34.485726 22.813819 5.986952 43.809652 13.566892 50.554598 41.458671 0.454996 19.705844 4.168967 44.339648-15.006881 57.754541-16.37187 8.639931-32.818739 17.356862-49.569606 9.473925-9.245927-11.444909-24.556805-24.101809-14.323886-37.593702 10.459917-3.409973 17.886858-11.899906 29.861763-8.79193-1.515988 3.182975 1.743986 6.442949 3.334973 7.958937 5.911953 1.666987 8.79193-6.745946 11.671908-10.156919-0.302998-11.444909-13.641892-9.322926-19.857843-15.916874-21.145832-2.651979-34.257728 12.429901-42.74666 30.620757-3.78997 29.710764 18.796851 35.699717 28.194776 55.177562 22.737819 4.395965 43.581654-5.987952 61.241514-19.629844 17.58386-16.750867 30.619757-43.354656 22.358822-70.943437-6.442949-16.446869-15.840874-36.001714-33.95573-42.064666-25.769795-9.246927-59.19453-18.341854-84.130332-2.955977-17.962857 7.123943-29.256768 33.651733-50.705598 15.991873-2.349981-32.666741 21.600829-43.125658 39.03369-65.029483 16.597868-0.379997 25.2388-13.567892 44.793645-12.506901l24.556805 25.693796c28.725772 10.989913 58.891532 15.234879 87.541305 22.66282 17.432862 35.698717 76.85439 6.517948 79.659367 58.966532 16.900866 22.738819 5.759954 54.11657-2.652979 77.233387-11.672907 20.009841-30.772756 35.24372-51.691589 42.519662-17.810859 5.381957-31.52975-4.167967-48.128618-5.607955-23.192816 35.092721-67.835461 54.267569-110.128126 45.399639-37.517702-4.091968-75.641399-22.889818-89.966286-60.48252 2.803978-3.182975 1.363989-9.928921 1.212991-14.855882-9.170927-11.216911-20.994833 3.865969-34.561726-0.757994zM380.802587 862.366533c-7.123943 19.933842-23.116816 46.536631-43.883652 50.4026-25.542797 2.197983-49.569606-0.606995-70.867437-10.00492l-18.87185-29.179769c-11.823906 0.301998-10.004921 13.489893-22.055825 13.717891-27.058785 4.016968-38.048698-15.461877-53.434576-33.273736 3.031976-5.00196 7.351942-11.595908 2.728978-17.962857-10.686915-6.517948-17.65986 11.823906-28.195776 12.126904-43.429655 10.914913-91.709272-1.21199-124.149014-35.015722-6.139951-12.884898-9.701923-30.923754-5.532956-45.855636 27.285783-49.795605 90.345283-57.98154 129.530971-50.553599 22.737819 12.505901 51.463591 15.15788 75.338402 9.700923 13.717891 9.549924 28.95277 20.615836 47.143626 21.979826-19.327847 8.489933-32.363743 35.31972-39.185689 58.361536 3.486972 24.632804 17.356862 42.443663 37.289704 50.023603 22.511821 4.395965 50.933596 3.713971 59.271529-24.253807 4.319966-14.931881-7.958937-24.481806-17.053864-30.999754-4.547964-1.439989-8.943929 1.969984-11.975905 5.229958 0.303998 13.187895 22.965818 14.249887 9.625923 29.407767-13.187895 11.974905-32.817739 5.683955-45.096642-0.529996-9.246927-11.217911-21.525829-29.105769-11.444909-47.522623 17.58386-16.749867 42.595662-40.24668 72.913421-26.149792 16.673868 4.547964 26.981786 4.319966 40.928675 13.86989 25.844795 22.283823 16.37087 58.589535 17.052865 86.632312z m-67.607464-121.573034l13.339894-15.309879c4.622963 4.849961 9.246927 13.036896 9.473925 21.297831l-22.813819-5.987952z m65.334482 23.192815c25.1628-7.351942 24.707804 32.136745 44.414647 38.199697 6.365949 14.628884 24.253807 12.6579 32.211744 23.95081 25.466798 5.911953 48.356616 17.053865 75.339402 17.962857 13.338894-13.566892 29.861763-9.018928 46.309632-14.324886l7.881938 9.701923c-35.31972 31.984746-89.43629 30.165761-130.439964 12.959897-37.896699-9.018928-65.713478-47.82462-75.6424-88.449298z m39.109689 5.608956c1.21199-6.517948 11.822906-3.637971 16.142872-10.231919 23.041817 15.839874 46.234633 51.387592 80.492361 37.365703 12.202903 3.107975 27.058785-2.197983 36.380711 10.838914 0.379997 16.37087-17.734859 8.488933-26.602789 13.642892-42.141665 2.803978-81.629352-20.994833-106.414155-51.61559z m170.458647 97.849223c-2.652979 11.519909-14.552884 20.084841-25.011802 25.2398-56.466552 21.069833-112.477107 2.651979-161.364718-25.845795l-3.409973-23.041817c57.98154 34.789724 125.969 54.722566 189.786493 23.647812z m-153.102785 67.531464c-16.901866-14.172887-54.495567-18.265855-50.554598-42.974659 20.615836-20.236839 37.8217 15.461877 62.075507 16.522869 46.763629 15.537877 111.491115 22.055825 148.175823-19.857843 6.138951 4.774962 19.705844 7.882937 19.933842 19.251848-43.733653 56.844549-126.802993 42.444663-179.630574 27.057785z m453.850397 12.505901c3.940969-21.37383 8.109936-37.896699-2.879977-57.375545 67.152467 42.596662 138.625899 80.417362 216.010285 108.233141-73.973413-9.701923-149.312815-17.811859-213.054309-50.857596z m116.949072-4.319966c-47.067626-26.982786-95.803239-50.478599-137.185911-93.908255-7.957937-12.808898 6.593948-34.485726-5.608956-47.446623 5.835954-1.666987 13.263895-8.639931 20.615837-11.899905l0.226998 9.853921c36.911707 33.652733 73.899413 72.079428 113.615098 104.139174 34.788724 12.203903 67.076467 37.897699 100.349203 51.919587 57.755541 23.343815 116.419076 30.013762 175.386608 49.947604-100.350203 12.202903-182.358552-30.317759-267.398877-62.605503z m268.535868 44.642645c-65.030484-18.189856-138.625899-23.192816-195.016452-56.239553-56.465552-38.123697-118.844056-66.318473-162.121713-124.528011 24.404806 16.068872 75.111404-1.742986 84.964325 39.03369 56.69355 44.869644 122.633026 104.139173 197.971429 113.842096 86.101316 27.588781 188.346505 30.165761 279.980777 26.223792-64.424489 6.442949-138.018904 13.339894-205.778366 1.667986z m-183.420544-135.442924c89.209292 94.817247 221.771239 106.565154 346.679247 118.38906l-5.987952 3.486972c-153.178784 0.226998-316.057491-23.799811-420.956658-146.281839 1.21299-16.37087 23.647812-16.901866 32.364743-25.465797 16.825866 7.881937 32.439742 33.803732 47.82562 49.795604z m121.119038-150.676804c-11.36991 33.045738-45.32564 56.919548-78.143379 62.604503-22.586821 3.638971-42.292664-5.531956-58.967532-18.341854-18.796851 30.089761-42.519662 51.919588-76.929389 57.679542-40.625677-2.425981-84.207331-4.547964-107.476147-41.914668-18.719851-22.434822 0.227998-47.597622 8.943929-69.047451 19.175848-15.233879 44.187649-35.546718 69.881445-23.192816 15.385878 6.366949 37.896699 10.762915 41.307672 30.469758 5.304958 26.147792-21.752827 29.861763-35.168721 30.24076-3.258974-6.441949-12.5809-19.478845-19.932841-9.397926-11.596908 11.974905 6.669947 18.038857 9.852921 27.81578 19.629844 4.471964 43.504655 0.757994 51.993587-19.402846 11.899906-10.155919 6.972945-27.967778 8.034937-41.231673-14.173887-32.439742-53.207578-33.273736-83.373338-35.698717-22.434822 8.564932-46.233633 17.432862-59.19453 39.03369-32.363743-33.803732-73.519416-57.299545-121.193038-43.126657-28.119777 15.461877-60.559519 39.336688-58.285537 78.522376 3.713971 24.556805 20.615836 47.294625 44.945643 53.206578 18.114856 6.28995 35.774716-4.168967 47.598622-17.507861 8.639931-13.415893 18.719851-33.197736 6.28995-47.90162-7.57894-6.366949-21.524829-19.023849-31.605749-10.686915-3.030976 3.409973-2.803978 13.263895 1.667987 13.187895 7.729939 2.955977 21.297831 9.398925 20.009841 22.434822-0.985992 15.08288-13.036896 16.901866-23.419814 23.647813-11.824906 3.637971-24.102809-4.395965-36.381712-10.610916-10.837914-12.960897-17.204863-35.926715-10.231918-54.040571 17.810859-15.234879 29.255768-33.652733 53.130578-37.366703 31.605749-0.757994 73.974413 8.109936 91.104277 40.473678 3.637971 21.221832-4.699963 49.493607 7.654939 67.379465 0.302998 11.445909-13.111896 13.339894-20.615837 18.418854-10.459917 1.818986-18.189856-12.809898-25.617796-2.57698-2.804978 4.774962-4.244966 8.185935-4.092968 14.703884 10.686915 6.517948 30.165761 6.062952 26.223792 27.436782 0.227998 8.261934-2.49998 16.447869-10.00392 23.116816-22.131824 12.202903-43.809652-13.566892-65.864477 1.515988-19.175848 15.234879-37.063706 27.361783-40.928676 53.661574-7.048944 23.041817 12.884898 34.259728 26.45179 38.882692 24.102809 4.395965 43.353656-5.987952 57.98154-22.889819-0.150999-6.517948 8.639931-14.779883-1.969984-19.479845-16.447869-1.439989-15.764875 26.603789-35.31972 25.2398-14.931881 3.713971-24.177808-7.50294-30.469758-18.796851-0.529996-21.524829 15.841874-31.756748 33.652733-38.729693 26.679788-8.943929 39.564686 22.206824 63.211498 10.15592 12.505901 16.067872 33.803732 27.057785 28.422774 54.949563-8.412933 23.269815-21.600829 44.945643-46.915627 53.813573-53.737573 12.6579-127.105991 22.737819-162.955706-34.106729 1.21199-14.855882-9.701923-30.923754 1.969984-42.671661 4.471964-1.666987 5.911953-6.669947 10.307918-10.07992-3.485972-23.041817-20.994833 2.045984-33.121737-7.503941-20.994833 3.864969-28.95277-22.207824-39.866683-35.16872-15.613876-25.844795 32.514742-18.719851 10.913913-42.89866-11.671907 10.156919-28.422774 0.681995-37.593702-7.427941-35.091721-25.389798 15.840874-31.52975 19.781843-54.722565 11.36991-23.116816 15.15988-52.827581 2.652979-77.233387-30.695756-27.057785-70.109443-36.001714-105.655161-22.206824-7.276942 15.006881-21.904826 30.164761-10.989913 48.052619 2.045984 19.478845 26.072793 22.282823 39.714685 30.241759 12.051904-2.122983 25.315799-10.459917 31.075753-22.055824-12.5819-21.222832-28.043777 18.569853-43.505654-2.349982-10.761915-8.033936-10.913913-16.143872-14.324886-27.73978-1.666987-12.960897 13.415893-11.748907 20.767835-13.491892 31.377751-9.019928 46.915628 10.307918 72.685423 21.221831 6.517948 19.554845 3.865969 40.929675-4.699963 57.754542-14.626884 18.266855-33.802732 31.984746-56.389552 32.515741-37.289704 5.835954-67.910461-16.37187-88.147301-48.886611-14.930881 5.304958-11.671907 20.009841-27.967778 20.387838-18.569853-16.143872-37.517702 7.351942-54.267569-10.15592-15.309878-12.884898-14.552884-36.001714-26.603788-45.551638-13.718891-1.21299-7.275942 16.749867-17.65986 21.979825-17.58386 15.006881-43.050658 17.356862-64.349489 9.549925-25.616797-2.57698-6.895945-35.925715-33.726733-31.984746-5.836954 8.185935-8.413933 24.859803-20.615836 20.236839-22.738819-12.732899-60.331521-11.823906-68.744454-44.414647 0.909993-26.527789 15.385878-51.539591 39.184689-60.104523 19.099848-26.679788 42.368664 8.86793 63.135499-3.258974l10.762914 11.369909c2.273982-28.119777 32.439742-22.283823 50.250601-29.256767 48.962611 31.832747 118.541059 53.130578 168.716661 14.249886 16.067872-12.051904 29.255768-33.652733 49.189609-17.50986 8.79193-8.487933 13.642892 7.731939 20.994833 7.579939 34.03073-30.392759 77.081388-51.159594 120.739042-45.475639 16.825866 9.473925 45.39964 13.717891 47.521622 39.942683l4.547964 3.259974c18.341854-49.796605 63.211498-59.119531 103.609178-66.547471 39.03369-0.909993 71.245434 26.149792 98.683216 48.583614 10.534916-1.818986-1.742986-8.260934 4.168967-13.339894 25.1628-15.385878 52.675582 0.529996 79.203371-14.854882 39.109689 4.016968 90.497282 15.839874 105.277165 61.468512 3.334974 16.522869-14.552884 21.903826-5.229959 34.636725 30.999754-17.128864 64.27249-11.36891 95.879239-2.272982 12.5809 19.478845 36.834708 32.135745 28.649772 63.514496z m-10.611916-68.820454c-33.499734-14.021889-57.829541-28.270776-93.680256-15.992873 1.363989-9.700923-9.853922-37.441703 8.488933-31.377751 20.842835 1.28799 55.329561-1.28899 71.472432-22.965817 9.019928 1.591987 18.493853 16.143872 30.393759 15.916873-8.564932 16.598868-3.562972 39.336688-16.674868 54.419568z m20.615837-18.644852c2.424981-21.37383 10.837914-44.415647 31.757748-51.464591 28.269776-10.534916 65.636479-21.297831 90.345282 7.50394 11.747907-6.745946 15.309878 12.884898 24.253808 12.6579 22.889818 10.913913 43.808652 12.201903 67.910461 6.744946 25.1638-7.351942 22.66282-56.389552 60.331521-47.369624 29.938762-4.093967 60.255522 6.668947 76.021396 37.440703 1.969984 18.114856 14.248887 36.001714 4.167967 54.19257-5.456957 14.930881-15.764875 25.087801-30.847755 25.389798-7.57994 1.743986-12.278903-6.213951-19.554845-2.879977l-8.86793 13.415894c0.303998 13.263895 13.86989 9.549924 18.569853 17.735859-6.972945 18.114856 0.909993 39.260688-21.600828 44.717645-23.95081 2.349981-41.156673 33.95573-67.001468 21.298831-19.857842-14.097888-44.03565-23.647812-49.18961-51.312593-6.518948-21.145832 1.893985-44.490647 12.049904-61.089515 11.520909-16.673868 29.863763-9.019928 46.386632-9.397925 10.609916 11.216911 28.876771 15.689875 27.73978 35.470718-0.984992 14.855882-9.928921 24.935802-23.343815 26.982786-16.522869 3.561972-8.109936-19.554845-20.08584-24.177808-8.942929 1.818986-10.307918 10.07992-11.671908 18.189856 1.819986 11.36991 9.625924 19.479845 20.009841 20.843834 12.277903 6.441949 19.402846-5.381957 29.937763-3.865969 13.415893-10.155919 20.388838-28.497774 20.009841-44.869644-6.669947-27.891779-35.547718-43.580654-58.057539-49.569606-28.801771-5.834954-40.019682 23.799811-54.571567 45.704637-13.187895 21.599829-3.334974 51.008595 1.742986 73.746414 15.613876 26.148792 42.899659 40.24668 70.184443 47.749621-1.135991 19.781843-25.389798 7.124943-35.925715 5.759954-28.725772-10.761915-57.829541-28.269776-79.128371-47.521622-3.485972-14.703883 14.628884-16.749867 21.752827-26.755788 20.464838-25.1628 19.479845-67.759462 3.71397-98.758216-17.053865-19.099848-43.959651-20.312839-67.759462-11.444909-11.823906 11.747907-26.527789 25.314799-27.66378 45.097642 3.485972 14.703883-0.303998 46.005635 23.570813 38.957691 9.019928 1.363989 14.931881-3.713971 19.251847-10.307919l-0.150999-4.92696c-7.806938-8.109936-16.447869 5.305958-22.738819-4.395966-7.57894-8.109936-7.957937-24.480806-2.121983-34.485726 11.519909-16.826866 30.923754-18.87285 50.781596-15.992873 13.566892 6.214951 18.341854 17.735859 24.708804 30.620757 0.605995 24.632804-3.561972 49.417608-22.509821 64.651487-25.1648 18.493853-60.105523 9.701923-87.315307-2.879977-26.147792-24.026809-41.837668-53.282577-35.091721-91.406275z m228.289187 192.059476l-0.984992 22.889818c-30.089761-0.833993-72.609424-16.219871-104.367171-33.651733-21.44983-17.65986-50.3276-33.349735-55.329561-56.087555 40.094682-20.691836 56.389552 33.197736 81.85635 39.10969 25.769795 9.246927 48.811612 26.679788 78.901374 27.73978z m-209.644335-37.971699c-16.901866-14.400886-8.564932-39.261688-16.37087-57.072547l2.652979-9.929921c19.932842 19.251847 49.189609 51.312593 64.727486 75.642399 43.201657 43.429655 103.760176 63.287498 160.984722 75.187404 1.818986 9.852922 12.429901 14.551884 11.140911 25.996793-81.401354-19.402846-183.722541-21.979825-223.211228-109.900127z m268.459868 117.10007c-16.598868-9.473925-35.091721-22.282823-41.685669-46.839628-1.819986-21.298831-1.061992-45.931635 12.201903-62.681502 23.647812-15.385878 51.388592-45.627638 81.85735-29.938762 4.698963 8.185935 8.033936 17.962857 17.052865 19.327846 37.139705-13.86989-12.884898-34.259728 6.063952-57.527543 29.710764-15.537877 58.057539-27.588781 95.651241-21.979826 15.385878 17.58386 63.514496 23.192816 48.052618 61.240514-14.779883 8.640931-34.106729 17.432862-52.524583 7.730939-7.427941-2.955977-13.642892-9.321926-18.341854-19.099849 2.803978-3.409973 10.383918-6.972945 7.048944-15.00688-4.623963-6.593948-15.15988-6.366949-17.962858 0.454996-7.351942 10.07992-2.273982 27.891779 2.349982 34.258728 12.353902 21.221832 36.303712 20.691836 57.526543 25.1628 19.326847-7.199943 34.03073-22.130824 37.972698-43.732653-7.806938-16.219871-0.985992-42.595662-23.496813-46.991627-44.186649-30.165761-105.731161-25.541797-147.189831 6.593948-10.307918 8.564932-2.122983 33.045738-21.828827 26.982786h-4.471965c-0.378997-14.703883-2.424981-37.7457 6.29095-46.006635 33.045738-5.684955 36.53271-48.659614 43.277657-75.035404 24.405806 17.58386 64.27349 44.489647 96.637233 19.023849 25.389798-7.123943 50.4026-32.363743 77.763382-11.671907 19.857842 15.916874 11.519909 40.776676 19.554845 60.331521 6.669947-31.302751 38.275696-30.469758 60.48252-39.10969 19.554845 1.136991 36.381711 10.610916 53.207577 23.419814 12.505901 27.513782 11.974905 62.075507-5.532956 90.573281-16.067872 13.415893-42.595662 38.654693-70.033444 26.072793-18.038857-4.471964-36.152713-13.717891-42.74666-35.091721-0.379997-14.779883 12.883898-23.192816 23.343814-28.346775 10.534916-0.227998 22.586821-3.865969 28.649773 7.427941 6.214951 6.593948-0.909993 18.189856-8.639932 15.233879-7.124943 11.596908 9.094928 4.471964 10.837914 11.217911 13.339894-3.637971 14.476885-21.904826 11.292911-34.789724-14.248887-24.329807-44.03565-12.202903-61.846509-8.412933-17.58486 16.749867-18.645852 36.53271-12.051905 59.497527 8.261934 35.926715 45.855636 31.681748 71.246435 36.002714 18.189856-0.454996 38.805692-17.281863 50.4026-30.772755 7.654939 1.363989 6.365949 14.627884 9.700923 22.889818 18.039857 2.728978 29.331767 35.470718 49.872604 15.234879 19.174848-15.234879 18.417854-44.869644 11.974905-62.605503-3.182975-3.259974-6.214951-6.593948-10.686916-4.699963-19.099848 16.826866 17.58386 42.217665-12.277902 51.236594-10.611916-3.106975-21.222832-6.214951-29.104769-15.916874-9.398925-17.734859 6.744946-36.304712 9.246927-54.267569 19.099848-17.053865 41.458671-29.02877 67.228466-21.297831 30.619757 23.94981 49.341608 59.649526 44.262648 100.8052 16.826866 11.065912 13.339894-13.566892 23.495814-21.828827 31.227752-15.537877 70.48844-6.593948 92.165268 19.175848 5.229958 32.818739 15.006881 66.925469 42.519663 82.918341 24.026809 2.57698 55.632558 1.818986 74.656407-18.342854 11.596908-13.262895 15.764875-36.455711 6.139951-52.599582-7.730939-13.036896-26.073793-22.510821-41.004674-17.205864-5.759954 3.486972-13.187895 11.975905-11.36991 21.601829 9.019928 1.590987 34.03173-22.131824 39.109689 2.42498 0.379997 14.779883 2.273982 29.559765-5.152959 38.047698-28.271776 8.716931-65.789478 16.37187-78.522376-21.29783-9.322926-16.143872-5.304958-34.409727-7.275943-50.781597 20.463838-25.1628 52.751581-57.071547 91.937271-46.536631 33.272736 2.57698 43.353656 49.947603 57.375544 75.793398 21.828827-34.789724 51.69059-42.292664 92.316267-39.867683 36.001714 5.684955 69.350449 11.596908 101.259196 33.728732 48.508615 12.126904 92.695264 42.292664 139.611892 54.419568 24.253807 10.837914 55.859557 21.599829 81.705351 32.439743 18.113856-0.454996 32.135745 22.358822 48.583614 15.460877 20.994833 7.57994 37.896699 20.388838 61.846509 18.266855-458.018364 3.940969-881.627 0.832993-1340.479357-34.409727z" p-id="8659"></path></svg>