<?xml version="1.0" standalone="no"?><!DOCTYPE svg PUBLIC "-//W3C//DTD SVG 1.1//EN" "http://www.w3.org/Graphics/SVG/1.1/DTD/svg11.dtd"><svg t="1784481139113" class="icon" viewBox="0 0 1024 1024" version="1.1" xmlns="http://www.w3.org/2000/svg" p-id="16408" xmlns:xlink="http://www.w3.org/1999/xlink" width="200" height="200"><path d="M887.466667 896h-725.333334c-8.533333 0-12.8-4.266667-12.8-10.666667V157.866667c0-6.4 6.4-12.8 12.8-12.8h727.466667c6.4 0 12.8 6.4 12.8 12.8v727.466666c-2.133333 6.4-8.533333 10.666667-14.933333 10.666667zM172.8 872.533333H874.666667V170.666667H172.8v701.866666z" fill="#497F61" p-id="16409"></path><path d="M878.933333 887.466667H567.466667c-6.4 0-12.8-6.4-12.8-12.8V561.066667c0-6.4 6.4-12.8 12.8-12.8h313.6c6.4 0 12.8 6.4 12.8 12.8V874.666667c-2.133333 6.4-6.4 12.8-14.933334 12.8z m-298.666666-25.6h288V573.866667H580.266667v288zM878.933333 494.933333H567.466667c-6.4 0-12.8-6.4-12.8-12.8V170.666667c0-6.4 6.4-12.8 12.8-12.8h313.6c6.4 0 12.8 6.4 12.8 12.8v313.6c-2.133333 4.266667-6.4 10.666667-14.933334 10.666666z m-298.666666-25.6h288V181.333333H580.266667V469.333333z" fill="#497F61" p-id="16410"></path><path d="M686.933333 689.066667H375.466667c-6.4 0-12.8-6.4-12.8-12.8V364.8c0-6.4 6.4-12.8 12.8-12.8h313.6c6.4 0 12.8 6.4 12.8 12.8v313.6c-2.133333 6.4-6.4 10.666667-14.933334 10.666667z m-298.666666-23.466667h288V377.6H388.266667v288z" fill="#497F61" p-id="16411"></path><path d="M480 883.2H168.533333c-6.4 0-12.8-6.4-12.8-12.8V558.933333c0-6.4 6.4-12.8 12.8-12.8h313.6c6.4 0 12.8 6.4 12.8 12.8v313.6c-2.133333 6.4-6.4 10.666667-14.933333 10.666667z m-298.666667-23.466667H469.333333V571.733333H181.333333v288zM480 494.933333H168.533333c-6.4 0-12.8-6.4-12.8-12.8V168.533333c0-6.4 6.4-12.8 12.8-12.8h313.6c6.4 0 12.8 6.4 12.8 12.8v313.6c-2.133333 6.4-8.533333 12.8-14.933333 12.8zM179.2 469.333333h288V181.333333H179.2V469.333333z" fill="#497F61" p-id="16412"></path></svg>