<?xml version="1.0" standalone="no"?><!DOCTYPE svg PUBLIC "-//W3C//DTD SVG 1.1//EN" "http://www.w3.org/Graphics/SVG/1.1/DTD/svg11.dtd"><svg t="1784481133536" class="icon" viewBox="0 0 1024 1024" version="1.1" xmlns="http://www.w3.org/2000/svg" p-id="16249" xmlns:xlink="http://www.w3.org/1999/xlink" width="200" height="200"><path d="M503.466667 631.466667c-4.266667 0-6.4-2.133333-8.533334-4.266667l-102.4-102.4c-2.133333-2.133333-4.266667-6.4-4.266666-8.533333s2.133333-6.4 4.266666-8.533334l102.4-102.4c2.133333-2.133333 6.4-4.266667 8.533334-4.266666 4.266667 0 6.4 2.133333 8.533333 4.266666l102.4 102.4c4.266667 4.266667 4.266667 12.8 0 17.066667L512 627.2c-2.133333 4.266667-4.266667 4.266667-8.533333 4.266667z m-85.333334-115.2l85.333334 85.333333 85.333333-85.333333-85.333333-85.333334-85.333334 85.333334z" fill="#497F61" p-id="16250"></path><path d="M503.466667 424.533333c-6.4 0-12.8-6.4-12.8-12.8V106.666667c0-6.4 6.4-12.8 12.8-12.8s12.8 6.4 12.8 12.8v307.2c0 6.4-6.4 10.666667-12.8 10.666666zM503.466667 938.666667c-6.4 0-12.8-6.4-12.8-12.8V618.666667c0-6.4 6.4-12.8 12.8-12.8s12.8 6.4 12.8 12.8v307.2c0 6.4-6.4 12.8-12.8 12.8zM900.266667 529.066667H593.066667c-6.4 0-12.8-6.4-12.8-12.8s6.4-12.8 12.8-12.8h307.2c6.4 0 12.8 6.4 12.8 12.8s-6.4 12.8-12.8 12.8zM411.733333 529.066667H104.533333c-6.4 0-12.8-6.4-12.8-12.8s6.4-12.8 12.8-12.8h307.2c6.4 0 12.8 6.4 12.8 12.8s-6.4 12.8-12.8 12.8z" fill="#497F61" p-id="16251"></path><path d="M678.4 934.4H339.2c-4.266667 0-6.4-2.133333-8.533333-4.266667L89.6 691.2c-2.133333-2.133333-4.266667-6.4-4.266667-8.533333V343.466667c0-4.266667 2.133333-6.4 4.266667-8.533334L330.666667 93.866667c2.133333-2.133333 6.4-4.266667 8.533333-4.266667h339.2c4.266667 0 6.4 2.133333 8.533333 4.266667l238.933334 238.933333c2.133333 2.133333 4.266667 6.4 4.266666 8.533333v339.2c0 4.266667-2.133333 6.4-4.266666 8.533334L686.933333 930.133333c-2.133333 2.133333-4.266667 4.266667-8.533333 4.266667z m-332.8-25.6h328.533333l232.533334-232.533333V347.733333L674.133333 115.2H345.6L113.066667 347.733333v328.533334l232.533333 232.533333z" fill="#497F61" p-id="16252"></path></svg>