<?xml version="1.0" standalone="no"?><!DOCTYPE svg PUBLIC "-//W3C//DTD SVG 1.1//EN" "http://www.w3.org/Graphics/SVG/1.1/DTD/svg11.dtd"><svg t="1784481149934" class="icon" viewBox="0 0 1024 1024" version="1.1" xmlns="http://www.w3.org/2000/svg" p-id="16889" xmlns:xlink="http://www.w3.org/1999/xlink" width="200" height="200"><path d="M524.8 800c-4.266667 0-6.4-2.133333-8.533333-4.266667L230.4 512c-4.266667-4.266667-4.266667-12.8 0-17.066667L516.266667 209.066667c4.266667-4.266667 12.8-4.266667 17.066666 0l285.866667 285.866666c4.266667 4.266667 4.266667 12.8 0 17.066667L535.466667 797.866667c-4.266667 2.133333-6.4 2.133333-10.666667 2.133333zM258.133333 503.466667l266.666667 266.666666 266.666667-266.666666L524.8 234.666667 258.133333 503.466667z" fill="#497F61" p-id="16890"></path><path d="M524.8 219.733333c-6.4 0-12.8-6.4-12.8-12.8V91.733333c0-6.4 6.4-12.8 12.8-12.8s12.8 6.4 12.8 12.8v115.2c0 6.4-4.266667 12.8-12.8 12.8zM524.8 925.866667c-6.4 0-12.8-6.4-12.8-12.8v-115.2c0-6.4 6.4-12.8 12.8-12.8s12.8 6.4 12.8 12.8v115.2c0 8.533333-4.266667 12.8-12.8 12.8zM241.066667 516.266667H119.466667c-6.4 0-12.8-6.4-12.8-12.8 0-8.533333 6.4-12.8 12.8-12.8h119.466666c6.4 0 12.8 6.4 12.8 12.8 2.133333 6.4-4.266667 12.8-10.666666 12.8zM919.466667 516.266667h-119.466667c-6.4 0-12.8-6.4-12.8-12.8s6.4-12.8 12.8-12.8h119.466667c6.4 0 12.8 6.4 12.8 12.8-2.133333 6.4-6.4 12.8-12.8 12.8z" fill="#497F61" p-id="16891"></path><path d="M919.466667 516.266667h-119.466667c-6.4 0-12.8-6.4-12.8-12.8s6.4-12.8 12.8-12.8h119.466667c6.4 0 12.8 6.4 12.8 12.8-2.133333 6.4-6.4 12.8-12.8 12.8z" fill="#497F61" p-id="16892"></path><path d="M695.466667 928h-341.333334c-4.266667 0-6.4-2.133333-8.533333-4.266667L102.4 682.666667c-2.133333-2.133333-4.266667-6.4-4.266667-8.533334v-341.333333c0-4.266667 2.133333-6.4 4.266667-8.533333L345.6 81.066667c2.133333-2.133333 6.4-4.266667 8.533333-4.266667h341.333334c4.266667 0 6.4 2.133333 8.533333 4.266667l241.066667 241.066666c2.133333 2.133333 4.266667 6.4 4.266666 8.533334v341.333333c0 4.266667-2.133333 6.4-4.266666 8.533333L704 925.866667c-2.133333 2.133333-4.266667 2.133333-8.533333 2.133333z m-337.066667-25.6h330.666667l234.666666-234.666667V337.066667l-234.666666-234.666667H358.4l-234.666667 234.666667v330.666666l234.666667 234.666667z" fill="#497F61" p-id="16893"></path></svg>