<?xml version="1.0" standalone="no"?><!DOCTYPE svg PUBLIC "-//W3C//DTD SVG 1.1//EN" "http://www.w3.org/Graphics/SVG/1.1/DTD/svg11.dtd"><svg t="1784481142458" class="icon" viewBox="0 0 1024 1024" version="1.1" xmlns="http://www.w3.org/2000/svg" p-id="16568" xmlns:xlink="http://www.w3.org/1999/xlink" width="200" height="200"><path d="M362.666667 936.533333c-38.4 0-76.8-12.8-108.8-36.266666-57.6-40.533333-85.333333-110.933333-72.533334-179.2 8.533333-51.2-8.533333-102.4-44.8-138.666667C85.333333 533.333333 66.133333 460.8 89.6 392.533333c21.333333-66.133333 78.933333-115.2 149.333333-125.866666 51.2-6.4 96-40.533333 119.466667-85.333334 32-64 93.866667-102.4 164.266667-102.4s134.4 38.4 164.266666 102.4c23.466667 46.933333 68.266667 78.933333 119.466667 85.333334 70.4 10.666667 125.866667 57.6 149.333333 125.866666 21.333333 66.133333 4.266667 138.666667-46.933333 187.733334-36.266667 36.266667-53.333333 87.466667-44.8 138.666666 12.8 70.4-17.066667 138.666667-72.533333 179.2-57.6 40.533333-132.266667 46.933333-194.133334 14.933334-44.8-23.466667-100.266667-23.466667-147.2 0-29.866667 17.066667-59.733333 23.466667-87.466666 23.466666zM520.533333 106.666667c-61.866667 0-113.066667 32-140.8 87.466666-27.733333 53.333333-78.933333 91.733333-138.666666 100.266667-59.733333 8.533333-108.8 49.066667-128 106.666667-19.2 57.6-4.266667 119.466667 40.533333 162.133333 42.666667 42.666667 64 102.4 53.333333 162.133333s12.8 117.333333 61.866667 153.6c49.066667 36.266667 110.933333 40.533333 166.4 12.8 53.333333-27.733333 117.333333-27.733333 170.666667 0s115.2 23.466667 166.4-12.8c49.066667-36.266667 72.533333-93.866667 61.866666-153.6s8.533333-121.6 53.333334-162.133333c44.8-42.666667 59.733333-102.4 40.533333-162.133333-19.2-57.6-66.133333-98.133333-128-106.666667-59.733333-8.533333-110.933333-46.933333-138.666667-100.266667C635.733333 138.666667 582.4 106.666667 520.533333 106.666667z" fill="#497F61" p-id="16569"></path><path d="M573.866667 680.533333c-10.666667 0-23.466667-2.133333-32-8.533333-12.8-6.4-27.733333-6.4-40.533334 0-23.466667 12.8-53.333333 10.666667-74.666666-4.266667s-32-42.666667-27.733334-68.266666c2.133333-14.933333-2.133333-27.733333-12.8-38.4-19.2-19.2-25.6-46.933333-17.066666-72.533334 8.533333-25.6 29.866667-44.8 57.6-46.933333 14.933333-2.133333 25.6-10.666667 32-23.466667 12.8-23.466667 36.266667-38.4 64-38.4s51.2 14.933333 64 38.4c6.4 12.8 19.2 21.333333 32 23.466667 27.733333 4.266667 49.066667 21.333333 57.6 46.933333 8.533333 25.6 2.133333 53.333333-17.066667 72.533334-10.666667 10.666667-14.933333 25.6-12.8 38.4 4.266667 25.6-6.4 53.333333-27.733333 68.266666-14.933333 8.533333-29.866667 12.8-44.8 12.8zM520.533333 640c10.666667 0 23.466667 2.133333 32 8.533333 14.933333 8.533333 32 6.4 46.933334-4.266666 12.8-10.666667 21.333333-25.6 17.066666-42.666667-4.266667-23.466667 4.266667-46.933333 21.333334-61.866667 12.8-12.8 17.066667-27.733333 10.666666-44.8-4.266667-17.066667-19.2-27.733333-36.266666-29.866666-23.466667-4.266667-42.666667-17.066667-53.333334-38.4-8.533333-14.933333-21.333333-23.466667-38.4-23.466667s-32 8.533333-38.4 23.466667c-10.666667 21.333333-29.866667 36.266667-53.333333 38.4-17.066667 2.133333-29.866667 12.8-36.266667 29.866666-4.266667 17.066667-2.133333 32 10.666667 44.8 17.066667 17.066667 23.466667 40.533333 21.333333 61.866667-2.133333 17.066667 4.266667 32 17.066667 42.666667 12.8 10.666667 32 10.666667 46.933333 4.266666 10.666667-4.266667 21.333333-8.533333 32-8.533333z" fill="#497F61" p-id="16570"></path><path d="M524.8 652.8c-4.266667 0-10.666667-2.133333-12.8-6.4l-27.733333-55.466667-59.733334-8.533333c-4.266667 0-8.533333-4.266667-10.666666-8.533333s0-10.666667 4.266666-12.8l42.666667-42.666667-12.8-61.866667c0-4.266667 2.133333-10.666667 4.266667-12.8 4.266667-2.133333 8.533333-4.266667 14.933333-2.133333l53.333333 27.733333 53.333334-29.866666c4.266667-2.133333 10.666667-2.133333 14.933333 0 4.266667 2.133333 6.4 8.533333 6.4 12.8l-10.666667 59.733333 44.8 42.666667c4.266667 4.266667 4.266667 8.533333 4.266667 12.8-2.133333 4.266667-6.4 8.533333-10.666667 8.533333l-59.733333 8.533333-25.6 55.466667c-4.266667 8.533333-8.533333 10.666667-12.8 12.8z m-70.4-93.866667l40.533333 6.4c4.266667 0 8.533333 4.266667 10.666667 6.4l19.2 36.266667 17.066667-36.266667c2.133333-4.266667 6.4-6.4 10.666666-6.4l40.533334-6.4-29.866667-27.733333c-2.133333-2.133333-4.266667-6.4-4.266667-12.8l6.4-40.533333-36.266666 19.2c-4.266667 2.133333-8.533333 2.133333-12.8 0l-36.266667-19.2 6.4 40.533333c0 4.266667 0 8.533333-4.266667 12.8l-27.733333 27.733333z" fill="#497F61" p-id="16571"></path></svg>