<?xml version="1.0" standalone="no"?><!DOCTYPE svg PUBLIC "-//W3C//DTD SVG 1.1//EN" "http://www.w3.org/Graphics/SVG/1.1/DTD/svg11.dtd"><svg t="1784481153690" class="icon" viewBox="0 0 1024 1024" version="1.1" xmlns="http://www.w3.org/2000/svg" p-id="17049" xmlns:xlink="http://www.w3.org/1999/xlink" width="200" height="200"><path d="M640 418.133333c-6.4 0-12.8-6.4-12.8-12.8v-125.866666c0-32-12.8-61.866667-36.266667-81.066667-2.133333-2.133333-4.266667-4.266667-4.266666-8.533333-8.533333-57.6-25.6-91.733333-46.933334-91.733334-21.333333 0-38.4 34.133333-46.933333 89.6 0 2.133333-2.133333 6.4-4.266667 8.533334-23.466667 19.2-38.4 49.066667-38.4 81.066666v117.333334c0 6.4-6.4 12.8-12.8 12.8s-12.8-6.4-12.8-12.8V277.333333c0-38.4 17.066667-74.666667 44.8-98.133333 12.8-87.466667 44.8-106.666667 70.4-106.666667 23.466667 0 55.466667 19.2 70.4 108.8 25.6 23.466667 42.666667 59.733333 42.666667 96v128c0 6.4-4.266667 12.8-12.8 12.8z" fill="#497F61" p-id="17050"></path><path d="M757.333333 610.133333h-130.133333c-6.4 0-12.8-6.4-12.8-12.8s6.4-12.8 12.8-12.8h130.133333c32 0 64-12.8 83.2-36.266666 2.133333-2.133333 4.266667-4.266667 8.533334-4.266667 70.4-8.533333 93.866667-29.866667 93.866666-44.8 0-14.933333-23.466667-36.266667-93.866666-44.8-2.133333 0-6.4-2.133333-8.533334-4.266667-19.2-23.466667-51.2-38.4-85.333333-38.4h-121.6c-6.4 0-12.8-6.4-12.8-12.8s6.4-12.8 12.8-12.8h121.6c38.4 0 76.8 14.933333 100.266667 42.666667 89.6 12.8 108.8 44.8 108.8 68.266667s-19.2 55.466667-110.933334 68.266666c-21.333333 29.866667-57.6 44.8-96 44.8z" fill="#497F61" p-id="17051"></path><path d="M535.466667 923.733333c-23.466667 0-55.466667-19.2-70.4-108.8-25.6-23.466667-42.666667-59.733333-42.666667-96v-125.866666c0-6.4 6.4-12.8 12.8-12.8s12.8 6.4 12.8 12.8v125.866666c0 32 12.8 61.866667 36.266667 81.066667 2.133333 2.133333 4.266667 4.266667 4.266666 8.533333 8.533333 57.6 25.6 91.733333 46.933334 91.733334 21.333333 0 38.4-34.133333 46.933333-89.6 0-2.133333 2.133333-6.4 4.266667-8.533334 23.466667-19.2 38.4-49.066667 38.4-81.066666v-117.333334c0-6.4 6.4-12.8 12.8-12.8s12.8 6.4 12.8 12.8v117.333334c0 38.4-17.066667 74.666667-44.8 98.133333-14.933333 87.466667-46.933333 104.533333-70.4 104.533333z" fill="#497F61" p-id="17052"></path><path d="M439.466667 610.133333h-121.6c-38.4 0-76.8-14.933333-100.266667-42.666666-89.6-12.8-108.8-44.8-108.8-68.266667s19.2-55.466667 110.933333-68.266667c23.466667-25.6 59.733333-40.533333 98.133334-40.533333H448c6.4 0 12.8 6.4 12.8 12.8s-6.4 12.8-12.8 12.8h-130.133333c-32 0-64 12.8-83.2 36.266667-2.133333 2.133333-4.266667 4.266667-8.533334 4.266666-70.4 8.533333-93.866667 29.866667-93.866666 44.8 0 14.933333 23.466667 36.266667 93.866666 44.8 2.133333 0 6.4 2.133333 8.533334 4.266667 19.2 23.466667 51.2 38.4 85.333333 38.4h121.6c6.4 0 12.8 6.4 12.8 12.8s-8.533333 8.533333-14.933333 8.533333z" fill="#497F61" p-id="17053"></path><path d="M535.466667 590.933333c-49.066667 0-89.6-38.4-89.6-85.333333s40.533333-85.333333 89.6-85.333333 89.6 38.4 89.6 85.333333-38.4 85.333333-89.6 85.333333z m0-147.2c-36.266667 0-66.133333 27.733333-66.133334 61.866667 0 34.133333 29.866667 61.866667 66.133334 61.866667 36.266667 0 66.133333-27.733333 66.133333-61.866667 0-34.133333-29.866667-61.866667-66.133333-61.866667z" fill="#497F61" p-id="17054"></path></svg>