<?xml version="1.0" standalone="no"?><!DOCTYPE svg PUBLIC "-//W3C//DTD SVG 1.1//EN" "http://www.w3.org/Graphics/SVG/1.1/DTD/svg11.dtd"><svg t="1784481157336" class="icon" viewBox="0 0 1027 1024" version="1.1" xmlns="http://www.w3.org/2000/svg" p-id="17210" xmlns:xlink="http://www.w3.org/1999/xlink" width="200.5859375" height="200"><path d="M388.266667 398.933333c-4.266667 0-6.4-2.133333-8.533334-4.266666l-130.133333-130.133334c-2.133333-2.133333-4.266667-6.4-4.266667-8.533333s2.133333-6.4 4.266667-8.533333l121.6-121.6c4.266667-4.266667 12.8-4.266667 19.2 0l130.133333 130.133333c2.133333 2.133333 4.266667 6.4 4.266667 8.533333s-2.133333 6.4-4.266667 8.533334l-121.6 121.6c-4.266667 2.133333-8.533333 4.266667-10.666666 4.266666zM277.333333 256l110.933334 110.933333 102.4-102.4-110.933334-110.933333L277.333333 256z" fill="#497F61" p-id="17211"></path><path d="M635.733333 407.466667c-4.266667 0-6.4-2.133333-8.533333-4.266667l-130.133333-130.133333c-4.266667-4.266667-4.266667-12.8 0-19.2L618.666667 132.266667c4.266667-4.266667 12.8-4.266667 19.2 0l130.133333 130.133333c4.266667 4.266667 4.266667 12.8 0 19.2l-121.6 121.6c-2.133333 2.133333-6.4 4.266667-10.666667 4.266667z m-110.933333-142.933334l110.933333 110.933334 102.4-102.4-110.933333-110.933334-102.4 102.4zM403.2 887.466667c-4.266667 0-6.4-2.133333-8.533333-4.266667l-130.133334-130.133333c-4.266667-4.266667-4.266667-12.8 0-19.2l121.6-121.6c4.266667-4.266667 12.8-4.266667 19.2 0l130.133334 130.133333c4.266667 4.266667 4.266667 12.8 0 19.2l-121.6 121.6c-4.266667 2.133333-6.4 4.266667-10.666667 4.266667z m-110.933333-142.933334l110.933333 110.933334 102.4-102.4-110.933333-110.933334-102.4 102.4z" fill="#497F61" p-id="17212"></path><path d="M652.8 896c-4.266667 0-6.4-2.133333-8.533333-4.266667l-130.133334-130.133333c-4.266667-4.266667-4.266667-12.8 0-19.2l121.6-121.6c4.266667-4.266667 12.8-4.266667 19.2 0l130.133334 130.133333c2.133333 2.133333 4.266667 6.4 4.266666 8.533334 0 4.266667-2.133333 6.4-4.266666 8.533333L661.333333 891.733333c-2.133333 2.133333-4.266667 4.266667-8.533333 4.266667z m-110.933333-142.933333l110.933333 110.933333 102.4-102.4-110.933333-110.933333-102.4 102.4zM891.733333 654.933333c-4.266667 0-6.4-2.133333-8.533333-4.266666l-130.133333-130.133334c-4.266667-4.266667-4.266667-12.8 0-19.2l121.6-121.6c4.266667-4.266667 12.8-4.266667 19.2 0L1024 512c4.266667 4.266667 4.266667 12.8 0 19.2l-121.6 121.6c-4.266667 2.133333-6.4 2.133333-10.666667 2.133333zM780.8 512l110.933333 110.933333 102.4-102.4-110.933333-110.933333-102.4 102.4zM149.333333 633.6c-4.266667 0-6.4-2.133333-8.533333-4.266667L10.666667 499.2c-2.133333-2.133333-4.266667-6.4-4.266667-8.533333s2.133333-6.4 4.266667-8.533334l121.6-121.6c4.266667-4.266667 12.8-4.266667 19.2 0l130.133333 130.133334c2.133333 2.133333 4.266667 6.4 4.266667 8.533333 0 4.266667-2.133333 6.4-4.266667 8.533333l-121.6 121.6c-4.266667 2.133333-8.533333 4.266667-10.666667 4.266667zM38.4 490.666667L149.333333 601.6l102.4-102.4-110.933333-110.933333L38.4 490.666667z" fill="#497F61" p-id="17213"></path><path d="M396.8 640c-4.266667 0-6.4-2.133333-8.533333-4.266667l-132.266667-128c-4.266667-4.266667-4.266667-12.8 0-19.2l121.6-121.6c4.266667-4.266667 12.8-4.266667 19.2 0l130.133333 130.133334c4.266667 4.266667 4.266667 12.8 0 19.2L405.333333 635.733333c-2.133333 4.266667-6.4 4.266667-8.533333 4.266667z m-110.933333-142.933333l110.933333 110.933333 102.4-102.4-110.933333-110.933333-102.4 102.4z" fill="#497F61" p-id="17214"></path><path d="M646.4 648.533333c-4.266667 0-6.4-2.133333-8.533333-4.266666l-130.133334-130.133334c-4.266667-4.266667-4.266667-12.8 0-19.2l121.6-121.6c4.266667-4.266667 12.8-4.266667 19.2 0l130.133334 130.133334c4.266667 4.266667 4.266667 12.8 0 19.2l-121.6 121.6c-4.266667 2.133333-8.533333 4.266667-10.666667 4.266666zM533.333333 505.6l110.933334 110.933333 102.4-102.4-110.933334-110.933333-102.4 102.4z" fill="#497F61" p-id="17215"></path></svg>