<?xml version="1.0" standalone="no"?><!DOCTYPE svg PUBLIC "-//W3C//DTD SVG 1.1//EN" "http://www.w3.org/Graphics/SVG/1.1/DTD/svg11.dtd"><svg t="1784387038710" class="icon" viewBox="0 0 1024 1024" version="1.1" xmlns="http://www.w3.org/2000/svg" p-id="6677" xmlns:xlink="http://www.w3.org/1999/xlink" width="200" height="200"><path d="M293.92224 878.08c-35.2-55.04-15.488-137.6 33.152-143.04 48.576-5.44 63.936 24.768 66.048 60.48 2.17600001 35.712-28.416 35.84-37.312 27.52-8.832-8.192 2.17600001-44.032-13.248-24.704-15.36 19.264-2.176 57.728 22.4 55.04 24.576-2.752 33.088-22.144 41.92000001-60.544 7.936-34.56 1.664-38.144-1e-8-38.528a54.528 54.528 0 0 0 27.328-1.792 57.984 57.984 0 0 0 12.928-6.464 54.4 54.4 0 0 0 3.51999999-2.624A734.912 734.912 0 0 0 530.27424 655.36000001c-24.192-41.216-39.808-79.61600001-79.616-82.56000001-39.80800001-2.88-46.464 68.736-19.84 60.48 26.624-8.256-6.65600001-30.272 13.184-35.968 19.83999999-5.696 35.2 10.88 35.2 43.84s-28.416 79.61600001-70.59200001 57.856a120 120 0 0 1-23.23199999-21.76 124.288 124.288 0 0 1-27.52-63.61599999s-46.208-2.496-50.368-43.71200001A88.512 88.512 0 0 0 282.91424 512a88.192 88.192 0 0 0 24.576-57.728c4.48-41.344 50.688-43.968 50.688-43.968a127.808 127.808 0 0 1 18.24-50.56000001 126.208 126.208 0 0 1 32.512-34.81599999c41.856-21.952 70.592 24.768 70.592 57.792 0 33.08800001-15.744 49.664-35.52 43.968-19.84-5.76 13.184-27.52-13.184-35.84-26.432-8.192-19.84 63.296 19.904 60.544 39.744-2.688 55.104-41.216 79.616-82.56a805.376 805.376 0 0 0-80.704-88.96 73.152 73.152 0 0 0-6.016-4.224 49.28 49.28 0 0 0-17.792-6.59199999l-1.472-0.25600001a37.888 37.888 0 0 0-2.88-0.32l-1.472-0.064a37.376 37.376 0 0 0-7.36 0.128 54.976 54.976 0 0 0-5.76 0.96c1.408 0 7.424-4.032 0-38.52800001-8.95999999-38.528-17.728-57.792-41.92-60.47999999-24.32-2.688-37.37599999 35.712-22.4 55.04 14.848 19.2 4.48-16.512 13.184-24.768 8.768-8.256 39.87199999-8.256 37.312 27.52-2.496 35.84-17.6 66.04799999-66.048 60.544-48.512-5.50399999-68.288-88.192-33.024-143.232a188.288 188.288 0 0 1-19.52-33.088 192.64 192.64 0 0 1-16.832-59.84 194.496 194.496 0 0 1 1.024-52.672L768.29024001 512l-509.63200001 512a195.712 195.712 0 0 1 35.264-145.92z" fill="#2c2c2c" p-id="6678"></path></svg>