<?xml version="1.0" standalone="no"?><!DOCTYPE svg PUBLIC "-//W3C//DTD SVG 1.1//EN" "http://www.w3.org/Graphics/SVG/1.1/DTD/svg11.dtd"><svg t="1784387047966" class="icon" viewBox="0 0 1024 1024" version="1.1" xmlns="http://www.w3.org/2000/svg" p-id="6861" xmlns:xlink="http://www.w3.org/1999/xlink" width="200" height="200"><path d="M878.08 730.07776c-55.04 35.2-137.6 15.488-143.04-33.152-5.44-48.576 24.768-63.936 60.48-66.048 35.712-2.17600001 35.84 28.416 27.52 37.312-8.192 8.832-44.032-2.17600001-24.704 13.248 19.264 15.36 57.728 2.176 55.04-22.4-2.752-24.576-22.144-33.088-60.544-41.92000001-34.56-7.936-38.144-1.664-38.528 1e-8a54.528 54.528 0 0 0-1.792-27.328 57.984 57.984 0 0 0-6.464-12.928 54.4 54.4 0 0 0-2.624-3.51999999A734.912 734.912 0 0 0 655.36000001 493.72576c-41.216 24.192-79.61600001 39.808-82.56000001 79.616-2.88 39.80800001 68.736 46.464 60.48 19.84-8.256-26.624-30.272 6.65600001-35.968-13.184-5.696-19.83999999 10.88-35.2 43.84-35.2s79.61600001 28.416 57.856 70.59200001a120 120 0 0 1-21.76 23.23199999 124.288 124.288 0 0 1-63.61599999 27.52s-2.496 46.208-43.71200001 50.368A88.512 88.512 0 0 0 512 741.08576a88.192 88.192 0 0 0-57.728-24.576c-41.344-4.48-43.968-50.688-43.968-50.688a127.808 127.808 0 0 1-50.56000001-18.24 126.208 126.208 0 0 1-34.81599999-32.512c-21.952-41.856 24.768-70.592 57.792-70.592 33.08800001 0 49.664 15.744 43.968 35.52-5.76 19.84-27.52-13.184-35.84 13.184-8.192 26.432 63.296 19.84 60.544-19.904-2.688-39.744-41.216-55.104-82.56-79.616a805.376 805.376 0 0 0-88.96 80.704 73.152 73.152 0 0 0-4.224 6.016 49.28 49.28 0 0 0-6.59199999 17.792l-0.25600001 1.472a37.888 37.888 0 0 0-0.32 2.88l-0.064 1.472a37.376 37.376 0 0 0 0.128 7.36 54.976 54.976 0 0 0 0.96 5.76c0-1.408-4.032-7.424-38.52800001 0-38.528 8.95999999-57.792 17.728-60.47999999 41.92-2.688 24.32 35.712 37.37599999 55.04 22.4 19.2-14.848-16.512-4.48-24.768-13.184-8.256-8.768-8.256-39.87199999 27.52-37.312 35.84 2.496 66.04799999 17.6 60.544 66.048-5.50399999 48.512-88.192 68.288-143.232 33.024a188.288 188.288 0 0 1-33.088 19.52 192.64 192.64 0 0 1-59.84 16.832 194.496 194.496 0 0 1-52.672-1.024L512 255.70975999l512 509.63200001a195.712 195.712 0 0 1-145.92-35.264z" fill="#2c2c2c" p-id="6862"></path></svg>