<?xml version="1.0" standalone="no"?><!DOCTYPE svg PUBLIC "-//W3C//DTD SVG 1.1//EN" "http://www.w3.org/Graphics/SVG/1.1/DTD/svg11.dtd"><svg t="1784481146180" class="icon" viewBox="0 0 1024 1024" version="1.1" xmlns="http://www.w3.org/2000/svg" p-id="16727" xmlns:xlink="http://www.w3.org/1999/xlink" width="200" height="200"><path d="M494.933333 925.866667c-230.4 0-418.133333-187.733333-418.133333-418.133334S264.533333 91.733333 494.933333 91.733333s418.133333 187.733333 418.133334 418.133334S725.333333 925.866667 494.933333 925.866667z m0-808.533334c-215.466667 0-392.533333 174.933333-392.533333 392.533334S277.333333 902.4 494.933333 902.4 887.466667 725.333333 887.466667 509.866667 712.533333 117.333333 494.933333 117.333333z" fill="#497F61" p-id="16728"></path><path d="M494.933333 908.8c-4.266667 0-6.4-2.133333-8.533333-4.266667L100.266667 518.4c-2.133333-2.133333-4.266667-6.4-4.266667-8.533333s2.133333-6.4 4.266667-8.533334L486.4 115.2c4.266667-4.266667 12.8-4.266667 17.066667 0l386.133333 386.133333c2.133333 2.133333 4.266667 6.4 4.266667 8.533334s-2.133333 6.4-4.266667 8.533333L503.466667 904.533333c-2.133333 2.133333-6.4 4.266667-8.533334 4.266667zM125.866667 509.866667l369.066666 369.066666 369.066667-369.066666L494.933333 140.8 125.866667 509.866667z" fill="#497F61" p-id="16729"></path><path d="M142.933333 541.866667c-21.333333 0-40.533333-6.4-53.333333-19.2-4.266667-4.266667-4.266667-12.8 0-17.066667s12.8-4.266667 17.066667 0c17.066667 17.066667 53.333333 14.933333 98.133333-2.133333 49.066667-21.333333 104.533333-59.733333 153.6-108.8 108.8-108.8 145.066667-217.6 113.066667-251.733334-4.266667-4.266667-4.266667-12.8 0-17.066666s12.8-4.266667 17.066666 0c49.066667 49.066667 0 174.933333-113.066666 285.866666-51.2 51.2-108.8 91.733333-162.133334 115.2-23.466667 8.533333-49.066667 14.933333-70.4 14.933334z" fill="#497F61" p-id="16730"></path><path d="M484.266667 889.6c-2.133333 0-6.4-2.133333-8.533334-4.266667-4.266667-4.266667-4.266667-12.8 0-17.066666 14.933333-14.933333 14.933333-46.933333 0-87.466667-17.066667-44.8-51.2-91.733333-96-136.533333-44.8-44.8-91.733333-76.8-136.533333-96-40.533333-17.066667-72.533333-17.066667-87.466667 0-4.266667 4.266667-12.8 4.266667-17.066666 0-4.266667-4.266667-4.266667-12.8 0-17.066667 23.466667-23.466667 64-25.6 113.066666-4.266667 46.933333 19.2 98.133333 55.466667 145.066667 100.266667 46.933333 46.933333 81.066667 98.133333 100.266667 145.066667 19.2 51.2 19.2 91.733333-4.266667 113.066666-2.133333 2.133333-6.4 4.266667-8.533333 4.266667z" fill="#497F61" p-id="16731"></path><path d="M505.6 883.2c-2.133333 0-6.4-2.133333-8.533333-4.266667-44.8-44.8-4.266667-160 96-258.133333 100.266667-100.266667 213.333333-142.933333 258.133333-96 4.266667 4.266667 4.266667 12.8 0 17.066667-4.266667 4.266667-12.8 4.266667-17.066667 0-29.866667-29.866667-128 0-224 96s-128 192-96 224c4.266667 4.266667 4.266667 12.8 0 17.066666-2.133333 2.133333-4.266667 4.266667-8.533333 4.266667z" fill="#497F61" p-id="16732"></path><path d="M842.666667 535.466667c-61.866667 0-151.466667-49.066667-234.666667-130.133334-51.2-51.2-91.733333-108.8-115.2-162.133333-23.466667-55.466667-21.333333-100.266667 2.133333-125.866667 4.266667-4.266667 12.8-4.266667 17.066667 0 4.266667 4.266667 4.266667 12.8 0 17.066667-17.066667 17.066667-14.933333 53.333333 2.133333 98.133333 21.333333 49.066667 59.733333 104.533333 108.8 153.6 108.8 108.8 217.6 145.066667 251.733334 113.066667 4.266667-4.266667 12.8-4.266667 17.066666 0 4.266667 4.266667 4.266667 12.8 0 17.066667-8.533333 12.8-27.733333 19.2-49.066666 19.2z" fill="#497F61" p-id="16733"></path></svg>