<svg version="1.0" xmlns="http://www.w3.org/2000/svg" width="800.000000" height="800.000000" viewBox="0 0 800.000000 800.000000" preserveAspectRatio="xMidYMid meet">
  <metadata>
    <rdf:RDF xmlns:rdf="http://www.w3.org/1999/02/22-rdf-syntax-ns#" xmlns:rdfs="http://www.w3.org/2000/01/rdf-schema#" xmlns:dc="http://purl.org/dc/elements/1.1/">
      <rdf:Description dc:format="image/svg+xml" dc:Label="1" dc:ContentProducer="001191330110MACRLGPT8B00000" dc:ProduceID="463386083" dc:ReservedCode1="H8oL1r6wBiPzFUjkTwctWeRkhILg+d472GJaz2pPDZA=" dc:ContentPropagator="001191330110MACRLGPT8B00000" dc:PropagateID="463386083" dc:ReservedCode2="H8oL1r6wBiPzFUjkTwctWeRkhILg+d472GJaz2pPDZA="/>
    </rdf:RDF>
  </metadata>
  <g transform="translate(0.000000,800.000000) scale(0.100000,-0.100000)" fill="#000000" stroke="none">
    <path d="M3925 6153 c-101 -129 -327 -354 -456 -455 -126 -98 -289 -201 -415 -263 -121 -60 -363 -144 -489 -170 -44 -9 -81 -17 -83 -19 -6 -7 73 -93 132 -144 75 -66 234 -146 333 -168 l73 -16 0 -179 0 -178 -109 -55 c-60 -30 -172 -75 -248 -99 -132 -43 -388 -97 -459 -97 -19 0 -34 -3 -34 -7 0 -19 62 -113 103 -158 25 -28 69 -64 98 -82 69 -41 221 -91 304 -99 l65 -7 0 -194 0 -193 -40 -44 c-87 -95 -403 -276 -697 -402 -51 -21 -93 -42 -93 -45 0 -16 98 -114 155 -154 110 -79 275 -145 362 -145 l33 0 0 -415 0 -415 125 0 125 0 0 405 0 405 74 0 c113 0 634 -19 694 -26 l52 -5 0 -385 0 -384 516 0 516 0 -3 453 c-2 399 -1 462 15 537 34 165 89 287 187 415 47 62 49 65 32 83 -10 10 -39 42 -65 71 l-48 53 -40 -32 c-53 -42 -136 -135 -167 -187 l-25 -43 -804 0 c-442 0 -804 1 -804 3 0 1 18 23 41 47 22 25 56 68 75 97 l34 51 0 225 0 224 463 7 c254 4 653 11 887 16 234 5 503 10 598 10 l172 0 0 -165 c0 -91 4 -165 8 -165 4 0 33 9 65 20 60 21 157 45 170 42 4 -1 7 61 7 138 l0 140 73 0 c53 0 93 8 153 28 129 46 208 107 292 229 26 38 38 32 -133 68 -261 56 -443 113 -632 200 -57 26 -83 43 -87 58 -3 12 -6 93 -6 179 l0 156 70 16 c90 21 209 68 285 114 56 33 195 156 195 172 0 8 -39 25 -265 117 -190 77 -474 213 -594 285 -238 142 -486 371 -652 603 -18 25 -35 45 -38 44 -3 0 -46 -52 -96 -116z m308 -490 c186 -171 383 -291 767 -470 l45 -20 -177 -8 c-97 -4 -376 -5 -620 -1 -244 3 -605 6 -803 6 l-360 1 90 45 c290 147 585 374 797 611 l47 53 73 -77 c40 -43 104 -106 141 -140z m537 -996 l0 -252 93 -47 c83 -42 181 -87 247 -115 27 -11 -114 -15 -1130 -33 -311 -6 -695 -13 -855 -16 l-290 -5 83 35 c46 19 142 66 215 104 l132 70 3 256 2 256 750 0 750 0 0 -253z m-410 -1545 c0 -4 -10 -48 -21 -98 -19 -79 -22 -130 -28 -449 l-6 -360 -260 0 -260 0 -3 278 -2 277 205 0 205 0 0 100 0 100 -212 0 c-117 0 -375 7 -573 15 -198 8 -499 19 -670 25 -170 6 -317 13 -325 16 -8 3 22 25 75 54 l90 49 893 1 c490 0 892 -4 892 -8z"/>
    <path d="M5152 3192 c-63 -97 -64 -100 -60 -382 l3 -258 40 -78 c22 -44 45 -79 50 -78 17 1 72 115 85 173 8 37 11 136 8 291 l-3 235 -39 73 c-21 39 -42 72 -46 72 -4 0 -22 -21 -38 -48z"/>
    <path d="M5390 2795 l0 -425 150 0 150 0 0 425 0 425 -150 0 -150 0 0 -425z m160 270 c0 -24 -3 -25 -60 -25 -57 0 -60 1 -60 25 0 24 3 25 60 25 57 0 60 -1 60 -25z m0 -190 c0 -24 -3 -25 -60 -25 -57 0 -60 1 -60 25 0 24 3 25 60 25 57 0 60 -1 60 -25z m0 -180 c0 -24 -3 -25 -60 -25 -57 0 -60 1 -60 25 0 24 3 25 60 25 57 0 60 -1 60 -25z m0 -180 c0 -24 -3 -25 -55 -25 -52 0 -55 1 -55 25 0 24 3 25 55 25 52 0 55 -1 55 -25z"/>
  </g>
</svg>