<svg version="1.0" xmlns="http://www.w3.org/2000/svg" width="800.000000" height="800.000000" viewBox="0 0 800.000000 800.000000" preserveAspectRatio="xMidYMid meet">
  <metadata>
    <rdf:RDF xmlns:rdf="http://www.w3.org/1999/02/22-rdf-syntax-ns#" xmlns:rdfs="http://www.w3.org/2000/01/rdf-schema#" xmlns:dc="http://purl.org/dc/elements/1.1/">
      <rdf:Description dc:format="image/svg+xml" dc:Label="1" dc:ContentProducer="001191330110MACRLGPT8B00000" dc:ProduceID="463386217" dc:ReservedCode1="YO2Rff+ksMXdUxXxZJK7kroPOeUv3owHuxMU+9kRLgQ=" dc:ContentPropagator="001191330110MACRLGPT8B00000" dc:PropagateID="463386217" dc:ReservedCode2="YO2Rff+ksMXdUxXxZJK7kroPOeUv3owHuxMU+9kRLgQ="/>
    </rdf:RDF>
  </metadata>
  <g transform="translate(0.000000,800.000000) scale(0.100000,-0.100000)" fill="#000000" stroke="none">
    <path d="M2530 5050 c0 -41 -61 -319 -91 -415 -17 -55 -48 -145 -70 -201 l-39 -100 -125 -90 -124 -89 -1 -182 0 -182 108 -3 c59 -2 106 -6 105 -10 -2 -5 -3 -291 -3 -638 l0 -630 -105 0 -105 0 0 -55 0 -55 1920 0 1920 0 0 55 0 55 -105 0 -105 0 0 640 0 640 105 0 105 0 0 183 -1 182 -124 90 -125 90 -29 75 c-58 151 -113 339 -144 497 l-32 163 -99 0 -99 0 6 -62 c4 -35 9 -84 13 -110 l7 -48 -1292 0 c-710 0 -1291 4 -1291 8 0 5 4 33 9 63 5 30 12 75 16 102 l6 47 -105 0 c-99 0 -106 -1 -106 -20z m2842 -497 c15 -49 30 -96 33 -105 7 -17 -64 -18 -1405 -18 -1341 0 -1412 1 -1405 18 3 9 18 53 32 97 14 44 28 83 30 88 2 4 608 7 1346 7 l1342 0 27 -87z m246 -446 l123 -102 -871 -3 c-478 -1 -1261 -1 -1739 0 l-868 3 121 102 121 102 1495 0 1495 1 123 -103z m-128 -957 l0 -640 -185 0 -185 0 0 105 0 105 105 0 105 0 0 105 0 105 -210 0 -210 0 0 -210 0 -210 -80 0 -80 0 0 530 0 530 -110 0 -110 0 0 -530 0 -530 -210 0 -210 0 0 210 0 210 -110 0 -111 0 1 -210 c1 -115 -1 -210 -4 -210 -3 0 -98 0 -211 0 l-205 0 0 530 0 530 -110 0 -110 0 2 -530 3 -530 -82 0 -83 0 0 210 0 210 -210 0 -210 0 0 -105 0 -105 105 0 105 0 0 -105 0 -105 -185 0 -185 0 0 640 0 640 1490 0 1490 0 0 -640z"/>
    <path d="M2080 2185 l0 -105 1920 0 1920 0 0 105 0 105 -1920 0 -1920 0 0 -105z"/>
  </g>
</svg>