<?xml version="1.0" standalone="no"?><!DOCTYPE svg PUBLIC "-//W3C//DTD SVG 1.1//EN" "http://www.w3.org/Graphics/SVG/1.1/DTD/svg11.dtd"><svg t="1784387121112" class="icon" viewBox="0 0 1024 1024" version="1.1" xmlns="http://www.w3.org/2000/svg" p-id="10940" xmlns:xlink="http://www.w3.org/1999/xlink" width="200" height="200"><path d="M389.922 497.794H277.924V546.8h-72.136v-49.006H93.79v361.154h326.504V699.492l40.815-40.813H562.891l40.815 40.813v159.456H930.21V497.794H818.212V546.8h-72.136v-49.006H634.078V546.8h-66.441v-49.006H456.363V546.8h-66.441zM280.811 446.033h462.378l61.761-61.762-44.866-12.022-34.888-20.143H298.804l-34.888 20.143-44.866 12.022zM291.377 306.547h441.246l38.131-41.761-45.376-10.076-44.562-33.115v-32.339l-24.206-24.204-32.376 32.376H399.766l-32.376-32.376-24.206 24.204v32.339l-44.562 33.115-45.376 10.076z" p-id="10941"></path></svg>