<?xml version="1.0" standalone="no"?><!DOCTYPE svg PUBLIC "-//W3C//DTD SVG 1.1//EN" "http://www.w3.org/Graphics/SVG/1.1/DTD/svg11.dtd"><svg t="1784387880405" class="icon" viewBox="0 0 1024 1024" version="1.1" xmlns="http://www.w3.org/2000/svg" p-id="11991" xmlns:xlink="http://www.w3.org/1999/xlink" width="200" height="200"><path d="M688.128 479.744c-50.176-46.08-56.32-154.112-56.32-154.112h132.096V262.144l-140.288-1.536-11.776-73.216h152.064V127.488H604.16l-19.968-98.304H421.888l-15.872 99.328-150.016-1.536-2.048 56.32h148.48l-6.144 80.384H249.344v61.952l136.704 0.512s-9.216 94.72-60.928 155.648c-51.2 60.928-168.96 107.52-176.128 269.312-7.168 161.792 138.24 264.192 366.592 264.192 228.352 0 348.672-98.816 348.672-264.192s-125.952-225.28-176.128-271.36z m-173.568 464.896c-188.928 0-291.328-84.48-291.328-193.536 0-109.056 114.688-171.52 157.184-224.768S444.416 354.304 451.584 296.96s19.968-135.168 19.968-176.128 65.536-41.984 66.56 0c3.584 34.816 18.432 100.864 30.72 165.888 12.288 65.536 14.848 171.52 65.024 235.008 41.472 39.936 162.304 115.2 162.304 226.816 1.024 129.536-93.184 196.096-281.6 196.096z" p-id="11992"></path><path d="M433.664 558.08h146.432v37.888H433.664zM433.664 692.224h146.432v39.424H433.664zM433.664 830.464h146.432v38.912H433.664z" p-id="11993"></path></svg>