<?xml version="1.0" standalone="no"?><!DOCTYPE svg PUBLIC "-//W3C//DTD SVG 1.1//EN" "http://www.w3.org/Graphics/SVG/1.1/DTD/svg11.dtd"><svg t="1784388189471" class="icon" viewBox="0 0 2215 1024" version="1.1" xmlns="http://www.w3.org/2000/svg" p-id="5671" xmlns:xlink="http://www.w3.org/1999/xlink" width="432.6171875" height="200"><path d="M0 894.852561h112.181202v-95.563161h84.034991v-86.314898h81.123008v-216.001265h-50.297684c-28.195003 0-53.276202-23.286992-53.276202-47.33691 0 0 100.04757 13.785899 187.662105-38.135221V340.655423s-92.750979 15.95048-112.221123-82.475871c0 0 287.179619 35.688978 448.343345-213.087065V14.945813c0-14.597617 17.358789-19.89818 27.687124-9.569845l31.530587 31.530587h701.759043L1490.056983 5.375968c10.328335-10.328335 27.687124-5.021119 27.687124 9.569845v30.146674C1678.907833 293.86853 1966.087452 258.179552 1966.087452 258.179552c-19.470143 98.426352-112.221122 82.475872-112.221123 82.475871v70.845683c87.612317 51.918903 187.662105 38.135221 187.662105 38.135221 0 24.049918-25.085635 47.33691-53.276202 47.33691h-50.297684v216.001265h81.136315v86.314898h84.034991v95.563161h112.181202v129.147439H0.004436v-129.147439z m792.31661-337.550491l37.80255-35.531514h78.022511l37.80255 35.531514v138.040852h-153.627611v-138.040852z m-219.922351 0l37.80255-35.531514h78.022511l37.802551 35.531514v138.040852h-153.627612v-138.040852z m-219.922351 0l37.80255-35.531514h78.022512l37.80255 35.531514v138.040852h-153.627612v-138.040852z m1356.722321 0l37.80255-35.531514h78.022512l37.80255 35.531514v138.040852h-153.627612v-138.040852z m-219.935657 0l37.80255-35.531514h78.022511l37.802551 35.531514v138.040852H1489.258572v-138.040852z m-219.922351 0l37.80255-35.531514h78.022512l37.80255 35.531514v138.040852h-153.627612v-138.040852z m-66.294739-26.4762h-190.798086v164.517052h190.798086v-164.517052z m-796.235477-190.130526h103.700301v69.226682h-103.700301v-69.226682z m166.453199 0h103.700301v69.226682H573.259204v-69.226682z m166.4532 0h103.700301v69.226682h-103.700301v-69.226682z m166.4532 0h103.700301v69.226682h-103.700301v-69.226682z m166.453199 0h70.0384v69.226682h-70.0384v-69.226682z m632.170858 0h103.700301v69.226682h-103.700301v-69.226682z m-166.470942 0h103.700301v69.226682h-103.700301v-69.226682z m-166.4532 0h103.700302v69.226682h-103.700302v-69.226682z m-166.453199 0h103.700301v69.226682h-103.700301v-69.226682z" p-id="5672"></path></svg>