<?xml version="1.0" standalone="no"?><!DOCTYPE svg PUBLIC "-//W3C//DTD SVG 1.1//EN" "http://www.w3.org/Graphics/SVG/1.1/DTD/svg11.dtd"><svg t="1784387922914" class="icon" viewBox="0 0 1024 1024" version="1.1" xmlns="http://www.w3.org/2000/svg" p-id="14134" xmlns:xlink="http://www.w3.org/1999/xlink" width="200" height="200"><path d="M821.020833 98.188042h-80.183636l1.023625-29.002379c0.68275-18.539211-6.027793-36.396671-18.311294-49.134006C712.630527 8.79178 698.413733 2.536071 683.286273 2.536071H321.9466c-15.126461 0-29.457212 6.255709-40.375215 17.628544-12.284501 12.738335-18.881086 30.822712-18.198335 49.361924l6.141751 153.088937 9.326584 6.255709c20.130628 13.535043 33.665671 45.721256 33.665671 79.955719 0 31.163588-10.919001 60.280924-28.434586 75.862219l-8.075043 7.165376 34.007546 568.225909c1.478459 34.347422 27.183045 61.076633 58.57355 61.076633H641.772476c31.618421 0 57.209049-27.070087 58.574549-61.531466l30.936671-575.505244-5.460001-6.710543c-13.76196-16.832836-21.610086-41.854672-21.610086-68.695842 0-29.799087 9.668459-57.323008 25.932504-73.473094l6.255709-6.14275 3.070875-89.397262h81.662094c11.487793 0 20.813378-9.325585 20.813378-20.812378-0.112959-11.373835-9.439543-20.700419-20.927336-20.70042zM313.64464 50.986328c1.705375-1.819334 4.548334-3.980542 8.30196-3.980542H683.287273c3.753625 0 6.597584 2.161209 8.302959 3.980542 3.867584 3.980542 6.027793 10.236251 5.800876 16.718878l-1.023625 30.481837H308.981348l-1.251542-30.367879c-0.226917-6.482626 2.04725-12.738335 5.914834-16.832836z m378.854259 159.685522c-20.69942 24.567003-32.756004 60.507841-32.756004 98.154055 0 33.438754 9.440543 65.625967 26.273378 89.624178L655.990269 957.464366v0.454834c-0.341875 10.236251-6.824501 18.880086-14.103835 18.880085h-34.007546V228.188435c8.076042-6.141751 13.308126-15.695252 13.308127-26.387337 0-18.425252-15.241418-33.437755-34.121505-33.437754-18.766128 0-34.120505 15.012502-34.120505 33.437754 0 10.806043 5.232084 20.359544 13.307127 26.387337v748.61085h-42.65138V228.188435c8.076042-6.141751 13.307127-15.695252 13.307126-26.387337 0-18.425252-15.240419-33.437755-34.120504-33.437754-18.766128 0-34.120505 15.012502-34.120505 33.437754 0 10.806043 5.231084 20.359544 13.307127 26.387337v748.61085h-42.651381V228.188435c8.075043-6.141751 13.307127-15.695252 13.307127-26.387337 0-18.425252-15.240419-33.437755-34.120505-33.437754-18.767127 0-34.121504 15.012502-34.121504 33.437754 0 10.806043 5.232084 20.359544 13.307127 26.387337v748.61085h-28.889421c-7.278335 0-13.760961-8.529876-14.102835-18.766127v-0.227917l-32.756004-547.866365c22.291836-24.567003 35.372046-61.417508 35.372046-101.111972 0-44.925548-16.604919-85.756595-43.901923-109.527889l-2.389125-59.483217H695.342858z" fill="#2C2C2C" p-id="14135"></path><path d="M321.9466 0c-15.824205 0-30.836707 6.569594-42.201546 18.40526l-0.001999 0.001999-0.001999 0.001999c-12.798313 13.275138-19.609819 32.011277-18.903078 51.210247a2.536071 2.536071 0 0 0 0 0.009996l6.142751 153.087937a2.536071 2.536071 0 0 0 1.11959 2.005266l9.326584 6.255709c19.023034 12.790316 32.543082 44.283783 32.543083 77.848491 0 30.570805-10.849027 59.079364-27.582899 73.966913l-8.074043 7.163376a2.536071 2.536071 0 0 0-0.84669 2.04925l34.004547 568.182925c1.53044 35.55398 28.275645 63.504744 61.107622 63.504744H641.772476c33.055895 0 59.678145-28.286641 61.107622-63.932587l0.000999-0.032988 30.933672-575.472256a2.536071 2.536071 0 0 0-0.563794-1.736364l-5.458001-6.710543a2.536071 2.536071 0 0 0-0.004998-0.003998c-13.281136-16.244051-21.037296-40.745079-21.037296-67.09243 0-29.24429 9.579492-56.172429 25.172782-71.663756l0.007997-0.006997 0.001999-0.002 6.245713-6.132754a2.536071 2.536071 0 0 0 0.757722-1.722369l2.986906-86.948159h79.210992c12.86029 0 23.351448-10.489159 23.351449-23.349449a2.536071 2.536071 0 0 0-0.001999-0.024991c-0.127953-12.745333-10.602117-23.2105-23.462408-23.2105h-77.557598l0.930659-26.372342v-0.001999c0.706741-19.208965-6.234717-37.729183-19.020034-50.987328a2.536071 2.536071 0 0 0-0.005998-0.003999C714.011021 6.573593 699.113477 0 683.287273 0z m0 5.072143H683.287273c14.427716 0 27.96076 5.937826 38.440922 16.743868 11.778687 12.218525 18.256314 29.40923 17.598555 47.275687a2.536071 2.536071 0 0 0 0 0.003998l-1.024624 29.003379a2.536071 2.536071 0 0 0 2.534072 2.626038h80.185635c10.106299 0 18.277307 8.176006 18.389265 18.167347-0.001999 10.112297-8.163011 18.272308-18.276307 18.272309h-81.663094a2.536071 2.536071 0 0 0-2.534072 2.450103l-3.036887 88.383632-5.532974 5.432011a2.536071 2.536071 0 0 0-0.009997 0.009997c-16.9298 16.810844-26.680229 44.925548-26.680229 75.272434 0 27.335989 7.939093 52.881634 22.181877 70.303254l4.838228 5.946822-30.88269 574.525603a2.536071 2.536071 0 0 0-0.002 0.036986c-1.317518 33.261819-25.869526 59.095359-56.040477 59.095359H368.577523c-29.951032 0-54.613-25.506659-56.039478-58.650522a2.536071 2.536071 0 0 0-0.001999-0.039985l-33.932574-566.99636 7.153381-6.347675a2.536071 2.536071 0 0 0 0.001999-0.001c18.2963-16.277039 29.284276-46.003153 29.284276-77.758524 0-34.903218-13.547039-67.780178-34.787261-82.059949a2.536071 2.536071 0 0 0-0.002999-0.001999l-8.254977-5.538971-6.091769-151.792412v-0.009997c-0.65476-17.873455 5.725903-35.298073 17.490595-47.497606a2.536071 2.536071 0 0 0 0.003999-0.003998c10.472165-10.909005 24.118168-16.849829 38.545884-16.849829z m0 39.397572c-4.727269 0-8.170008 2.669023-10.152282 4.783248-4.408386 4.671289-6.849492 11.526779-6.599584 18.656168a2.536071 2.536071 0 0 0 0 0.014994l1.251542 30.368879a2.536071 2.536071 0 0 0 2.534072 2.432109h387.386135a2.536071 2.536071 0 0 0 2.534072-2.452102l1.024625-30.477838v-0.002c0.248909-7.092403-2.050249-13.957888-6.501619-18.551206-1.984273-2.113226-5.418016-4.772252-10.136288-4.772252z m0 5.073142H683.287273c2.778982 0 5.02316 1.655394 6.452637 3.179835a2.536071 2.536071 0 0 0 0.029989 0.030989c3.271802 3.367767 5.291062 9.000704 5.085137 14.864556a2.536071 2.536071 0 0 0 0 0.002999l-0.941655 28.030735H311.415456l-1.152578-27.936769 0.002 0.015994c-0.203925-5.833864 1.900304-11.484794 5.223087-15.002506a2.536071 2.536071 0 0 0 0.005998-0.005998c1.429477-1.524442 3.672655-3.179836 6.452637-3.179835z m-10.918002 87.737869a2.536071 2.536071 0 0 0-2.534072 2.637035l2.388125 59.484216a2.536071 2.536071 0 0 0 0.868682 1.809337c26.59626 23.161518 43.031241 63.313814 43.031242 107.614591 0 39.137667-12.938262 75.412383-34.714288 99.409595a2.536071 2.536071 0 0 0-0.65376 1.854321l32.751006 547.791392v0.152944a2.536071 2.536071 0 0 0 0.001999 0.08397c0.187931 5.628939 2.038254 10.790049 4.959184 14.664629 2.92193 3.873581 7.049418 6.5536 11.679723 6.5536h28.88942a2.536071 2.536071 0 0 0 2.536072-2.53807V228.187435a2.536071 2.536071 0 0 0-1.019627-2.032256c-7.465266-5.572959-12.2875-14.367738-12.2875-24.354081 0-17.015769 14.169811-30.900684 31.584433-30.900684 17.535578 0 31.583434 13.874919 31.583434 30.900684 0 9.863388-4.818236 18.673162-12.305493 24.368076a2.536071 2.536071 0 0 0-0.999634 2.019261V976.797286a2.536071 2.536071 0 0 0 2.536071 2.53907h42.650381a2.536071 2.536071 0 0 0 2.536071-2.53907V228.187435a2.536071 2.536071 0 0 0-1.019626-2.032256c-7.466266-5.572959-12.2885-14.367738-12.2885-24.354081 0-17.015769 14.17081-30.900684 31.584433-30.900684 17.535578 0 31.586433 13.874919 31.586433 30.900684 0 9.863388-4.819235 18.673162-12.305494 24.368076a2.536071 2.536071 0 0 0-1.002633 2.019261V976.797286a2.536071 2.536071 0 0 0 2.536072 2.53907h42.650381a2.536071 2.536071 0 0 0 2.537071-2.53907V228.187435a2.536071 2.536071 0 0 0-1.019627-2.032256c-7.467265-5.572959-12.286501-14.367738-12.286501-24.354081 0-17.015769 14.17081-30.900684 31.584434-30.900684 17.535578 0 31.583434 13.874919 31.583434 30.900684 0 9.863388-4.818236 18.673162-12.305494 24.368076a2.536071 2.536071 0 0 0-1.001633 2.019261V976.797286a2.536071 2.536071 0 0 0 2.536071 2.53907h34.007546c4.6433 0 8.76679-2.719004 11.684721-6.619576 2.917931-3.900572 4.765255-9.084673 4.953186-14.713611a2.536071 2.536071 0 0 0 0.001999-0.084969v-0.386858l30.022006-558.945309a2.536071 2.536071 0 0 0-0.456833-1.591417c-16.475966-23.491397-25.812547-55.207782-25.812547-88.169711 0-37.104412 11.93263-72.513445 32.160223-96.518654a2.536071 2.536071 0 0 0 0.593782-1.532439l2.843959-70.857051a2.536071 2.536071 0 0 0-2.534072-2.638034z m2.639033 5.071143H692.703824l-2.709008 67.432306c-20.80638 25.102807-32.787993 61.212583-32.787992 99.04173 0 33.568707 9.376566 65.879874 26.234392 90.298931L653.458196 957.329415a2.536071 2.536071 0 0 0-0.003998 0.133951v0.389858c-0.156943 4.599316-1.71937 8.848759-3.945555 11.825669-2.229184 2.978909-4.987174 4.583322-7.622209 4.583322H610.41396v-745.007171c8.047053-6.605581 13.308126-16.423985 13.308126-27.453946 0-19.82374-16.431982-35.974826-36.656576-35.974825-20.119632 0-36.658575 16.140089-36.658575 35.974825 0 11.121927 5.254076 20.948328 13.307127 27.462943v744.998174h-37.578239v-745.007171c8.046053-6.605581 13.308126-16.423985 13.308127-27.453946 0-19.82374-16.433982-35.974826-36.658576-35.974825-20.118632 0-36.656576 16.140089-36.656575 35.974825 0 11.121927 5.255076 20.948328 13.308126 27.462943v744.998174h-37.578238v-745.007171c8.045054-6.605581 13.305128-16.423985 13.305127-27.453946 0-19.82374-16.430983-35.974826-36.656576-35.974825-20.118632 0-36.656576 16.140089-36.656576 35.974825 0 11.121927 5.253076 20.948328 13.306127 27.462943v744.998174h-26.35135c-2.64903 0-5.403021-1.585419-7.628206-4.53534-2.225185-2.94992-3.786613-7.171374-3.939557-11.778686v-0.142948a2.536071 2.536071 0 0 0-0.003999-0.149945l-32.698026-546.891722c22.348816-25.125799 35.317067-62.129248 35.317067-101.937669 0-45.076492-16.467969-86.134457-43.941908-110.613493z" fill="#2C2C2C" p-id="14136"></path></svg>