<?xml version="1.0" standalone="no"?><!DOCTYPE svg PUBLIC "-//W3C//DTD SVG 1.1//EN" "http://www.w3.org/Graphics/SVG/1.1/DTD/svg11.dtd"><svg t="1784388021704" class="icon" viewBox="0 0 1024 1024" version="1.1" xmlns="http://www.w3.org/2000/svg" p-id="20147" xmlns:xlink="http://www.w3.org/1999/xlink" width="200" height="200"><path d="M512 102.4m-51.2 0a51.2 51.2 0 1 0 102.4 0 51.2 51.2 0 1 0-102.4 0Z" fill="#000000" p-id="20148"></path><path d="M526.6432 135.7824c31.5392 52.5312 64.768 96.9728 99.6864 133.3248 34.9696 36.352 80.2304 58.1632 135.7312 65.4336 17.152-0.768 31.9488-3.7888 44.3904-9.216 17.408-5.12 43.2128-21.5552 49.0496-25.6 18.0224-12.3392 20.48-18.5344 21.9136-16.5888 1.536 1.8944 7.0144 4.352 0 16.5888-21.2992 37.2736-51.712 58.5728-91.1872 64v48.9984c43.7248 16.4352 83.968 16.4352 120.7808 0 24.9856-11.1616 43.008-22.2208 50.8928-42.1888 0.3584-4.9152 3.3792-9.8816 4.0448-14.0288 6.2464-40.7552 21.8112-45.0048 27.8528-31.1296 6.656 15.2576 4.7616 34.6624 4.7616 45.1584 0 10.5472-18.688 66.56-78.1312 103.8848-18.8416 13.1072-50.688 25.6-95.5392 37.5808v73.7792h-26.8288v28.2624H766.72v360.6016h-61.952v-360.6016h-27.5456v-32.8192H348.416v32.8192h-30.208v360.6016H254.976v-360.6016h-34.2528v-32.8192h-28.416V512C96.256 497.8176 41.3184 462.3872 27.5968 405.7088c-9.5232-45.7216 3.84-59.9552 13.1072-71.168 6.1952-7.4752 12.288-7.4752 18.176 0-5.376 28.5696-3.328 49.152 6.0928 61.7984 14.1312 18.944 23.6544 22.1696 60.8256 27.8528 24.7808 3.7888 61.6448 0 110.592-11.4688v-42.1888c-25.1904-6.656-46.3872-16.384-63.6416-29.3888-11.6736-7.0656-26.88-28.672-37.4272-53.9136-0.3072-5.0688 3.1744-6.4 10.4448-4.096 17.92 17.8688 40.96 31.9488 69.2736 42.24 11.264 4.096 33.8944 7.168 67.8912 9.1648 44.9536-18.8928 83.2512-43.2128 114.8416-73.0112 31.6416-29.7984 63.5392-71.68 95.7952-125.7472zM716.8 409.6h-409.6v79.5648h409.6V409.6z" fill="#000000" p-id="20149"></path><path d="M153.6 911.7696h716.8V972.8H153.6z" fill="#000000" p-id="20150"></path><path d="M512 102.4m-51.2 0a51.2 51.2 0 1 0 102.4 0 51.2 51.2 0 1 0-102.4 0Z" fill="#000000" p-id="20151"></path><path d="M526.6432 135.7824c31.5392 52.5312 64.768 96.9728 99.6864 133.3248 34.9696 36.352 80.2304 58.1632 135.7312 65.4336 17.152-0.768 31.9488-3.7888 44.3904-9.216 17.408-5.12 43.2128-21.5552 49.0496-25.6 18.0224-12.3392 20.48-18.5344 21.9136-16.5888 1.536 1.8944 7.0144 4.352 0 16.5888-21.2992 37.2736-51.712 58.5728-91.1872 64v48.9984c43.7248 16.4352 83.968 16.4352 120.7808 0 24.9856-11.1616 43.008-22.2208 50.8928-42.1888 0.3584-4.9152 3.3792-9.8816 4.0448-14.0288 6.2464-40.7552 21.8112-45.0048 27.8528-31.1296 6.656 15.2576 4.7616 34.6624 4.7616 45.1584 0 10.5472-18.688 66.56-78.1312 103.8848-18.8416 13.1072-50.688 25.6-95.5392 37.5808v73.7792h-26.8288v28.2624H766.72v360.6016h-61.952v-360.6016h-27.5456v-32.8192H348.416v32.8192h-30.208v360.6016H254.976v-360.6016h-34.2528v-32.8192h-28.416V512C96.256 497.8176 41.3184 462.3872 27.5968 405.7088c-9.5232-45.7216 3.84-59.9552 13.1072-71.168 6.1952-7.4752 12.288-7.4752 18.176 0-5.376 28.5696-3.328 49.152 6.0928 61.7984 14.1312 18.944 23.6544 22.1696 60.8256 27.8528 24.7808 3.7888 61.6448 0 110.592-11.4688v-42.1888c-25.1904-6.656-46.3872-16.384-63.6416-29.3888-11.6736-7.0656-26.88-28.672-37.4272-53.9136-0.3072-5.0688 3.1744-6.4 10.4448-4.096 17.92 17.8688 40.96 31.9488 69.2736 42.24 11.264 4.096 33.8944 7.168 67.8912 9.1648 44.9536-18.8928 83.2512-43.2128 114.8416-73.0112 31.6416-29.7984 63.5392-71.68 95.7952-125.7472zM716.8 409.6h-409.6v79.5648h409.6V409.6z" fill="#000000" p-id="20152"></path></svg>