<?xml version="1.0" standalone="no"?><!DOCTYPE svg PUBLIC "-//W3C//DTD SVG 1.1//EN" "http://www.w3.org/Graphics/SVG/1.1/DTD/svg11.dtd"><svg t="1784388168068" class="icon" viewBox="0 0 1171 1024" version="1.1" xmlns="http://www.w3.org/2000/svg" p-id="3512" xmlns:xlink="http://www.w3.org/1999/xlink" width="228.7109375" height="200"><path d="M854.48 169.36c2-52.64-26.64-48-26.64-48s-6.64-5.36-46 0c40 31.36 27.36 50 0 58.8-27.36 8.8-377.36-0.8-377.36-0.8s-32.24 4.24-40-7.36c-14.64-32.64 27.36-50.64 27.36-50.64l3.44-2.4s-0.72-0.4-42.72 0-39.28 31.12-39.28 31.12 2.48 122.24 2.48 148.48C305.44 318.08 0 427.84 0 427.84v34.72l50 10L39.44 481.84l6.72 5.04s28.72-20.24 31.28-11.52-0.72 22.48-18.48 27.52-12.24 20.24-12.24 20.24l68-34s3.28 15.76-18.48 22.24-15.52 20.48-15.52 20.48 49.76-23.04 64.48-30.48c-2.48 14.72-7.76 13.04-20.72 19.76s-10 21.52-10 21.52l44.72-21.76s-5.76 26 15.28 26.24c0 28 23.04 21.28 23.04 21.28v35.04l-1.04 210.48H39.44v65.52h1087.04v-65.04H969.84V569.52h5.76c14.4 0 15.52-9.6 15.52-9.6s0.16-8 0.08-13.2c10.64 0.64 14-10.64 14-10.64v-19.36s48 29.36 46 21.36-4-13.36-19.36-21.36-14-18.64-14-18.64 68 34 67.36 29.36c-0.64-4.64-6.64-10.64-22.64-16.64s-10.64-23.36-10.64-23.36l67.36 35.36s6-13.36-15.36-22-17.36-24.64-17.36-24.64l13.36-1.36 28.64 10-12-12.64 44.64-9.36s0-6 10-36C1005.84 384 854.48 300.08 854.48 300.08V169.36z m-657.6 383.04v-25.84h11.52l14.88 25.84h-26.4z m-73.04-53.28v-25.84h84.64l14.88 25.84H123.84z m108.08 53.28l14.88-25.84H347.44l14.88 25.84h-130.4z m0-53.28l14.88-25.84H347.44l14.88 25.84h-130.4z m292.88-25.84h100.64l14.88 25.84h-130.4l14.88-25.84z m0 53.36h100.64l14.88 25.84h-130.4l14.88-25.84zM385.84 473.28h100.64l14.88 25.84h-130.4l14.88-25.84z m0 53.36h100.64l14.88 25.84h-130.4l14.88-25.84z m270 277.76H494.48v-192h161.36v192z m-6.88-252l14.88-25.84h100.64l14.88 25.84h-130.4z m0-53.28l14.88-25.84h100.64l14.88 25.84h-130.4z m153.84-25.84h89.68l14.88 25.84H787.92l14.88-25.84z m0 53.36h89.68l14.88 25.84H787.92l14.88-25.84z m162.32 25.76h-40.56l14.88-25.84h25.6v25.84z m32-53.28h-72.56l14.88-25.84h57.6v25.84z" fill="#2c2c2c" p-id="3513"></path></svg>