<?xml version="1.0" standalone="no"?><!DOCTYPE svg PUBLIC "-//W3C//DTD SVG 1.1//EN" "http://www.w3.org/Graphics/SVG/1.1/DTD/svg11.dtd"><svg t="1784387854011" class="icon" viewBox="0 0 1024 1024" version="1.1" xmlns="http://www.w3.org/2000/svg" p-id="10120" xmlns:xlink="http://www.w3.org/1999/xlink" width="200" height="200"><path d="M986.458 372.285c-41.058-1.117-86.862-22.153-128.977-59.233-41.678-36.694-75.463-85.699-95.131-137.991-0.035-0.092-0.074-0.18-0.109-0.27-0.121-0.314-0.25-0.626-0.38-0.937-0.107-0.256-0.212-0.512-0.325-0.765-0.114-0.257-0.237-0.511-0.356-0.766a45.682 45.682 0 0 0-0.43-0.891c-0.093-0.185-0.192-0.364-0.289-0.546-0.187-0.353-0.372-0.705-0.569-1.051-0.059-0.103-0.122-0.204-0.182-0.306a36.744 36.744 0 0 0-0.741-1.222c-0.016-0.027-0.034-0.049-0.049-0.074a35.848 35.848 0 0 0-3.07-4.109c-0.039-0.046-0.082-0.089-0.121-0.134a37.162 37.162 0 0 0-1.03-1.134c-0.237-0.249-0.483-0.487-0.727-0.73-0.161-0.159-0.318-0.325-0.483-0.482a35.924 35.924 0 0 0-6.738-5.055c-0.081-0.047-0.159-0.097-0.241-0.143a34.193 34.193 0 0 0-1.102-0.597c-0.165-0.087-0.329-0.177-0.495-0.261a31.928 31.928 0 0 0-0.931-0.448c-0.242-0.114-0.483-0.229-0.729-0.339-0.261-0.116-0.528-0.226-0.793-0.337-0.303-0.126-0.605-0.252-0.91-0.369-0.093-0.036-0.185-0.078-0.278-0.113-0.148-0.055-0.298-0.101-0.447-0.155a32.75 32.75 0 0 0-0.986-0.342c-0.244-0.081-0.491-0.157-0.735-0.234a31.88 31.88 0 0 0-1.75-0.49c-0.307-0.079-0.617-0.15-0.927-0.22a34.188 34.188 0 0 0-1.723-0.342 28.795 28.795 0 0 0-1.747-0.258c-0.291-0.036-0.581-0.07-0.87-0.099-0.298-0.03-0.596-0.052-0.895-0.074-0.286-0.02-0.569-0.042-0.854-0.055-0.31-0.015-0.621-0.022-0.934-0.032-0.271-0.005-0.543-0.013-0.814-0.013-0.326 0-0.652 0.006-0.979 0.015a27.927 27.927 0 0 0-1.784 0.093 29.668 29.668 0 0 0-1.759 0.178 34.89 34.89 0 0 0-1.732 0.262 36.19 36.19 0 0 0-4.266 1.024c-0.274 0.084-0.55 0.17-0.826 0.26-0.301 0.099-0.599 0.205-0.897 0.311-0.165 0.059-0.332 0.11-0.496 0.172-0.105 0.039-0.204 0.085-0.307 0.124-0.278 0.107-0.553 0.221-0.829 0.336-0.292 0.121-0.583 0.242-0.87 0.37-0.217 0.097-0.431 0.199-0.645 0.301-0.339 0.158-0.677 0.318-1.008 0.487-0.139 0.069-0.273 0.146-0.411 0.217-0.398 0.208-0.795 0.419-1.182 0.642-0.051 0.03-0.1 0.061-0.151 0.09a35.786 35.786 0 0 0-6.815 5.103c-0.131 0.124-0.254 0.255-0.382 0.382-0.278 0.273-0.558 0.546-0.827 0.829-0.335 0.351-0.659 0.713-0.98 1.078-0.055 0.063-0.114 0.123-0.17 0.188a35.785 35.785 0 0 0-3.077 4.119c-0.013 0.019-0.028 0.038-0.038 0.058-0.258 0.404-0.506 0.818-0.749 1.235-0.057 0.098-0.117 0.194-0.174 0.293-0.199 0.349-0.389 0.706-0.578 1.065-0.093 0.176-0.19 0.352-0.279 0.529-0.151 0.298-0.294 0.603-0.438 0.907-0.117 0.25-0.237 0.497-0.348 0.748-0.115 0.258-0.223 0.519-0.334 0.783-0.127 0.304-0.253 0.609-0.371 0.916-0.036 0.093-0.078 0.183-0.112 0.277-15.903 42.284-41.041 82.416-72.114 115.631-26.371-9.939-53.245-26.595-78.218-48.582-39.826-35.065-74.5-86.634-95.132-141.486-0.036-0.097-0.08-0.19-0.115-0.286-0.116-0.301-0.239-0.597-0.362-0.894-0.112-0.27-0.223-0.54-0.342-0.804a29.45 29.45 0 0 0-0.336-0.719c-0.148-0.314-0.295-0.629-0.451-0.937-0.084-0.165-0.173-0.329-0.26-0.494-0.194-0.37-0.39-0.738-0.596-1.099-0.049-0.086-0.101-0.169-0.151-0.254a38.45 38.45 0 0 0-0.771-1.274l-0.007-0.012a35.885 35.885 0 0 0-3.109-4.166l-0.05-0.054a37.25 37.25 0 0 0-1.102-1.212c-0.217-0.227-0.444-0.446-0.666-0.667-0.181-0.181-0.357-0.365-0.542-0.541a35.787 35.787 0 0 0-6.756-5.065l-0.215-0.129c-0.37-0.211-0.75-0.413-1.131-0.613-0.155-0.082-0.307-0.165-0.463-0.244-0.318-0.16-0.642-0.313-0.966-0.465-0.228-0.108-0.457-0.217-0.687-0.32a38.806 38.806 0 0 0-0.836-0.355c-0.287-0.118-0.573-0.238-0.863-0.349-0.1-0.038-0.197-0.083-0.297-0.119-0.158-0.059-0.318-0.108-0.477-0.165a37.63 37.63 0 0 0-3.468-1.059 35.728 35.728 0 0 0-2.568-0.545 45 45 0 0 0-0.953-0.156c-0.258-0.038-0.517-0.07-0.779-0.103a32.644 32.644 0 0 0-0.98-0.112c-0.257-0.027-0.515-0.045-0.773-0.064-0.326-0.023-0.653-0.048-0.979-0.064-0.267-0.013-0.533-0.019-0.8-0.028-0.317-0.007-0.634-0.015-0.95-0.015-0.277 0-0.556 0.006-0.834 0.013a28.14 28.14 0 0 0-0.918 0.031c-0.287 0.014-0.573 0.035-0.859 0.055-0.3 0.021-0.597 0.046-0.895 0.074-0.289 0.03-0.579 0.063-0.867 0.099-0.297 0.036-0.593 0.074-0.889 0.118-0.285 0.042-0.566 0.09-0.851 0.14a30.993 30.993 0 0 0-1.716 0.341 31.58 31.58 0 0 0-1.706 0.425 34.717 34.717 0 0 0-1.706 0.515c-0.34 0.112-0.678 0.231-1.014 0.353-0.142 0.051-0.287 0.096-0.429 0.149-0.091 0.034-0.177 0.073-0.267 0.108-0.318 0.122-0.634 0.253-0.948 0.385-0.252 0.105-0.505 0.209-0.753 0.32-0.261 0.116-0.519 0.24-0.781 0.363-0.294 0.139-0.59 0.277-0.878 0.423-0.189 0.096-0.375 0.198-0.562 0.297-0.347 0.185-0.694 0.368-1.035 0.561-0.109 0.063-0.218 0.131-0.327 0.194a35.23 35.23 0 0 0-1.202 0.73c-0.033 0.02-0.064 0.044-0.097 0.064a35.887 35.887 0 0 0-4.089 3.056c-0.051 0.045-0.099 0.091-0.15 0.137-0.38 0.334-0.754 0.669-1.119 1.017-0.245 0.234-0.481 0.478-0.719 0.718-0.163 0.164-0.331 0.323-0.491 0.492a35.704 35.704 0 0 0-4.262 5.433l-0.014 0.02c-0.262 0.412-0.514 0.834-0.763 1.259-0.053 0.091-0.109 0.181-0.161 0.271-0.202 0.353-0.393 0.714-0.583 1.075-0.092 0.173-0.187 0.346-0.276 0.522-0.151 0.3-0.294 0.604-0.439 0.909-0.117 0.25-0.237 0.497-0.348 0.748-0.114 0.256-0.221 0.516-0.331 0.778a32.56 32.56 0 0 0-0.375 0.926c-0.036 0.092-0.076 0.181-0.11 0.273-20.63 54.852-55.303 106.422-95.131 141.486-51.213 45.089-108.762 66.458-153.953 57.154-27.718-5.705-48.274-22.306-61.099-49.341-8.544-18.011-30.07-25.687-48.078-17.141-18.011 8.543-25.685 30.069-17.141 48.078 19.088 40.244 50.727 69.157 90.386 83.164V841.77c0 19.934 16.159 36.093 36.093 36.093s36.093-16.159 36.093-36.093V373.086c54.805-3.971 112.89-30.563 165.399-76.794 31.006-27.297 58.703-61.453 81.214-99.658 22.511 38.206 50.208 72.359 81.214 99.658 21.093 18.571 42.983 33.93 65.437 45.999-54.123 36.989-114.485 55.648-151.437 16.45-13.675-14.505-36.518-15.179-51.022-1.504-14.505 13.675-15.178 36.517-1.504 51.022 14.877 15.78 32.169 27.492 51.541 34.949v469.501c0 19.934 16.159 36.093 36.093 36.093s36.093-16.159 36.093-36.093V451.614a191.968 191.968 0 0 0 16.028-2.491c47.634-9.473 99.284-37.788 149.372-81.885 31.385-27.631 59.06-61.024 81.215-97.537 22.154 36.516 49.829 69.907 81.215 97.537 54.763 48.214 116.81 75.635 174.713 77.211 0.336 0.01 0.667 0.014 1.001 0.014 19.477 0 35.529-15.52 36.062-35.11 0.548-19.927-15.166-36.521-35.09-37.062z m-765.924 65.7h74.13V512h-74.13v-74.015zM585.222 512h143.344v148.564H585.222V512z" fill="#515151" p-id="10121"></path></svg>