<?xml version="1.0" standalone="no"?><!DOCTYPE svg PUBLIC "-//W3C//DTD SVG 1.1//EN" "http://www.w3.org/Graphics/SVG/1.1/DTD/svg11.dtd"><svg t="1784388180036" class="icon" viewBox="0 0 1024 1024" version="1.1" xmlns="http://www.w3.org/2000/svg" p-id="4523" xmlns:xlink="http://www.w3.org/1999/xlink" width="200" height="200"><path d="M254.487273 195.490909h513.396363a40.494545 40.494545 0 0 0 32.116364-13.963636 23.272727 23.272727 0 0 0-13.963636-36.072728l-178.501819-72.378181L535.156364 6.981818c-1.861818-2.094545-1.861818-2.094545-3.956364-2.094545a39.796364 39.796364 0 0 0-44.218182 4.189091l-68.189091 62.138181-182.458182 74.24a25.134545 25.134545 0 0 0-18.152727 23.272728c0 14.661818 16.058182 26.763636 36.305455 26.763636z" p-id="4524" fill="#2c2c2c"></path><path d="M268.450909 241.570909m48.174546 0l391.214545 0q48.174545 0 48.174545 48.174546l0 98.210909q0 48.174545-48.174545 48.174545l-391.214545 0q-48.174545 0-48.174546-48.174545l0-98.210909q0-48.174545 48.174546-48.174546Z" p-id="4525" fill="#2c2c2c"></path><path d="M1012.712727 897.629091l-60.276363-194.56a97.28 97.28 0 0 0-93.090909-68.189091H166.050909a101.236364 101.236364 0 0 0-94.254545 68.189091L11.752727 897.629091a98.676364 98.676364 0 0 0 64 122.414545 149.178182 149.178182 0 0 0 28.16 3.956364h209.454546c0-162.909091 64.232727-244.829091 194.56-244.829091S707.84 859.461818 707.84 1024h209.454545a98.443636 98.443636 0 0 0 98.21091-98.210909 126.370909 126.370909 0 0 0-2.792728-28.16z" p-id="4526" fill="#2c2c2c"></path><path d="M170.24 486.4m48.174545 0l587.636364 0q48.174545 0 48.174546 48.174545l0 0q0 48.174545-48.174546 48.174546l-587.636364 0q-48.174545 0-48.174545-48.174546l0 0q0-48.174545 48.174545-48.174545Z" p-id="4527" fill="#2c2c2c"></path></svg>