<?xml version="1.0" standalone="no"?><!DOCTYPE svg PUBLIC "-//W3C//DTD SVG 1.1//EN" "http://www.w3.org/Graphics/SVG/1.1/DTD/svg11.dtd"><svg t="1784478130295" class="icon" viewBox="0 0 1024 1024" version="1.1" xmlns="http://www.w3.org/2000/svg" p-id="10423" xmlns:xlink="http://www.w3.org/1999/xlink" width="200" height="200"><path d="M516.573867 1018.7776c-165.512533 0-352.5632-114.005333-389.9392-331.912533-36.352-212.241067 111.5136-333.824 209.373866-414.276267 17.646933-14.506667 33.757867-27.716267 46.865067-40.0384 68.369067-64.341333 51.438933-184.968533 51.268267-186.1632A35.84 35.84 0 0 1 487.901867 10.274133c135.543467 80.622933 211.3536 178.312533 225.416533 290.338134 14.165333 113.117867-41.813333 214.254933-94.037333 266.478933-28.8768 28.8768-29.730133 51.063467-27.409067 54.749867 11.810133-0.2048 30.071467-7.816533 52.6336-29.218134 87.517867-82.944 122.811733-167.2192 123.153067-168.0384a35.874133 35.874133 0 0 1 63.453866-5.597866c42.530133 67.310933 83.899733 152.917333 68.369067 277.7088-13.7216 109.636267-98.2016 256.6144-291.1232 309.930666a345.429333 345.429333 0 0 1-91.784533 12.151467z" fill="#1296db" p-id="10424"></path></svg>