<?xml version="1.0" standalone="no"?><!DOCTYPE svg PUBLIC "-//W3C//DTD SVG 1.1//EN" "http://www.w3.org/Graphics/SVG/1.1/DTD/svg11.dtd"><svg t="1784387154381" class="icon" viewBox="0 0 1024 1024" version="1.1" xmlns="http://www.w3.org/2000/svg" p-id="14623" xmlns:xlink="http://www.w3.org/1999/xlink" width="200" height="200"><path d="M959.2 311.2c-0.8 0-65.6-11.2-124.8-66.4-57.6-53.6-61.6-170.4-61.6-171.2 0-8.8-7.2-15.2-16-15.2H265.6c-8.8 0-16 7.2-16 15.2 0 0.8-4 117.6-61.6 171.2-59.2 54.4-124 66.4-124.8 66.4-8 1.6-13.6 8-13.6 16V688c0 7.2 4.8 13.6 12 15.2 0.8 0 80.8 20.8 124.8 65.6 39.2 40.8 53.6 123.2 53.6 181.6 0 8.8 7.2 16 16 16h510.4c8.8 0 16-7.2 16-16 0-58.4 14.4-140.8 53.6-181.6 44-44.8 124-65.6 124.8-65.6 7.2-1.6 12-8 12-15.2V326.4c0-7.2-5.6-14.4-13.6-15.2z m-18.4 364c-26.4 8-88 30.4-128 71.2-51.2 52-60.8 146.4-62.4 188H271.2c-1.6-40.8-11.2-135.2-62.4-188-40-40.8-101.6-63.2-128-71.2v-336c24.8-6.4 77.6-24.8 128-71.2 54.4-50.4 68-141.6 70.4-178.4h461.6c3.2 36.8 16 128 70.4 178.4 50.4 46.4 104 64.8 128 71.2v336z" fill="#515151" p-id="14624"></path><path d="M723.2 147.2c0-4-4-8-8-8H306.4c-4 0-8 3.2-8 8 0 0.8-3.2 100.8-52.8 146.4-50.4 46.4-106.4 56-106.4 56-4 0.8-6.4 4-6.4 8v300c0 4 2.4 7.2 6.4 8 0.8 0 68.8 17.6 106.4 56 34.4 35.2 46.4 104.8 46.4 154.4 0 4.8 3.2 8 8 8h424.8c4.8 0 8-3.2 8-8 0-49.6 12-120 46.4-154.4 37.6-38.4 105.6-56 106.4-56 3.2-0.8 6.4-4 6.4-8V357.6c0-4-3.2-7.2-6.4-8-0.8 0-56.8-9.6-106.4-56-52.8-45.6-56-145.6-56-146.4z m150.4 504.8c-18.4 5.6-73.6 24-108 59.2-43.2 44.8-49.6 128-50.4 157.6H306.4c-0.8-30.4-7.2-112.8-50.4-157.6-34.4-35.2-89.6-53.6-108-59.2V364.8c16.8-4 64-18.4 108-59.2 46.4-43.2 56-124 57.6-149.6h393.6c1.6 25.6 11.2 106.4 57.6 149.6 44 40.8 91.2 55.2 108 59.2v287.2z" fill="#515151" p-id="14625"></path><path d="M523.2 478.4L508 496l-15.2-17.6H370.4V688h-51.2v28.8h379.2V688h-52V478.4H523.2z m8.8 19.2h94.4V688H517.6V514.4l14.4-16.8z m-142.4 0h94.4l14.4 16.8V688H389.6V497.6zM297.6 740h426.4v28.8H297.6zM640 384c-94.4-3.2-128.8-168-128.8-168s-34.4 164.8-128.8 168c-92 3.2-105.6-47.2-105.6-47.2s6.4 105.6 91.2 105.6c100.8-0.8 143.2 0 143.2 0h143.2c84 0 90.4-105.6 90.4-105.6S732 387.2 640 384z" fill="#515151" p-id="14626"></path></svg>