<?xml version="1.0" standalone="no"?><!DOCTYPE svg PUBLIC "-//W3C//DTD SVG 1.1//EN" "http://www.w3.org/Graphics/SVG/1.1/DTD/svg11.dtd"><svg t="1784390808346" class="icon" viewBox="0 0 1025 1024" version="1.1" xmlns="http://www.w3.org/2000/svg" p-id="20486" xmlns:xlink="http://www.w3.org/1999/xlink" width="200.1953125" height="200"><path d="M249.344 909.312h529.408v27.648H249.344v-27.648z m215.04-51.2v27.648h99.328v-27.648H464.384z m557.568-240.64c-1.536-0.512-3.072-0.512-4.096 0.512-40.448 40.448-98.816 56.32-136.704 57.856-33.28 1.024-63.488-8.704-94.208-19.968-6.656-2.56-20.48-9.216-38.4-18.432v-75.776H764.928c17.408 0 32.256-2.048 46.08-6.144 31.232-9.216 148.48-86.016 153.6-89.088 1.024-0.512 2.048-2.048 2.048-3.584v-40.96c0-1.536-1.024-3.072-2.048-4.096-1.024-0.512-2.56-0.512-4.096 0.512-37.376 39.424-92.16 54.784-126.976 56.32-30.72 1.024-58.88-8.704-87.552-19.456-6.144-2.56-19.456-9.216-36.352-18.432V366.08c14.336 0 27.648-2.048 39.424-5.12 28.672-7.68 137.728-72.704 142.336-75.264 1.024-0.512 1.536-2.048 1.536-3.072v-34.304c0-1.536-0.512-2.56-2.048-3.584-1.024-0.512-2.56-0.512-3.584 0.512-34.816 33.28-84.992 46.592-117.76 47.616-28.672 1.024-54.784-7.168-80.896-16.384-22.016-7.68-138.24-69.632-166.912-84.992v-24.064c5.632-3.072 9.216-8.704 8.704-14.848 0-6.144-3.584-11.776-8.704-14.848v-12.288c2.56-2.048 4.096-5.12 4.096-8.704s-1.536-6.656-4.096-8.704v-18.432c0-4.096-3.072-7.168-7.168-7.168s-7.68 2.56-7.68 6.144v18.432c-2.56 2.048-4.096 5.12-4.096 8.704s1.536 6.656 4.096 8.704v12.288c-5.632 3.072-9.216 8.704-9.216 14.848 0 6.656 3.584 12.288 9.216 14.848v24.064c-28.672 15.36-145.408 77.312-166.912 84.992-26.112 9.216-52.224 17.408-80.896 16.384-32.768-1.024-82.944-14.336-117.76-47.616-1.024-1.024-2.56-1.024-3.584-0.512-1.024 0.512-2.048 2.048-2.048 3.584V281.6c0 1.536 0.512 2.56 1.536 3.072 4.608 2.56 113.152 67.584 142.336 75.264 11.776 3.072 24.576 5.12 39.424 5.12v70.656c-16.896 9.216-30.208 15.872-36.352 18.432-28.672 10.752-56.32 20.992-87.04 19.456-35.328-1.024-89.6-16.896-126.976-56.32-1.024-1.024-2.56-1.536-4.096-0.512-1.536 0.512-2.048 2.048-2.048 4.096v40.96c0 1.536 0.512 3.072 2.048 3.584 5.12 3.072 122.368 79.872 153.6 89.088 13.824 4.096 28.672 6.144 46.08 6.144H280.576v75.776c-17.92 9.216-31.744 16.384-38.4 18.432-30.72 11.264-60.928 21.504-94.208 19.968-37.888-1.536-96.256-17.408-136.704-57.856-1.024-1.024-2.56-1.536-4.096-0.512-1.536 0.512-2.048 2.56-2.048 4.096v41.984c0 1.536 1.024 3.072 2.048 4.096 5.12 3.584 131.584 81.92 165.376 91.648 14.848 4.096 31.232 6.144 49.664 6.144h12.288c4.096 0 7.168-0.512 8.192 0 0.512 0 1.024 0.512 8.704 0.512v120.32h182.272v-176.64h162.816V890.88h182.272v-125.44c7.168 0 8.192-0.512 8.704-0.512 1.024-0.512 4.096 0 8.192 0h12.288c18.432 0 34.816-2.048 49.664-6.144 33.792-9.728 159.744-88.576 165.376-91.648 1.024-1.024 2.048-2.048 2.048-4.096v-41.984c-1.024-1.536-2.048-3.072-3.072-3.584z" p-id="20487"></path></svg>