<?xml version="1.0" standalone="no"?><!DOCTYPE svg PUBLIC "-//W3C//DTD SVG 1.1//EN" "http://www.w3.org/Graphics/SVG/1.1/DTD/svg11.dtd"><svg t="1784388011291" class="icon" viewBox="0 0 1024 1024" version="1.1" xmlns="http://www.w3.org/2000/svg" p-id="19127" xmlns:xlink="http://www.w3.org/1999/xlink" width="200" height="200"><path d="M829.44 788.48H194.56v66.56h629.76l5.12-66.56z m-445.44 46.08H256v-30.72h122.88v30.72z m384 0h-122.88v-30.72H768v30.72zM890.88 51.2H133.12c-30.72 0-56.32 15.36-56.32 30.72v860.16c0 15.36 25.6 30.72 56.32 30.72h46.08l30.72-40.96h619.52l20.48 40.96h40.96c30.72 0 56.32-15.36 56.32-30.72V81.92c0-15.36-25.6-30.72-56.32-30.72zM153.6 102.4h332.8v220.16h-40.96V133.12H199.68v542.72h245.76V399.36h40.96v307.2H153.6V102.4z m716.8 778.24H153.6v-122.88h716.8v122.88z m0-168.96h-332.8V102.4H870.4v609.28z m-291.84-30.72h245.76V133.12h-245.76v189.44h-40.96v76.8h40.96v281.6z" fill="#707070" p-id="19128"></path></svg>