<?xml version="1.0" standalone="no"?><!DOCTYPE svg PUBLIC "-//W3C//DTD SVG 1.1//EN" "http://www.w3.org/Graphics/SVG/1.1/DTD/svg11.dtd"><svg t="1784391689790" class="icon" viewBox="0 0 1237 1024" version="1.1" xmlns="http://www.w3.org/2000/svg" p-id="36865" xmlns:xlink="http://www.w3.org/1999/xlink" width="241.6015625" height="200"><path d="M1145.32074 557.588474s93.367611-28.833488 91.576181-103.049862c-1.748777-74.259028-63.425143-67.263921-97.760879-65.515144-34.335736 1.706124-151.546424-54.169423-132.181922-87.353526 19.449808-33.184103 11.473681-40.17921-13.222458-47.174316-24.610832-6.952453-87.609444-65.515144-99.509656-91.704141-11.900212-26.188997-74.216374-7.421637-97.803533-30.539612-23.587158-23.160627-89.400874-71.870455-97.590267-111.58048-8.104087-39.752679-58.562691-17.487766-18.682053 34.719614 39.837985 52.164728 117.168035 97.803533 101.301086 122.243753-15.866949 24.482873-53.742892-58.520038-269.567521 3.4549-215.824629 62.060244-223.758104 264.705069-223.758103 264.705069s-13.222458-83.855973 4.393268-120.580282c0 0-116.016401 188.953183 18.127562 467.093975 134.101311 278.183445 462.274176 113.755788 478.141126 215.184833 15.866949 101.514351 411.175776-299.126112 324.717964-278.098139 0 0-105.566395-110.258234-333.547154-87.481485-227.895453 22.734096-220.089938 50.586563-298.912846-18.810012 0 0 53.742892 37.534718 133.077637 12.241436 0 0-101.386392-65.515144-105.77966-151.119893 0 0 42.311864 20.942667 101.301086 13.94756 0 0-93.367611-28.790835-81.040869-93.410265 0 0 85.732708 87.097607 135.636822 83.173523 49.904114-3.966737 73.704537-34.676961 73.704538-34.676961s41.501455-27.596548 85.220871 34.207777c0 0 28.278998-19.74838 57.837588 6.142045 29.601244 25.847772 52.079421 38.131861 38.430433 51.055747-13.691641 12.966539-40.477781 20.132258-41.586761 20.302871l72.936782-11.303069-57.666976 46.065336 75.069436-22.904709c6.312657-1.962042 14.075519-5.033064 38.984923 8.70123 24.909404 13.776948 91.405569 60.268814 115.205993-47.131663 0 0-40.520434 52.377993-104.798639 4.350615-64.320858-48.070031-164.768882-149.371117-201.74911-144.16744 0 0 32.58696-76.860866 82.746992-45.382886 50.287992 31.435326 176.242563 177.30889 237.023214 158.115 60.780651-19.236543 9.724904 46.278601 9.724905 46.278601z m-275.794872-295.457946c56.984527 19.321849 86.457811 25.719813 65.173919 52.761871-14.331438 18.255522-49.477583-15.269806-65.173919-52.761871zM765.153759 163.6872c-25.165322-37.70533-47.558194-60.865958-159.010715-55.022485-111.452521 5.758167-110.386194-27.809814-125.101509-74.259027-10.151435 89.870058 41.458802 103.902924 125.741306 97.888838 84.282503-5.971432 102.111495 2.388573 158.370918 31.392674z m-139.091722-14.07552s-201.450538-41.800027-281.595692 34.122471C264.278538 259.741955 202.602172 348.417727 0 252.746849c101.557004 87.225567 253.146082 82.107196 327.746334 24.482873 74.642905-57.624323 101.045167-111.964358 298.315703-127.618042z" fill="#2c2c2c" p-id="36866"></path></svg>