<?xml version="1.0" standalone="no"?><!DOCTYPE svg PUBLIC "-//W3C//DTD SVG 1.1//EN" "http://www.w3.org/Graphics/SVG/1.1/DTD/svg11.dtd"><svg t="1784478082990" class="icon" viewBox="0 0 1024 1024" version="1.1" xmlns="http://www.w3.org/2000/svg" p-id="7331" xmlns:xlink="http://www.w3.org/1999/xlink" width="200" height="200"><path d="M943.5 290.2c4 7.8 7.9 15.7 11.5 23.7-3.6-8.1-7.5-15.9-11.5-23.7z" fill="#FFF458" p-id="7332"></path><path d="M955.6 315l-0.6-1.2c0.2 0.5 0.4 0.9 0.6 1.2zM939.8 283.2c1.3 2.3 2.5 4.7 3.7 7-1.2-2.4-2.5-4.7-3.7-7z" fill="#FFFFFF" opacity=".8" p-id="7333"></path><path d="M191.9 785.5c-9.3-10.8-18-22.1-26.1-33.9l-46.9 46.9c-24.6-33.6-44.9-70.6-60.2-110l51.2-51.2c-12.3-39.6-19-81.7-19-125.3C90.9 279.4 279.4 90.9 512 90.9h1.8c43.1 0 84.7 6.6 123.8 18.6l50.8-50.8c39.4 15.3 76.4 35.6 110.1 60.1L752.3 165c11.8 8.1 23.1 16.8 34 26l45.6-45.6c14.2 12.4 27.8 25.5 40.5 39.5-89-98-217.5-159.6-360.4-159.6C243.2 25.3 25.3 243.2 25.3 512c0 131.9 52.6 251.5 137.8 339.2-6.1-6.3-12-12.7-17.7-19.3l46.5-46.4zM181.4 869c-5.4-5.1-10.8-10.2-16-15.5 5.2 5.3 10.5 10.4 16 15.5z" fill="#FFF458" p-id="7334"></path><path d="M530.4 107.5c-232.6 0-421.1 188.5-421.1 421.1 0 33.7 4 66.4 11.5 97.7L628.1 119c-31.3-7.5-64-11.5-97.7-11.5z" fill="#FBDA30" p-id="7335"></path><path d="M92.7 512c0-232.3 188.1-420.6 420.2-421.1h-0.9C279.4 90.9 90.9 279.4 90.9 512c0 43.6 6.6 85.7 19 125.3l1.5-1.5C99.3 596.7 92.7 555.1 92.7 512zM170.4 746.9c7.5 12.3 15.6 24.3 24.3 35.7L784.4 193c-11.5-8.7-23.4-16.8-35.7-24.3L170.4 746.9zM166.9 750.5l-1.1 1.1c8.1 11.7 16.9 23 26.1 33.9l1-1c-9.2-10.9-17.9-22.3-26-34z" fill="#FBDA30" p-id="7336"></path><path d="M785.5 191.9l0.8-0.8c-10.9-9.2-22.2-17.9-34-26l-0.7 0.7c11.7 8.1 23 16.8 33.9 26.1zM637.6 109.5c-39.2-12.1-80.7-18.6-123.8-18.6h-0.9c43.3 0.1 85.1 6.7 124.4 18.9l0.3-0.3zM166.9 750.5c8.1 11.8 16.8 23.1 26 34l1.8-1.8c-8.7-11.5-16.8-23.4-24.3-35.7l-3.5 3.5z" fill="#EFC00F" p-id="7337"></path><path d="M92.7 512c0 43.1 6.6 84.7 18.6 123.8l9.5-9.5c-7.5-31.4-11.5-64.1-11.5-97.7 0-232.6 188.5-421.1 421.1-421.1 33.7 0 66.4 4 97.7 11.5l9.2-9.2C598 97.6 556.2 91 512.9 90.9 280.7 91.4 92.7 279.7 92.7 512zM751.6 165.7l-2.9 2.9c12.3 7.5 24.3 15.6 35.7 24.3l1.1-1.1c-10.9-9.2-22.2-17.9-33.9-26.1z" fill="#EFC00F" p-id="7338"></path><path d="M798.5 118.8C764.8 94.3 727.9 74 688.4 58.7l-50.8 50.8c41.3 12.7 79.8 31.6 114.6 55.6l46.3-46.3z" fill="#FFF458" p-id="7339"></path><path d="M798.5 118.8C764.8 94.3 727.9 74 688.4 58.7l-50.8 50.8c41.3 12.7 79.8 31.6 114.6 55.6l46.3-46.3z" fill="#FFF889" p-id="7340"></path><path d="M58.7 688.5c15.3 39.4 35.6 76.4 60.1 110.1l46.9-46.9c-24-34.7-43.1-73.1-55.9-114.3l-51.1 51.1z" fill="#FFF458" p-id="7341"></path><path d="M58.7 688.5c15.3 39.4 35.6 76.4 60.1 110.1l46.9-46.9c-24-34.7-43.1-73.1-55.9-114.3l-51.1 51.1z" fill="#FFF889" p-id="7342"></path><path d="M111.3 635.8l-1.5 1.5c12.8 41.2 31.9 79.6 55.9 114.3l1.1-1.1c-23.9-34.8-42.8-73.4-55.5-114.7z" fill="#FBDA30" p-id="7343"></path><path d="M111.3 635.8l-1.5 1.5c12.8 41.2 31.9 79.6 55.9 114.3l1.1-1.1c-23.9-34.8-42.8-73.4-55.5-114.7z" fill="#FFFFFF" opacity=".8" p-id="7344"></path><path d="M748.7 168.6c-36.9-22.4-77.4-39.4-120.6-49.7L120.8 626.3c10.3 43.2 27.2 83.7 49.6 120.6l578.3-578.3z" fill="#FBDA30" p-id="7345"></path><path d="M748.7 168.6c-36.9-22.4-77.4-39.4-120.6-49.7L120.8 626.3c10.3 43.2 27.2 83.7 49.6 120.6l578.3-578.3z" fill="#FDE862" p-id="7346"></path><path d="M751.6 165.7l0.7-0.7c-34.8-24-73.4-42.9-114.6-55.6l-0.3 0.3c41.1 13 79.5 32 114.2 56z" fill="#EFC00F" p-id="7347"></path><path d="M751.6 165.7l0.7-0.7c-34.8-24-73.4-42.9-114.6-55.6l-0.3 0.3c41.1 13 79.5 32 114.2 56z" fill="#FFFFFF" opacity=".8" p-id="7348"></path><path d="M120.8 626.3l-9.5 9.5c12.7 41.3 31.6 79.8 55.6 114.6l3.6-3.6c-22.5-36.8-39.4-77.3-49.7-120.5z" fill="#EFC00F" p-id="7349"></path><path d="M120.8 626.3l-9.5 9.5c12.7 41.3 31.6 79.8 55.6 114.6l3.6-3.6c-22.5-36.8-39.4-77.3-49.7-120.5z" fill="#F5D82B" p-id="7350"></path><path d="M751.6 165.7c-34.7-24-73.1-43.1-114.3-55.9l-9.2 9.2c43.2 10.3 83.7 27.2 120.6 49.7l2.9-3z" fill="#EFC00F" p-id="7351"></path><path d="M751.6 165.7c-34.7-24-73.1-43.1-114.3-55.9l-9.2 9.2c43.2 10.3 83.7 27.2 120.6 49.7l2.9-3z" fill="#F5D82B" p-id="7352"></path><path d="M872.5 185c-0.1 0-0.1 0 0 0-0.1 0-0.1 0 0 0zM165.3 853.5c-0.7-0.7-1.4-1.5-2.2-2.3 0.8 0.7 1.5 1.5 2.2 2.3zM185 872.5c-1.2-1.2-2.4-2.4-3.6-3.5 1.2 1.1 2.4 2.4 3.6 3.5z" fill="#FFFFFF" opacity=".8" p-id="7353"></path><path d="M191.9 785.5l-46.4 46.4c5.7 6.6 11.7 13 17.7 19.3 0.7 0.8 1.4 1.5 2.2 2.3 5.2 5.3 10.6 10.5 16 15.5 1.2 1.1 2.4 2.3 3.7 3.5l46.4-46.4c-14.1-12.7-27.3-26.3-39.6-40.6z" fill="#FFF458" p-id="7354"></path><path d="M191.9 785.5l-46.4 46.4c5.7 6.6 11.7 13 17.7 19.3 0.7 0.8 1.4 1.5 2.2 2.3 5.2 5.3 10.6 10.5 16 15.5 1.2 1.1 2.4 2.3 3.7 3.5l46.4-46.4c-14.1-12.7-27.3-26.3-39.6-40.6z" fill="#FFF889" p-id="7355"></path><path d="M831.9 145.5l-45.6 45.6c11.7 9.9 22.9 20.5 33.4 31.6-5.2-5-10.6-9.7-16.1-14.4 7.8 7.5 15.3 15.2 22.5 23.2l46.4-46.4v-0.1c-12.8-14-26.4-27.1-40.6-39.5z" fill="#FFF458" p-id="7356"></path><path d="M831.9 145.5l-45.6 45.6c11.7 9.9 22.9 20.5 33.4 31.6-5.2-5-10.6-9.7-16.1-14.4 7.8 7.5 15.3 15.2 22.5 23.2l46.4-46.4v-0.1c-12.8-14-26.4-27.1-40.6-39.5z" fill="#FFF889" p-id="7357"></path><path d="M803.6 208.3c-6.2-5.3-12.6-10.4-19.2-15.3L194.8 782.6c9.3 12.3 19.2 24.1 29.8 35.3a415.73 415.73 0 0 1-31.6-33.4l-1 1c12.3 14.4 25.5 27.9 39.6 40.5L826 231.5c-7.2-8-14.7-15.7-22.4-23.2z" fill="#FBDA30" p-id="7358"></path><path d="M803.6 208.3c-6.2-5.3-12.6-10.4-19.2-15.3L194.8 782.6c9.3 12.3 19.2 24.1 29.8 35.3a415.73 415.73 0 0 1-31.6-33.4l-1 1c12.3 14.4 25.5 27.9 39.6 40.5L826 231.5c-7.2-8-14.7-15.7-22.4-23.2z" fill="#FDE862" p-id="7359"></path><path d="M803.6 208.3c5.5 4.7 10.9 9.5 16.1 14.4-10.5-11.1-21.8-21.7-33.4-31.6l-0.8 0.8c6.2 5.3 12.2 10.8 18.1 16.4z" fill="#EFC00F" p-id="7360"></path><path d="M803.6 208.3c5.5 4.7 10.9 9.5 16.1 14.4-10.5-11.1-21.8-21.7-33.4-31.6l-0.8 0.8c6.2 5.3 12.2 10.8 18.1 16.4z" fill="#FFFFFF" opacity=".8" p-id="7361"></path><path d="M224.5 817.9c-10.6-11.2-20.5-23-29.8-35.3l-1.8 1.8c10 11.7 20.5 22.9 31.6 33.5z" fill="#EFC00F" p-id="7362"></path><path d="M224.5 817.9c-10.6-11.2-20.5-23-29.8-35.3l-1.8 1.8c10 11.7 20.5 22.9 31.6 33.5z" fill="#F5D82B" p-id="7363"></path><path d="M784.4 193c6.5 4.9 12.9 10 19.2 15.3-5.9-5.6-11.9-11.1-18.1-16.4l-1.1 1.1z" fill="#EFC00F" p-id="7364"></path><path d="M784.4 193c6.5 4.9 12.9 10 19.2 15.3-5.9-5.6-11.9-11.1-18.1-16.4l-1.1 1.1z" fill="#F5D82B" p-id="7365"></path><path d="M930.2 263.2c3.8 6.3 7.4 12.7 10.9 19.2-3.5-6.4-7.1-12.9-10.9-19.2zM257.4 926.7c-7.5-4.6-15-9.5-22.2-14.5 7.2 5.1 14.6 9.9 22.2 14.5zM894 210.7c6 7.6 11.8 15.4 17.4 23.3-5.5-8-11.4-15.7-17.4-23.3zM280.7 940.2c-5.2-2.8-10.3-5.7-15.4-8.7 5.1 2.9 10.2 5.9 15.4 8.7zM231.4 909.5c-6.5-4.6-13-9.4-19.3-14.4 6.3 5 12.7 9.8 19.3 14.4zM911.6 234.3c5.5 7.9 10.7 15.9 15.7 24.1-5-8.2-10.2-16.3-15.7-24.1zM231.5 826L185 872.5c8 7.2 16.2 14.1 24.7 20.8l46.7-46.7c-8.5-6.6-16.9-13.4-24.9-20.6zM893.2 209.7c-6.7-8.4-13.6-16.7-20.8-24.7L826 231.5c7.2 8 14 16.4 20.5 24.9l46.7-46.7zM956.9 314.5l-50.3 50.3c17.1 45.8 26.6 95.4 26.6 147.2 0 232.6-188.5 421.1-421.1 421.1-51.8 0-101.4-9.4-147.2-26.6l-50.3 50.3c60.4 26.8 127.2 41.8 197.5 41.8 268.8 0 486.7-217.9 486.7-486.7-0.1-70.2-15.1-137-41.9-197.4zM307.3 953.5c-5.6-2.6-11.2-5.3-16.7-8.1 5.5 2.9 11.1 5.5 16.7 8.1z" fill="#FFF458" p-id="7366"></path><path d="M512 933.1c232.6 0 421.1-188.5 421.1-421.1 0-51.8-9.4-101.4-26.6-147.2L364.8 906.6c45.8 17.1 95.4 26.5 147.2 26.5zM846.5 256.4c-6.5-8.6-13.3-16.9-20.5-24.9L231.5 826c8 7.2 16.4 14 24.9 20.5l590.1-590.1z" fill="#FBDA30" p-id="7367"></path><path d="M290.6 945.4c-3.3-1.7-6.6-3.5-9.9-5.3 3.3 1.8 6.6 3.6 9.9 5.3zM209.6 893.3c0.8 0.6 1.7 1.2 2.5 1.8-0.8-0.6-1.6-1.2-2.5-1.8zM265.3 931.5c-2.7-1.6-5.3-3.1-8-4.7 2.7 1.6 5.4 3.1 8 4.7zM235.2 912.2c-1.3-0.9-2.5-1.8-3.8-2.7 1.2 0.9 2.5 1.9 3.8 2.7zM314.4 957c-2.3-1.2-4.7-2.3-7.1-3.4 2.4 1 4.7 2.3 7.1 3.4zM893.3 209.7c0.2 0.4 0.5 0.7 0.8 1-0.3-0.3-0.6-0.7-0.8-1zM927.3 258.4c1 1.6 1.9 3.2 2.9 4.8-1-1.6-1.9-3.2-2.9-4.8zM911.4 234c0.1 0.1 0.1 0.2 0.2 0.3-0.1-0.1-0.1-0.2-0.2-0.3z" fill="#FFFFFF" opacity=".8" p-id="7368"></path><path d="M256.4 846.5l-46.7 46.7c0.8 0.6 1.6 1.3 2.4 1.9 6.3 4.9 12.7 9.7 19.3 14.4 1.3 0.9 2.5 1.8 3.8 2.7 7.3 5 14.7 9.9 22.2 14.5 2.6 1.6 5.3 3.2 8 4.7 5.1 3 10.2 5.9 15.4 8.7 3.3 1.8 6.6 3.6 9.9 5.3 5.5 2.8 11.1 5.5 16.7 8.1 2.4 1.1 4.8 2.3 7.2 3.4l50.3-50.3c-39.3-14.7-75.8-35-108.5-60.1z" fill="#FFF458" p-id="7369"></path><path d="M256.4 846.5l-46.7 46.7c0.8 0.6 1.6 1.3 2.4 1.9 6.3 4.9 12.7 9.7 19.3 14.4 1.3 0.9 2.5 1.8 3.8 2.7 7.3 5 14.7 9.9 22.2 14.5 2.6 1.6 5.3 3.2 8 4.7 5.1 3 10.2 5.9 15.4 8.7 3.3 1.8 6.6 3.6 9.9 5.3 5.5 2.8 11.1 5.5 16.7 8.1 2.4 1.1 4.8 2.3 7.2 3.4l50.3-50.3c-39.3-14.7-75.8-35-108.5-60.1z" fill="#FFF889" p-id="7370"></path><path d="M906.6 364.8l50.3-50.3c-0.2-0.4-0.3-0.8-0.5-1.2-3.6-8-7.5-15.9-11.5-23.8-1.2-2.4-2.5-4.7-3.8-7-3.5-6.5-7.1-12.9-10.9-19.2-1-1.6-1.9-3.2-2.9-4.8-5-8.2-10.2-16.2-15.7-24.1-0.1-0.1-0.1-0.2-0.2-0.3-5.6-7.9-11.4-15.7-17.4-23.3-0.3-0.3-0.5-0.7-0.8-1l-46.7 46.7c25.1 32.6 45.4 69.1 60.1 108.3z" fill="#FFF458" p-id="7371"></path><path d="M906.6 364.8l50.3-50.3c-0.2-0.4-0.3-0.8-0.5-1.2-3.6-8-7.5-15.9-11.5-23.8-1.2-2.4-2.5-4.7-3.8-7-3.5-6.5-7.1-12.9-10.9-19.2-1-1.6-1.9-3.2-2.9-4.8-5-8.2-10.2-16.2-15.7-24.1-0.1-0.1-0.1-0.2-0.2-0.3-5.6-7.9-11.4-15.7-17.4-23.3-0.3-0.3-0.5-0.7-0.8-1l-46.7 46.7c25.1 32.6 45.4 69.1 60.1 108.3z" fill="#FFF889" p-id="7372"></path><path d="M256.4 846.5c32.7 25 69.2 45.4 108.4 60l541.7-541.7c-14.7-39.2-35-75.7-60-108.4L256.4 846.5z" fill="#FBDA30" p-id="7373"></path><path d="M256.4 846.5c32.7 25 69.2 45.4 108.4 60l541.7-541.7c-14.7-39.2-35-75.7-60-108.4L256.4 846.5z" fill="#FDE862" p-id="7374"></path><path d="M314.3 312.4h69.1l123.6 181 123.6-181h69.1L557.2 515h104v34.9H537.6v68.4h123.6v34.9H537.6v97.6h-61.4v-97.6H353.3v-34.9h122.8v-68.4H353.3V515h103.3L314.3 312.4z" fill="#F48301" p-id="7375"></path><path d="M302.3 312.4h69.1l123.6 181 123.6-181h69.1L545.2 515h104v34.9H525.6v68.4h123.6v34.9H525.6v97.6h-61.4v-97.6H341.3v-34.9h122.8v-68.4H341.3V515h103.3L302.3 312.4z" fill="#F7BF0D" p-id="7376"></path></svg>